<svg width="76" height="158" viewBox="0 0 76 158" fill="none" xmlns="http://www.w3.org/2000/svg">
<path d="M76 0H0V158L39.2128 130.418L76 158V0Z" fill="white"/>
<mask id="path-2-outside-1_120_1563" maskUnits="userSpaceOnUse" x="2" y="12" width="72" height="19" fill="black">
<rect fill="white" x="2" y="12" width="72" height="19"/>
<path d="M18.7732 15.6562H19.7164L19.9653 13.6787H20.3183L20.0666 15.6562H21.2876L21.5335 13.6787H21.8866L21.6377 15.6562H22.2107V16.2519H21.5683L21.3455 18.0634H22.2107V18.664H21.276L21.033 20.6269H20.6742L20.923 18.664H19.6962L19.4589 20.6269H19.1001L19.3461 18.664H18.7732V18.0634H19.4213L19.6441 16.2519H18.7732V15.6562ZM19.9971 16.2519L19.7714 18.0537H20.9954L21.2181 16.2519H19.9971ZM24.739 13H25.1615V19.7578H25.8674V20.4023H23.9433V19.7578H24.739V13.83C24.3416 13.9798 24.0764 14.0563 23.9433 14.0595V13.5175C24.2828 13.4329 24.548 13.2604 24.739 13ZM30.4352 13H31.7778C32.1616 13 32.4703 13.0765 32.7038 13.2294C32.9371 13.3824 33.1204 13.6217 33.2535 13.9472C33.3885 14.2695 33.456 14.6259 33.456 15.0166C33.456 15.443 33.3759 15.8222 33.2158 16.1543C33.0576 16.483 32.8165 16.7304 32.4924 16.8964L33.5573 20.4023H33.1001L32.0672 17.0429H30.8605V20.4023H30.4352V13ZM30.8605 13.6396V16.4082H31.7952C32.0227 16.4082 32.2484 16.3447 32.4722 16.2177C32.6342 16.1266 32.7587 15.9736 32.8455 15.7587C32.9342 15.5406 32.9786 15.2884 32.9786 15.0019C32.9786 14.6048 32.8928 14.2793 32.721 14.0253C32.5513 13.7682 32.2947 13.6396 31.9513 13.6396H30.8605ZM35.9584 13H36.6412L38.0475 20.4023H37.6192L37.1765 18.1074H35.4085L34.9659 20.4023H34.5347L35.9584 13ZM36.2998 13.4882L35.5445 17.3896H37.0405L36.2998 13.4882ZM39.3866 13H40.0521L42.2222 19.0498V13H42.6447V20.4023H42.2222L39.8119 13.6445V20.4023H39.3866V13ZM44.4873 13H44.9126V16.8134L46.9612 13H47.5139L46.0034 15.8076L47.7193 20.4023H47.2361L45.7199 16.3398L44.9126 17.8339V20.4023H44.4873V13ZM49.0411 13H51.625V13.7031H49.4664V16.1201H51.0723V16.833H49.4664V19.6894H51.8333V20.4023H49.0411V13ZM53.3316 13H54.5903C55.2288 13 55.7332 13.3206 56.1036 13.9619C56.4758 14.6031 56.6621 15.4934 56.6621 16.6328C56.6621 17.2155 56.6167 17.7509 56.5261 18.2392C56.4585 18.6071 56.363 18.9244 56.2396 19.1914C56.1161 19.4583 55.9763 19.6813 55.82 19.8603C55.7062 19.9873 55.5712 20.0963 55.4149 20.1875C55.1603 20.3307 54.8353 20.4023 54.4398 20.4023H53.3316V13ZM53.7512 13.6445V19.748H54.6799C55.0465 19.748 55.3696 19.5494 55.6493 19.1523C56.0042 18.6543 56.1817 17.8388 56.1817 16.706C56.1817 15.5504 55.9994 14.7187 55.6348 14.2109C55.3648 13.8333 55.0243 13.6445 54.6134 13.6445H53.7512ZM3 23H4.45252C4.96179 23 5.34952 23.1969 5.61572 23.5908C5.88386 23.9847 6.01791 24.4502 6.01791 24.9873C6.01791 25.2998 5.98224 25.5765 5.91088 25.8173C5.83948 26.055 5.7334 26.2666 5.5926 26.4521C5.4537 26.6377 5.28778 26.7858 5.09489 26.8964C4.902 27.0039 4.66283 27.0576 4.37732 27.0576H3.42245V30.4023H3V23ZM3.41666 23.6396V26.413H4.3455C4.77566 26.413 5.08138 26.2845 5.26271 26.0273C5.44404 25.7701 5.53471 25.4332 5.53471 25.0166C5.53471 24.5413 5.41418 24.1783 5.17305 23.9277C4.98786 23.7356 4.69174 23.6396 4.2847 23.6396H3.41666ZM7.59432 23H8.93687C9.32078 23 9.62938 23.0765 9.86282 23.2294C10.0963 23.3824 10.2795 23.6217 10.4126 23.9472C10.5476 24.2695 10.6152 24.6259 10.6152 25.0166C10.6152 25.443 10.5352 25.8222 10.375 26.1543C10.2169 26.483 9.97568 26.7304 9.65159 26.8964L10.7164 30.4023H10.2593L9.22623 27.0429H8.01968V30.4023H7.59432V23ZM8.01968 23.6396V26.4082H8.95423C9.18189 26.4082 9.40759 26.3447 9.63134 26.2177C9.79338 26.1266 9.9178 25.9736 10.0046 25.7587C10.0934 25.5406 10.1377 25.2884 10.1377 25.0019C10.1377 24.6048 10.0518 24.2793 9.88019 24.0253C9.71048 23.7682 9.45389 23.6396 9.11057 23.6396H8.01968ZM12.3101 23H12.7355V30.4023H12.3101V23ZM14.228 23H14.6592L15.9294 29.2304L17.1939 23H17.6221L16.1204 30.4023H15.7297L14.228 23ZM19.6788 23H20.3616L21.7679 30.4023H21.3397L20.897 28.1074H19.129L18.6863 30.4023H18.2552L19.6788 23ZM20.0203 23.4882L19.265 27.3896H20.761L20.0203 23.4882ZM22.184 23H25.3987V23.708H24.0099V30.4023H23.5845V23.708H22.184V23ZM26.8276 23H29.4114V23.7031H27.2529V26.1201H28.8588V26.833H27.2529V29.6894H29.6198V30.4023H26.8276V23ZM33.5683 23H35.0758C35.5928 23 35.9844 23.1888 36.2506 23.5664C36.5168 23.944 36.6499 24.3785 36.6499 24.8701C36.6499 25.2086 36.5843 25.5309 36.4531 25.8369C36.322 26.1396 36.1213 26.387 35.8512 26.5791C36.1599 26.7776 36.3895 27.0429 36.5399 27.375C36.6904 27.7037 36.7656 28.0488 36.7656 28.4101C36.7656 28.9179 36.6248 29.3769 36.3432 29.7871C36.0616 30.1972 35.6661 30.4023 35.1568 30.4023H33.5683V23ZM33.9907 23.6543V26.2861H34.7865C35.3112 26.2861 35.6738 26.1575 35.8745 25.9003C36.077 25.6399 36.1782 25.3225 36.1782 24.9482C36.1782 24.5934 36.0885 24.289 35.9092 24.0351C35.7297 23.7812 35.4597 23.6543 35.099 23.6543H33.9907ZM33.9907 26.9209V29.748H35.1423C35.505 29.748 35.805 29.5852 36.0422 29.2597C36.2081 29.0319 36.2911 28.7242 36.2911 28.3369C36.2911 28.0667 36.2419 27.8225 36.1435 27.6044C36.0471 27.3863 35.8985 27.2187 35.6979 27.1015C35.4992 26.9811 35.2725 26.9209 35.0179 26.9209H33.9907ZM38.3478 23H39.6904C40.0742 23 40.3829 23.0765 40.6163 23.2294C40.8497 23.3824 41.033 23.6217 41.1661 23.9472C41.3011 24.2695 41.3686 24.6259 41.3686 25.0166C41.3686 25.443 41.2886 25.8222 41.1285 26.1543C40.9702 26.483 40.7291 26.7304 40.4051 26.8964L41.4699 30.4023H41.0128L39.9798 27.0429H38.7732V30.4023H38.3478V23ZM38.7732 23.6396V26.4082H39.7078C39.9353 26.4082 40.1611 26.3447 40.3849 26.2177C40.5468 26.1266 40.6713 25.9736 40.7581 25.7587C40.8468 25.5406 40.8913 25.2884 40.8913 25.0019C40.8913 24.6048 40.8054 24.2793 40.6336 24.0253C40.4639 23.7682 40.2073 23.6396 39.864 23.6396H38.7732ZM44.3166 30.5488C43.8092 30.5488 43.3907 30.2363 43.0608 29.6113C42.675 28.8756 42.4821 27.9267 42.4821 26.7646C42.4821 26.0289 42.5592 25.347 42.7135 24.7187C42.8697 24.0905 43.0907 23.6233 43.3761 23.3173C43.6636 23.0113 43.9781 22.8584 44.3194 22.8584C44.6165 22.8584 44.8798 22.9707 45.1094 23.1953C45.3389 23.4166 45.527 23.7063 45.6736 24.0644C45.8221 24.4192 45.934 24.8229 46.0093 25.2753C46.0844 25.7278 46.1221 26.2096 46.1221 26.7207C46.1221 27.2806 46.0816 27.7705 46.0005 28.1904C45.9195 28.6071 45.8212 28.957 45.7055 29.2402C45.5916 29.5201 45.4758 29.7415 45.3582 29.9043C45.2038 30.1224 45.0294 30.2851 44.8345 30.3925C44.6416 30.4967 44.469 30.5488 44.3166 30.5488ZM44.2731 29.8798C44.6512 29.8798 44.9743 29.6145 45.2425 29.0839C45.5125 28.5501 45.6475 27.7721 45.6475 26.75C45.6475 25.6692 45.5 24.8229 45.2049 24.2109C44.9734 23.7356 44.6715 23.498 44.2993 23.498C43.9365 23.498 43.6231 23.7682 43.3587 24.3085C43.0946 24.8457 42.9624 25.6497 42.9624 26.7207C42.9624 27.7753 43.0926 28.5664 43.353 29.0937C43.6134 29.6178 43.9201 29.8798 44.2731 29.8798ZM47.6869 23H48.1123V26.8134L50.1609 23H50.7135L49.2031 25.8076L50.919 30.4023H50.4358L48.9195 26.3398L48.1123 27.8339V30.4023H47.6869V23ZM52.2407 23H54.8247V23.7031H52.6661V26.1201H54.272V26.833H52.6661V29.6894H55.033V30.4023H52.2407V23ZM56.5284 23H57.871C58.255 23 58.5638 23.0765 58.7966 23.2294C59.0301 23.3824 59.2138 23.6217 59.3466 23.9472C59.4816 24.2695 59.5492 24.6259 59.5492 25.0166C59.5492 25.443 59.4692 25.8222 59.3092 26.1543C59.151 26.483 58.9098 26.7304 58.5856 26.8964L59.6506 30.4023H59.1931L58.1602 27.0429H56.9536V30.4023H56.5284V23ZM56.9536 23.6396V26.4082H57.8882C58.1158 26.4082 58.3415 26.3447 58.5655 26.2177C58.7273 26.1266 58.8518 25.9736 58.9388 25.7587C59.0272 25.5406 59.0716 25.2884 59.0716 25.0019C59.0716 24.6048 58.9856 24.2793 58.8144 24.0253C58.6444 23.7682 58.3878 23.6396 58.0446 23.6396H56.9536ZM62.0518 23H62.7344L64.1406 30.4023H63.7122L63.2695 28.1074H61.5018L61.0592 30.4023H60.6278L62.0518 23ZM62.3931 23.4882L61.6375 27.3896H63.1338L62.3931 23.4882ZM67.9794 29.4599C67.8141 29.818 67.6298 30.0898 67.4272 30.2753C67.2245 30.4576 66.988 30.5488 66.7184 30.5488C66.2165 30.5488 65.8106 30.2461 65.5 29.6406C65.1374 28.9407 64.956 27.9674 64.956 26.7207C64.956 25.4674 65.1296 24.5104 65.4769 23.8496C65.826 23.1888 66.2502 22.8584 66.7498 22.8584C67.0295 22.8584 67.2902 22.9609 67.5314 23.166C67.7726 23.3678 67.97 23.6526 68.1246 24.0205C68.2342 24.2841 68.3261 24.6455 68.3996 25.1044L67.9362 25.2607C67.8805 24.9319 67.8176 24.6731 67.7484 24.4843C67.6346 24.1751 67.4947 23.9358 67.3288 23.7666C67.1646 23.5973 66.9833 23.5127 66.7848 23.5127C66.4221 23.5127 66.1056 23.7828 65.8354 24.3232C65.5658 24.8603 65.4307 25.6399 65.4307 26.6621C65.4307 27.2806 65.4876 27.847 65.6014 28.3613C65.7169 28.8756 65.8799 29.2581 66.0902 29.5087C66.3006 29.7594 66.5264 29.8847 66.7676 29.8847C66.9602 29.8847 67.1427 29.8115 67.314 29.665C67.4858 29.5185 67.6209 29.3362 67.7193 29.1181C67.8194 28.8968 67.8882 28.6656 67.9249 28.4248C67.9616 28.1839 67.9794 27.8909 67.9794 27.5459H66.8861V26.833H68.3996V30.4023H67.9794V29.4599ZM70.1146 23H72.6982V23.7031H70.54V26.1201H72.146V26.833H70.54V29.6894H72.9068V30.4023H70.1146V23Z"/>
</mask>
<path d="M18.7732 15.6562H19.7164L19.9653 13.6787H20.3183L20.0666 15.6562H21.2876L21.5335 13.6787H21.8866L21.6377 15.6562H22.2107V16.2519H21.5683L21.3455 18.0634H22.2107V18.664H21.276L21.033 20.6269H20.6742L20.923 18.664H19.6962L19.4589 20.6269H19.1001L19.3461 18.664H18.7732V18.0634H19.4213L19.6441 16.2519H18.7732V15.6562ZM19.9971 16.2519L19.7714 18.0537H20.9954L21.2181 16.2519H19.9971ZM24.739 13H25.1615V19.7578H25.8674V20.4023H23.9433V19.7578H24.739V13.83C24.3416 13.9798 24.0764 14.0563 23.9433 14.0595V13.5175C24.2828 13.4329 24.548 13.2604 24.739 13ZM30.4352 13H31.7778C32.1616 13 32.4703 13.0765 32.7038 13.2294C32.9371 13.3824 33.1204 13.6217 33.2535 13.9472C33.3885 14.2695 33.456 14.6259 33.456 15.0166C33.456 15.443 33.3759 15.8222 33.2158 16.1543C33.0576 16.483 32.8165 16.7304 32.4924 16.8964L33.5573 20.4023H33.1001L32.0672 17.0429H30.8605V20.4023H30.4352V13ZM30.8605 13.6396V16.4082H31.7952C32.0227 16.4082 32.2484 16.3447 32.4722 16.2177C32.6342 16.1266 32.7587 15.9736 32.8455 15.7587C32.9342 15.5406 32.9786 15.2884 32.9786 15.0019C32.9786 14.6048 32.8928 14.2793 32.721 14.0253C32.5513 13.7682 32.2947 13.6396 31.9513 13.6396H30.8605ZM35.9584 13H36.6412L38.0475 20.4023H37.6192L37.1765 18.1074H35.4085L34.9659 20.4023H34.5347L35.9584 13ZM36.2998 13.4882L35.5445 17.3896H37.0405L36.2998 13.4882ZM39.3866 13H40.0521L42.2222 19.0498V13H42.6447V20.4023H42.2222L39.8119 13.6445V20.4023H39.3866V13ZM44.4873 13H44.9126V16.8134L46.9612 13H47.5139L46.0034 15.8076L47.7193 20.4023H47.2361L45.7199 16.3398L44.9126 17.8339V20.4023H44.4873V13ZM49.0411 13H51.625V13.7031H49.4664V16.1201H51.0723V16.833H49.4664V19.6894H51.8333V20.4023H49.0411V13ZM53.3316 13H54.5903C55.2288 13 55.7332 13.3206 56.1036 13.9619C56.4758 14.6031 56.6621 15.4934 56.6621 16.6328C56.6621 17.2155 56.6167 17.7509 56.5261 18.2392C56.4585 18.6071 56.363 18.9244 56.2396 19.1914C56.1161 19.4583 55.9763 19.6813 55.82 19.8603C55.7062 19.9873 55.5712 20.0963 55.4149 20.1875C55.1603 20.3307 54.8353 20.4023 54.4398 20.4023H53.3316V13ZM53.7512 13.6445V19.748H54.6799C55.0465 19.748 55.3696 19.5494 55.6493 19.1523C56.0042 18.6543 56.1817 17.8388 56.1817 16.706C56.1817 15.5504 55.9994 14.7187 55.6348 14.2109C55.3648 13.8333 55.0243 13.6445 54.6134 13.6445H53.7512ZM3 23H4.45252C4.96179 23 5.34952 23.1969 5.61572 23.5908C5.88386 23.9847 6.01791 24.4502 6.01791 24.9873C6.01791 25.2998 5.98224 25.5765 5.91088 25.8173C5.83948 26.055 5.7334 26.2666 5.5926 26.4521C5.4537 26.6377 5.28778 26.7858 5.09489 26.8964C4.902 27.0039 4.66283 27.0576 4.37732 27.0576H3.42245V30.4023H3V23ZM3.41666 23.6396V26.413H4.3455C4.77566 26.413 5.08138 26.2845 5.26271 26.0273C5.44404 25.7701 5.53471 25.4332 5.53471 25.0166C5.53471 24.5413 5.41418 24.1783 5.17305 23.9277C4.98786 23.7356 4.69174 23.6396 4.2847 23.6396H3.41666ZM7.59432 23H8.93687C9.32078 23 9.62938 23.0765 9.86282 23.2294C10.0963 23.3824 10.2795 23.6217 10.4126 23.9472C10.5476 24.2695 10.6152 24.6259 10.6152 25.0166C10.6152 25.443 10.5352 25.8222 10.375 26.1543C10.2169 26.483 9.97568 26.7304 9.65159 26.8964L10.7164 30.4023H10.2593L9.22623 27.0429H8.01968V30.4023H7.59432V23ZM8.01968 23.6396V26.4082H8.95423C9.18189 26.4082 9.40759 26.3447 9.63134 26.2177C9.79338 26.1266 9.9178 25.9736 10.0046 25.7587C10.0934 25.5406 10.1377 25.2884 10.1377 25.0019C10.1377 24.6048 10.0518 24.2793 9.88019 24.0253C9.71048 23.7682 9.45389 23.6396 9.11057 23.6396H8.01968ZM12.3101 23H12.7355V30.4023H12.3101V23ZM14.228 23H14.6592L15.9294 29.2304L17.1939 23H17.6221L16.1204 30.4023H15.7297L14.228 23ZM19.6788 23H20.3616L21.7679 30.4023H21.3397L20.897 28.1074H19.129L18.6863 30.4023H18.2552L19.6788 23ZM20.0203 23.4882L19.265 27.3896H20.761L20.0203 23.4882ZM22.184 23H25.3987V23.708H24.0099V30.4023H23.5845V23.708H22.184V23ZM26.8276 23H29.4114V23.7031H27.2529V26.1201H28.8588V26.833H27.2529V29.6894H29.6198V30.4023H26.8276V23ZM33.5683 23H35.0758C35.5928 23 35.9844 23.1888 36.2506 23.5664C36.5168 23.944 36.6499 24.3785 36.6499 24.8701C36.6499 25.2086 36.5843 25.5309 36.4531 25.8369C36.322 26.1396 36.1213 26.387 35.8512 26.5791C36.1599 26.7776 36.3895 27.0429 36.5399 27.375C36.6904 27.7037 36.7656 28.0488 36.7656 28.4101C36.7656 28.9179 36.6248 29.3769 36.3432 29.7871C36.0616 30.1972 35.6661 30.4023 35.1568 30.4023H33.5683V23ZM33.9907 23.6543V26.2861H34.7865C35.3112 26.2861 35.6738 26.1575 35.8745 25.9003C36.077 25.6399 36.1782 25.3225 36.1782 24.9482C36.1782 24.5934 36.0885 24.289 35.9092 24.0351C35.7297 23.7812 35.4597 23.6543 35.099 23.6543H33.9907ZM33.9907 26.9209V29.748H35.1423C35.505 29.748 35.805 29.5852 36.0422 29.2597C36.2081 29.0319 36.2911 28.7242 36.2911 28.3369C36.2911 28.0667 36.2419 27.8225 36.1435 27.6044C36.0471 27.3863 35.8985 27.2187 35.6979 27.1015C35.4992 26.9811 35.2725 26.9209 35.0179 26.9209H33.9907ZM38.3478 23H39.6904C40.0742 23 40.3829 23.0765 40.6163 23.2294C40.8497 23.3824 41.033 23.6217 41.1661 23.9472C41.3011 24.2695 41.3686 24.6259 41.3686 25.0166C41.3686 25.443 41.2886 25.8222 41.1285 26.1543C40.9702 26.483 40.7291 26.7304 40.4051 26.8964L41.4699 30.4023H41.0128L39.9798 27.0429H38.7732V30.4023H38.3478V23ZM38.7732 23.6396V26.4082H39.7078C39.9353 26.4082 40.1611 26.3447 40.3849 26.2177C40.5468 26.1266 40.6713 25.9736 40.7581 25.7587C40.8468 25.5406 40.8913 25.2884 40.8913 25.0019C40.8913 24.6048 40.8054 24.2793 40.6336 24.0253C40.4639 23.7682 40.2073 23.6396 39.864 23.6396H38.7732ZM44.3166 30.5488C43.8092 30.5488 43.3907 30.2363 43.0608 29.6113C42.675 28.8756 42.4821 27.9267 42.4821 26.7646C42.4821 26.0289 42.5592 25.347 42.7135 24.7187C42.8697 24.0905 43.0907 23.6233 43.3761 23.3173C43.6636 23.0113 43.9781 22.8584 44.3194 22.8584C44.6165 22.8584 44.8798 22.9707 45.1094 23.1953C45.3389 23.4166 45.527 23.7063 45.6736 24.0644C45.8221 24.4192 45.934 24.8229 46.0093 25.2753C46.0844 25.7278 46.1221 26.2096 46.1221 26.7207C46.1221 27.2806 46.0816 27.7705 46.0005 28.1904C45.9195 28.6071 45.8212 28.957 45.7055 29.2402C45.5916 29.5201 45.4758 29.7415 45.3582 29.9043C45.2038 30.1224 45.0294 30.2851 44.8345 30.3925C44.6416 30.4967 44.469 30.5488 44.3166 30.5488ZM44.2731 29.8798C44.6512 29.8798 44.9743 29.6145 45.2425 29.0839C45.5125 28.5501 45.6475 27.7721 45.6475 26.75C45.6475 25.6692 45.5 24.8229 45.2049 24.2109C44.9734 23.7356 44.6715 23.498 44.2993 23.498C43.9365 23.498 43.6231 23.7682 43.3587 24.3085C43.0946 24.8457 42.9624 25.6497 42.9624 26.7207C42.9624 27.7753 43.0926 28.5664 43.353 29.0937C43.6134 29.6178 43.9201 29.8798 44.2731 29.8798ZM47.6869 23H48.1123V26.8134L50.1609 23H50.7135L49.2031 25.8076L50.919 30.4023H50.4358L48.9195 26.3398L48.1123 27.8339V30.4023H47.6869V23ZM52.2407 23H54.8247V23.7031H52.6661V26.1201H54.272V26.833H52.6661V29.6894H55.033V30.4023H52.2407V23ZM56.5284 23H57.871C58.255 23 58.5638 23.0765 58.7966 23.2294C59.0301 23.3824 59.2138 23.6217 59.3466 23.9472C59.4816 24.2695 59.5492 24.6259 59.5492 25.0166C59.5492 25.443 59.4692 25.8222 59.3092 26.1543C59.151 26.483 58.9098 26.7304 58.5856 26.8964L59.6506 30.4023H59.1931L58.1602 27.0429H56.9536V30.4023H56.5284V23ZM56.9536 23.6396V26.4082H57.8882C58.1158 26.4082 58.3415 26.3447 58.5655 26.2177C58.7273 26.1266 58.8518 25.9736 58.9388 25.7587C59.0272 25.5406 59.0716 25.2884 59.0716 25.0019C59.0716 24.6048 58.9856 24.2793 58.8144 24.0253C58.6444 23.7682 58.3878 23.6396 58.0446 23.6396H56.9536ZM62.0518 23H62.7344L64.1406 30.4023H63.7122L63.2695 28.1074H61.5018L61.0592 30.4023H60.6278L62.0518 23ZM62.3931 23.4882L61.6375 27.3896H63.1338L62.3931 23.4882ZM67.9794 29.4599C67.8141 29.818 67.6298 30.0898 67.4272 30.2753C67.2245 30.4576 66.988 30.5488 66.7184 30.5488C66.2165 30.5488 65.8106 30.2461 65.5 29.6406C65.1374 28.9407 64.956 27.9674 64.956 26.7207C64.956 25.4674 65.1296 24.5104 65.4769 23.8496C65.826 23.1888 66.2502 22.8584 66.7498 22.8584C67.0295 22.8584 67.2902 22.9609 67.5314 23.166C67.7726 23.3678 67.97 23.6526 68.1246 24.0205C68.2342 24.2841 68.3261 24.6455 68.3996 25.1044L67.9362 25.2607C67.8805 24.9319 67.8176 24.6731 67.7484 24.4843C67.6346 24.1751 67.4947 23.9358 67.3288 23.7666C67.1646 23.5973 66.9833 23.5127 66.7848 23.5127C66.4221 23.5127 66.1056 23.7828 65.8354 24.3232C65.5658 24.8603 65.4307 25.6399 65.4307 26.6621C65.4307 27.2806 65.4876 27.847 65.6014 28.3613C65.7169 28.8756 65.8799 29.2581 66.0902 29.5087C66.3006 29.7594 66.5264 29.8847 66.7676 29.8847C66.9602 29.8847 67.1427 29.8115 67.314 29.665C67.4858 29.5185 67.6209 29.3362 67.7193 29.1181C67.8194 28.8968 67.8882 28.6656 67.9249 28.4248C67.9616 28.1839 67.9794 27.8909 67.9794 27.5459H66.8861V26.833H68.3996V30.4023H67.9794V29.4599ZM70.1146 23H72.6982V23.7031H70.54V26.1201H72.146V26.833H70.54V29.6894H72.9068V30.4023H70.1146V23Z" fill="#1C1C1C"/>
<path d="M18.7732 15.6562H19.7164L19.9653 13.6787H20.3183L20.0666 15.6562H21.2876L21.5335 13.6787H21.8866L21.6377 15.6562H22.2107V16.2519H21.5683L21.3455 18.0634H22.2107V18.664H21.276L21.033 20.6269H20.6742L20.923 18.664H19.6962L19.4589 20.6269H19.1001L19.3461 18.664H18.7732V18.0634H19.4213L19.6441 16.2519H18.7732V15.6562ZM19.9971 16.2519L19.7714 18.0537H20.9954L21.2181 16.2519H19.9971ZM24.739 13H25.1615V19.7578H25.8674V20.4023H23.9433V19.7578H24.739V13.83C24.3416 13.9798 24.0764 14.0563 23.9433 14.0595V13.5175C24.2828 13.4329 24.548 13.2604 24.739 13ZM30.4352 13H31.7778C32.1616 13 32.4703 13.0765 32.7038 13.2294C32.9371 13.3824 33.1204 13.6217 33.2535 13.9472C33.3885 14.2695 33.456 14.6259 33.456 15.0166C33.456 15.443 33.3759 15.8222 33.2158 16.1543C33.0576 16.483 32.8165 16.7304 32.4924 16.8964L33.5573 20.4023H33.1001L32.0672 17.0429H30.8605V20.4023H30.4352V13ZM30.8605 13.6396V16.4082H31.7952C32.0227 16.4082 32.2484 16.3447 32.4722 16.2177C32.6342 16.1266 32.7587 15.9736 32.8455 15.7587C32.9342 15.5406 32.9786 15.2884 32.9786 15.0019C32.9786 14.6048 32.8928 14.2793 32.721 14.0253C32.5513 13.7682 32.2947 13.6396 31.9513 13.6396H30.8605ZM35.9584 13H36.6412L38.0475 20.4023H37.6192L37.1765 18.1074H35.4085L34.9659 20.4023H34.5347L35.9584 13ZM36.2998 13.4882L35.5445 17.3896H37.0405L36.2998 13.4882ZM39.3866 13H40.0521L42.2222 19.0498V13H42.6447V20.4023H42.2222L39.8119 13.6445V20.4023H39.3866V13ZM44.4873 13H44.9126V16.8134L46.9612 13H47.5139L46.0034 15.8076L47.7193 20.4023H47.2361L45.7199 16.3398L44.9126 17.8339V20.4023H44.4873V13ZM49.0411 13H51.625V13.7031H49.4664V16.1201H51.0723V16.833H49.4664V19.6894H51.8333V20.4023H49.0411V13ZM53.3316 13H54.5903C55.2288 13 55.7332 13.3206 56.1036 13.9619C56.4758 14.6031 56.6621 15.4934 56.6621 16.6328C56.6621 17.2155 56.6167 17.7509 56.5261 18.2392C56.4585 18.6071 56.363 18.9244 56.2396 19.1914C56.1161 19.4583 55.9763 19.6813 55.82 19.8603C55.7062 19.9873 55.5712 20.0963 55.4149 20.1875C55.1603 20.3307 54.8353 20.4023 54.4398 20.4023H53.3316V13ZM53.7512 13.6445V19.748H54.6799C55.0465 19.748 55.3696 19.5494 55.6493 19.1523C56.0042 18.6543 56.1817 17.8388 56.1817 16.706C56.1817 15.5504 55.9994 14.7187 55.6348 14.2109C55.3648 13.8333 55.0243 13.6445 54.6134 13.6445H53.7512ZM3 23H4.45252C4.96179 23 5.34952 23.1969 5.61572 23.5908C5.88386 23.9847 6.01791 24.4502 6.01791 24.9873C6.01791 25.2998 5.98224 25.5765 5.91088 25.8173C5.83948 26.055 5.7334 26.2666 5.5926 26.4521C5.4537 26.6377 5.28778 26.7858 5.09489 26.8964C4.902 27.0039 4.66283 27.0576 4.37732 27.0576H3.42245V30.4023H3V23ZM3.41666 23.6396V26.413H4.3455C4.77566 26.413 5.08138 26.2845 5.26271 26.0273C5.44404 25.7701 5.53471 25.4332 5.53471 25.0166C5.53471 24.5413 5.41418 24.1783 5.17305 23.9277C4.98786 23.7356 4.69174 23.6396 4.2847 23.6396H3.41666ZM7.59432 23H8.93687C9.32078 23 9.62938 23.0765 9.86282 23.2294C10.0963 23.3824 10.2795 23.6217 10.4126 23.9472C10.5476 24.2695 10.6152 24.6259 10.6152 25.0166C10.6152 25.443 10.5352 25.8222 10.375 26.1543C10.2169 26.483 9.97568 26.7304 9.65159 26.8964L10.7164 30.4023H10.2593L9.22623 27.0429H8.01968V30.4023H7.59432V23ZM8.01968 23.6396V26.4082H8.95423C9.18189 26.4082 9.40759 26.3447 9.63134 26.2177C9.79338 26.1266 9.9178 25.9736 10.0046 25.7587C10.0934 25.5406 10.1377 25.2884 10.1377 25.0019C10.1377 24.6048 10.0518 24.2793 9.88019 24.0253C9.71048 23.7682 9.45389 23.6396 9.11057 23.6396H8.01968ZM12.3101 23H12.7355V30.4023H12.3101V23ZM14.228 23H14.6592L15.9294 29.2304L17.1939 23H17.6221L16.1204 30.4023H15.7297L14.228 23ZM19.6788 23H20.3616L21.7679 30.4023H21.3397L20.897 28.1074H19.129L18.6863 30.4023H18.2552L19.6788 23ZM20.0203 23.4882L19.265 27.3896H20.761L20.0203 23.4882ZM22.184 23H25.3987V23.708H24.0099V30.4023H23.5845V23.708H22.184V23ZM26.8276 23H29.4114V23.7031H27.2529V26.1201H28.8588V26.833H27.2529V29.6894H29.6198V30.4023H26.8276V23ZM33.5683 23H35.0758C35.5928 23 35.9844 23.1888 36.2506 23.5664C36.5168 23.944 36.6499 24.3785 36.6499 24.8701C36.6499 25.2086 36.5843 25.5309 36.4531 25.8369C36.322 26.1396 36.1213 26.387 35.8512 26.5791C36.1599 26.7776 36.3895 27.0429 36.5399 27.375C36.6904 27.7037 36.7656 28.0488 36.7656 28.4101C36.7656 28.9179 36.6248 29.3769 36.3432 29.7871C36.0616 30.1972 35.6661 30.4023 35.1568 30.4023H33.5683V23ZM33.9907 23.6543V26.2861H34.7865C35.3112 26.2861 35.6738 26.1575 35.8745 25.9003C36.077 25.6399 36.1782 25.3225 36.1782 24.9482C36.1782 24.5934 36.0885 24.289 35.9092 24.0351C35.7297 23.7812 35.4597 23.6543 35.099 23.6543H33.9907ZM33.9907 26.9209V29.748H35.1423C35.505 29.748 35.805 29.5852 36.0422 29.2597C36.2081 29.0319 36.2911 28.7242 36.2911 28.3369C36.2911 28.0667 36.2419 27.8225 36.1435 27.6044C36.0471 27.3863 35.8985 27.2187 35.6979 27.1015C35.4992 26.9811 35.2725 26.9209 35.0179 26.9209H33.9907ZM38.3478 23H39.6904C40.0742 23 40.3829 23.0765 40.6163 23.2294C40.8497 23.3824 41.033 23.6217 41.1661 23.9472C41.3011 24.2695 41.3686 24.6259 41.3686 25.0166C41.3686 25.443 41.2886 25.8222 41.1285 26.1543C40.9702 26.483 40.7291 26.7304 40.4051 26.8964L41.4699 30.4023H41.0128L39.9798 27.0429H38.7732V30.4023H38.3478V23ZM38.7732 23.6396V26.4082H39.7078C39.9353 26.4082 40.1611 26.3447 40.3849 26.2177C40.5468 26.1266 40.6713 25.9736 40.7581 25.7587C40.8468 25.5406 40.8913 25.2884 40.8913 25.0019C40.8913 24.6048 40.8054 24.2793 40.6336 24.0253C40.4639 23.7682 40.2073 23.6396 39.864 23.6396H38.7732ZM44.3166 30.5488C43.8092 30.5488 43.3907 30.2363 43.0608 29.6113C42.675 28.8756 42.4821 27.9267 42.4821 26.7646C42.4821 26.0289 42.5592 25.347 42.7135 24.7187C42.8697 24.0905 43.0907 23.6233 43.3761 23.3173C43.6636 23.0113 43.9781 22.8584 44.3194 22.8584C44.6165 22.8584 44.8798 22.9707 45.1094 23.1953C45.3389 23.4166 45.527 23.7063 45.6736 24.0644C45.8221 24.4192 45.934 24.8229 46.0093 25.2753C46.0844 25.7278 46.1221 26.2096 46.1221 26.7207C46.1221 27.2806 46.0816 27.7705 46.0005 28.1904C45.9195 28.6071 45.8212 28.957 45.7055 29.2402C45.5916 29.5201 45.4758 29.7415 45.3582 29.9043C45.2038 30.1224 45.0294 30.2851 44.8345 30.3925C44.6416 30.4967 44.469 30.5488 44.3166 30.5488ZM44.2731 29.8798C44.6512 29.8798 44.9743 29.6145 45.2425 29.0839C45.5125 28.5501 45.6475 27.7721 45.6475 26.75C45.6475 25.6692 45.5 24.8229 45.2049 24.2109C44.9734 23.7356 44.6715 23.498 44.2993 23.498C43.9365 23.498 43.6231 23.7682 43.3587 24.3085C43.0946 24.8457 42.9624 25.6497 42.9624 26.7207C42.9624 27.7753 43.0926 28.5664 43.353 29.0937C43.6134 29.6178 43.9201 29.8798 44.2731 29.8798ZM47.6869 23H48.1123V26.8134L50.1609 23H50.7135L49.2031 25.8076L50.919 30.4023H50.4358L48.9195 26.3398L48.1123 27.8339V30.4023H47.6869V23ZM52.2407 23H54.8247V23.7031H52.6661V26.1201H54.272V26.833H52.6661V29.6894H55.033V30.4023H52.2407V23ZM56.5284 23H57.871C58.255 23 58.5638 23.0765 58.7966 23.2294C59.0301 23.3824 59.2138 23.6217 59.3466 23.9472C59.4816 24.2695 59.5492 24.6259 59.5492 25.0166C59.5492 25.443 59.4692 25.8222 59.3092 26.1543C59.151 26.483 58.9098 26.7304 58.5856 26.8964L59.6506 30.4023H59.1931L58.1602 27.0429H56.9536V30.4023H56.5284V23ZM56.9536 23.6396V26.4082H57.8882C58.1158 26.4082 58.3415 26.3447 58.5655 26.2177C58.7273 26.1266 58.8518 25.9736 58.9388 25.7587C59.0272 25.5406 59.0716 25.2884 59.0716 25.0019C59.0716 24.6048 58.9856 24.2793 58.8144 24.0253C58.6444 23.7682 58.3878 23.6396 58.0446 23.6396H56.9536ZM62.0518 23H62.7344L64.1406 30.4023H63.7122L63.2695 28.1074H61.5018L61.0592 30.4023H60.6278L62.0518 23ZM62.3931 23.4882L61.6375 27.3896H63.1338L62.3931 23.4882ZM67.9794 29.4599C67.8141 29.818 67.6298 30.0898 67.4272 30.2753C67.2245 30.4576 66.988 30.5488 66.7184 30.5488C66.2165 30.5488 65.8106 30.2461 65.5 29.6406C65.1374 28.9407 64.956 27.9674 64.956 26.7207C64.956 25.4674 65.1296 24.5104 65.4769 23.8496C65.826 23.1888 66.2502 22.8584 66.7498 22.8584C67.0295 22.8584 67.2902 22.9609 67.5314 23.166C67.7726 23.3678 67.97 23.6526 68.1246 24.0205C68.2342 24.2841 68.3261 24.6455 68.3996 25.1044L67.9362 25.2607C67.8805 24.9319 67.8176 24.6731 67.7484 24.4843C67.6346 24.1751 67.4947 23.9358 67.3288 23.7666C67.1646 23.5973 66.9833 23.5127 66.7848 23.5127C66.4221 23.5127 66.1056 23.7828 65.8354 24.3232C65.5658 24.8603 65.4307 25.6399 65.4307 26.6621C65.4307 27.2806 65.4876 27.847 65.6014 28.3613C65.7169 28.8756 65.8799 29.2581 66.0902 29.5087C66.3006 29.7594 66.5264 29.8847 66.7676 29.8847C66.9602 29.8847 67.1427 29.8115 67.314 29.665C67.4858 29.5185 67.6209 29.3362 67.7193 29.1181C67.8194 28.8968 67.8882 28.6656 67.9249 28.4248C67.9616 28.1839 67.9794 27.8909 67.9794 27.5459H66.8861V26.833H68.3996V30.4023H67.9794V29.4599ZM70.1146 23H72.6982V23.7031H70.54V26.1201H72.146V26.833H70.54V29.6894H72.9068V30.4023H70.1146V23Z" stroke="black" stroke-width="0.2" mask="url(#path-2-outside-1_120_1563)"/>
<path d="M13.9999 56L15.1803 60.9657H19L15.9099 64.0343L17.0902 69L13.9999 65.9315L10.9098 69L12.0901 64.0343L9 60.9657H12.8196L13.9999 56Z" fill="#AAA6A1"/>
<path d="M26.5 56L27.5623 60.9657H31L28.2189 64.0343L29.2812 69L26.5 65.9315L23.7188 69L24.7811 64.0343L22 60.9657H25.4377L26.5 56Z" fill="#AAA6A1"/>
<path d="M38.5 56L39.5623 60.9657H43L40.2189 64.0343L41.2812 69L38.5 65.9315L35.7188 69L36.7811 64.0343L34 60.9657H37.4377L38.5 56Z" fill="#AAA6A1"/>
<path d="M50.5 56L51.5624 60.9657H55L52.2189 64.0343L53.2812 69L50.5 65.9315L47.7188 69L48.7811 64.0343L46 60.9657H49.4377L50.5 56Z" fill="#AAA6A1"/>
<path d="M62.5002 56L63.5627 60.9657H67L64.2191 64.0343L65.281 69L62.5002 65.9315L59.7189 69L60.7812 64.0343L58 60.9657H61.4376L62.5002 56Z" fill="#AAA6A1"/>
<path d="M9.58162 81.153V80.333C9.58162 79.929 9.65872 79.607 9.81302 79.366C9.9674 79.122 10.1834 79 10.4612 79C10.5229 79 10.5972 79.005 10.684 79.014V79.683C10.5991 79.667 10.5297 79.659 10.4757 79.659C10.3214 79.659 10.2037 79.726 10.1227 79.859C10.0417 79.992 10.0011 80.172 10.0011 80.396V81.153H10.6435V81.802H10.0011V86.402H9.58162V81.802H9V81.153H9.58162ZM11.5231 79H11.9455V86.402H11.5231V79ZM14.3067 86.509C13.9074 86.509 13.5717 86.264 13.2997 85.772C13.0277 85.281 12.8917 84.62 12.8917 83.79C12.8917 83.236 12.9516 82.746 13.0711 82.32C13.1927 81.89 13.3615 81.571 13.5775 81.363C13.7935 81.151 14.0231 81.046 14.2662 81.046C14.5015 81.046 14.7262 81.155 14.9404 81.373C15.1564 81.588 15.3271 81.915 15.4525 82.354C15.5779 82.79 15.6406 83.279 15.6406 83.819C15.6406 84.643 15.5084 85.297 15.2442 85.782C14.9799 86.267 14.6674 86.509 14.3067 86.509ZM14.269 85.904C14.5237 85.904 14.7446 85.718 14.9317 85.347C15.1208 84.976 15.2152 84.444 15.2152 83.751C15.2152 83.067 15.1237 82.546 14.9404 82.188C14.7571 81.83 14.5363 81.651 14.2778 81.651C14.0038 81.651 13.7734 81.833 13.5862 82.198C13.401 82.562 13.3084 83.083 13.3084 83.76C13.3084 84.454 13.402 84.984 13.5891 85.352C13.7762 85.72 14.0029 85.904 14.269 85.904ZM16.9572 82.34C17.1307 81.89 17.3121 81.562 17.5011 81.353C17.6921 81.145 17.9091 81.041 18.1522 81.041C18.1791 81.041 18.2178 81.042 18.2679 81.046L18.2071 81.832L18.0538 81.817C17.942 81.807 17.8165 81.853 17.6776 81.954C17.5387 82.051 17.4144 82.208 17.3043 82.423C17.1963 82.637 17.1115 82.904 17.0497 83.223C16.9881 83.542 16.9572 83.824 16.9572 84.068V86.402H16.5347V81.153H16.9572V82.34ZM18.9942 79.068H19.4167V79.923H18.9942V79.068ZM18.9942 81.153H19.4167V86.402H18.9942V81.153ZM22.7009 79H23.1203V84.766C23.1203 85.066 23.1319 85.377 23.1551 85.699C23.1782 86.018 23.2043 86.252 23.2332 86.402H22.7991C22.7529 86.132 22.7288 85.889 22.7268 85.674C22.5397 85.951 22.3545 86.159 22.1713 86.299C21.99 86.439 21.8106 86.509 21.6331 86.509C21.282 86.509 20.9801 86.27 20.7274 85.792C20.4767 85.31 20.3512 84.644 20.3512 83.795C20.3512 82.925 20.4776 82.25 20.7303 81.768C20.9849 81.286 21.2877 81.046 21.6389 81.046C21.8183 81.046 21.9929 81.111 22.1626 81.241C22.3323 81.368 22.5117 81.571 22.7009 81.851V79ZM22.7009 82.466C22.5271 82.206 22.3564 82.012 22.1887 81.885C22.0209 81.755 21.8559 81.69 21.6938 81.69C21.4296 81.69 21.2097 81.864 21.0341 82.213C20.8586 82.558 20.7708 83.07 20.7708 83.751C20.7708 84.464 20.8605 84.997 21.0399 85.352C21.2193 85.704 21.4382 85.88 21.6968 85.88C21.8549 85.88 22.0179 85.814 22.1857 85.684C22.3535 85.551 22.5252 85.352 22.7009 85.089V82.466ZM24.081 82.061C24.2797 81.713 24.4948 81.457 24.7262 81.295C24.9578 81.129 25.1843 81.046 25.4062 81.046C25.6628 81.046 25.8808 81.142 26.0602 81.334C26.2415 81.526 26.3669 81.763 26.4363 82.047C26.4884 82.265 26.5145 82.556 26.5145 82.921V85.147C26.5145 85.59 26.5443 86.008 26.6042 86.402H26.173C26.1209 86.093 26.0929 85.8 26.0891 85.523C25.8962 85.852 25.6995 86.099 25.4988 86.265C25.3002 86.428 25.0966 86.509 24.8883 86.509C24.624 86.509 24.4109 86.376 24.2489 86.109C24.0868 85.839 24.0058 85.5 24.0058 85.093C24.0058 84.761 24.0684 84.451 24.1939 84.161C24.3192 83.871 24.5141 83.643 24.7783 83.477C24.9712 83.357 25.4082 83.171 26.0891 82.921V82.593C26.0891 82.317 26.0312 82.086 25.9155 81.9C25.8017 81.714 25.657 81.622 25.4814 81.622C25.3233 81.622 25.1584 81.688 24.9867 81.822C24.8169 81.952 24.6182 82.18 24.3906 82.506L24.081 82.061ZM26.0891 85.113V83.443C25.6203 83.632 25.3117 83.77 25.1631 83.858C24.9259 83.995 24.7513 84.172 24.6394 84.39C24.5295 84.605 24.4745 84.835 24.4745 85.079C24.4745 85.31 24.5218 85.502 24.6163 85.655C24.7128 85.805 24.841 85.88 25.0011 85.88C25.1535 85.88 25.3203 85.816 25.5017 85.689C25.6831 85.559 25.8788 85.367 26.0891 85.113ZM27.6458 79H28.0683V86.402H27.6458V79ZM29.1794 81.153H29.6019V84.595C29.6019 84.976 29.6568 85.274 29.7668 85.489C29.8786 85.704 30.0108 85.811 30.1631 85.811C30.3002 85.811 30.4496 85.749 30.6117 85.626C30.7737 85.499 30.9792 85.261 31.228 84.913V81.153H31.6534V86.402H31.228V85.557C30.9927 85.873 30.7775 86.111 30.5827 86.27C30.3879 86.43 30.2123 86.509 30.0562 86.509C29.9057 86.509 29.7638 86.452 29.6308 86.339C29.4996 86.221 29.3916 86.031 29.3067 85.767C29.2218 85.5 29.1794 85.154 29.1794 84.727V81.153ZM32.423 81.153H32.912L33.6962 83.072L34.4716 81.153H34.9606L33.9392 83.682L35.0329 86.402H34.5498L33.6962 84.288L32.8483 86.402H32.3594L33.4531 83.682L32.423 81.153ZM35.6666 81.153H36.0891V84.595C36.0891 84.976 36.1441 85.274 36.254 85.489C36.366 85.704 36.498 85.811 36.6505 85.811C36.7874 85.811 36.9369 85.749 37.0989 85.626C37.261 85.499 37.4664 85.261 37.7153 84.913V81.153H38.1406V86.402H37.7153V85.557C37.4799 85.873 37.2649 86.111 37.07 86.27C36.8751 86.43 36.6997 86.509 36.5434 86.509C36.3929 86.509 36.2512 86.452 36.118 86.339C35.9869 86.221 35.8788 86.031 35.794 85.767C35.7091 85.5 35.6666 85.154 35.6666 84.727V81.153ZM39.6944 82.34C39.8681 81.89 40.0494 81.562 40.2384 81.353C40.4294 81.145 40.6464 81.041 40.8894 81.041C40.9164 81.041 40.9551 81.042 41.0052 81.046L40.9444 81.832L40.7911 81.817C40.6791 81.807 40.5538 81.853 40.4149 81.954C40.2761 82.051 40.1516 82.208 40.0417 82.423C39.9336 82.637 39.8488 82.904 39.7871 83.223C39.7253 83.542 39.6944 83.824 39.6944 84.068V86.402H39.272V81.153H39.6944V82.34ZM41.7315 79.068H42.1539V79.923H41.7315V79.068ZM41.7315 81.153H42.1539V86.402H41.7315V81.153ZM44.5151 86.509C44.1157 86.509 43.7801 86.264 43.5081 85.772C43.2361 85.281 43.1001 84.62 43.1001 83.79C43.1001 83.236 43.1599 82.746 43.2795 82.32C43.401 81.89 43.5698 81.571 43.7859 81.363C44.0019 81.151 44.2315 81.046 44.4745 81.046C44.7099 81.046 44.9346 81.155 45.1487 81.373C45.3648 81.588 45.5355 81.915 45.6609 82.354C45.7863 82.79 45.8489 83.279 45.8489 83.819C45.8489 84.643 45.7169 85.297 45.4525 85.782C45.1883 86.267 44.8757 86.509 44.5151 86.509ZM44.4774 85.904C44.7321 85.904 44.9529 85.718 45.1401 85.347C45.3291 84.976 45.4236 84.444 45.4236 83.751C45.4236 83.067 45.332 82.546 45.1487 82.188C44.9654 81.83 44.7446 81.651 44.4861 81.651C44.2122 81.651 43.9816 81.833 43.7946 82.198C43.6094 82.562 43.5168 83.083 43.5168 83.76C43.5168 84.454 43.6103 84.984 43.7974 85.352C43.9845 85.72 44.2112 85.904 44.4774 85.904ZM46.662 81.153H47.0844V84.595C47.0844 84.976 47.1395 85.274 47.2494 85.489C47.3613 85.704 47.4935 85.811 47.6458 85.811C47.7828 85.811 47.9323 85.749 48.0943 85.626C48.2563 85.499 48.4618 85.261 48.7106 84.913V81.153H49.136V86.402H48.7106V85.557C48.4752 85.873 48.2603 86.111 48.0654 86.27C47.8706 86.43 47.695 86.509 47.5387 86.509C47.3883 86.509 47.2466 86.452 47.1134 86.339C46.9822 86.221 46.8742 86.031 46.7894 85.767C46.7044 85.5 46.662 85.154 46.662 84.727V81.153ZM50.2934 83.36C50.141 83.09 50.0648 82.789 50.0648 82.457C50.0648 82.073 50.1584 81.742 50.3455 81.465C50.5326 81.186 50.793 81.046 51.1267 81.046C51.3486 81.046 51.5578 81.114 51.7546 81.251C51.9534 81.387 52.1221 81.589 52.261 81.856L51.9398 82.31C51.8203 82.079 51.6968 81.91 51.5694 81.802C51.4421 81.692 51.2965 81.636 51.1325 81.636C50.9223 81.636 50.7621 81.713 50.6522 81.866C50.5442 82.019 50.4901 82.196 50.4901 82.398C50.4901 82.571 50.5326 82.725 50.6174 82.862C50.7004 82.999 50.8952 83.134 51.202 83.267C51.6746 83.472 51.9929 83.721 52.1569 84.014C52.3208 84.307 52.4027 84.63 52.4027 84.981C52.4027 85.401 52.3043 85.761 52.1077 86.06C51.9128 86.36 51.6466 86.509 51.309 86.509C51.0621 86.509 50.8345 86.431 50.6261 86.275C50.4178 86.119 50.1979 85.858 49.9664 85.494L50.3282 85.064C50.5017 85.357 50.6648 85.567 50.8171 85.694C50.9695 85.818 51.1306 85.88 51.3003 85.88C51.5164 85.88 51.6832 85.793 51.8009 85.621C51.9205 85.445 51.9803 85.24 51.9803 85.006C51.9803 84.81 51.9359 84.643 51.8472 84.503C51.7218 84.304 51.47 84.122 51.092 83.956C50.8586 83.852 50.6648 83.736 50.5104 83.609C50.4333 83.547 50.3609 83.464 50.2934 83.36ZM53.2882 85.289H53.8611V86.402H53.2882V85.289ZM57.4058 85.128C57.2649 85.554 57.1106 85.873 56.9427 86.085C56.719 86.368 56.4672 86.509 56.1875 86.509C55.9444 86.509 55.7158 86.399 55.5017 86.177C55.2895 85.956 55.1246 85.635 55.007 85.215C54.8912 84.796 54.8333 84.314 54.8333 83.77C54.8333 82.934 54.9654 82.271 55.2297 81.783C55.4959 81.291 55.8162 81.046 56.1904 81.046C56.4431 81.046 56.6726 81.158 56.879 81.382C57.0855 81.607 57.261 81.944 57.4058 82.393L57.0382 82.73C56.9205 82.362 56.7932 82.089 56.6563 81.91C56.5192 81.728 56.362 81.636 56.1846 81.636C55.9318 81.636 55.7129 81.819 55.5277 82.183C55.3445 82.548 55.2528 83.091 55.2528 83.814C55.2528 84.452 55.3454 84.957 55.5306 85.328C55.7178 85.699 55.9318 85.884 56.173 85.884C56.5376 85.884 56.826 85.518 57.0382 84.786L57.4058 85.128ZM59.4052 86.509C59.0058 86.509 58.6698 86.264 58.3984 85.772C58.1264 85.281 57.9901 84.62 57.9901 83.79C57.9901 83.236 58.05 82.746 58.1697 82.32C58.2911 81.89 58.4601 81.571 58.6757 81.363C58.8921 81.151 59.1214 81.046 59.3643 81.046C59.6002 81.046 59.8248 81.155 60.0387 81.373C60.255 81.588 60.4257 81.915 60.5507 82.354C60.6763 82.79 60.7392 83.279 60.7392 83.819C60.7392 84.643 60.607 85.297 60.3427 85.782C60.0784 86.267 59.7655 86.509 59.4052 86.509ZM59.3673 85.904C59.6221 85.904 59.8432 85.718 60.0298 85.347C60.2189 84.976 60.3137 84.444 60.3137 83.751C60.3137 83.067 60.2218 82.546 60.0387 82.188C59.8556 81.83 59.6346 81.651 59.3762 81.651C59.1024 81.651 58.8719 81.833 58.6846 82.198C58.4992 82.562 58.4067 83.083 58.4067 83.76C58.4067 84.454 58.5003 84.984 58.6876 85.352C58.8749 85.72 59.1012 85.904 59.3673 85.904ZM62.0583 81.983C62.4191 81.576 62.6823 81.319 62.8482 81.212C63.0141 81.101 63.1741 81.046 63.3288 81.046C63.5007 81.046 63.6482 81.122 63.7715 81.275C63.8947 81.425 63.9913 81.661 64.0606 81.983C64.4215 81.573 64.6841 81.314 64.8476 81.207C65.0135 81.099 65.1765 81.046 65.3365 81.046C65.5528 81.046 65.7264 81.15 65.8574 81.358C66.0387 81.651 66.1294 82.03 66.1294 82.496V86.402H65.7045V82.706C65.7045 82.4 65.6559 82.156 65.5593 81.973C65.4651 81.788 65.3525 81.695 65.2209 81.695C65.1012 81.695 64.9584 81.755 64.7931 81.876C64.6289 81.993 64.3955 82.235 64.0926 82.603V86.402H63.6701V82.706C63.6701 82.393 63.6239 82.147 63.5315 81.968C63.4384 81.786 63.3317 81.695 63.2103 81.695C63.0769 81.695 62.9282 81.754 62.7647 81.871C62.6023 81.985 62.367 82.229 62.0583 82.603V86.402H61.6304V81.153H62.0583V81.983Z" fill="#1C1C1C"/>
<path d="M6 44.1102H6.42886V49.8859H6V44.1102ZM7.8117 44.1102H8.48271L10.6708 48.8306V44.1102H11.0967V49.8859H10.6708L8.24056 44.6135V49.8859H7.8117V44.1102ZM14.2329 44.1102H15.7529C16.2741 44.1102 16.6689 44.2575 16.9373 44.552C17.2058 44.8466 17.34 45.186 17.34 45.5692C17.34 45.8336 17.2738 46.0852 17.1415 46.3241C17.0093 46.5601 16.807 46.7533 16.5347 46.9025C16.8459 47.0575 17.0774 47.2643 17.2291 47.5237C17.3807 47.7802 17.4566 48.0494 17.4566 48.3313C17.4566 48.7272 17.3146 49.0862 17.0307 49.4061C16.7467 49.7259 16.348 49.8859 15.8345 49.8859H14.2329V44.1102ZM14.6588 44.6213V46.6743H15.4611C15.9902 46.6743 16.3558 46.5738 16.5581 46.3729C16.7623 46.17 16.8644 45.9223 16.8644 45.6307C16.8644 45.3537 16.774 45.1157 16.5931 44.9178C16.4122 44.7198 16.1399 44.6213 15.7762 44.6213H14.6588ZM14.6588 47.1697V49.3758H15.82C16.1856 49.3758 16.488 49.2481 16.7272 48.9945C16.8945 48.817 16.9782 48.5771 16.9782 48.2747C16.9782 48.064 16.9286 47.8729 16.8294 47.7032C16.7322 47.5325 16.5824 47.4018 16.3801 47.3101C16.1798 47.2165 15.9513 47.1697 15.6945 47.1697H14.6588ZM18.4544 44.1102H19.808C20.1951 44.1102 20.5063 44.1697 20.7416 44.2897C20.977 44.4087 21.1618 44.5959 21.2959 44.8495C21.4321 45.1011 21.5002 45.3791 21.5002 45.6834C21.5002 46.0169 21.4194 46.3124 21.258 46.5718C21.0985 46.8283 20.8554 47.0205 20.5287 47.1502L21.6023 49.8859H21.1413L20.0998 47.2643H18.8833V49.8859H18.4544V44.1102ZM18.8833 44.6096V46.7698H19.8256C20.0551 46.7698 20.2826 46.7201 20.5083 46.6206C20.6716 46.5494 20.7971 46.4304 20.8846 46.2627C20.974 46.093 21.0187 45.896 21.0187 45.6726C21.0187 45.3625 20.9323 45.1089 20.7591 44.91C20.588 44.71 20.3293 44.6096 19.9831 44.6096H18.8833ZM23.8749 50C23.3634 50 22.9414 49.7562 22.6087 49.2685C22.2198 48.6951 22.0253 47.9548 22.0253 47.0478C22.0253 46.4733 22.1031 45.9418 22.2587 45.4512C22.4162 44.9616 22.6389 44.5969 22.9267 44.3579C23.2166 44.119 23.5335 44 23.8778 44C24.1773 44 24.4428 44.0878 24.6743 44.2624C24.9057 44.435 25.0954 44.6613 25.2432 44.9412C25.3929 45.2181 25.5058 45.5322 25.5816 45.8852C25.6575 46.2383 25.6954 46.6148 25.6954 47.0137C25.6954 47.4506 25.6545 47.8329 25.5728 48.1596C25.4911 48.4854 25.3919 48.7585 25.2753 48.9789C25.1605 49.1973 25.0438 49.37 24.9252 49.4977C24.7696 49.6674 24.5936 49.7942 24.3971 49.8781C24.2027 49.96 24.0286 50 23.8749 50ZM23.8312 49.4782C24.2124 49.4782 24.5381 49.2715 24.8085 48.857C25.0807 48.4405 25.2169 47.8339 25.2169 47.0361C25.2169 46.1934 25.0681 45.5322 24.7706 45.0553C24.5372 44.6847 24.2328 44.4994 23.8574 44.4994C23.4917 44.4994 23.1757 44.71 22.9093 45.1313C22.6428 45.5507 22.5095 46.1778 22.5095 47.0137C22.5095 47.8358 22.6408 48.4532 22.9034 48.8648C23.1659 49.2734 23.4752 49.4782 23.8312 49.4782ZM26.1417 44.1102H26.5647L27.4867 48.7126L28.4173 44.1102H28.8549L29.7768 48.7126L30.7045 44.1102H31.1217L29.9577 49.8859H29.5872L28.6332 45.1391L27.6763 49.8859H27.2912L26.1417 44.1102ZM32.8314 44.1102H33.5198L34.9377 49.8859H34.5059L34.0596 48.0953H32.2771L31.8307 49.8859H31.396L32.8314 44.1102ZM33.1756 44.4916L32.4142 47.5354H33.9224L33.1756 44.4916ZM35.6962 44.1102H37.0499C37.4369 44.1102 37.7481 44.1697 37.9835 44.2897C38.2188 44.4087 38.4036 44.5959 38.5378 44.8495C38.6739 45.1011 38.742 45.3791 38.742 45.6834C38.742 46.0169 38.6612 46.3124 38.4998 46.5718C38.3404 46.8283 38.0972 47.0205 37.7705 47.1502L38.8441 49.8859H38.3831L37.3416 47.2643H36.1251V49.8859H35.6962V44.1102ZM36.1251 44.6096V46.7698H37.0674C37.2969 46.7698 37.5244 46.7201 37.7501 46.6206C37.9134 46.5494 38.0389 46.4304 38.1264 46.2627C38.2159 46.093 38.2606 45.896 38.2606 45.6726C38.2606 45.3625 38.1741 45.1089 38.0009 44.91C37.8298 44.71 37.5711 44.6096 37.225 44.6096H36.1251ZM39.7427 44.1102H41.0117C41.6555 44.1102 42.1641 44.3609 42.5375 44.8612C42.9129 45.3615 43.1006 46.0559 43.1006 46.9444C43.1006 47.3999 43.0549 47.8173 42.9635 48.1986C42.8954 48.4854 42.7991 48.7331 42.6746 48.9408C42.5502 49.1495 42.4092 49.3232 42.2516 49.4626C42.1369 49.5621 42.0007 49.647 41.8432 49.7181C41.5864 49.8303 41.2587 49.8859 40.8601 49.8859H39.7427V44.1102ZM40.1657 44.6135V49.3758H41.1022C41.4717 49.3758 41.7975 49.2207 42.0795 48.9106C42.4373 48.5224 42.6163 47.8856 42.6163 47.002C42.6163 46.0998 42.4325 45.4512 42.0649 45.0553C41.7926 44.7607 41.4493 44.6135 41.035 44.6135H40.1657ZM49.1542 48.1674C49.0803 48.5332 48.981 48.8306 48.8566 49.0588C48.6932 49.3612 48.49 49.5943 48.2469 49.7562C48.0038 49.9191 47.746 50 47.4737 50C47.1451 50 46.8446 49.883 46.5723 49.6499C46.3019 49.4139 46.086 49.0647 45.9246 48.6024C45.7632 48.1401 45.6825 47.5998 45.6825 46.9825C45.6825 46.4314 45.7554 45.9165 45.9013 45.4366C46.0491 44.9558 46.2591 44.5969 46.5314 44.3579C46.8037 44.119 47.1081 44 47.4446 44C47.7402 44 47.9979 44.0732 48.2177 44.2204C48.4375 44.3657 48.632 44.592 48.8012 44.8992C48.9256 45.1245 49.0219 45.4122 49.09 45.7604L48.6291 45.855C48.5357 45.4054 48.3879 45.0699 48.1856 44.8495C47.9833 44.6281 47.748 44.5179 47.4796 44.5179C47.1159 44.5179 46.8173 44.7022 46.5839 45.0699C46.3019 45.5146 46.1609 46.1447 46.1609 46.96C46.1609 47.8007 46.3039 48.4512 46.5898 48.9106C46.827 49.289 47.1227 49.4782 47.4767 49.4782C47.6926 49.4782 47.8871 49.4119 48.0602 49.2802C48.2352 49.1476 48.3801 48.9613 48.4948 48.7204C48.5688 48.5653 48.6339 48.343 48.6903 48.0533L49.1542 48.1674ZM51.5669 50C51.0554 50 50.6333 49.7562 50.3007 49.2685C49.9117 48.6951 49.7172 47.9548 49.7172 47.0478C49.7172 46.4733 49.795 45.9418 49.9506 45.4512C50.1082 44.9616 50.3308 44.5969 50.6188 44.3579C50.9085 44.119 51.2256 44 51.5698 44C51.8693 44 52.1348 44.0878 52.3662 44.2624C52.5977 44.435 52.7873 44.6613 52.9351 44.9412C53.0849 45.2181 53.1977 45.5322 53.2735 45.8852C53.3494 46.2383 53.3873 46.6148 53.3873 47.0137C53.3873 47.4506 53.3465 47.8329 53.2648 48.1596C53.1832 48.4854 53.0839 48.7585 52.9672 48.9789C52.8524 49.1973 52.7358 49.37 52.6171 49.4977C52.4615 49.6674 52.2855 49.7942 52.0891 49.8781C51.8946 49.96 51.7205 50 51.5669 50ZM51.5231 49.4782C51.9043 49.4782 52.2301 49.2715 52.5005 48.857C52.7728 48.4405 52.9089 47.8339 52.9089 47.0361C52.9089 46.1934 52.7601 45.5322 52.4625 45.0553C52.2291 44.6847 51.9248 44.4994 51.5493 44.4994C51.1837 44.4994 50.8677 44.71 50.6012 45.1313C50.3347 45.5507 50.2016 46.1778 50.2016 47.0137C50.2016 47.8358 50.3328 48.4532 50.5954 48.8648C50.858 49.2734 51.1672 49.4782 51.5231 49.4782ZM54.3296 44.1102H54.7556V47.8895C54.7556 48.3644 54.8586 48.739 55.0648 49.013C55.2729 49.288 55.5549 49.4246 55.9109 49.4246C56.191 49.4246 56.4185 49.3631 56.5936 49.2383C56.7705 49.1115 56.9028 48.9272 56.9903 48.6863C57.0778 48.4425 57.1216 48.1762 57.1216 47.8895V44.1102H57.5534V47.8895C57.5534 48.5351 57.4085 49.0481 57.1187 49.4285C56.8309 49.8098 56.4457 50 55.9634 50C55.5744 50 55.2525 49.8937 54.9977 49.6801C54.7449 49.4665 54.5698 49.1973 54.4726 48.8726C54.3773 48.5449 54.3296 48.2435 54.3296 47.9694V44.1102ZM58.7846 44.1102H59.4555L61.6436 48.8306V44.1102H62.0695V49.8859H61.6436L59.2134 44.6135V49.8859H58.7846V44.1102ZM62.9301 44.1102H66.1714V44.6632H64.771V49.8859H64.3422V44.6632H62.9301V44.1102ZM66.5185 44.1102H66.9911L68.1727 46.7845L69.3572 44.1102H69.8298L68.3886 47.3755V49.8859H67.9597V47.3755L66.5185 44.1102Z" fill="black"/>
<path d="M18.2611 102.121C18.3971 101.207 18.6147 100.426 18.9139 99.777C19.3436 98.863 19.8821 98.172 20.5295 97.703C21.1823 97.234 21.8786 97 22.6184 97C23.826 97 24.8106 97.492 25.5722 98.476C26.3337 99.453 26.7145 100.593 26.7145 101.898C26.7145 102.609 26.6057 103.312 26.3881 104.008C26.1705 104.703 25.855 105.375 25.4416 106.023C25.137 106.5 24.5468 107.265 23.671 108.32C22.8006 109.375 22.1859 110.164 21.8269 110.687C21.4678 111.203 21.1333 111.758 20.8233 112.351H26.6737V115.281H18V114.719C18 113.867 18.1251 113.047 18.3753 112.258C18.6255 111.469 19.0417 110.613 19.6237 109.691C19.9447 109.183 20.6927 108.191 21.8677 106.715C22.7489 105.597 23.2902 104.879 23.4915 104.558C23.7852 104.105 23.9973 103.672 24.1279 103.258C24.2584 102.836 24.3237 102.441 24.3237 102.074C24.3237 101.433 24.1497 100.879 23.8015 100.41C23.4588 99.941 23.0182 99.707 22.4797 99.707C21.9629 99.707 21.4978 99.957 21.0844 100.457C20.6763 100.957 20.3608 101.75 20.1378 102.836L18.2611 102.121ZM32.8017 97C34.2813 97 35.44 97.707 36.2778 99.121C37.1155 100.527 37.5344 102.918 37.5344 106.293C37.5344 109.676 37.1236 112.078 36.3022 113.5C35.4808 114.922 34.382 115.633 33.0057 115.633C32.0973 115.633 31.3765 115.429 30.8434 115.023C30.0328 114.406 29.4344 113.523 29.0483 112.375C28.5532 110.906 28.3057 108.929 28.3057 106.445C28.3057 103.023 28.7164 100.593 29.5378 99.156C30.3647 97.719 31.4526 97 32.8017 97ZM32.9404 99.906C32.5325 99.906 32.1462 100.117 31.7817 100.539C31.4227 100.961 31.1562 101.597 30.9821 102.449C30.8134 103.293 30.7291 104.883 30.7291 107.219C30.7291 109.281 30.9467 110.719 31.3819 111.531C31.8171 112.343 32.3339 112.75 32.9323 112.75C33.3131 112.75 33.6911 112.547 34.0665 112.14C34.4418 111.726 34.7138 111.121 34.8825 110.324C35.051 109.519 35.1353 108.058 35.1353 105.941C35.1353 103.566 34.9178 101.969 34.4826 101.148C34.0474 100.32 33.5334 99.906 32.9404 99.906ZM39.15 102.121C39.286 101.207 39.5036 100.426 39.8028 99.777C40.2325 98.863 40.771 98.172 41.4184 97.703C42.0712 97.234 42.7674 97 43.5073 97C44.7149 97 45.6995 97.492 46.4611 98.476C47.2226 99.453 47.6034 100.593 47.6034 101.898C47.6034 102.609 47.4946 103.312 47.277 104.008C47.0594 104.703 46.7439 105.375 46.3305 106.023C46.0259 106.5 45.4357 107.265 44.5599 108.32C43.6895 109.375 43.0748 110.164 42.7158 110.687C42.3567 111.203 42.0222 111.758 41.7121 112.351H47.5626V115.281H38.8889V114.719C38.8889 113.867 39.014 113.047 39.2642 112.258C39.5144 111.469 39.9306 110.613 40.5126 109.691C40.8336 109.183 41.5816 108.191 42.7566 106.715C43.6378 105.597 44.1791 104.879 44.3804 104.558C44.6741 104.105 44.8862 103.672 45.0168 103.258C45.1473 102.836 45.2126 102.441 45.2126 102.074C45.2126 101.433 45.0386 100.879 44.6904 100.41C44.3477 99.941 43.9071 99.707 43.3686 99.707C42.8518 99.707 42.3866 99.957 41.9733 100.457C41.5652 100.957 41.2497 101.75 41.0267 102.836L39.15 102.121ZM49.9289 99.578C50.7068 98.617 51.4004 97.949 52.0097 97.574C52.6189 97.191 53.2826 97 54.0007 97C55.3008 97 56.3207 97.554 57.0605 98.664C57.6426 99.554 57.9336 100.547 57.9336 101.64C57.9336 102.531 57.716 103.343 57.2808 104.078C56.8511 104.812 56.231 105.332 55.4205 105.636C56.3126 106.261 56.9816 107 57.4278 107.851C57.8738 108.703 58.0968 109.664 58.0968 110.734C58.0968 112.086 57.716 113.242 56.9545 114.203C56.1983 115.156 55.1484 115.633 53.8048 115.633C53.1085 115.633 52.4857 115.48 51.9362 115.176C51.3923 114.871 50.9 114.449 50.4594 113.91C50.1547 113.535 49.8039 112.961 49.4067 112.187L51.1937 110.582C51.7105 111.402 52.1837 111.992 52.6135 112.351C53.0432 112.711 53.4703 112.89 53.8946 112.89C54.4113 112.89 54.8465 112.648 55.2002 112.164C55.5537 111.672 55.7305 111.093 55.7305 110.429C55.7305 109.578 55.4803 108.863 54.9798 108.285C54.4848 107.699 53.6144 107.406 52.3687 107.406H51.6099V104.324H52.181C53.5029 104.324 54.444 104.051 55.0043 103.504C55.4014 103.113 55.6 102.601 55.6 101.969C55.6 101.437 55.4286 100.949 55.0859 100.504C54.7432 100.058 54.3352 99.836 53.862 99.836C53.046 99.836 52.2409 100.445 51.4466 101.664L49.9289 99.578Z" fill="#1C1C1C"/>
</svg>
