<svg width="95" height="232" viewBox="0 0 95 232" fill="none" xmlns="http://www.w3.org/2000/svg">
<g clip-path="url(#clip0_322_44)">
<path d="M94.5 0H0.5V232L49 191.5L94.5 232V0Z" fill="white"/>
<path d="M9.11914 9.89648H9.86376V17.1621C9.86376 18.0752 10.044 18.7954 10.4043 19.3228C10.7681 19.8501 11.2611 20.1138 11.8833 20.1138C12.3729 20.1138 12.7707 19.9941 13.0766 19.7549C13.386 19.5107 13.6172 19.1567 13.7702 18.6929C13.9232 18.2241 13.9997 17.7139 13.9997 17.1621V9.89648H14.7545V17.1621C14.7545 18.4023 14.5012 19.3887 13.9946 20.1211C13.4914 20.8535 12.8182 21.2197 11.9751 21.2197C11.2951 21.2197 10.7324 21.0146 10.287 20.6045C9.84503 20.1943 9.53908 19.6768 9.36904 19.0518C9.20249 18.4219 9.11914 17.8433 9.11914 17.3159V9.89648ZM17.2075 17.8872C17.2925 18.3267 17.3877 18.666 17.4931 18.9053C17.6699 19.3008 17.9028 19.6182 18.1917 19.8574C18.4808 20.0918 18.8309 20.209 19.2423 20.209C19.8169 20.209 20.2674 19.999 20.5938 19.5791C20.9236 19.1543 21.0885 18.6514 21.0885 18.0703C21.0885 17.543 20.9406 17.0938 20.6448 16.7227C20.417 16.4443 19.958 16.1636 19.2678 15.8804C18.3362 15.4946 17.6715 15.0479 17.2738 14.54C16.876 14.0371 16.6771 13.4146 16.6771 12.6724C16.6771 11.8569 16.8981 11.1562 17.3401 10.5703C17.7855 9.97949 18.3685 9.68408 19.0893 9.68408C19.5279 9.68408 19.941 9.80127 20.3286 10.0356C20.7162 10.27 21.0408 10.6191 21.3027 11.083C21.4829 11.4053 21.6257 11.8252 21.731 12.3428L20.9507 12.687C20.8182 12.0278 20.5887 11.5225 20.2622 11.1709C19.9393 10.8193 19.5517 10.6436 19.0995 10.6436C18.6201 10.6436 18.2343 10.8315 17.9418 11.2075C17.6495 11.5835 17.5032 12.0278 17.5032 12.5405C17.5032 12.9604 17.6222 13.3413 17.8602 13.6831C18.0949 14.0249 18.6116 14.3618 19.4106 14.6938C20.3592 15.0845 21.0136 15.5361 21.374 16.0488C21.731 16.5664 21.9095 17.2183 21.9095 18.0044C21.9095 18.8931 21.6664 19.6523 21.1802 20.2822C20.6941 20.9072 20.0481 21.2197 19.2423 21.2197C18.7391 21.2197 18.2784 21.0781 17.8602 20.7949C17.4421 20.5068 17.1021 20.1089 16.8403 19.6011C16.6601 19.2593 16.5139 18.7905 16.4017 18.1948L17.2075 17.8872ZM25.2907 9.89648H26.4942L28.9728 21H28.218L27.4377 17.5576H24.3217L23.5415 21H22.7816L25.2907 9.89648ZM25.8925 10.6289L24.5615 16.481H27.1981L25.8925 10.6289ZM33.5779 9.89648H36.138C37.0356 9.89648 37.719 10.1919 38.1882 10.7827C38.6608 11.3735 38.897 12.0718 38.897 12.8774C38.897 13.3462 38.8341 13.7612 38.7083 14.1226C38.5826 14.479 38.3955 14.7964 38.1474 15.0747C37.9026 15.353 37.6102 15.5752 37.2702 15.7412C36.9302 15.9023 36.5087 15.9829 36.0054 15.9829H34.3225V21H33.5779V9.89648ZM34.3123 10.856V15.0161H35.9493C36.7075 15.0161 37.2464 14.8232 37.566 14.4375C37.8856 14.0518 38.0454 13.5464 38.0454 12.9214C38.0454 12.2085 37.8329 11.6641 37.4079 11.2881C37.0815 11 36.5596 10.856 35.8422 10.856H34.3123ZM40.631 9.89648H42.9973C43.6739 9.89648 44.2178 10.0112 44.6293 10.2407C45.0407 10.4702 45.3637 10.8291 45.5982 11.3174C45.8362 11.8008 45.9552 12.3354 45.9552 12.9214C45.9552 13.561 45.8141 14.1299 45.532 14.6279C45.2532 15.1211 44.8281 15.4922 44.257 15.7412L46.1337 21H45.3279L43.5073 15.9609H41.3806V21H40.631V9.89648ZM41.3806 10.856V15.0088H43.0279C43.4291 15.0088 43.8269 14.9136 44.2213 14.7231C44.5069 14.5864 44.7261 14.3569 44.8792 14.0347C45.0356 13.7075 45.1138 13.3291 45.1138 12.8994C45.1138 12.3037 44.9625 11.8154 44.6598 11.4346C44.3606 11.0488 43.9085 10.856 43.3033 10.856H41.3806ZM50.1065 21.2197C49.2123 21.2197 48.4745 20.751 47.8932 19.8135C47.2132 18.71 46.8732 17.2866 46.8732 15.5435C46.8732 14.4399 47.0091 13.417 47.2812 12.4746C47.5566 11.5322 47.9458 10.8315 48.449 10.3726C48.9556 9.91357 49.5098 9.68408 50.1116 9.68408C50.6352 9.68408 51.0993 9.85254 51.5038 10.1895C51.9084 10.5215 52.2399 10.9561 52.4983 11.4932C52.7601 12.0254 52.9573 12.6309 53.0898 13.3096C53.2225 13.9883 53.2888 14.7109 53.2888 15.4775C53.2888 16.3174 53.2173 17.0522 53.0746 17.6821C52.9318 18.3071 52.7584 18.832 52.5544 19.2568C52.3538 19.6768 52.1498 20.0088 51.9424 20.2529C51.6704 20.5801 51.3627 20.8242 51.0193 20.9854C50.6793 21.1416 50.375 21.2197 50.1065 21.2197ZM50.03 20.2163C50.6963 20.2163 51.2658 19.8184 51.7384 19.0225C52.2144 18.2217 52.4524 17.0547 52.4524 15.5215C52.4524 13.9004 52.1923 12.6309 51.6721 11.7129C51.2642 11 50.732 10.6436 50.0758 10.6436C49.4367 10.6436 48.8842 11.0488 48.4185 11.8594C47.9526 12.665 47.7197 13.8711 47.7197 15.4775C47.7197 17.0596 47.9492 18.2461 48.4082 19.0371C48.8672 19.8232 49.4078 20.2163 50.03 20.2163ZM55.0176 9.89648H57.5777C58.4753 9.89648 59.1587 10.1919 59.6279 10.7827C60.1004 11.3735 60.3367 12.0718 60.3367 12.8774C60.3367 13.3462 60.2738 13.7612 60.1481 14.1226C60.0222 14.479 59.8352 14.7964 59.587 15.0747C59.3422 15.353 59.0499 15.5752 58.7099 15.7412C58.3699 15.9023 57.9483 15.9829 57.4451 15.9829H55.7622V21H55.0176V9.89648ZM55.752 10.856V15.0161H57.389C58.1472 15.0161 58.6861 14.8232 59.0056 14.4375C59.3252 14.0518 59.485 13.5464 59.485 12.9214C59.485 12.2085 59.2725 11.6641 58.8476 11.2881C58.5212 11 57.9993 10.856 57.282 10.856H55.752ZM62.086 9.89648H66.6401V10.9512H62.8356V14.5767H65.6661V15.646H62.8356V19.9307H67.0073V21H62.086V9.89648ZM68.5984 9.89648H70.9649C71.641 9.89648 72.1856 10.0112 72.5964 10.2407C73.0079 10.4702 73.331 10.8291 73.5656 11.3174C73.8037 11.8008 73.9228 12.3354 73.9228 12.9214C73.9228 13.561 73.7815 14.1299 73.4995 14.6279C73.2202 15.1211 72.7955 15.4922 72.2245 15.7412L74.1011 21H73.2954L71.4746 15.9609H69.3481V21H68.5984V9.89648ZM69.3481 10.856V15.0088H70.9956C71.3966 15.0088 71.7942 14.9136 72.189 14.7231C72.4745 14.5864 72.6939 14.3569 72.8463 14.0347C73.003 13.7075 73.081 13.3291 73.081 12.8994C73.081 12.3037 72.9299 11.8154 72.627 11.4346C72.3283 11.0488 71.8757 10.856 71.2706 10.856H69.3481ZM74.601 9.89648H80.2668V10.9585H77.8186V21H77.0694V10.9585H74.601V9.89648ZM80.8739 9.89648H81.6997L83.7657 15.0381L85.8357 9.89648H86.6622L84.1431 16.1733V21H83.3931V16.1733L80.8739 9.89648ZM28.3812 24.8965H29.5848L32.0633 36H31.3085L30.5282 32.5576H27.4122L26.632 36H25.8721L28.3812 24.8965ZM28.983 25.6289L27.6519 31.481H30.2886L28.983 25.6289ZM32.3234 24.8965H33.0628L34.6744 33.7441L36.3012 24.8965H37.0662L38.6778 33.7441L40.2995 24.8965H41.0288L38.9939 36H38.3462L36.6786 26.874L35.0059 36H34.3327L32.3234 24.8965ZM44.0173 24.8965H45.2209L47.6993 36H46.9446L46.1643 32.5576H43.0483L42.2681 36H41.5081L44.0173 24.8965ZM44.619 25.6289L43.288 31.481H45.9246L44.619 25.6289ZM49.0253 24.8965H51.3916C52.0682 24.8965 52.6122 25.0112 53.0235 25.2407C53.4349 25.4702 53.7579 25.8291 53.9925 26.3174C54.2305 26.8008 54.3495 27.3354 54.3495 27.9214C54.3495 28.561 54.2084 29.1299 53.9262 29.6279C53.6474 30.1211 53.2225 30.4922 52.6513 30.7412L54.528 36H53.7222L51.9016 30.9609H49.775V36H49.0253V24.8965ZM49.775 25.856V30.0088H51.4222C51.8234 30.0088 52.2212 29.9136 52.6156 29.7231C52.9011 29.5864 53.1205 29.3569 53.2735 29.0347C53.4298 28.7075 53.508 28.3291 53.508 27.8994C53.508 27.3037 53.3567 26.8154 53.0542 26.4346C52.755 26.0488 52.3028 25.856 51.6976 25.856H49.775ZM56.0987 24.8965H58.3172C59.4426 24.8965 60.3316 25.3774 60.9844 26.3394C61.6406 27.3013 61.9687 28.6367 61.9687 30.3457C61.9687 31.2197 61.8888 32.0229 61.729 32.7554C61.61 33.3071 61.4417 33.7832 61.2241 34.1836C61.0065 34.584 60.76 34.9185 60.4846 35.187C60.284 35.3774 60.046 35.541 59.7707 35.6777C59.3218 35.8926 58.749 36 58.052 36H56.0987V24.8965ZM56.8382 25.8633V35.0186H58.4753C59.1213 35.0186 59.6907 34.7207 60.1837 34.125C60.8093 33.3779 61.1221 32.1548 61.1221 30.4556C61.1221 28.7222 60.8008 27.4746 60.1582 26.7129C59.6822 26.1465 59.0822 25.8633 58.358 25.8633H56.8382ZM64.0035 32.8872C64.0885 33.3267 64.1837 33.666 64.2891 33.9053C64.4659 34.3008 64.6988 34.6182 64.9877 34.8574C65.2768 35.0918 65.6269 35.209 66.0383 35.209C66.6129 35.209 67.0634 34.999 67.3898 34.5791C67.7196 34.1543 67.8845 33.6514 67.8845 33.0703C67.8845 32.543 67.7366 32.0938 67.4408 31.7227C67.213 31.4443 66.754 31.1636 66.0639 30.8804C65.1323 30.4946 64.4676 30.0479 64.0698 29.54C63.672 29.0371 63.4731 28.4146 63.4731 27.6724C63.4731 26.8569 63.6941 26.1562 64.1361 25.5703C64.5814 24.9795 65.1646 24.6841 65.8853 24.6841C66.3239 24.6841 66.737 24.8013 67.1246 25.0356C67.5122 25.27 67.8368 25.6191 68.0986 26.083C68.2788 26.4053 68.4217 26.8252 68.5271 27.3428L67.7467 27.687C67.6142 27.0278 67.3847 26.5225 67.0583 26.1709C66.7353 25.8193 66.3477 25.6436 65.8956 25.6436C65.4162 25.6436 65.0303 25.8315 64.7379 26.2075C64.4455 26.5835 64.2993 27.0278 64.2993 27.5405C64.2993 27.9604 64.4183 28.3413 64.6563 28.6831C64.8909 29.0249 65.4077 29.3618 66.2066 29.6938C67.1552 30.0845 67.8097 30.5361 68.1701 31.0488C68.5271 31.5664 68.7055 32.2183 68.7055 33.0044C68.7055 33.8931 68.4625 34.6523 67.9762 35.2822C67.4901 35.9072 66.8441 36.2197 66.0383 36.2197C65.5352 36.2197 65.0745 36.0781 64.6563 35.7949C64.2381 35.5068 63.8981 35.1089 63.6363 34.6011C63.4561 34.2593 63.3099 33.7905 63.1977 33.1948L64.0035 32.8872Z" fill="#1C1C1C"/>
<path d="M19.0859 48.377H21.1367C21.7231 48.377 22.1946 48.4764 22.5511 48.6753C22.9076 48.8742 23.1875 49.1852 23.3909 49.6084C23.5971 50.0273 23.7002 50.4907 23.7002 50.9985C23.7002 51.5529 23.578 52.0459 23.3334 52.4775C23.0918 52.9049 22.7235 53.2266 22.2285 53.4424L23.8549 58H23.1566L21.5787 53.6328H19.7357V58H19.0859V48.377ZM19.7357 49.2085V52.8076H21.1633C21.5109 52.8076 21.8557 52.7251 22.1975 52.5601C22.445 52.4416 22.6351 52.2427 22.7677 51.9634C22.9032 51.6799 22.971 51.3519 22.971 50.9795C22.971 50.4632 22.8399 50.04 22.5776 49.71C22.3183 49.3757 21.9264 49.2085 21.402 49.2085H19.7357ZM25.2251 48.377H29.172V49.291H25.8748V52.4331H28.3278V53.3599H25.8748V57.0732H29.4903V58H25.2251V48.377ZM32.2748 48.377H33.3178L35.4659 58H34.8117L34.1355 55.0166H31.435L30.7587 58H30.1002L32.2748 48.377ZM32.7963 49.0117L31.6427 54.0835H33.9278L32.7963 49.0117ZM36.6416 48.377H37.2868V57.0542H40.5133V58H36.6416V48.377ZM44.6459 48.377H48.5928V49.291H45.2956V52.4331H47.7486V53.3599H45.2956V57.0732H48.9111V58H44.6459V48.377ZM50.542 55.3022C50.6156 55.6831 50.6981 55.9772 50.7895 56.1846C50.9427 56.5273 51.1445 56.8024 51.3951 57.0098C51.6455 57.2129 51.949 57.3145 52.3055 57.3145C52.8035 57.3145 53.1939 57.1325 53.4768 56.7686C53.7626 56.4004 53.9055 55.9645 53.9055 55.4609C53.9055 55.0039 53.7773 54.6146 53.521 54.293C53.3235 54.0518 52.9258 53.8084 52.3276 53.563C51.5203 53.2287 50.9442 52.8415 50.5995 52.4014C50.2547 51.9655 50.0823 51.4259 50.0823 50.7827C50.0823 50.076 50.2739 49.4688 50.6569 48.9609C51.0429 48.4489 51.5482 48.1929 52.1729 48.1929C52.553 48.1929 52.911 48.2944 53.2469 48.4976C53.5828 48.7007 53.8643 49.0033 54.0911 49.4053C54.2473 49.6846 54.371 50.0485 54.4624 50.4971L53.7861 50.7954C53.6713 50.2241 53.4723 49.7861 53.1895 49.4814C52.9096 49.1768 52.5737 49.0244 52.1817 49.0244C51.7663 49.0244 51.4318 49.1873 51.1784 49.5132C50.9251 49.839 50.7983 50.2241 50.7983 50.6685C50.7983 51.0324 50.9015 51.3625 51.1078 51.6587C51.311 51.9549 51.7589 52.2469 52.4513 52.5347C53.2735 52.8732 53.8407 53.2646 54.153 53.709C54.4624 54.1576 54.6171 54.7225 54.6171 55.4038C54.6171 56.174 54.4064 56.832 53.9851 57.3779C53.5637 57.9196 53.0039 58.1904 52.3055 58.1904C51.8694 58.1904 51.4702 58.0677 51.1078 57.8223C50.7453 57.5726 50.4507 57.2277 50.2237 56.7876C50.0676 56.4914 49.9409 56.0851 49.8436 55.5688L50.542 55.3022ZM55.5364 48.377H60.4469V49.2974H58.3254V58H57.6757V49.2974H55.5364V48.377ZM62.3916 48.377H63.4347L65.5827 58H64.9286L64.2524 55.0166H61.5519L60.8756 58H60.2171L62.3916 48.377ZM62.9131 49.0117L61.7596 54.0835H64.0446L62.9131 49.0117ZM65.3131 48.377H70.2237V49.2974H68.1021V58H67.4523V49.2974H65.3131V48.377ZM71.5008 48.377H75.4481V49.291H72.1504V52.4331H74.6035V53.3599H72.1504V57.0732H75.7663V58H71.5008V48.377Z" fill="#1C1C1C"/>
<path d="M24.8304 73.2539H25.9387L26.2311 71.2764H26.6459L26.3501 73.2539H27.7848L28.0738 71.2764H28.4886L28.1962 73.2539H28.8694V73.8496H28.1146L27.8528 75.6611H28.8694V76.2617H27.7712L27.4856 78.2246H27.0641L27.3564 76.2617H25.9149L25.6361 78.2246H25.2145L25.5035 76.2617H24.8304V75.6611H25.5919L25.8537 73.8496H24.8304V73.2539ZM26.2685 73.8496L26.0033 75.6514H27.4415L27.7032 73.8496H26.2685ZM31.8402 70.5977H32.3366V77.3555H33.1661V78H30.9053V77.3555H31.8402V71.4277C31.3733 71.5775 31.0616 71.654 30.9053 71.6572V71.1152C31.3042 71.0306 31.6158 70.8581 31.8402 70.5977ZM38.5332 70.5977H40.1108C40.5618 70.5977 40.9245 70.6742 41.1988 70.8271C41.473 70.9801 41.6883 71.2194 41.8447 71.5449C42.0034 71.8672 42.0827 72.2236 42.0827 72.6143C42.0827 73.0407 41.9886 73.4199 41.8005 73.752C41.6146 74.0807 41.3313 74.3281 40.9505 74.4941L42.2017 78H41.6645L40.4508 74.6406H39.033V78H38.5332V70.5977ZM39.033 71.2373V74.0059H40.1312C40.3986 74.0059 40.6638 73.9424 40.9267 73.8154C41.1171 73.7243 41.2633 73.5713 41.3653 73.3564C41.4696 73.1383 41.5217 72.8861 41.5217 72.5996C41.5217 72.2025 41.4209 71.877 41.2191 71.623C41.0197 71.3659 40.7182 71.2373 40.3147 71.2373H39.033ZM45.023 70.5977H45.8253L47.4777 78H46.9745L46.4543 75.7051H44.3769L43.8568 78H43.3502L45.023 70.5977ZM45.4241 71.0859L44.5367 74.9873H46.2945L45.4241 71.0859ZM49.0511 70.5977H49.8331L52.383 76.6475V70.5977H52.8794V78H52.383L49.5509 71.2422V78H49.0511V70.5977ZM55.0444 70.5977H55.5442V74.4111L57.9513 70.5977H58.6007L56.8259 73.4053L58.8421 78H58.2743L56.4928 73.9375L55.5442 75.4316V78H55.0444V70.5977ZM60.3952 70.5977H63.4313V71.3008H60.8949V73.7178H62.7818V74.4307H60.8949V77.2871H63.676V78H60.3952V70.5977ZM65.4365 70.5977H66.9155C67.6657 70.5977 68.2584 70.9183 68.6936 71.5596C69.131 72.2008 69.3498 73.0911 69.3498 74.2305C69.3498 74.8132 69.2965 75.3486 69.19 75.8369C69.1106 76.2048 68.9984 76.5221 68.8534 76.7891C68.7083 77.056 68.544 77.279 68.3604 77.458C68.2267 77.585 68.068 77.694 67.8844 77.7852C67.5852 77.9284 67.2033 78 66.7387 78H65.4365V70.5977ZM65.9295 71.2422V77.3457H67.0208C67.4515 77.3457 67.8312 77.1471 68.1598 76.75C68.5768 76.252 68.7854 75.4365 68.7854 74.3037C68.7854 73.1481 68.5712 72.3164 68.1428 71.8086C67.8255 71.431 67.4254 71.2422 66.9426 71.2422H65.9295ZM6.29688 80.5977H8.00359C8.60198 80.5977 9.05757 80.7946 9.37035 81.1885C9.68542 81.5824 9.84292 82.0479 9.84292 82.585C9.84292 82.8975 9.80101 83.1742 9.71717 83.415C9.63327 83.6527 9.50863 83.8643 9.34319 84.0498C9.17998 84.2354 8.98502 84.3835 8.75837 84.4941C8.53173 84.6016 8.2507 84.6553 7.91523 84.6553H6.79326V88H6.29688V80.5977ZM6.78646 81.2373V84.0107H7.87784C8.38328 84.0107 8.7425 83.8822 8.95556 83.625C9.16863 83.3678 9.27516 83.0309 9.27516 82.6143C9.27516 82.139 9.13354 81.776 8.85021 81.5254C8.63262 81.3333 8.28468 81.2373 7.8064 81.2373H6.78646ZM11.6952 80.5977H13.2727C13.7238 80.5977 14.0864 80.6742 14.3607 80.8271C14.635 80.9801 14.8503 81.2194 15.0067 81.5449C15.1653 81.8672 15.2447 82.2236 15.2447 82.6143C15.2447 83.0407 15.1507 83.4199 14.9625 83.752C14.7767 84.0807 14.4933 84.3281 14.1125 84.4941L15.3637 88H14.8265L13.6127 84.6406H12.195V88H11.6952V80.5977ZM12.195 81.2373V84.0059H13.2931C13.5606 84.0059 13.8258 83.9424 14.0887 83.8154C14.2791 83.7243 14.4253 83.5713 14.5273 83.3564C14.6316 83.1383 14.6837 82.8861 14.6837 82.5996C14.6837 82.2025 14.5828 81.877 14.3811 81.623C14.1817 81.3659 13.8802 81.2373 13.4768 81.2373H12.195ZM17.2363 80.5977H17.7361V88H17.2363V80.5977ZM19.4898 80.5977H19.9964L21.4889 86.8281L22.9747 80.5977H23.4779L21.7133 88H21.2543L19.4898 80.5977ZM25.8945 80.5977H26.6968L28.3492 88H27.846L27.3258 85.7051H25.2485L24.7283 88H24.2217L25.8945 80.5977ZM26.2957 81.0859L25.4083 84.9873H27.1661L26.2957 81.0859ZM28.8381 80.5977H32.6154V81.3057H30.9835V88H30.4837V81.3057H28.8381V80.5977ZM34.2943 80.5977H37.3303V81.3008H34.794V83.7178H36.681V84.4307H34.794V87.2871H37.5752V88H34.2943V80.5977ZM42.2146 80.5977H43.986C44.5934 80.5977 45.0535 80.7865 45.3663 81.1641C45.6791 81.5417 45.8355 81.9762 45.8355 82.4678C45.8355 82.8063 45.7584 83.1286 45.6043 83.4346C45.4502 83.7373 45.2144 83.9847 44.8971 84.1768C45.2598 84.3753 45.5295 84.6406 45.7063 84.9727C45.8831 85.3014 45.9715 85.6465 45.9715 86.0078C45.9715 86.5156 45.806 86.9746 45.4751 87.3848C45.1442 87.7949 44.6795 88 44.0811 88H42.2146V80.5977ZM42.711 81.252V83.8838H43.646C44.2625 83.8838 44.6886 83.7552 44.9244 83.498C45.1623 83.2376 45.2813 82.9202 45.2813 82.5459C45.2813 82.1911 45.1759 81.8867 44.9652 81.6328C44.7543 81.3789 44.437 81.252 44.0132 81.252H42.711ZM42.711 84.5186V87.3457H44.0641C44.4903 87.3457 44.8427 87.1829 45.1215 86.8574C45.3164 86.6296 45.4139 86.3219 45.4139 85.9346C45.4139 85.6644 45.3561 85.4202 45.2405 85.2021C45.1272 84.984 44.9526 84.8164 44.7169 84.6992C44.4835 84.5788 44.2171 84.5186 43.9179 84.5186H42.711ZM47.8306 80.5977H49.4081C49.8591 80.5977 50.2218 80.6742 50.496 80.8271C50.7703 80.9801 50.9856 81.2194 51.142 81.5449C51.3007 81.8672 51.38 82.2236 51.38 82.6143C51.38 83.0407 51.286 83.4199 51.0979 83.752C50.9119 84.0807 50.6286 84.3281 50.2479 84.4941L51.499 88H50.9619L49.7481 84.6406H48.3304V88H47.8306V80.5977ZM48.3304 81.2373V84.0059H49.4285C49.6959 84.0059 49.9612 83.9424 50.2241 83.8154C50.4144 83.7243 50.5607 83.5713 50.6627 83.3564C50.7669 83.1383 50.8191 82.8861 50.8191 82.5996C50.8191 82.2025 50.7182 81.877 50.5164 81.623C50.317 81.3659 50.0155 81.2373 49.6121 81.2373H48.3304ZM54.8439 88.1465C54.2477 88.1465 53.7559 87.834 53.3683 87.209C52.915 86.4733 52.6883 85.5244 52.6883 84.3623C52.6883 83.6266 52.779 82.9447 52.9603 82.3164C53.1438 81.6882 53.4034 81.221 53.7388 80.915C54.0766 80.609 54.4461 80.4561 54.8472 80.4561C55.1963 80.4561 55.5057 80.5684 55.7754 80.793C56.0451 81.0143 56.2661 81.304 56.4384 81.6621C56.6129 82.0169 56.7443 82.4206 56.8328 82.873C56.9211 83.3255 56.9653 83.8073 56.9653 84.3184C56.9653 84.8783 56.9178 85.3682 56.8225 85.7881C56.7273 86.2048 56.6118 86.5547 56.4758 86.8379C56.342 87.1178 56.206 87.3392 56.0678 87.502C55.8864 87.7201 55.6814 87.8828 55.4524 87.9902C55.2258 88.0944 55.0229 88.1465 54.8439 88.1465ZM54.7928 87.4775C55.2371 87.4775 55.6167 87.2122 55.9318 86.6816C56.2491 86.1478 56.4077 85.3698 56.4077 84.3477C56.4077 83.2669 56.2344 82.4206 55.8876 81.8086C55.6156 81.3333 55.2609 81.0957 54.8235 81.0957C54.3973 81.0957 54.029 81.3659 53.7184 81.9062C53.408 82.4434 53.2527 83.2474 53.2527 84.3184C53.2527 85.373 53.4057 86.1641 53.7117 86.6914C54.0176 87.2155 54.378 87.4775 54.7928 87.4775ZM58.804 80.5977H59.3038V84.4111L61.7109 80.5977H62.3603L60.5855 83.4053L62.6017 88H62.0339L60.2523 83.9375L59.3038 85.4316V88H58.804V80.5977ZM64.1547 80.5977H67.1909V81.3008H64.6545V83.7178H66.5415V84.4307H64.6545V87.2871H67.4356V88H64.1547V80.5977ZM69.1927 80.5977H70.7703C71.2215 80.5977 71.5843 80.6742 71.8579 80.8271C72.1323 80.9801 72.3481 81.2194 72.5041 81.5449C72.6628 81.8672 72.7422 82.2236 72.7422 82.6143C72.7422 83.0407 72.6482 83.4199 72.4602 83.752C72.2743 84.0807 71.9909 84.3281 71.61 84.4941L72.8613 88H72.3238L71.1101 84.6406H69.6924V88H69.1927V80.5977ZM69.6924 81.2373V84.0059H70.7905C71.0579 84.0059 71.3232 83.9424 71.5864 83.8154C71.7765 83.7243 71.9227 83.5713 72.025 83.3564C72.1288 83.1383 72.181 82.8861 72.181 82.5996C72.181 82.2025 72.08 81.877 71.8788 81.623C71.679 81.3659 71.3775 81.2373 70.9743 81.2373H69.6924ZM75.6827 80.5977H76.4848L78.1371 88H77.6337L77.1136 85.7051H75.0365L74.5164 88H74.0095L75.6827 80.5977ZM76.0838 81.0859L75.196 84.9873H76.9541L76.0838 81.0859ZM82.6477 87.0576C82.4535 87.4157 82.2369 87.6875 81.9988 87.873C81.7607 88.0553 81.4828 88.1465 81.166 88.1465C80.5763 88.1465 80.0993 87.8438 79.7344 87.2383C79.3083 86.5384 79.0952 85.5651 79.0952 84.3184C79.0952 83.0651 79.2992 82.1081 79.7073 81.4473C80.1174 80.7865 80.6159 80.4561 81.2029 80.4561C81.5316 80.4561 81.8379 80.5586 82.1213 80.7637C82.4047 80.9655 82.6366 81.2503 82.8183 81.6182C82.9471 81.8818 83.0551 82.2432 83.1414 82.7021L82.5969 82.8584C82.5315 82.5296 82.4576 82.2708 82.3762 82.082C82.2425 81.7728 82.0782 81.5335 81.8832 81.3643C81.6903 81.195 81.4773 81.1104 81.244 81.1104C80.8179 81.1104 80.446 81.3805 80.1285 81.9209C79.8117 82.458 79.653 83.2376 79.653 84.2598C79.653 84.8783 79.7198 85.4447 79.8535 85.959C79.9893 86.4733 80.1808 86.8558 80.4279 87.1064C80.6751 87.3571 80.9404 87.4824 81.2238 87.4824C81.4501 87.4824 81.6646 87.4092 81.8658 87.2627C82.0677 87.1162 82.2265 86.9339 82.3421 86.7158C82.4597 86.4945 82.5405 86.2633 82.5837 86.0225C82.6268 85.7816 82.6477 85.4886 82.6477 85.1436H81.3631V84.4307H83.1414V88H82.6477V87.0576ZM85.1565 80.5977H88.1923V81.3008H85.6564V83.7178H87.5434V84.4307H85.6564V87.2871H88.4374V88H85.1565V80.5977Z" fill="#1C1C1C"/>
<path d="M22.0847 97L23.179 101.837H26.7203L23.8554 104.826L24.9497 109.663L22.0847 106.674L19.2198 109.663L20.3141 104.826L17.4492 101.837H20.9904L22.0847 97Z" fill="#AAA6A1"/>
<path d="M34.6179 97L35.7122 101.837H39.2535L36.3886 104.826L37.4829 109.663L34.6179 106.674L31.753 109.663L32.8473 104.826L29.9824 101.837H33.5236L34.6179 97Z" fill="#AAA6A1"/>
<path d="M47.1511 97L48.2454 101.837H51.7867L48.9218 104.826L50.0161 109.663L47.1511 106.674L44.2862 109.663L45.3805 104.826L42.5156 101.837H46.0568L47.1511 97Z" fill="#AAA6A1"/>
<path d="M59.6844 97L60.7787 101.837H64.3199L61.455 104.826L62.5493 109.663L59.6844 106.674L56.8194 109.663L57.9137 104.826L55.0488 101.837H58.5901L59.6844 97Z" fill="#AAA6A1"/>
<path d="M72.2176 97L73.3121 101.837H76.8528L73.9882 104.826L75.0821 109.663L72.2176 106.674L69.3526 109.663L70.4469 104.826L67.582 101.837H71.123L72.2176 97Z" fill="#AAA6A1"/>
<path d="M14.0604 137.751V136.931C14.0604 136.527 14.151 136.205 14.3323 135.964C14.5137 135.72 14.7675 135.598 15.0939 135.598C15.1664 135.598 15.2537 135.603 15.3557 135.612V136.281C15.256 136.265 15.1744 136.257 15.1109 136.257C14.9296 136.257 14.7913 136.324 14.6962 136.457C14.601 136.59 14.5533 136.77 14.5533 136.994V137.751H15.3081V138.4H14.5533V143H14.0604V138.4H13.377V137.751H14.0604ZM16.3417 135.598H16.838V143H16.3417V135.598ZM19.6124 143.107C19.1432 143.107 18.7488 142.862 18.4292 142.37C18.1096 141.879 17.9498 141.218 17.9498 140.388C17.9498 139.834 18.0201 139.344 18.1606 138.918C18.3034 138.488 18.5018 138.169 18.7556 137.961C19.0094 137.749 19.2792 137.644 19.5648 137.644C19.8413 137.644 20.1053 137.753 20.357 137.971C20.6108 138.186 20.8114 138.513 20.9587 138.952C21.106 139.388 21.1797 139.877 21.1797 140.417C21.1797 141.241 21.0244 141.895 20.7139 142.38C20.4034 142.865 20.0362 143.107 19.6124 143.107ZM19.5681 142.502C19.8673 142.502 20.1269 142.316 20.3467 141.945C20.5689 141.574 20.6799 141.042 20.6799 140.349C20.6799 139.665 20.5723 139.144 20.357 138.786C20.1416 138.428 19.8821 138.249 19.5784 138.249C19.2565 138.249 18.9857 138.431 18.7658 138.796C18.5482 139.16 18.4394 139.681 18.4394 140.358C18.4394 141.052 18.5493 141.582 18.7692 141.95C18.989 142.318 19.2554 142.502 19.5681 142.502ZM22.7267 138.938C22.9306 138.488 23.1437 138.16 23.3658 137.951C23.5902 137.743 23.8452 137.639 24.1308 137.639C24.1625 137.639 24.2079 137.64 24.2668 137.644L24.1954 138.43L24.0152 138.415C23.8838 138.405 23.7364 138.451 23.5732 138.552C23.41 138.649 23.2639 138.806 23.1346 139.021C23.0077 139.235 22.908 139.502 22.8354 139.821C22.763 140.14 22.7267 140.422 22.7267 140.666V143H22.2303V137.751H22.7267V138.938ZM25.1202 135.666H25.6166V136.521H25.1202V135.666ZM25.1202 137.751H25.6166V143H25.1202V137.751ZM29.4755 135.598H29.9684V141.364C29.9684 141.664 29.982 141.975 30.0092 142.297C30.0364 142.616 30.067 142.85 30.101 143H29.591C29.5366 142.73 29.5083 142.487 29.506 142.272C29.2861 142.549 29.0685 142.757 28.8533 142.897C28.6402 143.037 28.4294 143.107 28.2209 143.107C27.8084 143.107 27.4536 142.868 27.1567 142.39C26.8621 141.908 26.7147 141.242 26.7147 140.393C26.7147 139.523 26.8632 138.848 27.1601 138.366C27.4593 137.884 27.8151 137.644 28.2277 137.644C28.4385 137.644 28.6436 137.709 28.8431 137.839C29.0425 137.966 29.2533 138.169 29.4755 138.449V135.598ZM29.4755 139.064C29.2714 138.804 29.0708 138.61 28.8737 138.483C28.6765 138.353 28.4827 138.288 28.2922 138.288C27.9818 138.288 27.7234 138.462 27.5171 138.811C27.3108 139.156 27.2077 139.668 27.2077 140.349C27.2077 141.062 27.3131 141.595 27.5239 141.95C27.7347 142.302 27.9919 142.478 28.2957 142.478C28.4815 142.478 28.673 142.412 28.8702 142.282C29.0674 142.149 29.2691 141.95 29.4755 141.687V139.064ZM31.0972 138.659C31.3306 138.311 31.5834 138.055 31.8553 137.893C32.1274 137.727 32.3936 137.644 32.6543 137.644C32.9558 137.644 33.2119 137.74 33.4227 137.932C33.6358 138.124 33.7831 138.361 33.8647 138.645C33.9259 138.863 33.9565 139.154 33.9565 139.519V141.745C33.9565 142.188 33.9916 142.606 34.0619 143H33.5553C33.4941 142.691 33.4612 142.398 33.4567 142.121C33.23 142.45 32.9989 142.697 32.7631 142.863C32.5297 143.026 32.2905 143.107 32.0458 143.107C31.7352 143.107 31.4848 142.974 31.2944 142.707C31.104 142.437 31.0088 142.098 31.0088 141.691C31.0088 141.359 31.0824 141.049 31.2298 140.759C31.3771 140.469 31.6061 140.241 31.9165 140.075C32.1432 139.955 32.6566 139.769 33.4567 139.519V139.191C33.4567 138.915 33.3887 138.684 33.2527 138.498C33.119 138.312 32.949 138.22 32.7427 138.22C32.5569 138.22 32.3631 138.286 32.1614 138.42C31.9619 138.55 31.7284 138.778 31.461 139.104L31.0972 138.659ZM33.4567 141.711V140.041C32.9059 140.23 32.5433 140.368 32.3687 140.456C32.0899 140.593 31.8848 140.77 31.7533 140.988C31.6242 141.203 31.5595 141.433 31.5595 141.677C31.5595 141.908 31.6151 142.1 31.7262 142.253C31.8395 142.403 31.9902 142.478 32.1783 142.478C32.3574 142.478 32.5534 142.414 32.7665 142.287C32.9796 142.157 33.2096 141.965 33.4567 141.711ZM35.2858 135.598H35.7822V143H35.2858V135.598ZM37.0878 137.751H37.5842V141.193C37.5842 141.574 37.6487 141.872 37.778 142.087C37.9094 142.302 38.0647 142.409 38.2437 142.409C38.4047 142.409 38.5803 142.347 38.7707 142.224C38.9611 142.097 39.2025 141.859 39.4949 141.511V137.751H39.9947V143H39.4949V142.155C39.2184 142.471 38.9656 142.709 38.7367 142.868C38.5078 143.028 38.3015 143.107 38.118 143.107C37.9412 143.107 37.7745 143.05 37.6182 142.937C37.464 142.819 37.3371 142.629 37.2374 142.365C37.1376 142.098 37.0878 141.752 37.0878 141.325V137.751ZM40.899 137.751H41.4736L42.395 139.67L43.3061 137.751H43.8807L42.6806 140.28L43.9657 143H43.398L42.395 140.886L41.3988 143H40.8243L42.1094 140.28L40.899 137.751ZM44.7103 137.751H45.2067V141.193C45.2067 141.574 45.2713 141.872 45.4005 142.087C45.532 142.302 45.6872 142.409 45.8663 142.409C46.0272 142.409 46.2029 142.347 46.3932 142.224C46.5837 142.097 46.825 141.859 47.1175 141.511V137.751H47.6172V143H47.1175V142.155C46.8409 142.471 46.5882 142.709 46.3593 142.868C46.1303 143.028 45.9241 143.107 45.7405 143.107C45.5637 143.107 45.3971 143.05 45.2407 142.937C45.0866 142.819 44.9596 142.629 44.8599 142.365C44.7602 142.098 44.7103 141.752 44.7103 141.325V137.751ZM49.4429 138.938C49.647 138.488 49.86 138.16 50.0821 137.951C50.3065 137.743 50.5615 137.639 50.8471 137.639C50.8788 137.639 50.9242 137.64 50.9831 137.644L50.9117 138.43L50.7315 138.415C50.6 138.405 50.4527 138.451 50.2895 138.552C50.1264 138.649 49.9801 138.806 49.851 139.021C49.724 139.235 49.6243 139.502 49.5518 139.821C49.4792 140.14 49.4429 140.422 49.4429 140.666V143H48.9466V137.751H49.4429V138.938ZM51.8365 135.666H52.3328V136.521H51.8365V135.666ZM51.8365 137.751H52.3328V143H51.8365V137.751ZM55.1072 143.107C54.638 143.107 54.2436 142.862 53.924 142.37C53.6044 141.879 53.4446 141.218 53.4446 140.388C53.4446 139.834 53.5149 139.344 53.6554 138.918C53.7982 138.488 53.9965 138.169 54.2504 137.961C54.5042 137.749 54.774 137.644 55.0595 137.644C55.3361 137.644 55.6001 137.753 55.8517 137.971C56.1056 138.186 56.3062 138.513 56.4535 138.952C56.6009 139.388 56.6745 139.877 56.6745 140.417C56.6745 141.241 56.5193 141.895 56.2087 142.38C55.8982 142.865 55.531 143.107 55.1072 143.107ZM55.063 142.502C55.3622 142.502 55.6217 142.316 55.8416 141.945C56.0637 141.574 56.1747 141.042 56.1747 140.349C56.1747 139.665 56.0671 139.144 55.8517 138.786C55.6364 138.428 55.3769 138.249 55.0732 138.249C54.7513 138.249 54.4804 138.431 54.2606 138.796C54.043 139.16 53.9342 139.681 53.9342 140.358C53.9342 141.052 54.0441 141.582 54.264 141.95C54.4838 142.318 54.7502 142.502 55.063 142.502ZM57.6299 137.751H58.1262V141.193C58.1262 141.574 58.1909 141.872 58.32 142.087C58.4515 142.302 58.6068 142.409 58.7858 142.409C58.9468 142.409 59.1224 142.347 59.3128 142.224C59.5032 142.097 59.7446 141.859 60.037 141.511V137.751H60.5368V143H60.037V142.155C59.7604 142.471 59.5078 142.709 59.2788 142.868C59.0499 143.028 58.8436 143.107 58.66 143.107C58.4832 143.107 58.3167 143.05 58.1602 142.937C58.0061 142.819 57.8792 142.629 57.7795 142.365C57.6797 142.098 57.6299 141.752 57.6299 141.325V137.751ZM61.8968 139.958C61.7177 139.688 61.6281 139.387 61.6281 139.055C61.6281 138.671 61.7381 138.34 61.9579 138.063C62.1778 137.784 62.4838 137.644 62.8759 137.644C63.1366 137.644 63.3824 137.712 63.6137 137.849C63.8472 137.985 64.0455 138.187 64.2087 138.454L63.8313 138.908C63.6908 138.677 63.5457 138.508 63.3961 138.4C63.2465 138.29 63.0754 138.234 62.8827 138.234C62.6357 138.234 62.4475 138.311 62.3183 138.464C62.1914 138.617 62.1279 138.794 62.1279 138.996C62.1279 139.169 62.1778 139.323 62.2775 139.46C62.375 139.597 62.6039 139.732 62.9643 139.865C63.5196 140.07 63.8936 140.319 64.0863 140.612C64.2789 140.905 64.3752 141.228 64.3752 141.579C64.3752 141.999 64.2596 142.359 64.0285 142.658C63.7995 142.958 63.4867 143.107 63.0901 143.107C62.8 143.107 62.5325 143.029 62.2877 142.873C62.0429 142.717 61.7845 142.456 61.5125 142.092L61.9376 141.662C62.1415 141.955 62.3331 142.165 62.5121 142.292C62.6912 142.416 62.8804 142.478 63.0799 142.478C63.3338 142.478 63.5298 142.391 63.6681 142.219C63.8086 142.043 63.8788 141.838 63.8788 141.604C63.8788 141.408 63.8267 141.241 63.7224 141.101C63.5751 140.902 63.2793 140.72 62.8351 140.554C62.5608 140.45 62.3331 140.334 62.1517 140.207C62.0611 140.145 61.9761 140.062 61.8968 139.958ZM65.4156 141.887H66.0888V143H65.4156V141.887ZM70.2538 141.726C70.0882 142.152 69.9069 142.471 69.7097 142.683C69.4468 142.966 69.151 143.107 68.8223 143.107C68.5367 143.107 68.2681 142.997 68.0165 142.775C67.7672 142.554 67.5734 142.233 67.4352 141.813C67.2991 141.394 67.2311 140.912 67.2311 140.368C67.2311 139.532 67.3864 138.869 67.6969 138.381C68.0097 137.889 68.386 137.644 68.8257 137.644C69.1226 137.644 69.3923 137.756 69.6348 137.98C69.8774 138.205 70.0837 138.542 70.2538 138.991L69.8219 139.328C69.6836 138.96 69.534 138.687 69.3731 138.508C69.2121 138.326 69.0274 138.234 68.8189 138.234C68.5219 138.234 68.2647 138.417 68.0471 138.781C67.8318 139.146 67.7241 139.689 67.7241 140.412C67.7241 141.05 67.8329 141.555 68.0505 141.926C68.2704 142.297 68.5219 142.482 68.8053 142.482C69.2337 142.482 69.5725 142.116 69.8219 141.384L70.2538 141.726ZM72.6031 143.107C72.1338 143.107 71.739 142.862 71.4201 142.37C71.1005 141.879 70.9404 141.218 70.9404 140.388C70.9404 139.834 71.0107 139.344 71.1514 138.918C71.2941 138.488 71.4926 138.169 71.746 137.961C72.0002 137.749 72.2696 137.644 72.5551 137.644C72.8322 137.644 73.0961 137.753 73.3475 137.971C73.6016 138.186 73.8022 138.513 73.9491 138.952C74.0967 139.388 74.1705 139.877 74.1705 140.417C74.1705 141.241 74.0152 141.895 73.7047 142.38C73.3941 142.865 73.0265 143.107 72.6031 143.107ZM72.5586 142.502C72.858 142.502 73.1177 142.316 73.337 141.945C73.5592 141.574 73.6706 141.042 73.6706 140.349C73.6706 139.665 73.5626 139.144 73.3475 138.786C73.1323 138.428 72.8726 138.249 72.569 138.249C72.2473 138.249 71.9765 138.431 71.7564 138.796C71.5385 139.16 71.4299 139.681 71.4299 140.358C71.4299 141.052 71.5399 141.582 71.7599 141.95C71.98 142.318 72.2459 142.502 72.5586 142.502ZM75.7205 138.581C76.1445 138.174 76.4537 137.917 76.6486 137.81C76.8436 137.699 77.0316 137.644 77.2133 137.644C77.4153 137.644 77.5886 137.72 77.7335 137.873C77.8783 138.023 77.9918 138.259 78.0732 138.581C78.4973 138.171 78.8058 137.912 78.9979 137.805C79.1929 137.697 79.3844 137.644 79.5724 137.644C79.8265 137.644 80.0305 137.748 80.1844 137.956C80.3975 138.249 80.504 138.628 80.504 139.094V143H80.0048V139.304C80.0048 138.998 79.9477 138.754 79.8342 138.571C79.7235 138.386 79.5912 138.293 79.4366 138.293C79.2959 138.293 79.1281 138.353 78.9339 138.474C78.741 138.591 78.4667 138.833 78.1108 139.201V143H77.6144V139.304C77.6144 138.991 77.5601 138.745 77.4515 138.566C77.3421 138.384 77.2168 138.293 77.0741 138.293C76.9174 138.293 76.7426 138.352 76.5505 138.469C76.3597 138.583 76.0832 138.827 75.7205 139.201V143H75.2177V137.751H75.7205V138.581Z" fill="#1C1C1C"/>
<path d="M27.2494 161.84C27.3854 160.926 27.603 160.145 27.9022 159.496C28.3319 158.582 28.8704 157.891 29.5178 157.422C30.1706 156.953 30.8669 156.719 31.6067 156.719C32.8143 156.719 33.7989 157.211 34.5605 158.195C35.322 159.172 35.7028 160.312 35.7028 161.617C35.7028 162.328 35.594 163.031 35.3764 163.727C35.1588 164.422 34.8433 165.094 34.4299 165.742C34.1253 166.219 33.5351 166.984 32.6593 168.039C31.7889 169.094 31.1742 169.883 30.8152 170.406C30.4561 170.922 30.1216 171.477 29.8116 172.07H35.662V175H26.9883V174.438C26.9883 173.586 27.1134 172.766 27.3636 171.977C27.6138 171.188 28.03 170.332 28.612 169.41C28.933 168.902 29.681 167.91 30.856 166.434C31.7372 165.316 32.2785 164.598 32.4798 164.277C32.7735 163.824 32.9856 163.391 33.1162 162.977C33.2467 162.555 33.312 162.16 33.312 161.793C33.312 161.152 33.138 160.598 32.7898 160.129C32.4471 159.66 32.0065 159.426 31.468 159.426C30.9512 159.426 30.4861 159.676 30.0727 160.176C29.6646 160.676 29.3491 161.469 29.1261 162.555L27.2494 161.84ZM41.79 156.719C43.2696 156.719 44.4283 157.426 45.2661 158.84C46.1038 160.246 46.5227 162.637 46.5227 166.012C46.5227 169.395 46.1119 171.797 45.2905 173.219C44.4691 174.641 43.3703 175.352 41.994 175.352C41.0856 175.352 40.3648 175.148 39.8317 174.742C39.0211 174.125 38.4227 173.242 38.0366 172.094C37.5415 170.625 37.294 168.648 37.294 166.164C37.294 162.742 37.7047 160.312 38.5261 158.875C39.353 157.438 40.4409 156.719 41.79 156.719ZM41.9287 159.625C41.5208 159.625 41.1345 159.836 40.77 160.258C40.411 160.68 40.1445 161.316 39.9704 162.168C39.8017 163.012 39.7174 164.602 39.7174 166.938C39.7174 169 39.935 170.438 40.3702 171.25C40.8054 172.062 41.3222 172.469 41.9206 172.469C42.3014 172.469 42.6794 172.266 43.0548 171.859C43.4301 171.445 43.7021 170.84 43.8708 170.043C44.0393 169.238 44.1236 167.777 44.1236 165.66C44.1236 163.285 43.9061 161.688 43.4709 160.867C43.0357 160.039 42.5217 159.625 41.9287 159.625ZM48.1383 161.84C48.2743 160.926 48.4919 160.145 48.7911 159.496C49.2208 158.582 49.7593 157.891 50.4067 157.422C51.0595 156.953 51.7557 156.719 52.4956 156.719C53.7032 156.719 54.6878 157.211 55.4494 158.195C56.2109 159.172 56.5917 160.312 56.5917 161.617C56.5917 162.328 56.4829 163.031 56.2653 163.727C56.0477 164.422 55.7322 165.094 55.3188 165.742C55.0142 166.219 54.424 166.984 53.5482 168.039C52.6778 169.094 52.0631 169.883 51.7041 170.406C51.345 170.922 51.0105 171.477 50.7004 172.07H56.5509V175H47.8772V174.438C47.8772 173.586 48.0023 172.766 48.2525 171.977C48.5027 171.188 48.9189 170.332 49.5009 169.41C49.8219 168.902 50.5699 167.91 51.7449 166.434C52.6261 165.316 53.1674 164.598 53.3687 164.277C53.6624 163.824 53.8745 163.391 54.0051 162.977C54.1356 162.555 54.2009 162.16 54.2009 161.793C54.2009 161.152 54.0269 160.598 53.6787 160.129C53.336 159.66 52.8954 159.426 52.3569 159.426C51.8401 159.426 51.3749 159.676 50.9616 160.176C50.5535 160.676 50.238 161.469 50.015 162.555L48.1383 161.84ZM58.9172 159.297C59.6951 158.336 60.3887 157.668 60.998 157.293C61.6072 156.91 62.2709 156.719 62.989 156.719C64.2891 156.719 65.309 157.273 66.0488 158.383C66.6309 159.273 66.9219 160.266 66.9219 161.359C66.9219 162.25 66.7043 163.062 66.2691 163.797C65.8394 164.531 65.2193 165.051 64.4088 165.355C65.3009 165.98 65.9699 166.719 66.4161 167.57C66.8621 168.422 67.0851 169.383 67.0851 170.453C67.0851 171.805 66.7043 172.961 65.9428 173.922C65.1866 174.875 64.1367 175.352 62.7931 175.352C62.0968 175.352 61.474 175.199 60.9245 174.895C60.3806 174.59 59.8883 174.168 59.4477 173.629C59.143 173.254 58.7922 172.68 58.395 171.906L60.182 170.301C60.6988 171.121 61.172 171.711 61.6018 172.07C62.0315 172.43 62.4586 172.609 62.8829 172.609C63.3996 172.609 63.8348 172.367 64.1885 171.883C64.542 171.391 64.7188 170.812 64.7188 170.148C64.7188 169.297 64.4686 168.582 63.9681 168.004C63.4731 167.418 62.6027 167.125 61.357 167.125H60.5982V164.043H61.1693C62.4912 164.043 63.4323 163.77 63.9926 163.223C64.3897 162.832 64.5883 162.32 64.5883 161.688C64.5883 161.156 64.4169 160.668 64.0742 160.223C63.7315 159.777 63.3235 159.555 62.8503 159.555C62.0343 159.555 61.2292 160.164 60.4349 161.383L58.9172 159.297Z" fill="#1C1C1C"/>
<path d="M6.16797 118.078H6.74219V124H6.16797V118.078ZM8.59375 118.078H9.49219L12.4219 122.918V118.078H12.9922V124H12.4219L9.16797 118.594V124H8.59375V118.078ZM17.1914 118.078H19.2266C19.9245 118.078 20.4531 118.229 20.8125 118.531C21.1719 118.833 21.3516 119.181 21.3516 119.574C21.3516 119.845 21.263 120.103 21.0859 120.348C20.9089 120.59 20.638 120.788 20.2734 120.941C20.6901 121.1 21 121.312 21.2031 121.578C21.4062 121.841 21.5078 122.117 21.5078 122.406C21.5078 122.812 21.3177 123.18 20.9375 123.508C20.5573 123.836 20.0234 124 19.3359 124H17.1914V118.078ZM17.7617 118.602V120.707H18.8359C19.5443 120.707 20.0339 120.604 20.3047 120.398C20.5781 120.19 20.7148 119.936 20.7148 119.637C20.7148 119.353 20.5938 119.109 20.3516 118.906C20.1094 118.703 19.7448 118.602 19.2578 118.602H17.7617ZM17.7617 121.215V123.477H19.3164C19.806 123.477 20.2109 123.346 20.5312 123.086C20.7552 122.904 20.8672 122.658 20.8672 122.348C20.8672 122.132 20.8008 121.936 20.668 121.762C20.5378 121.587 20.3372 121.453 20.0664 121.359C19.7982 121.263 19.4922 121.215 19.1484 121.215H17.7617ZM22.8438 118.078H24.6562C25.1745 118.078 25.5911 118.139 25.9062 118.262C26.2214 118.384 26.4688 118.576 26.6484 118.836C26.8307 119.094 26.9219 119.379 26.9219 119.691C26.9219 120.033 26.8138 120.336 26.5977 120.602C26.3841 120.865 26.0586 121.062 25.6211 121.195L27.0586 124H26.4414L25.0469 121.312H23.418V124H22.8438V118.078ZM23.418 118.59V120.805H24.6797C24.987 120.805 25.2917 120.754 25.5938 120.652C25.8125 120.579 25.9805 120.457 26.0977 120.285C26.2174 120.111 26.2773 119.909 26.2773 119.68C26.2773 119.362 26.1615 119.102 25.9297 118.898C25.7005 118.693 25.3542 118.59 24.8906 118.59H23.418ZM30.1016 124.117C29.4167 124.117 28.8516 123.867 28.4062 123.367C27.8854 122.779 27.625 122.02 27.625 121.09C27.625 120.501 27.7292 119.956 27.9375 119.453C28.1484 118.951 28.4466 118.577 28.832 118.332C29.2201 118.087 29.6445 117.965 30.1055 117.965C30.5065 117.965 30.862 118.055 31.1719 118.234C31.4818 118.411 31.7357 118.643 31.9336 118.93C32.1341 119.214 32.2852 119.536 32.3867 119.898C32.4883 120.26 32.5391 120.646 32.5391 121.055C32.5391 121.503 32.4844 121.895 32.375 122.23C32.2656 122.564 32.1328 122.844 31.9766 123.07C31.8229 123.294 31.6667 123.471 31.5078 123.602C31.2995 123.776 31.0638 123.906 30.8008 123.992C30.5404 124.076 30.3073 124.117 30.1016 124.117ZM30.043 123.582C30.5534 123.582 30.9896 123.37 31.3516 122.945C31.7161 122.518 31.8984 121.896 31.8984 121.078C31.8984 120.214 31.6992 119.536 31.3008 119.047C30.9883 118.667 30.5807 118.477 30.0781 118.477C29.5885 118.477 29.1654 118.693 28.8086 119.125C28.4518 119.555 28.2734 120.198 28.2734 121.055C28.2734 121.898 28.4492 122.531 28.8008 122.953C29.1523 123.372 29.5664 123.582 30.043 123.582ZM33.1367 118.078H33.7031L34.9375 122.797L36.1836 118.078H36.7695L38.0039 122.797L39.2461 118.078H39.8047L38.2461 124H37.75L36.4727 119.133L35.1914 124H34.6758L33.1367 118.078ZM42.0938 118.078H43.0156L44.9141 124H44.3359L43.7383 122.164H41.3516L40.7539 124H40.1719L42.0938 118.078ZM42.5547 118.469L41.5352 121.59H43.5547L42.5547 118.469ZM45.9297 118.078H47.7422C48.2604 118.078 48.6771 118.139 48.9922 118.262C49.3073 118.384 49.5547 118.576 49.7344 118.836C49.9167 119.094 50.0078 119.379 50.0078 119.691C50.0078 120.033 49.8997 120.336 49.6836 120.602C49.4701 120.865 49.1445 121.062 48.707 121.195L50.1445 124H49.5273L48.1328 121.312H46.5039V124H45.9297V118.078ZM46.5039 118.59V120.805H47.7656C48.0729 120.805 48.3776 120.754 48.6797 120.652C48.8984 120.579 49.0664 120.457 49.1836 120.285C49.3034 120.111 49.3633 119.909 49.3633 119.68C49.3633 119.362 49.2474 119.102 49.0156 118.898C48.7865 118.693 48.4401 118.59 47.9766 118.59H46.5039ZM51.3477 118.078H53.0469C53.9089 118.078 54.5898 118.335 55.0898 118.848C55.5924 119.361 55.8438 120.073 55.8438 120.984C55.8438 121.451 55.7826 121.879 55.6602 122.27C55.569 122.564 55.4401 122.818 55.2734 123.031C55.1068 123.245 54.918 123.423 54.707 123.566C54.5534 123.668 54.3711 123.755 54.1602 123.828C53.8164 123.943 53.3776 124 52.8438 124H51.3477V118.078ZM51.9141 118.594V123.477H53.168C53.6628 123.477 54.099 123.318 54.4766 123C54.9557 122.602 55.1953 121.949 55.1953 121.043C55.1953 120.118 54.9492 119.453 54.457 119.047C54.0924 118.745 53.6328 118.594 53.0781 118.594H51.9141ZM63.9492 122.238C63.8503 122.613 63.7174 122.918 63.5508 123.152C63.332 123.462 63.0599 123.701 62.7344 123.867C62.4089 124.034 62.0638 124.117 61.6992 124.117C61.2591 124.117 60.8568 123.997 60.4922 123.758C60.1302 123.516 59.8411 123.158 59.625 122.684C59.4089 122.21 59.3008 121.656 59.3008 121.023C59.3008 120.458 59.3984 119.93 59.5938 119.438C59.7917 118.945 60.0729 118.577 60.4375 118.332C60.8021 118.087 61.2096 117.965 61.6602 117.965C62.056 117.965 62.401 118.04 62.6953 118.191C62.9896 118.34 63.25 118.572 63.4766 118.887C63.6432 119.118 63.7721 119.413 63.8633 119.77L63.2461 119.867C63.1211 119.406 62.9232 119.062 62.6523 118.836C62.3815 118.609 62.0664 118.496 61.707 118.496C61.2201 118.496 60.8203 118.685 60.5078 119.062C60.1302 119.518 59.9414 120.164 59.9414 121C59.9414 121.862 60.1328 122.529 60.5156 123C60.8333 123.388 61.2292 123.582 61.7031 123.582C61.9922 123.582 62.2526 123.514 62.4844 123.379C62.7188 123.243 62.9128 123.052 63.0664 122.805C63.1654 122.646 63.2526 122.418 63.3281 122.121L63.9492 122.238ZM67.1797 124.117C66.4948 124.117 65.9297 123.867 65.4844 123.367C64.9635 122.779 64.7031 122.02 64.7031 121.09C64.7031 120.501 64.8073 119.956 65.0156 119.453C65.2266 118.951 65.5247 118.577 65.9102 118.332C66.2982 118.087 66.7227 117.965 67.1836 117.965C67.5846 117.965 67.9401 118.055 68.25 118.234C68.5599 118.411 68.8138 118.643 69.0117 118.93C69.2122 119.214 69.3633 119.536 69.4648 119.898C69.5664 120.26 69.6172 120.646 69.6172 121.055C69.6172 121.503 69.5625 121.895 69.4531 122.23C69.3438 122.564 69.2109 122.844 69.0547 123.07C68.901 123.294 68.7448 123.471 68.5859 123.602C68.3776 123.776 68.1419 123.906 67.8789 123.992C67.6185 124.076 67.3854 124.117 67.1797 124.117ZM67.1211 123.582C67.6315 123.582 68.0677 123.37 68.4297 122.945C68.7943 122.518 68.9766 121.896 68.9766 121.078C68.9766 120.214 68.7773 119.536 68.3789 119.047C68.0664 118.667 67.6589 118.477 67.1562 118.477C66.6667 118.477 66.2435 118.693 65.8867 119.125C65.5299 119.555 65.3516 120.198 65.3516 121.055C65.3516 121.898 65.5273 122.531 65.8789 122.953C66.2305 123.372 66.6445 123.582 67.1211 123.582ZM70.8789 118.078H71.4492V121.953C71.4492 122.44 71.5872 122.824 71.8633 123.105C72.1419 123.387 72.5195 123.527 72.9961 123.527C73.3711 123.527 73.6758 123.464 73.9102 123.336C74.1471 123.206 74.3242 123.017 74.4414 122.77C74.5586 122.52 74.6172 122.247 74.6172 121.953V118.078H75.1953V121.953C75.1953 122.615 75.0013 123.141 74.6133 123.531C74.2279 123.922 73.7122 124.117 73.0664 124.117C72.5456 124.117 72.1146 124.008 71.7734 123.789C71.4349 123.57 71.2005 123.294 71.0703 122.961C70.9427 122.625 70.8789 122.316 70.8789 122.035V118.078ZM76.8438 118.078H77.7422L80.6719 122.918V118.078H81.2422V124H80.6719L77.418 118.594V124H76.8438V118.078ZM82.3945 118.078H86.7344V118.645H84.8594V124H84.2852V118.645H82.3945V118.078ZM87.1992 118.078H87.832L89.4141 120.82L91 118.078H91.6328L89.7031 121.426V124H89.1289V121.426L87.1992 118.078Z" fill="black"/>
</g>
<defs>
<clipPath id="clip0_322_44">
<rect width="94" height="232" fill="white" transform="translate(0.5)"/>
</clipPath>
</defs>
</svg>
