<svg width="100" height="232" viewBox="0 0 100 232" fill="none" xmlns="http://www.w3.org/2000/svg">
<path d="M97 0H3V232L51.5 191.5L97 232V0Z" fill="white"/>
<path d="M37.251 6.63672H38.249V13.418C38.249 14.2702 38.4906 14.9424 38.9736 15.4346C39.4613 15.9268 40.1221 16.1729 40.9561 16.1729C41.6123 16.1729 42.1455 16.0612 42.5557 15.8379C42.9704 15.61 43.2803 15.2796 43.4854 14.8467C43.6904 14.4092 43.793 13.9329 43.793 13.418V6.63672H44.8047V13.418C44.8047 14.5755 44.4652 15.4961 43.7861 16.1797C43.1117 16.8633 42.2093 17.2051 41.0791 17.2051C40.1676 17.2051 39.4134 17.0137 38.8164 16.6309C38.224 16.248 37.8138 15.765 37.5859 15.1816C37.3626 14.5938 37.251 14.0537 37.251 13.5615V6.63672ZM48.0928 14.0947C48.2067 14.5049 48.3343 14.8216 48.4756 15.0449C48.7126 15.4141 49.0247 15.7103 49.4121 15.9336C49.7995 16.1523 50.2689 16.2617 50.8203 16.2617C51.5905 16.2617 52.1943 16.0658 52.6318 15.6738C53.0739 15.2773 53.2949 14.8079 53.2949 14.2656C53.2949 13.7734 53.0967 13.3542 52.7002 13.0078C52.3949 12.748 51.7796 12.486 50.8545 12.2217C49.6058 11.8617 48.7148 11.4447 48.1816 10.9707C47.6484 10.5013 47.3818 9.92025 47.3818 9.22754C47.3818 8.46647 47.6781 7.8125 48.2705 7.26562C48.8675 6.71419 49.6491 6.43848 50.6152 6.43848C51.2031 6.43848 51.7568 6.54785 52.2764 6.7666C52.7959 6.98535 53.2311 7.3112 53.582 7.74414C53.8236 8.04492 54.015 8.43685 54.1562 8.91992L53.1104 9.24121C52.9326 8.62598 52.625 8.1543 52.1875 7.82617C51.7546 7.49805 51.235 7.33398 50.6289 7.33398C49.9863 7.33398 49.4691 7.50944 49.0771 7.86035C48.6852 8.21126 48.4893 8.62598 48.4893 9.10449C48.4893 9.49642 48.6488 9.85189 48.9678 10.1709C49.2822 10.4899 49.9749 10.8044 51.0459 11.1143C52.3174 11.4788 53.1947 11.9004 53.6777 12.3789C54.1562 12.862 54.3955 13.4704 54.3955 14.2041C54.3955 15.0335 54.0697 15.7422 53.418 16.3301C52.7663 16.9134 51.9004 17.2051 50.8203 17.2051C50.1458 17.2051 49.5283 17.0729 48.9678 16.8086C48.4072 16.5397 47.9515 16.1683 47.6006 15.6943C47.359 15.3753 47.1631 14.9378 47.0127 14.3818L48.0928 14.0947ZM58.9277 6.63672H60.541L63.8633 17H62.8516L61.8057 13.7871H57.6289L56.583 17H55.5645L58.9277 6.63672ZM59.7344 7.32031L57.9502 12.7822H61.4844L59.7344 7.32031ZM15 20.6367H18.4316C19.6348 20.6367 20.5508 20.9124 21.1797 21.4639C21.8132 22.0153 22.1299 22.667 22.1299 23.4189C22.1299 23.8564 22.0456 24.2438 21.877 24.5811C21.7083 24.9137 21.4577 25.21 21.125 25.4697C20.7969 25.7295 20.4049 25.9368 19.9492 26.0918C19.4935 26.2422 18.9284 26.3174 18.2539 26.3174H15.998V31H15V20.6367ZM15.9844 21.5322V25.415H18.1787C19.195 25.415 19.9173 25.235 20.3457 24.875C20.7741 24.515 20.9883 24.0433 20.9883 23.46C20.9883 22.7946 20.7035 22.2865 20.1338 21.9355C19.6963 21.6667 18.9967 21.5322 18.0352 21.5322H15.9844ZM24.4541 20.6367H27.626C28.5329 20.6367 29.262 20.7438 29.8135 20.958C30.3649 21.1722 30.7979 21.5072 31.1123 21.9629C31.4313 22.4141 31.5908 22.9131 31.5908 23.46C31.5908 24.057 31.4017 24.5879 31.0234 25.0527C30.6497 25.513 30.0801 25.8594 29.3145 26.0918L31.8301 31H30.75L28.3096 26.2969H25.459V31H24.4541V20.6367ZM25.459 21.5322V25.4082H27.667C28.2048 25.4082 28.738 25.3193 29.2666 25.1416C29.6494 25.014 29.9434 24.7998 30.1484 24.499C30.3581 24.1937 30.4629 23.8405 30.4629 23.4395C30.4629 22.8835 30.2601 22.4277 29.8545 22.0723C29.4535 21.7122 28.8473 21.5322 28.0361 21.5322H25.459ZM37.1553 31.2051C35.9567 31.2051 34.9678 30.7676 34.1885 29.8926C33.277 28.8626 32.8213 27.5342 32.8213 25.9072C32.8213 24.8773 33.0036 23.9225 33.3682 23.043C33.7373 22.1634 34.2591 21.5094 34.9336 21.0811C35.6126 20.6527 36.3555 20.4385 37.1621 20.4385C37.8639 20.4385 38.486 20.5957 39.0283 20.9102C39.5706 21.2201 40.015 21.6257 40.3613 22.127C40.7122 22.6237 40.9766 23.1888 41.1543 23.8223C41.332 24.4557 41.4209 25.1302 41.4209 25.8457C41.4209 26.6296 41.3252 27.3154 41.1338 27.9033C40.9424 28.4867 40.71 28.9766 40.4365 29.373C40.1676 29.765 39.8942 30.0749 39.6162 30.3027C39.2516 30.6081 38.8392 30.8359 38.3789 30.9863C37.9232 31.1322 37.5153 31.2051 37.1553 31.2051ZM37.0527 30.2686C37.946 30.2686 38.7093 29.8971 39.3428 29.1543C39.9808 28.4069 40.2998 27.3177 40.2998 25.8867C40.2998 24.3737 39.9512 23.1888 39.2539 22.332C38.707 21.6667 37.9938 21.334 37.1143 21.334C36.2575 21.334 35.5169 21.7122 34.8926 22.4688C34.2682 23.2207 33.9561 24.3464 33.9561 25.8457C33.9561 27.3223 34.2637 28.4297 34.8789 29.168C35.4941 29.9017 36.2188 30.2686 37.0527 30.2686ZM43.7383 20.6367H47.1699C48.373 20.6367 49.2891 20.9124 49.918 21.4639C50.5514 22.0153 50.8682 22.667 50.8682 23.4189C50.8682 23.8564 50.7839 24.2438 50.6152 24.5811C50.4466 24.9137 50.196 25.21 49.8633 25.4697C49.5352 25.7295 49.1432 25.9368 48.6875 26.0918C48.2318 26.2422 47.6667 26.3174 46.9922 26.3174H44.7363V31H43.7383V20.6367ZM44.7227 21.5322V25.415H46.917C47.9333 25.415 48.6556 25.235 49.084 24.875C49.5124 24.515 49.7266 24.0433 49.7266 23.46C49.7266 22.7946 49.4417 22.2865 48.8721 21.9355C48.4346 21.6667 47.735 21.5322 46.7734 21.5322H44.7227ZM53.2129 20.6367H59.3174V21.6211H54.2178V25.0049H58.0117V26.0029H54.2178V30.002H59.8096V31H53.2129V20.6367ZM61.9424 20.6367H65.1143C66.0212 20.6367 66.7503 20.7438 67.3018 20.958C67.8532 21.1722 68.2861 21.5072 68.6006 21.9629C68.9196 22.4141 69.0791 22.9131 69.0791 23.46C69.0791 24.057 68.89 24.5879 68.5117 25.0527C68.138 25.513 67.5684 25.8594 66.8027 26.0918L69.3184 31H68.2383L65.7979 26.2969H62.9473V31H61.9424V20.6367ZM62.9473 21.5322V25.4082H65.1553C65.693 25.4082 66.2262 25.3193 66.7549 25.1416C67.1377 25.014 67.4316 24.7998 67.6367 24.499C67.8464 24.1937 67.9512 23.8405 67.9512 23.4395C67.9512 22.8835 67.7484 22.4277 67.3428 22.0723C66.9417 21.7122 66.3356 21.5322 65.5244 21.5322H62.9473ZM69.9883 20.6367H77.583V21.6279H74.3018V31H73.2969V21.6279H69.9883V20.6367ZM78.3965 20.6367H79.5039L82.2725 25.4355L85.0479 20.6367H86.1553L82.7783 26.4951V31H81.7734V26.4951L78.3965 20.6367ZM24.3721 34.6367H25.9854L29.3076 45H28.2959L27.25 41.7871H23.0732L22.0273 45H21.0088L24.3721 34.6367ZM25.1787 35.3203L23.3945 40.7822H26.9287L25.1787 35.3203ZM29.6562 34.6367H30.6475L32.8076 42.8945L34.9883 34.6367H36.0137L38.1738 42.8945L40.3477 34.6367H41.3252L38.5977 45H37.7295L35.4941 36.4824L33.252 45H32.3496L29.6562 34.6367ZM45.3311 34.6367H46.9443L50.2666 45H49.2549L48.209 41.7871H44.0322L42.9863 45H41.9678L45.3311 34.6367ZM46.1377 35.3203L44.3535 40.7822H47.8877L46.1377 35.3203ZM52.0439 34.6367H55.2158C56.1227 34.6367 56.8519 34.7438 57.4033 34.958C57.9548 35.1722 58.3877 35.5072 58.7021 35.9629C59.0212 36.4141 59.1807 36.9131 59.1807 37.46C59.1807 38.057 58.9915 38.5879 58.6133 39.0527C58.2396 39.513 57.6699 39.8594 56.9043 40.0918L59.4199 45H58.3398L55.8994 40.2969H53.0488V45H52.0439V34.6367ZM53.0488 35.5322V39.4082H55.2568C55.7946 39.4082 56.3278 39.3193 56.8564 39.1416C57.2393 39.014 57.5332 38.7998 57.7383 38.499C57.9479 38.1937 58.0527 37.8405 58.0527 37.4395C58.0527 36.8835 57.8499 36.4277 57.4443 36.0723C57.0433 35.7122 56.4372 35.5322 55.626 35.5322H53.0488ZM61.5254 34.6367H64.499C66.0075 34.6367 67.1992 35.0856 68.0742 35.9834C68.9538 36.8812 69.3936 38.1276 69.3936 39.7227C69.3936 40.5384 69.2865 41.2881 69.0723 41.9717C68.9128 42.4867 68.6872 42.931 68.3955 43.3047C68.1038 43.6784 67.7734 43.9906 67.4043 44.2412C67.1354 44.4189 66.8164 44.5716 66.4473 44.6992C65.8457 44.8997 65.0778 45 64.1436 45H61.5254V34.6367ZM62.5166 35.5391V44.084H64.7109C65.5768 44.084 66.3402 43.806 67.001 43.25C67.8395 42.5527 68.2588 41.4111 68.2588 39.8252C68.2588 38.2074 67.8281 37.043 66.9668 36.332C66.3288 35.8034 65.5244 35.5391 64.5537 35.5391H62.5166ZM72.1211 42.0947C72.235 42.5049 72.3626 42.8216 72.5039 43.0449C72.7409 43.4141 73.0531 43.7103 73.4404 43.9336C73.8278 44.1523 74.2972 44.2617 74.8486 44.2617C75.6188 44.2617 76.2227 44.0658 76.6602 43.6738C77.1022 43.2773 77.3232 42.8079 77.3232 42.2656C77.3232 41.7734 77.125 41.3542 76.7285 41.0078C76.4232 40.748 75.8079 40.486 74.8828 40.2217C73.6341 39.8617 72.7432 39.4447 72.21 38.9707C71.6768 38.5013 71.4102 37.9202 71.4102 37.2275C71.4102 36.4665 71.7064 35.8125 72.2988 35.2656C72.8958 34.7142 73.6774 34.4385 74.6436 34.4385C75.2314 34.4385 75.7852 34.5479 76.3047 34.7666C76.8242 34.9854 77.2594 35.3112 77.6104 35.7441C77.8519 36.0449 78.0433 36.4368 78.1846 36.9199L77.1387 37.2412C76.9609 36.626 76.6533 36.1543 76.2158 35.8262C75.7829 35.498 75.2633 35.334 74.6572 35.334C74.0146 35.334 73.4974 35.5094 73.1055 35.8604C72.7135 36.2113 72.5176 36.626 72.5176 37.1045C72.5176 37.4964 72.6771 37.8519 72.9961 38.1709C73.3105 38.4899 74.0033 38.8044 75.0742 39.1143C76.3457 39.4788 77.223 39.9004 77.7061 40.3789C78.1846 40.862 78.4238 41.4704 78.4238 42.2041C78.4238 43.0335 78.098 43.7422 77.4463 44.3301C76.7946 44.9134 75.9287 45.2051 74.8486 45.2051C74.1742 45.2051 73.5566 45.0729 72.9961 44.8086C72.4355 44.5397 71.9798 44.1683 71.6289 43.6943C71.3874 43.3753 71.1914 42.9378 71.041 42.3818L72.1211 42.0947Z" fill="#1C1C1C"/>
<path d="M20.4941 56.5977H22.7598C23.4076 56.5977 23.9284 56.6742 24.3223 56.8271C24.7161 56.9801 25.0254 57.2194 25.25 57.5449C25.4779 57.8672 25.5918 58.2236 25.5918 58.6143C25.5918 59.0407 25.4567 59.4199 25.1865 59.752C24.9196 60.0807 24.5127 60.3281 23.9658 60.4941L25.7627 64H24.9912L23.248 60.6406H21.2119V64H20.4941V56.5977ZM21.2119 57.2373V60.0059H22.7891C23.1732 60.0059 23.554 59.9424 23.9316 59.8154C24.2051 59.7243 24.415 59.5713 24.5615 59.3564C24.7113 59.1383 24.7861 58.8861 24.7861 58.5996C24.7861 58.2025 24.6413 57.877 24.3516 57.623C24.0651 57.3659 23.6322 57.2373 23.0527 57.2373H21.2119ZM27.2764 56.5977H31.6367V57.3008H27.9941V59.7178H30.7041V60.4307H27.9941V63.2871H31.9883V64H27.2764V56.5977ZM35.0645 56.5977H36.2168L38.5898 64H37.8672L37.1201 61.7051H34.1367L33.3896 64H32.6621L35.0645 56.5977ZM35.6406 57.0859L34.3662 60.9873H36.8906L35.6406 57.0859ZM39.8887 56.5977H40.6016V63.2725H44.166V64H39.8887V56.5977ZM48.7314 56.5977H53.0918V57.3008H49.4492V59.7178H52.1592V60.4307H49.4492V63.2871H53.4434V64H48.7314V56.5977ZM55.2451 61.9248C55.3265 62.2178 55.4176 62.444 55.5186 62.6035C55.6878 62.8672 55.9108 63.0788 56.1875 63.2383C56.4642 63.3945 56.7995 63.4727 57.1934 63.4727C57.7435 63.4727 58.1748 63.3327 58.4873 63.0527C58.8031 62.7695 58.9609 62.4342 58.9609 62.0469C58.9609 61.6953 58.8193 61.3958 58.5361 61.1484C58.318 60.9629 57.8786 60.7757 57.2178 60.5869C56.3258 60.3298 55.6895 60.0319 55.3086 59.6934C54.9277 59.3581 54.7373 58.943 54.7373 58.4482C54.7373 57.9046 54.9489 57.4375 55.3721 57.0469C55.7985 56.653 56.3568 56.4561 57.0469 56.4561C57.4668 56.4561 57.8623 56.5342 58.2334 56.6904C58.6045 56.8467 58.9154 57.0794 59.166 57.3887C59.3385 57.6035 59.4753 57.8835 59.5762 58.2285L58.8291 58.458C58.7021 58.0186 58.4824 57.6816 58.1699 57.4473C57.8607 57.2129 57.4896 57.0957 57.0566 57.0957C56.5977 57.0957 56.2282 57.221 55.9482 57.4717C55.6683 57.7223 55.5283 58.0186 55.5283 58.3604C55.5283 58.6403 55.6423 58.8942 55.8701 59.1221C56.0947 59.3499 56.5895 59.5745 57.3545 59.7959C58.2627 60.0563 58.8893 60.3574 59.2344 60.6992C59.5762 61.0443 59.7471 61.4788 59.7471 62.0029C59.7471 62.5954 59.5143 63.1016 59.0488 63.5215C58.5833 63.9382 57.9648 64.1465 57.1934 64.1465C56.7116 64.1465 56.2705 64.0521 55.8701 63.8633C55.4697 63.6712 55.1442 63.4059 54.8936 63.0674C54.721 62.8395 54.5811 62.527 54.4736 62.1299L55.2451 61.9248ZM60.7627 56.5977H66.1875V57.3057H63.8438V64H63.126V57.3057H60.7627V56.5977ZM68.3359 56.5977H69.4883L71.8613 64H71.1387L70.3916 61.7051H67.4082L66.6611 64H65.9336L68.3359 56.5977ZM68.9121 57.0859L67.6377 60.9873H70.1621L68.9121 57.0859ZM71.5635 56.5977H76.9883V57.3057H74.6445V64H73.9268V57.3057H71.5635V56.5977ZM78.3994 56.5977H82.7598V57.3008H79.1172V59.7178H81.8271V60.4307H79.1172V63.2871H83.1113V64H78.3994V56.5977Z" fill="#1C1C1C"/>
<path d="M26.8604 76.6777H27.9746L28.2686 75.2935H28.6855L28.3882 76.6777H29.8306L30.1211 75.2935H30.5381L30.2441 76.6777H30.9209V77.0947H30.1621L29.8989 78.3628H30.9209V78.7832H29.8169L29.5298 80.1572H29.106L29.3999 78.7832H27.9507L27.6704 80.1572H27.2466L27.5371 78.7832H26.8604V78.3628H27.626L27.8892 77.0947H26.8604V76.6777ZM28.3062 77.0947L28.0396 78.356H29.4854L29.7485 77.0947H28.3062ZM34.2075 74.8184H34.7065V79.5488H35.5405V80H33.2676V79.5488H34.2075V75.3994C33.7381 75.5042 33.4248 75.5578 33.2676 75.5601V75.1807C33.6686 75.1214 33.9819 75.0007 34.2075 74.8184ZM41.5361 74.8184H43.1221C43.5755 74.8184 43.9401 74.8719 44.2158 74.979C44.4915 75.0861 44.708 75.2536 44.8652 75.4814C45.0247 75.707 45.1045 75.9565 45.1045 76.23C45.1045 76.5285 45.0099 76.7939 44.8208 77.0264C44.634 77.2565 44.3491 77.4297 43.9663 77.5459L45.2241 80H44.6841L43.4639 77.6484H42.0386V80H41.5361V74.8184ZM42.0386 75.2661V77.2041H43.1426C43.4115 77.2041 43.6781 77.1597 43.9424 77.0708C44.1338 77.007 44.2808 76.8999 44.3833 76.7495C44.4881 76.5968 44.5405 76.4202 44.5405 76.2197C44.5405 75.9417 44.4391 75.7139 44.2363 75.5361C44.0358 75.3561 43.7327 75.2661 43.3271 75.2661H42.0386ZM48.3604 74.8184H49.167L50.8281 80H50.3223L49.7993 78.3936H47.7109L47.188 80H46.6787L48.3604 74.8184ZM48.7637 75.1602L47.8716 77.8911H49.6387L48.7637 75.1602ZM52.71 74.8184H53.4961L56.0596 79.0532V74.8184H56.5586V80H56.0596L53.2124 75.2695V80H52.71V74.8184ZM59.0352 74.8184H59.5376V77.4878L61.9575 74.8184H62.6104L60.8262 76.7837L62.853 80H62.2822L60.4912 77.1562L59.5376 78.2021V80H59.0352V74.8184ZM64.7144 74.8184H67.7666V75.3105H65.2168V77.0024H67.1138V77.5015H65.2168V79.501H68.0127V80H64.7144V74.8184ZM70.0825 74.8184H71.5693C72.3236 74.8184 72.9194 75.0428 73.3569 75.4917C73.7967 75.9406 74.0166 76.5638 74.0166 77.3613C74.0166 77.7692 73.9631 78.144 73.856 78.4858C73.7762 78.7433 73.6634 78.9655 73.5176 79.1523C73.3717 79.3392 73.2065 79.4953 73.022 79.6206C72.8875 79.7095 72.728 79.7858 72.5435 79.8496C72.2427 79.9499 71.8587 80 71.3916 80H70.0825V74.8184ZM70.5781 75.2695V79.542H71.6753C72.1082 79.542 72.4899 79.403 72.8203 79.125C73.2396 78.7764 73.4492 78.2056 73.4492 77.4126C73.4492 76.6037 73.2339 76.0215 72.8032 75.666C72.4842 75.4017 72.082 75.2695 71.5967 75.2695H70.5781ZM7.02832 84.8184H8.74414C9.3457 84.8184 9.80371 84.9562 10.1182 85.2319C10.4349 85.5076 10.5933 85.8335 10.5933 86.2095C10.5933 86.4282 10.5511 86.6219 10.4668 86.7905C10.3825 86.9569 10.2572 87.105 10.0908 87.2349C9.92676 87.3647 9.73079 87.4684 9.50293 87.5459C9.27507 87.6211 8.99251 87.6587 8.65527 87.6587H7.52734V90H7.02832V84.8184ZM7.52051 85.2661V87.2075H8.61768C9.12581 87.2075 9.48698 87.1175 9.70117 86.9375C9.91536 86.7575 10.0225 86.5216 10.0225 86.23C10.0225 85.8973 9.88005 85.6432 9.59521 85.4678C9.37646 85.3333 9.02669 85.2661 8.5459 85.2661H7.52051ZM12.7554 84.8184H14.3413C14.7948 84.8184 15.1593 84.8719 15.4351 84.979C15.7108 85.0861 15.9272 85.2536 16.0845 85.4814C16.244 85.707 16.3237 85.9565 16.3237 86.23C16.3237 86.5285 16.2292 86.7939 16.04 87.0264C15.8532 87.2565 15.5684 87.4297 15.1855 87.5459L16.4434 90H15.9033L14.6831 87.6484H13.2578V90H12.7554V84.8184ZM13.2578 85.2661V87.2041H14.3618C14.6307 87.2041 14.8973 87.1597 15.1616 87.0708C15.353 87.007 15.5 86.8999 15.6025 86.7495C15.7074 86.5968 15.7598 86.4202 15.7598 86.2197C15.7598 85.9417 15.6584 85.7139 15.4556 85.5361C15.255 85.3561 14.952 85.2661 14.5464 85.2661H13.2578ZM18.626 84.8184H19.1284V90H18.626V84.8184ZM21.1914 84.8184H21.7007L23.2012 89.1797L24.6948 84.8184H25.2007L23.4268 90H22.9653L21.1914 84.8184ZM27.9302 84.8184H28.7368L30.3979 90H29.8921L29.3691 88.3936H27.2808L26.7578 90H26.2485L27.9302 84.8184ZM28.3335 85.1602L27.4414 87.8911H29.2085L28.3335 85.1602ZM31.1895 84.8184H34.9868V85.314H33.3462V90H32.8438V85.314H31.1895V84.8184ZM36.9746 84.8184H40.0269V85.3105H37.4771V87.0024H39.374V87.5015H37.4771V89.501H40.2729V90H36.9746V84.8184ZM45.5371 84.8184H47.3179C47.9285 84.8184 48.3911 84.9505 48.7056 85.2148C49.02 85.4792 49.1772 85.7834 49.1772 86.1274C49.1772 86.3644 49.0998 86.59 48.9448 86.8042C48.7899 87.0161 48.5529 87.1893 48.2339 87.3237C48.5985 87.4627 48.8696 87.6484 49.0474 87.8809C49.2251 88.111 49.314 88.3525 49.314 88.6055C49.314 88.9609 49.1476 89.2822 48.8149 89.5693C48.4823 89.8564 48.0151 90 47.4136 90H45.5371V84.8184ZM46.0361 85.2764V87.1187H46.9761C47.5959 87.1187 48.0243 87.0286 48.2612 86.8486C48.5005 86.6663 48.6201 86.4442 48.6201 86.1821C48.6201 85.9338 48.5142 85.7207 48.3022 85.543C48.0903 85.3652 47.7713 85.2764 47.3452 85.2764H46.0361ZM46.0361 87.563V89.542H47.3965C47.8249 89.542 48.1792 89.4281 48.4595 89.2002C48.6554 89.0407 48.7534 88.8254 48.7534 88.5542C48.7534 88.3651 48.6953 88.1942 48.5791 88.0415C48.4652 87.8888 48.2897 87.7715 48.0527 87.6895C47.818 87.6051 47.5503 87.563 47.2495 87.563H46.0361ZM51.4829 84.8184H53.0688C53.5223 84.8184 53.8869 84.8719 54.1626 84.979C54.4383 85.0861 54.6548 85.2536 54.812 85.4814C54.9715 85.707 55.0513 85.9565 55.0513 86.23C55.0513 86.5285 54.9567 86.7939 54.7676 87.0264C54.5807 87.2565 54.2959 87.4297 53.9131 87.5459L55.1709 90H54.6309L53.4106 87.6484H51.9854V90H51.4829V84.8184ZM51.9854 85.2661V87.2041H53.0894C53.3582 87.2041 53.6248 87.1597 53.8892 87.0708C54.0806 87.007 54.2275 86.8999 54.3301 86.7495C54.4349 86.5968 54.4873 86.4202 54.4873 86.2197C54.4873 85.9417 54.3859 85.7139 54.1831 85.5361C53.9826 85.3561 53.6795 85.2661 53.2739 85.2661H51.9854ZM58.8335 90.1025C58.2342 90.1025 57.7397 89.8838 57.3501 89.4463C56.8944 88.9313 56.6665 88.2671 56.6665 87.4536C56.6665 86.9386 56.7576 86.4613 56.9399 86.0215C57.1245 85.5817 57.3854 85.2547 57.7227 85.0405C58.0622 84.8263 58.4336 84.7192 58.8369 84.7192C59.1878 84.7192 59.4989 84.7979 59.77 84.9551C60.0412 85.11 60.2633 85.3128 60.4365 85.5635C60.612 85.8118 60.7441 86.0944 60.833 86.4111C60.9219 86.7279 60.9663 87.0651 60.9663 87.4229C60.9663 87.8148 60.9185 88.1577 60.8228 88.4517C60.7271 88.7433 60.6108 88.9883 60.4741 89.1865C60.3397 89.3825 60.203 89.5374 60.064 89.6514C59.8817 89.804 59.6755 89.918 59.4453 89.9932C59.2174 90.0661 59.0135 90.1025 58.8335 90.1025ZM58.7822 89.6343C59.2288 89.6343 59.6105 89.4486 59.9272 89.0771C60.2463 88.7035 60.4058 88.1589 60.4058 87.4434C60.4058 86.6868 60.2314 86.0944 59.8828 85.666C59.6094 85.3333 59.2528 85.167 58.813 85.167C58.3846 85.167 58.0143 85.3561 57.7021 85.7344C57.39 86.1104 57.2339 86.6732 57.2339 87.4229C57.2339 88.1611 57.3877 88.7148 57.6953 89.084C58.0029 89.4508 58.3652 89.6343 58.7822 89.6343ZM63.1147 84.8184H63.6172V87.4878L66.0371 84.8184H66.6899L64.9058 86.7837L66.9326 90H66.3618L64.5708 87.1562L63.6172 88.2021V90H63.1147V84.8184ZM68.7939 84.8184H71.8462V85.3105H69.2964V87.0024H71.1934V87.5015H69.2964V89.501H72.0923V90H68.7939V84.8184ZM74.1587 84.8184H75.7446C76.1981 84.8184 76.5627 84.8719 76.8384 84.979C77.1141 85.0861 77.3306 85.2536 77.4878 85.4814C77.6473 85.707 77.7271 85.9565 77.7271 86.23C77.7271 86.5285 77.6325 86.7939 77.4434 87.0264C77.2565 87.2565 76.9717 87.4297 76.5889 87.5459L77.8467 90H77.3066L76.0864 87.6484H74.6611V90H74.1587V84.8184ZM74.6611 85.2661V87.2041H75.7651C76.034 87.2041 76.3006 87.1597 76.5649 87.0708C76.7563 87.007 76.9033 86.8999 77.0059 86.7495C77.1107 86.5968 77.1631 86.4202 77.1631 86.2197C77.1631 85.9417 77.0617 85.7139 76.8589 85.5361C76.6584 85.3561 76.3553 85.2661 75.9497 85.2661H74.6611ZM80.9829 84.8184H81.7896L83.4507 90H82.9448L82.4219 88.3936H80.3335L79.8105 90H79.3013L80.9829 84.8184ZM81.3862 85.1602L80.4941 87.8911H82.2612L81.3862 85.1602ZM88.2856 89.3403C88.0897 89.591 87.8721 89.7812 87.6328 89.9111C87.3936 90.0387 87.1144 90.1025 86.7954 90.1025C86.203 90.1025 85.7233 89.8906 85.3564 89.4668C84.9281 88.9769 84.7139 88.2956 84.7139 87.4229C84.7139 86.5456 84.9189 85.8757 85.3291 85.4131C85.7415 84.9505 86.2428 84.7192 86.833 84.7192C87.1634 84.7192 87.471 84.791 87.7559 84.9346C88.0407 85.0758 88.2743 85.2752 88.4565 85.5327C88.5864 85.7173 88.6947 85.9702 88.7812 86.2915L88.2344 86.4009C88.1683 86.1707 88.0942 85.9896 88.0122 85.8574C87.8778 85.641 87.7126 85.4735 87.5166 85.355C87.3229 85.2365 87.1087 85.1772 86.874 85.1772C86.4456 85.1772 86.0719 85.3664 85.7529 85.7446C85.4339 86.1206 85.2744 86.6663 85.2744 87.3818C85.2744 87.8148 85.3416 88.2113 85.4761 88.5713C85.6128 88.9313 85.8053 89.1991 86.0537 89.3745C86.3021 89.55 86.5687 89.6377 86.8535 89.6377C87.0814 89.6377 87.2967 89.5864 87.4995 89.4839C87.7023 89.3813 87.8618 89.2537 87.978 89.1011C88.0965 88.9461 88.1774 88.7843 88.2207 88.6157C88.264 88.4471 88.2856 88.242 88.2856 88.0005H86.9937V87.5015H88.7812V90H88.2856V89.3403ZM91.1074 84.8184H94.1597V85.3105H91.6099V87.0024H93.5068V87.5015H91.6099V89.501H94.4058V90H91.1074V84.8184Z" fill="#1C1C1C"/>
<path d="M15 97L16.5716 101.837H21.6574L17.5429 104.826L19.1145 109.663L15 106.674L10.8855 109.663L12.4571 104.826L8.3426 101.837H13.4284L15 97Z" fill="#D4CFC9"/>
<path d="M33 97L34.5716 101.837H39.6574L35.5429 104.826L37.1145 109.663L33 106.674L28.8855 109.663L30.4571 104.826L26.3426 101.837H31.4284L33 97Z" fill="#D4CFC9"/>
<path d="M51 97L52.5716 101.837H57.6574L53.5429 104.826L55.1145 109.663L51 106.674L46.8855 109.663L48.4571 104.826L44.3426 101.837H49.4284L51 97Z" fill="#D4CFC9"/>
<path d="M69 97L70.5716 101.837H75.6574L71.5429 104.826L73.1145 109.663L69 106.674L64.8855 109.663L66.4571 104.826L62.3426 101.837H67.4284L69 97Z" fill="#D4CFC9"/>
<path d="M87 97L88.5716 101.837H93.6574L89.5429 104.826L91.1145 109.663L87 106.674L82.8855 109.663L84.4571 104.826L80.3426 101.837H85.4284L87 97Z" fill="#D4CFC9"/>
<path d="M18.9697 120.559H19.4004V125H18.9697V120.559ZM20.7891 120.559H21.4629L23.6602 124.188V120.559H24.0879V125H23.6602L21.2197 120.945V125H20.7891V120.559ZM27.2373 120.559H28.7637C29.2871 120.559 29.6836 120.672 29.9531 120.898C30.2227 121.125 30.3574 121.386 30.3574 121.681C30.3574 121.884 30.291 122.077 30.1582 122.261C30.0254 122.442 29.8223 122.591 29.5488 122.706C29.8613 122.825 30.0938 122.984 30.2461 123.184C30.3984 123.381 30.4746 123.588 30.4746 123.805C30.4746 124.109 30.332 124.385 30.0469 124.631C29.7617 124.877 29.3613 125 28.8457 125H27.2373V120.559ZM27.665 120.951V122.53H28.4707C29.002 122.53 29.3691 122.453 29.5723 122.299C29.7773 122.143 29.8799 121.952 29.8799 121.728C29.8799 121.515 29.7891 121.332 29.6074 121.18C29.4258 121.027 29.1523 120.951 28.7871 120.951H27.665ZM27.665 122.911V124.607H28.8311C29.1982 124.607 29.502 124.51 29.7422 124.314C29.9102 124.178 29.9941 123.993 29.9941 123.761C29.9941 123.599 29.9443 123.452 29.8447 123.321C29.7471 123.19 29.5967 123.09 29.3936 123.02C29.1924 122.947 28.9629 122.911 28.7051 122.911H27.665ZM33.041 125.088C32.5273 125.088 32.1035 124.9 31.7695 124.525C31.3789 124.084 31.1836 123.515 31.1836 122.817C31.1836 122.376 31.2617 121.967 31.418 121.59C31.5762 121.213 31.7998 120.933 32.0889 120.749C32.3799 120.565 32.6982 120.474 33.0439 120.474C33.3447 120.474 33.6113 120.541 33.8438 120.676C34.0762 120.809 34.2666 120.982 34.415 121.197C34.5654 121.41 34.6787 121.652 34.7549 121.924C34.8311 122.195 34.8691 122.484 34.8691 122.791C34.8691 123.127 34.8281 123.421 34.7461 123.673C34.6641 123.923 34.5645 124.133 34.4473 124.303C34.332 124.471 34.2148 124.604 34.0957 124.701C33.9395 124.832 33.7627 124.93 33.5654 124.994C33.3701 125.057 33.1953 125.088 33.041 125.088ZM32.9971 124.687C33.3799 124.687 33.707 124.527 33.9785 124.209C34.252 123.889 34.3887 123.422 34.3887 122.809C34.3887 122.16 34.2393 121.652 33.9404 121.285C33.7061 121 33.4004 120.857 33.0234 120.857C32.6562 120.857 32.3389 121.02 32.0713 121.344C31.8037 121.666 31.6699 122.148 31.6699 122.791C31.6699 123.424 31.8018 123.898 32.0654 124.215C32.3291 124.529 32.6396 124.687 32.9971 124.687ZM35.3174 120.559H35.7422L36.668 124.098L37.6025 120.559H38.042L38.9678 124.098L39.8994 120.559H40.3184L39.1494 125H38.7773L37.8193 121.35L36.8584 125H36.4717L35.3174 120.559ZM42.0352 120.559H42.7266L44.1504 125H43.7168L43.2686 123.623H41.4785L41.0303 125H40.5938L42.0352 120.559ZM42.3809 120.852L41.6162 123.192H43.1309L42.3809 120.852ZM44.9121 120.559H46.2715C46.6602 120.559 46.9727 120.604 47.209 120.696C47.4453 120.788 47.6309 120.932 47.7656 121.127C47.9023 121.32 47.9707 121.534 47.9707 121.769C47.9707 122.024 47.8896 122.252 47.7275 122.451C47.5674 122.648 47.3232 122.797 46.9951 122.896L48.0732 125H47.6104L46.5645 122.984H45.3428V125H44.9121V120.559ZM45.3428 120.942V122.604H46.2891C46.5195 122.604 46.748 122.565 46.9746 122.489C47.1387 122.435 47.2646 122.343 47.3525 122.214C47.4424 122.083 47.4873 121.932 47.4873 121.76C47.4873 121.521 47.4004 121.326 47.2266 121.174C47.0547 121.02 46.7949 120.942 46.4473 120.942H45.3428ZM48.9756 120.559H50.25C50.8965 120.559 51.4072 120.751 51.7822 121.136C52.1592 121.521 52.3477 122.055 52.3477 122.738C52.3477 123.088 52.3018 123.409 52.21 123.702C52.1416 123.923 52.0449 124.113 51.9199 124.273C51.7949 124.434 51.6533 124.567 51.4951 124.675C51.3799 124.751 51.2432 124.816 51.085 124.871C50.8271 124.957 50.498 125 50.0977 125H48.9756V120.559ZM49.4004 120.945V124.607H50.3408C50.7119 124.607 51.0391 124.488 51.3223 124.25C51.6816 123.951 51.8613 123.462 51.8613 122.782C51.8613 122.089 51.6768 121.59 51.3076 121.285C51.0342 121.059 50.6895 120.945 50.2734 120.945H49.4004ZM58.4268 123.679C58.3525 123.96 58.2529 124.188 58.1279 124.364C57.9639 124.597 57.7598 124.775 57.5156 124.9C57.2715 125.025 57.0127 125.088 56.7393 125.088C56.4092 125.088 56.1074 124.998 55.834 124.818C55.5625 124.637 55.3457 124.368 55.1836 124.013C55.0215 123.657 54.9404 123.242 54.9404 122.768C54.9404 122.344 55.0137 121.947 55.1602 121.578C55.3086 121.209 55.5195 120.933 55.793 120.749C56.0664 120.565 56.3721 120.474 56.71 120.474C57.0068 120.474 57.2656 120.53 57.4863 120.644C57.707 120.755 57.9023 120.929 58.0723 121.165C58.1973 121.339 58.2939 121.56 58.3623 121.827L57.8994 121.9C57.8057 121.555 57.6572 121.297 57.4541 121.127C57.251 120.957 57.0146 120.872 56.7451 120.872C56.3799 120.872 56.0801 121.014 55.8457 121.297C55.5625 121.639 55.4209 122.123 55.4209 122.75C55.4209 123.396 55.5645 123.896 55.8516 124.25C56.0898 124.541 56.3867 124.687 56.7422 124.687C56.959 124.687 57.1543 124.636 57.3281 124.534C57.5039 124.433 57.6494 124.289 57.7646 124.104C57.8389 123.984 57.9043 123.813 57.9609 123.591L58.4268 123.679ZM60.8496 125.088C60.3359 125.088 59.9121 124.9 59.5781 124.525C59.1875 124.084 58.9922 123.515 58.9922 122.817C58.9922 122.376 59.0703 121.967 59.2266 121.59C59.3848 121.213 59.6084 120.933 59.8975 120.749C60.1885 120.565 60.5068 120.474 60.8525 120.474C61.1533 120.474 61.4199 120.541 61.6523 120.676C61.8848 120.809 62.0752 120.982 62.2236 121.197C62.374 121.41 62.4873 121.652 62.5635 121.924C62.6396 122.195 62.6777 122.484 62.6777 122.791C62.6777 123.127 62.6367 123.421 62.5547 123.673C62.4727 123.923 62.373 124.133 62.2559 124.303C62.1406 124.471 62.0234 124.604 61.9043 124.701C61.748 124.832 61.5713 124.93 61.374 124.994C61.1787 125.057 61.0039 125.088 60.8496 125.088ZM60.8057 124.687C61.1885 124.687 61.5156 124.527 61.7871 124.209C62.0605 123.889 62.1973 123.422 62.1973 122.809C62.1973 122.16 62.0479 121.652 61.749 121.285C61.5146 121 61.209 120.857 60.832 120.857C60.4648 120.857 60.1475 121.02 59.8799 121.344C59.6123 121.666 59.4785 122.148 59.4785 122.791C59.4785 123.424 59.6104 123.898 59.874 124.215C60.1377 124.529 60.4482 124.687 60.8057 124.687ZM63.6621 120.559H64.3887L65.6836 124.136L66.9697 120.559H67.6963V125H67.2715V120.96L65.8066 125H65.5518L64.0928 120.96V125H63.6621V120.559ZM68.9795 120.559H70.4502C70.9658 120.559 71.3584 120.677 71.6279 120.913C71.8994 121.149 72.0352 121.429 72.0352 121.751C72.0352 121.938 71.999 122.104 71.9268 122.249C71.8545 122.392 71.7471 122.519 71.6045 122.63C71.4639 122.741 71.2959 122.83 71.1006 122.896C70.9053 122.961 70.6631 122.993 70.374 122.993H69.4072V125H68.9795V120.559ZM69.4014 120.942V122.606H70.3418C70.7773 122.606 71.0869 122.529 71.2705 122.375C71.4541 122.221 71.5459 122.019 71.5459 121.769C71.5459 121.483 71.4238 121.266 71.1797 121.115C70.9922 121 70.6924 120.942 70.2803 120.942H69.4014ZM73.3594 120.559H74.0508L75.4746 125H75.041L74.5928 123.623H72.8027L72.3545 125H71.918L73.3594 120.559ZM73.7051 120.852L72.9404 123.192H74.4551L73.7051 120.852ZM76.2305 120.559H76.9043L79.1016 124.188V120.559H79.5293V125H79.1016L76.6611 120.945V125H76.2305V120.559ZM80.3057 120.559H80.7803L81.9668 122.615L83.1562 120.559H83.6309L82.1836 123.069V125H81.7529V123.069L80.3057 120.559Z" fill="#1C1C1C"/>
<path d="M22.9854 143.851V143.358C22.9854 143.116 23.0635 142.923 23.2197 142.778C23.376 142.632 23.5947 142.559 23.876 142.559C23.9385 142.559 24.0137 142.562 24.1016 142.567V142.969C24.0156 142.959 23.9453 142.954 23.8906 142.954C23.7344 142.954 23.6152 142.994 23.5332 143.074C23.4512 143.154 23.4102 143.262 23.4102 143.396V143.851H24.0605V144.24H23.4102V147H22.9854V144.24H22.3965V143.851H22.9854ZM24.9512 142.559H25.3789V147H24.9512V142.559ZM27.7695 147.064C27.3652 147.064 27.0254 146.917 26.75 146.622C26.4746 146.327 26.3369 145.931 26.3369 145.433C26.3369 145.101 26.3975 144.807 26.5186 144.551C26.6416 144.293 26.8125 144.102 27.0312 143.977C27.25 143.85 27.4824 143.786 27.7285 143.786C27.9668 143.786 28.1943 143.852 28.4111 143.982C28.6299 144.111 28.8027 144.308 28.9297 144.571C29.0566 144.833 29.1201 145.126 29.1201 145.45C29.1201 145.944 28.9863 146.337 28.7188 146.628C28.4512 146.919 28.1348 147.064 27.7695 147.064ZM27.7314 146.701C27.9893 146.701 28.2129 146.59 28.4023 146.367C28.5938 146.145 28.6895 145.825 28.6895 145.409C28.6895 144.999 28.5967 144.687 28.4111 144.472C28.2256 144.257 28.002 144.149 27.7402 144.149C27.4629 144.149 27.2295 144.259 27.04 144.478C26.8525 144.696 26.7588 145.009 26.7588 145.415C26.7588 145.831 26.8535 146.149 27.043 146.37C27.2324 146.591 27.4619 146.701 27.7314 146.701ZM30.4531 144.562C30.6289 144.293 30.8125 144.096 31.0039 143.971C31.1973 143.846 31.417 143.783 31.6631 143.783C31.6904 143.783 31.7295 143.784 31.7803 143.786L31.7188 144.258L31.5635 144.249C31.4502 144.243 31.3232 144.271 31.1826 144.331C31.042 144.39 30.916 144.483 30.8047 144.612C30.6953 144.741 30.6094 144.901 30.5469 145.093C30.4844 145.284 30.4531 145.453 30.4531 145.6V147H30.0254V143.851H30.4531V144.562ZM32.5156 142.6H32.9434V143.112H32.5156V142.6ZM32.5156 143.851H32.9434V147H32.5156V143.851ZM36.2686 142.559H36.6934V146.019C36.6934 146.198 36.7051 146.385 36.7285 146.578C36.752 146.77 36.7783 146.91 36.8076 147H36.3682C36.3213 146.838 36.2969 146.692 36.2949 146.563C36.1055 146.729 35.918 146.854 35.7324 146.938C35.5488 147.022 35.3672 147.064 35.1875 147.064C34.832 147.064 34.5264 146.921 34.2705 146.634C34.0166 146.345 33.8896 145.945 33.8896 145.436C33.8896 144.914 34.0176 144.509 34.2734 144.22C34.5312 143.931 34.8379 143.786 35.1934 143.786C35.375 143.786 35.5518 143.825 35.7236 143.903C35.8955 143.979 36.0771 144.102 36.2686 144.27V142.559ZM36.2686 144.639C36.0928 144.482 35.9199 144.366 35.75 144.29C35.5801 144.212 35.4131 144.173 35.249 144.173C34.9814 144.173 34.7588 144.277 34.5811 144.486C34.4033 144.693 34.3145 145.001 34.3145 145.409C34.3145 145.837 34.4053 146.157 34.5869 146.37C34.7686 146.581 34.9902 146.687 35.252 146.687C35.4121 146.687 35.5771 146.647 35.7471 146.569C35.917 146.489 36.0908 146.37 36.2686 146.212V144.639ZM37.666 144.396C37.8672 144.187 38.085 144.033 38.3193 143.936C38.5537 143.836 38.7832 143.786 39.0078 143.786C39.2676 143.786 39.4883 143.844 39.6699 143.959C39.8535 144.074 39.9805 144.217 40.0508 144.387C40.1035 144.518 40.1299 144.692 40.1299 144.911V146.247C40.1299 146.513 40.1602 146.764 40.2207 147H39.7842C39.7314 146.814 39.7031 146.639 39.6992 146.473C39.5039 146.67 39.3047 146.818 39.1016 146.918C38.9004 147.016 38.6943 147.064 38.4834 147.064C38.2158 147.064 38 146.984 37.8359 146.824C37.6719 146.662 37.5898 146.459 37.5898 146.215C37.5898 146.016 37.6533 145.829 37.7803 145.655C37.9072 145.481 38.1045 145.345 38.3721 145.245C38.5674 145.173 39.0098 145.062 39.6992 144.911V144.715C39.6992 144.549 39.6406 144.41 39.5234 144.299C39.4082 144.188 39.2617 144.132 39.084 144.132C38.9238 144.132 38.7568 144.172 38.583 144.252C38.4111 144.33 38.21 144.467 37.9795 144.662L37.666 144.396ZM39.6992 146.227V145.225C39.2246 145.338 38.9121 145.421 38.7617 145.474C38.5215 145.556 38.3447 145.662 38.2314 145.793C38.1201 145.922 38.0645 146.06 38.0645 146.206C38.0645 146.345 38.1123 146.46 38.208 146.552C38.3057 146.642 38.4355 146.687 38.5977 146.687C38.752 146.687 38.9209 146.648 39.1045 146.572C39.2881 146.494 39.4863 146.379 39.6992 146.227ZM41.2754 142.559H41.7031V147H41.2754V142.559ZM42.8281 143.851H43.2559V145.916C43.2559 146.145 43.3115 146.323 43.4229 146.452C43.5361 146.581 43.6699 146.646 43.8242 146.646C43.9629 146.646 44.1143 146.608 44.2783 146.534C44.4424 146.458 44.6504 146.315 44.9023 146.106V143.851H45.333V147H44.9023V146.493C44.6641 146.683 44.4463 146.825 44.249 146.921C44.0518 147.017 43.874 147.064 43.7158 147.064C43.5635 147.064 43.4199 147.03 43.2852 146.962C43.1523 146.892 43.043 146.777 42.957 146.619C42.8711 146.459 42.8281 146.251 42.8281 145.995V143.851ZM46.1123 143.851H46.6074L47.4014 145.002L48.1865 143.851H48.6816L47.6475 145.368L48.7549 147H48.2656L47.4014 145.731L46.543 147H46.0479L47.1553 145.368L46.1123 143.851ZM49.3965 143.851H49.8242V145.916C49.8242 146.145 49.8799 146.323 49.9912 146.452C50.1045 146.581 50.2383 146.646 50.3926 146.646C50.5312 146.646 50.6826 146.608 50.8467 146.534C51.0107 146.458 51.2188 146.315 51.4707 146.106V143.851H51.9014V147H51.4707V146.493C51.2324 146.683 51.0146 146.825 50.8174 146.921C50.6201 147.017 50.4424 147.064 50.2842 147.064C50.1318 147.064 49.9883 147.03 49.8535 146.962C49.7207 146.892 49.6113 146.777 49.5254 146.619C49.4395 146.459 49.3965 146.251 49.3965 145.995V143.851ZM53.4746 144.562C53.6504 144.293 53.834 144.096 54.0254 143.971C54.2188 143.846 54.4385 143.783 54.6846 143.783C54.7119 143.783 54.751 143.784 54.8018 143.786L54.7402 144.258L54.585 144.249C54.4717 144.243 54.3447 144.271 54.2041 144.331C54.0635 144.39 53.9375 144.483 53.8262 144.612C53.7168 144.741 53.6309 144.901 53.5684 145.093C53.5059 145.284 53.4746 145.453 53.4746 145.6V147H53.0469V143.851H53.4746V144.562ZM55.5371 142.6H55.9648V143.112H55.5371V142.6ZM55.5371 143.851H55.9648V147H55.5371V143.851ZM58.3555 147.064C57.9512 147.064 57.6113 146.917 57.3359 146.622C57.0605 146.327 56.9229 145.931 56.9229 145.433C56.9229 145.101 56.9834 144.807 57.1045 144.551C57.2275 144.293 57.3984 144.102 57.6172 143.977C57.8359 143.85 58.0684 143.786 58.3145 143.786C58.5527 143.786 58.7803 143.852 58.9971 143.982C59.2158 144.111 59.3887 144.308 59.5156 144.571C59.6426 144.833 59.7061 145.126 59.7061 145.45C59.7061 145.944 59.5723 146.337 59.3047 146.628C59.0371 146.919 58.7207 147.064 58.3555 147.064ZM58.3174 146.701C58.5752 146.701 58.7988 146.59 58.9883 146.367C59.1797 146.145 59.2754 145.825 59.2754 145.409C59.2754 144.999 59.1826 144.687 58.9971 144.472C58.8115 144.257 58.5879 144.149 58.3262 144.149C58.0488 144.149 57.8154 144.259 57.626 144.478C57.4385 144.696 57.3447 145.009 57.3447 145.415C57.3447 145.831 57.4395 146.149 57.6289 146.37C57.8184 146.591 58.0479 146.701 58.3174 146.701ZM60.5293 143.851H60.957V145.916C60.957 146.145 61.0127 146.323 61.124 146.452C61.2373 146.581 61.3711 146.646 61.5254 146.646C61.6641 146.646 61.8154 146.608 61.9795 146.534C62.1436 146.458 62.3516 146.315 62.6035 146.106V143.851H63.0342V147H62.6035V146.493C62.3652 146.683 62.1475 146.825 61.9502 146.921C61.7529 147.017 61.5752 147.064 61.417 147.064C61.2646 147.064 61.1211 147.03 60.9863 146.962C60.8535 146.892 60.7441 146.777 60.6582 146.619C60.5723 146.459 60.5293 146.251 60.5293 145.995V143.851ZM64.2061 145.175C64.0518 145.013 63.9746 144.832 63.9746 144.633C63.9746 144.402 64.0693 144.204 64.2588 144.038C64.4482 143.87 64.7119 143.786 65.0498 143.786C65.2744 143.786 65.4863 143.827 65.6855 143.909C65.8867 143.991 66.0576 144.112 66.1982 144.272L65.873 144.545C65.752 144.406 65.627 144.305 65.498 144.24C65.3691 144.174 65.2217 144.141 65.0557 144.141C64.8428 144.141 64.6807 144.187 64.5693 144.278C64.46 144.37 64.4053 144.477 64.4053 144.598C64.4053 144.701 64.4482 144.794 64.5342 144.876C64.6182 144.958 64.8154 145.039 65.126 145.119C65.6045 145.242 65.9268 145.392 66.0928 145.567C66.2588 145.743 66.3418 145.937 66.3418 146.147C66.3418 146.399 66.2422 146.615 66.043 146.795C65.8457 146.975 65.5762 147.064 65.2344 147.064C64.9844 147.064 64.7539 147.018 64.543 146.924C64.332 146.83 64.1094 146.674 63.875 146.455L64.2412 146.197C64.417 146.373 64.582 146.499 64.7363 146.575C64.8906 146.649 65.0537 146.687 65.2256 146.687C65.4443 146.687 65.6133 146.635 65.7324 146.531C65.8535 146.426 65.9141 146.303 65.9141 146.162C65.9141 146.045 65.8691 145.944 65.7793 145.86C65.6523 145.741 65.3975 145.632 65.0146 145.532C64.7783 145.47 64.582 145.4 64.4258 145.324C64.3477 145.287 64.2744 145.237 64.2061 145.175ZM67.2383 146.332H67.8184V147H67.2383V146.332ZM71.4072 146.235C71.2646 146.491 71.1084 146.683 70.9385 146.81C70.7119 146.979 70.457 147.064 70.1738 147.064C69.9277 147.064 69.6963 146.998 69.4795 146.865C69.2646 146.732 69.0977 146.54 68.9785 146.288C68.8613 146.036 68.8027 145.747 68.8027 145.421C68.8027 144.919 68.9365 144.521 69.2041 144.229C69.4736 143.934 69.7979 143.786 70.1768 143.786C70.4326 143.786 70.665 143.854 70.874 143.988C71.083 144.123 71.2607 144.325 71.4072 144.595L71.0352 144.797C70.916 144.576 70.7871 144.412 70.6484 144.305C70.5098 144.195 70.3506 144.141 70.1709 144.141C69.915 144.141 69.6934 144.25 69.5059 144.469C69.3203 144.688 69.2275 145.014 69.2275 145.447C69.2275 145.83 69.3213 146.133 69.5088 146.355C69.6982 146.578 69.915 146.689 70.1592 146.689C70.5283 146.689 70.8203 146.47 71.0352 146.03L71.4072 146.235ZM73.4316 147.064C73.0273 147.064 72.6875 146.917 72.4121 146.622C72.1367 146.327 71.999 145.931 71.999 145.433C71.999 145.101 72.0596 144.807 72.1807 144.551C72.3037 144.293 72.4746 144.102 72.6934 143.977C72.9121 143.85 73.1445 143.786 73.3906 143.786C73.6289 143.786 73.8564 143.852 74.0732 143.982C74.292 144.111 74.4648 144.308 74.5918 144.571C74.7188 144.833 74.7822 145.126 74.7822 145.45C74.7822 145.944 74.6484 146.337 74.3809 146.628C74.1133 146.919 73.7969 147.064 73.4316 147.064ZM73.3936 146.701C73.6514 146.701 73.875 146.59 74.0645 146.367C74.2559 146.145 74.3516 145.825 74.3516 145.409C74.3516 144.999 74.2588 144.687 74.0732 144.472C73.8877 144.257 73.6641 144.149 73.4023 144.149C73.125 144.149 72.8916 144.259 72.7021 144.478C72.5146 144.696 72.4209 145.009 72.4209 145.415C72.4209 145.831 72.5156 146.149 72.7051 146.37C72.8945 146.591 73.124 146.701 73.3936 146.701ZM76.1182 144.349C76.4834 144.104 76.75 143.95 76.918 143.886C77.0859 143.819 77.248 143.786 77.4043 143.786C77.5781 143.786 77.7275 143.832 77.8525 143.924C77.9775 144.014 78.0752 144.155 78.1455 144.349C78.5107 144.103 78.7764 143.947 78.9424 143.883C79.1104 143.818 79.2754 143.786 79.4375 143.786C79.6562 143.786 79.832 143.849 79.9648 143.974C80.1484 144.149 80.2402 144.377 80.2402 144.656V147H79.8096V144.782C79.8096 144.599 79.7607 144.452 79.6631 144.343C79.5674 144.231 79.4531 144.176 79.3203 144.176C79.1992 144.176 79.0547 144.212 78.8867 144.284C78.7207 144.354 78.4844 144.5 78.1777 144.721V147H77.75V144.782C77.75 144.595 77.7031 144.447 77.6094 144.34C77.5156 144.23 77.4072 144.176 77.2842 144.176C77.1494 144.176 76.999 144.211 76.833 144.281C76.6689 144.35 76.4307 144.496 76.1182 144.721V147H75.6846V143.851H76.1182V144.349Z" fill="#1C1C1C"/>
<path d="M22.418 161.84C22.6133 160.926 22.9258 160.145 23.3555 159.496C23.9727 158.582 24.7461 157.891 25.6758 157.422C26.6133 156.953 27.6133 156.719 28.6758 156.719C30.4102 156.719 31.8242 157.211 32.918 158.195C34.0117 159.172 34.5586 160.312 34.5586 161.617C34.5586 162.328 34.4023 163.031 34.0898 163.727C33.7773 164.422 33.3242 165.094 32.7305 165.742C32.293 166.219 31.4453 166.984 30.1875 168.039C28.9375 169.094 28.0547 169.883 27.5391 170.406C27.0234 170.922 26.543 171.477 26.0977 172.07H34.5V175H22.043V174.438C22.043 173.586 22.2227 172.766 22.582 171.977C22.9414 171.188 23.5391 170.332 24.375 169.41C24.8359 168.902 25.9102 167.91 27.5977 166.434C28.8633 165.316 29.6406 164.598 29.9297 164.277C30.3516 163.824 30.6562 163.391 30.8438 162.977C31.0312 162.555 31.125 162.16 31.125 161.793C31.125 161.152 30.875 160.598 30.375 160.129C29.8828 159.66 29.25 159.426 28.4766 159.426C27.7344 159.426 27.0664 159.676 26.4727 160.176C25.8867 160.676 25.4336 161.469 25.1133 162.555L22.418 161.84ZM43.3008 156.719C45.4258 156.719 47.0898 157.426 48.293 158.84C49.4961 160.246 50.0977 162.637 50.0977 166.012C50.0977 169.395 49.5078 171.797 48.3281 173.219C47.1484 174.641 45.5703 175.352 43.5938 175.352C42.2891 175.352 41.2539 175.148 40.4883 174.742C39.3242 174.125 38.4648 173.242 37.9102 172.094C37.1992 170.625 36.8438 168.648 36.8438 166.164C36.8438 162.742 37.4336 160.312 38.6133 158.875C39.8008 157.438 41.3633 156.719 43.3008 156.719ZM43.5 159.625C42.9141 159.625 42.3594 159.836 41.8359 160.258C41.3203 160.68 40.9375 161.316 40.6875 162.168C40.4453 163.012 40.3242 164.602 40.3242 166.938C40.3242 169 40.6367 170.438 41.2617 171.25C41.8867 172.062 42.6289 172.469 43.4883 172.469C44.0352 172.469 44.5781 172.266 45.1172 171.859C45.6562 171.445 46.0469 170.84 46.2891 170.043C46.5312 169.238 46.6523 167.777 46.6523 165.66C46.6523 163.285 46.3398 161.688 45.7148 160.867C45.0898 160.039 44.3516 159.625 43.5 159.625ZM52.418 161.84C52.6133 160.926 52.9258 160.145 53.3555 159.496C53.9727 158.582 54.7461 157.891 55.6758 157.422C56.6133 156.953 57.6133 156.719 58.6758 156.719C60.4102 156.719 61.8242 157.211 62.918 158.195C64.0117 159.172 64.5586 160.312 64.5586 161.617C64.5586 162.328 64.4023 163.031 64.0898 163.727C63.7773 164.422 63.3242 165.094 62.7305 165.742C62.293 166.219 61.4453 166.984 60.1875 168.039C58.9375 169.094 58.0547 169.883 57.5391 170.406C57.0234 170.922 56.543 171.477 56.0977 172.07H64.5V175H52.043V174.438C52.043 173.586 52.2227 172.766 52.582 171.977C52.9414 171.188 53.5391 170.332 54.375 169.41C54.8359 168.902 55.9102 167.91 57.5977 166.434C58.8633 165.316 59.6406 164.598 59.9297 164.277C60.3516 163.824 60.6562 163.391 60.8438 162.977C61.0312 162.555 61.125 162.16 61.125 161.793C61.125 161.152 60.875 160.598 60.375 160.129C59.8828 159.66 59.25 159.426 58.4766 159.426C57.7344 159.426 57.0664 159.676 56.4727 160.176C55.8867 160.676 55.4336 161.469 55.1133 162.555L52.418 161.84ZM67.8984 159.297C69.0156 158.336 70.0117 157.668 70.8867 157.293C71.7617 156.91 72.7148 156.719 73.7461 156.719C75.6133 156.719 77.0781 157.273 78.1406 158.383C78.9766 159.273 79.3945 160.266 79.3945 161.359C79.3945 162.25 79.082 163.062 78.457 163.797C77.8398 164.531 76.9492 165.051 75.7852 165.355C77.0664 165.98 78.0273 166.719 78.668 167.57C79.3086 168.422 79.6289 169.383 79.6289 170.453C79.6289 171.805 79.082 172.961 77.9883 173.922C76.9023 174.875 75.3945 175.352 73.4648 175.352C72.4648 175.352 71.5703 175.199 70.7812 174.895C70 174.59 69.293 174.168 68.6602 173.629C68.2227 173.254 67.7188 172.68 67.1484 171.906L69.7148 170.301C70.457 171.121 71.1367 171.711 71.7539 172.07C72.3711 172.43 72.9844 172.609 73.5938 172.609C74.3359 172.609 74.9609 172.367 75.4688 171.883C75.9766 171.391 76.2305 170.812 76.2305 170.148C76.2305 169.297 75.8711 168.582 75.1523 168.004C74.4414 167.418 73.1914 167.125 71.4023 167.125H70.3125V164.043H71.1328C73.0312 164.043 74.3828 163.77 75.1875 163.223C75.7578 162.832 76.043 162.32 76.043 161.688C76.043 161.156 75.7969 160.668 75.3047 160.223C74.8125 159.777 74.2266 159.555 73.5469 159.555C72.375 159.555 71.2188 160.164 70.0781 161.383L67.8984 159.297Z" fill="#1C1C1C"/>
</svg>
