<svg width="94" height="232" viewBox="0 0 94 232" fill="none" xmlns="http://www.w3.org/2000/svg">
<path d="M94 0H0V232L48.5 191.5L94 232V0Z" fill="white"/>
<path d="M32.4297 9.15625H33.5703V16.9062C33.5703 17.8802 33.8464 18.6484 34.3984 19.2109C34.9557 19.7734 35.7109 20.0547 36.6641 20.0547C37.4141 20.0547 38.0234 19.9271 38.4922 19.6719C38.9661 19.4115 39.3203 19.0339 39.5547 18.5391C39.7891 18.0391 39.9062 17.4948 39.9062 16.9062V9.15625H41.0625V16.9062C41.0625 18.2292 40.6745 19.2812 39.8984 20.0625C39.1276 20.8438 38.0964 21.2344 36.8047 21.2344C35.763 21.2344 34.901 21.0156 34.2188 20.5781C33.5417 20.1406 33.0729 19.5885 32.8125 18.9219C32.5573 18.25 32.4297 17.6328 32.4297 17.0703V9.15625ZM44.8203 17.6797C44.9505 18.1484 45.0964 18.5104 45.2578 18.7656C45.5286 19.1875 45.8854 19.526 46.3281 19.7812C46.7708 20.0312 47.3073 20.1562 47.9375 20.1562C48.8177 20.1562 49.5078 19.9323 50.0078 19.4844C50.513 19.0312 50.7656 18.4948 50.7656 17.875C50.7656 17.3125 50.5391 16.8333 50.0859 16.4375C49.737 16.1406 49.0339 15.8411 47.9766 15.5391C46.5495 15.1276 45.5312 14.651 44.9219 14.1094C44.3125 13.5729 44.0078 12.9089 44.0078 12.1172C44.0078 11.2474 44.3464 10.5 45.0234 9.875C45.7057 9.24479 46.599 8.92969 47.7031 8.92969C48.375 8.92969 49.0078 9.05469 49.6016 9.30469C50.1953 9.55469 50.6927 9.92708 51.0938 10.4219C51.3698 10.7656 51.5885 11.2135 51.75 11.7656L50.5547 12.1328C50.3516 11.4297 50 10.8906 49.5 10.5156C49.0052 10.1406 48.4115 9.95312 47.7188 9.95312C46.9844 9.95312 46.3932 10.1536 45.9453 10.5547C45.4974 10.9557 45.2734 11.4297 45.2734 11.9766C45.2734 12.4245 45.4557 12.8307 45.8203 13.1953C46.1797 13.5599 46.9714 13.9193 48.1953 14.2734C49.6484 14.6901 50.651 15.1719 51.2031 15.7188C51.75 16.2708 52.0234 16.9661 52.0234 17.8047C52.0234 18.7526 51.651 19.5625 50.9062 20.2344C50.1615 20.901 49.1719 21.2344 47.9375 21.2344C47.1667 21.2344 46.4609 21.0833 45.8203 20.7812C45.1797 20.474 44.6589 20.0495 44.2578 19.5078C43.9818 19.1432 43.7578 18.6432 43.5859 18.0078L44.8203 17.6797ZM57.2031 9.15625H59.0469L62.8438 21H61.6875L60.4922 17.3281H55.7188L54.5234 21H53.3594L57.2031 9.15625ZM58.125 9.9375L56.0859 16.1797H60.125L58.125 9.9375ZM7 23.1562H10.9219C12.2969 23.1562 13.3438 23.4714 14.0625 24.1016C14.7865 24.7318 15.1484 25.4766 15.1484 26.3359C15.1484 26.8359 15.0521 27.2786 14.8594 27.6641C14.6667 28.0443 14.3802 28.3828 14 28.6797C13.625 28.9766 13.1771 29.2135 12.6562 29.3906C12.1354 29.5625 11.4896 29.6484 10.7188 29.6484H8.14062V35H7V23.1562ZM8.125 24.1797V28.6172H10.6328C11.7943 28.6172 12.6198 28.4115 13.1094 28C13.599 27.5885 13.8438 27.0495 13.8438 26.3828C13.8438 25.6224 13.5182 25.0417 12.8672 24.6406C12.3672 24.3333 11.5677 24.1797 10.4688 24.1797H8.125ZM17.8047 23.1562H21.4297C22.4661 23.1562 23.2995 23.2786 23.9297 23.5234C24.5599 23.7682 25.0547 24.151 25.4141 24.6719C25.7786 25.1875 25.9609 25.7578 25.9609 26.3828C25.9609 27.0651 25.7448 27.6719 25.3125 28.2031C24.8854 28.7292 24.2344 29.125 23.3594 29.3906L26.2344 35H25L22.2109 29.625H18.9531V35H17.8047V23.1562ZM18.9531 24.1797V28.6094H21.4766C22.0911 28.6094 22.7005 28.5078 23.3047 28.3047C23.7422 28.1589 24.0781 27.9141 24.3125 27.5703C24.5521 27.2214 24.6719 26.8177 24.6719 26.3594C24.6719 25.724 24.4401 25.2031 23.9766 24.7969C23.5182 24.3854 22.8255 24.1797 21.8984 24.1797H18.9531ZM32.3203 35.2344C30.9505 35.2344 29.8203 34.7344 28.9297 33.7344C27.888 32.5573 27.3672 31.0391 27.3672 29.1797C27.3672 28.0026 27.5755 26.9115 27.9922 25.9062C28.4141 24.901 29.0104 24.1536 29.7812 23.6641C30.5573 23.1745 31.4062 22.9297 32.3281 22.9297C33.1302 22.9297 33.8411 23.1094 34.4609 23.4688C35.0807 23.8229 35.5885 24.2865 35.9844 24.8594C36.3854 25.4271 36.6875 26.0729 36.8906 26.7969C37.0938 27.5208 37.1953 28.2917 37.1953 29.1094C37.1953 30.0052 37.0859 30.7891 36.8672 31.4609C36.6484 32.1276 36.3828 32.6875 36.0703 33.1406C35.763 33.5885 35.4505 33.9427 35.1328 34.2031C34.7161 34.5521 34.2448 34.8125 33.7188 34.9844C33.1979 35.151 32.7318 35.2344 32.3203 35.2344ZM32.2031 34.1641C33.224 34.1641 34.0964 33.7396 34.8203 32.8906C35.5495 32.0365 35.9141 30.7917 35.9141 29.1562C35.9141 27.4271 35.5156 26.0729 34.7188 25.0938C34.0938 24.3333 33.2786 23.9531 32.2734 23.9531C31.2943 23.9531 30.4479 24.3854 29.7344 25.25C29.0208 26.1094 28.6641 27.3958 28.6641 29.1094C28.6641 30.7969 29.0156 32.0625 29.7188 32.9062C30.4219 33.7448 31.25 34.1641 32.2031 34.1641ZM39.8438 23.1562H43.7656C45.1406 23.1562 46.1875 23.4714 46.9062 24.1016C47.6302 24.7318 47.9922 25.4766 47.9922 26.3359C47.9922 26.8359 47.8958 27.2786 47.7031 27.6641C47.5104 28.0443 47.224 28.3828 46.8438 28.6797C46.4688 28.9766 46.0208 29.2135 45.5 29.3906C44.9792 29.5625 44.3333 29.6484 43.5625 29.6484H40.9844V35H39.8438V23.1562ZM40.9688 24.1797V28.6172H43.4766C44.638 28.6172 45.4635 28.4115 45.9531 28C46.4427 27.5885 46.6875 27.0495 46.6875 26.3828C46.6875 25.6224 46.362 25.0417 45.7109 24.6406C45.2109 24.3333 44.4115 24.1797 43.3125 24.1797H40.9688ZM50.6719 23.1562H57.6484V24.2812H51.8203V28.1484H56.1562V29.2891H51.8203V33.8594H58.2109V35H50.6719V23.1562ZM60.6484 23.1562H64.2734C65.3099 23.1562 66.1432 23.2786 66.7734 23.5234C67.4036 23.7682 67.8984 24.151 68.2578 24.6719C68.6224 25.1875 68.8047 25.7578 68.8047 26.3828C68.8047 27.0651 68.5885 27.6719 68.1562 28.2031C67.7292 28.7292 67.0781 29.125 66.2031 29.3906L69.0781 35H67.8438L65.0547 29.625H61.7969V35H60.6484V23.1562ZM61.7969 24.1797V28.6094H64.3203C64.9349 28.6094 65.5443 28.5078 66.1484 28.3047C66.5859 28.1589 66.9219 27.9141 67.1562 27.5703C67.3958 27.2214 67.5156 26.8177 67.5156 26.3594C67.5156 25.724 67.2839 25.2031 66.8203 24.7969C66.362 24.3854 65.6693 24.1797 64.7422 24.1797H61.7969ZM69.8438 23.1562H78.5234V24.2891H74.7734V35H73.625V24.2891H69.8438V23.1562ZM79.4531 23.1562H80.7188L83.8828 28.6406L87.0547 23.1562H88.3203L84.4609 29.8516V35H83.3125V29.8516L79.4531 23.1562ZM17.7109 37.1562H19.5547L23.3516 49H22.1953L21 45.3281H16.2266L15.0312 49H13.8672L17.7109 37.1562ZM18.6328 37.9375L16.5938 44.1797H20.6328L18.6328 37.9375ZM23.75 37.1562H24.8828L27.3516 46.5938L29.8438 37.1562H31.0156L33.4844 46.5938L35.9688 37.1562H37.0859L33.9688 49H32.9766L30.4219 39.2656L27.8594 49H26.8281L23.75 37.1562ZM41.6641 37.1562H43.5078L47.3047 49H46.1484L44.9531 45.3281H40.1797L38.9844 49H37.8203L41.6641 37.1562ZM42.5859 37.9375L40.5469 44.1797H44.5859L42.5859 37.9375ZM49.3359 37.1562H52.9609C53.9974 37.1562 54.8307 37.2786 55.4609 37.5234C56.0911 37.7682 56.5859 38.151 56.9453 38.6719C57.3099 39.1875 57.4922 39.7578 57.4922 40.3828C57.4922 41.0651 57.276 41.6719 56.8438 42.2031C56.4167 42.7292 55.7656 43.125 54.8906 43.3906L57.7656 49H56.5312L53.7422 43.625H50.4844V49H49.3359V37.1562ZM50.4844 38.1797V42.6094H53.0078C53.6224 42.6094 54.2318 42.5078 54.8359 42.3047C55.2734 42.1589 55.6094 41.9141 55.8438 41.5703C56.0833 41.2214 56.2031 40.8177 56.2031 40.3594C56.2031 39.724 55.9714 39.2031 55.5078 38.7969C55.0495 38.3854 54.3568 38.1797 53.4297 38.1797H50.4844ZM60.1719 37.1562H63.5703C65.2943 37.1562 66.6562 37.6693 67.6562 38.6953C68.6615 39.7214 69.1641 41.1458 69.1641 42.9688C69.1641 43.901 69.0417 44.7578 68.7969 45.5391C68.6146 46.1276 68.3568 46.6354 68.0234 47.0625C67.6901 47.4896 67.3125 47.8464 66.8906 48.1328C66.5833 48.3359 66.2188 48.5104 65.7969 48.6562C65.1094 48.8854 64.2318 49 63.1641 49H60.1719V37.1562ZM61.3047 38.1875V47.9531H63.8125C64.8021 47.9531 65.6745 47.6354 66.4297 47C67.388 46.2031 67.8672 44.8984 67.8672 43.0859C67.8672 41.237 67.375 39.9062 66.3906 39.0938C65.6615 38.4896 64.7422 38.1875 63.6328 38.1875H61.3047ZM72.2812 45.6797C72.4115 46.1484 72.5573 46.5104 72.7188 46.7656C72.9896 47.1875 73.3464 47.526 73.7891 47.7812C74.2318 48.0312 74.7682 48.1562 75.3984 48.1562C76.2786 48.1562 76.9688 47.9323 77.4688 47.4844C77.974 47.0312 78.2266 46.4948 78.2266 45.875C78.2266 45.3125 78 44.8333 77.5469 44.4375C77.1979 44.1406 76.4948 43.8411 75.4375 43.5391C74.0104 43.1276 72.9922 42.651 72.3828 42.1094C71.7734 41.5729 71.4688 40.9089 71.4688 40.1172C71.4688 39.2474 71.8073 38.5 72.4844 37.875C73.1667 37.2448 74.0599 36.9297 75.1641 36.9297C75.8359 36.9297 76.4688 37.0547 77.0625 37.3047C77.6562 37.5547 78.1536 37.9271 78.5547 38.4219C78.8307 38.7656 79.0495 39.2135 79.2109 39.7656L78.0156 40.1328C77.8125 39.4297 77.4609 38.8906 76.9609 38.5156C76.4661 38.1406 75.8724 37.9531 75.1797 37.9531C74.4453 37.9531 73.8542 38.1536 73.4062 38.5547C72.9583 38.9557 72.7344 39.4297 72.7344 39.9766C72.7344 40.4245 72.9167 40.8307 73.2812 41.1953C73.6406 41.5599 74.4323 41.9193 75.6562 42.2734C77.1094 42.6901 78.112 43.1719 78.6641 43.7188C79.2109 44.2708 79.4844 44.9661 79.4844 45.8047C79.4844 46.7526 79.112 47.5625 78.3672 48.2344C77.6224 48.901 76.6328 49.2344 75.3984 49.2344C74.6276 49.2344 73.9219 49.0833 73.2812 48.7812C72.6406 48.474 72.1198 48.0495 71.7188 47.5078C71.4427 47.1432 71.2188 46.6432 71.0469 46.0078L72.2812 45.6797Z" fill="#1C1C1C"/>
<path d="M11.4941 56.5977H13.7598C14.4076 56.5977 14.9284 56.6742 15.3223 56.8271C15.7161 56.9801 16.0254 57.2194 16.25 57.5449C16.4779 57.8672 16.5918 58.2236 16.5918 58.6143C16.5918 59.0407 16.4567 59.4199 16.1865 59.752C15.9196 60.0807 15.5127 60.3281 14.9658 60.4941L16.7627 64H15.9912L14.248 60.6406H12.2119V64H11.4941V56.5977ZM12.2119 57.2373V60.0059H13.7891C14.1732 60.0059 14.554 59.9424 14.9316 59.8154C15.2051 59.7243 15.415 59.5713 15.5615 59.3564C15.7113 59.1383 15.7861 58.8861 15.7861 58.5996C15.7861 58.2025 15.6413 57.877 15.3516 57.623C15.0651 57.3659 14.6322 57.2373 14.0527 57.2373H12.2119ZM19.2764 56.5977H23.6367V57.3008H19.9941V59.7178H22.7041V60.4307H19.9941V63.2871H23.9883V64H19.2764V56.5977ZM28.0645 56.5977H29.2168L31.5898 64H30.8672L30.1201 61.7051H27.1367L26.3896 64H25.6621L28.0645 56.5977ZM28.6406 57.0859L27.3662 60.9873H29.8906L28.6406 57.0859ZM33.8887 56.5977H34.6016V63.2725H38.166V64H33.8887V56.5977ZM44.7314 56.5977H49.0918V57.3008H45.4492V59.7178H48.1592V60.4307H45.4492V63.2871H49.4434V64H44.7314V56.5977ZM52.2451 61.9248C52.3265 62.2178 52.4176 62.444 52.5186 62.6035C52.6878 62.8672 52.9108 63.0788 53.1875 63.2383C53.4642 63.3945 53.7995 63.4727 54.1934 63.4727C54.7435 63.4727 55.1748 63.3327 55.4873 63.0527C55.8031 62.7695 55.9609 62.4342 55.9609 62.0469C55.9609 61.6953 55.8193 61.3958 55.5361 61.1484C55.318 60.9629 54.8786 60.7757 54.2178 60.5869C53.3258 60.3298 52.6895 60.0319 52.3086 59.6934C51.9277 59.3581 51.7373 58.943 51.7373 58.4482C51.7373 57.9046 51.9489 57.4375 52.3721 57.0469C52.7985 56.653 53.3568 56.4561 54.0469 56.4561C54.4668 56.4561 54.8623 56.5342 55.2334 56.6904C55.6045 56.8467 55.9154 57.0794 56.166 57.3887C56.3385 57.6035 56.4753 57.8835 56.5762 58.2285L55.8291 58.458C55.7021 58.0186 55.4824 57.6816 55.1699 57.4473C54.8607 57.2129 54.4896 57.0957 54.0566 57.0957C53.5977 57.0957 53.2282 57.221 52.9482 57.4717C52.6683 57.7223 52.5283 58.0186 52.5283 58.3604C52.5283 58.6403 52.6423 58.8942 52.8701 59.1221C53.0947 59.3499 53.5895 59.5745 54.3545 59.7959C55.2627 60.0563 55.8893 60.3574 56.2344 60.6992C56.5762 61.0443 56.7471 61.4788 56.7471 62.0029C56.7471 62.5954 56.5143 63.1016 56.0488 63.5215C55.5833 63.9382 54.9648 64.1465 54.1934 64.1465C53.7116 64.1465 53.2705 64.0521 52.8701 63.8633C52.4697 63.6712 52.1442 63.4059 51.8936 63.0674C51.721 62.8395 51.5811 62.527 51.4736 62.1299L52.2451 61.9248ZM58.7627 56.5977H64.1875V57.3057H61.8438V64H61.126V57.3057H58.7627V56.5977ZM67.3359 56.5977H68.4883L70.8613 64H70.1387L69.3916 61.7051H66.4082L65.6611 64H64.9336L67.3359 56.5977ZM67.9121 57.0859L66.6377 60.9873H69.1621L67.9121 57.0859ZM71.5635 56.5977H76.9883V57.3057H74.6445V64H73.9268V57.3057H71.5635V56.5977ZM79.3994 56.5977H83.7598V57.3008H80.1172V59.7178H82.8271V60.4307H80.1172V63.2871H84.1113V64H79.3994V56.5977Z" fill="#1C1C1C"/>
<path d="M11 76L12.5716 80.8369H17.6574L13.5429 83.8262L15.1145 88.6631L11 85.6738L6.8855 88.6631L8.4571 83.8262L4.3426 80.8369H9.4284L11 76Z" fill="#D4CFC9"/>
<path d="M29 76L30.5716 80.8369H35.6574L31.5429 83.8262L33.1145 88.6631L29 85.6738L24.8855 88.6631L26.4571 83.8262L22.3426 80.8369H27.4284L29 76Z" fill="#D4CFC9"/>
<path d="M47 76L48.5716 80.8369H53.6574L49.5429 83.8262L51.1145 88.6631L47 85.6738L42.8855 88.6631L44.4571 83.8262L40.3426 80.8369H45.4284L47 76Z" fill="#D4CFC9"/>
<path d="M65 76L66.5716 80.8369H71.6574L67.5429 83.8262L69.1145 88.6631L65 85.6738L60.8855 88.6631L62.4571 83.8262L58.3426 80.8369H63.4284L65 76Z" fill="#D4CFC9"/>
<path d="M83 76L84.5716 80.8369H89.6574L85.5429 83.8262L87.1145 88.6631L83 85.6738L78.8855 88.6631L80.4571 83.8262L76.3426 80.8369H81.4284L83 76Z" fill="#D4CFC9"/>
<path d="M19.6836 95.5586H21.21C21.7334 95.5586 22.1299 95.6719 22.3994 95.8984C22.6689 96.125 22.8037 96.3857 22.8037 96.6807C22.8037 96.8838 22.7373 97.0771 22.6045 97.2607C22.4717 97.4424 22.2686 97.5908 21.9951 97.7061C22.3076 97.8252 22.54 97.9844 22.6924 98.1836C22.8447 98.3809 22.9209 98.5879 22.9209 98.8047C22.9209 99.1094 22.7783 99.3848 22.4932 99.6309C22.208 99.877 21.8076 100 21.292 100H19.6836V95.5586ZM20.1113 95.9512V97.5303H20.917C21.4482 97.5303 21.8154 97.4531 22.0186 97.2988C22.2236 97.1426 22.3262 96.9521 22.3262 96.7275C22.3262 96.5146 22.2354 96.332 22.0537 96.1797C21.8721 96.0273 21.5986 95.9512 21.2334 95.9512H20.1113ZM20.1113 97.9111V99.6074H21.2773C21.6445 99.6074 21.9482 99.5098 22.1885 99.3145C22.3564 99.1777 22.4404 98.9932 22.4404 98.7607C22.4404 98.5986 22.3906 98.4521 22.291 98.3213C22.1934 98.1904 22.043 98.0898 21.8398 98.0195C21.6387 97.9473 21.4092 97.9111 21.1514 97.9111H20.1113ZM23.9316 95.5586H26.5479V95.9805H24.3623V97.4307H25.9883V97.8584H24.3623V99.5723H26.7588V100H23.9316V95.5586ZM27.8398 98.7549C27.8887 98.9307 27.9434 99.0664 28.0039 99.1621C28.1055 99.3203 28.2393 99.4473 28.4053 99.543C28.5713 99.6367 28.7725 99.6836 29.0088 99.6836C29.3389 99.6836 29.5977 99.5996 29.7852 99.4316C29.9746 99.2617 30.0693 99.0605 30.0693 98.8281C30.0693 98.6172 29.9844 98.4375 29.8145 98.2891C29.6836 98.1777 29.4199 98.0654 29.0234 97.9521C28.4883 97.7979 28.1064 97.6191 27.8779 97.416C27.6494 97.2148 27.5352 96.9658 27.5352 96.6689C27.5352 96.3428 27.6621 96.0625 27.916 95.8281C28.1719 95.5918 28.5068 95.4736 28.9209 95.4736C29.1729 95.4736 29.4102 95.5205 29.6328 95.6143C29.8555 95.708 30.042 95.8477 30.1924 96.0332C30.2959 96.1621 30.3779 96.3301 30.4385 96.5371L29.9902 96.6748C29.9141 96.4111 29.7822 96.209 29.5947 96.0684C29.4092 95.9277 29.1865 95.8574 28.9268 95.8574C28.6514 95.8574 28.4297 95.9326 28.2617 96.083C28.0938 96.2334 28.0098 96.4111 28.0098 96.6162C28.0098 96.7842 28.0781 96.9365 28.2148 97.0732C28.3496 97.21 28.6465 97.3447 29.1055 97.4775C29.6504 97.6338 30.0264 97.8145 30.2334 98.0195C30.4385 98.2266 30.541 98.4873 30.541 98.8018C30.541 99.1572 30.4014 99.4609 30.1221 99.7129C29.8428 99.9629 29.4717 100.088 29.0088 100.088C28.7197 100.088 28.4551 100.031 28.2148 99.918C27.9746 99.8027 27.7793 99.6436 27.6289 99.4404C27.5254 99.3037 27.4414 99.1162 27.377 98.8779L27.8398 98.7549ZM31.1504 95.5586H34.4053V95.9834H32.999V100H32.5684V95.9834H31.1504V95.5586ZM37.1182 95.5586H38.4775C38.8662 95.5586 39.1787 95.6045 39.415 95.6963C39.6514 95.7881 39.8369 95.9316 39.9717 96.127C40.1084 96.3203 40.1768 96.5342 40.1768 96.7686C40.1768 97.0244 40.0957 97.252 39.9336 97.4512C39.7734 97.6484 39.5293 97.7969 39.2012 97.8965L40.2793 100H39.8164L38.7705 97.9844H37.5488V100H37.1182V95.5586ZM37.5488 95.9424V97.6035H38.4951C38.7256 97.6035 38.9541 97.5654 39.1807 97.4893C39.3447 97.4346 39.4707 97.3428 39.5586 97.2139C39.6484 97.083 39.6934 96.9316 39.6934 96.7598C39.6934 96.5215 39.6064 96.3262 39.4326 96.1738C39.2607 96.0195 39.001 95.9424 38.6533 95.9424H37.5488ZM41.1875 95.5586H43.8037V95.9805H41.6182V97.4307H43.2441V97.8584H41.6182V99.5723H44.0146V100H41.1875V95.5586ZM45.8604 95.5586H46.5518L47.9756 100H47.542L47.0938 98.623H45.3037L44.8555 100H44.4189L45.8604 95.5586ZM46.2061 95.8516L45.4414 98.1924H46.9561L46.2061 95.8516ZM48.7549 95.5586H49.1826V99.5635H51.3213V100H48.7549V95.5586ZM54.0605 95.5586H56.6768V95.9805H54.4912V97.4307H56.1172V97.8584H54.4912V99.5723H56.8877V100H54.0605V95.5586ZM57.9688 98.7549C58.0176 98.9307 58.0723 99.0664 58.1328 99.1621C58.2344 99.3203 58.3682 99.4473 58.5342 99.543C58.7002 99.6367 58.9014 99.6836 59.1377 99.6836C59.4678 99.6836 59.7266 99.5996 59.9141 99.4316C60.1035 99.2617 60.1982 99.0605 60.1982 98.8281C60.1982 98.6172 60.1133 98.4375 59.9434 98.2891C59.8125 98.1777 59.5488 98.0654 59.1523 97.9521C58.6172 97.7979 58.2354 97.6191 58.0068 97.416C57.7783 97.2148 57.6641 96.9658 57.6641 96.6689C57.6641 96.3428 57.791 96.0625 58.0449 95.8281C58.3008 95.5918 58.6357 95.4736 59.0498 95.4736C59.3018 95.4736 59.5391 95.5205 59.7617 95.6143C59.9844 95.708 60.1709 95.8477 60.3213 96.0332C60.4248 96.1621 60.5068 96.3301 60.5674 96.5371L60.1191 96.6748C60.043 96.4111 59.9111 96.209 59.7236 96.0684C59.5381 95.9277 59.3154 95.8574 59.0557 95.8574C58.7803 95.8574 58.5586 95.9326 58.3906 96.083C58.2227 96.2334 58.1387 96.4111 58.1387 96.6162C58.1387 96.7842 58.207 96.9365 58.3438 97.0732C58.4785 97.21 58.7754 97.3447 59.2344 97.4775C59.7793 97.6338 60.1553 97.8145 60.3623 98.0195C60.5674 98.2266 60.6699 98.4873 60.6699 98.8018C60.6699 99.1572 60.5303 99.4609 60.251 99.7129C59.9717 99.9629 59.6006 100.088 59.1377 100.088C58.8486 100.088 58.584 100.031 58.3438 99.918C58.1035 99.8027 57.9082 99.6436 57.7578 99.4404C57.6543 99.3037 57.5703 99.1162 57.5059 98.8779L57.9688 98.7549ZM61.2793 95.5586H64.5342V95.9834H63.1279V100H62.6973V95.9834H61.2793V95.5586ZM65.8232 95.5586H66.5146L67.9385 100H67.5049L67.0566 98.623H65.2666L64.8184 100H64.3818L65.8232 95.5586ZM66.1689 95.8516L65.4043 98.1924H66.9189L66.1689 95.8516ZM67.7598 95.5586H71.0146V95.9834H69.6084V100H69.1777V95.9834H67.7598V95.5586ZM71.8613 95.5586H74.4775V95.9805H72.292V97.4307H73.918V97.8584H72.292V99.5723H74.6885V100H71.8613V95.5586ZM25.3291 103.559H26.0205L27.4443 108H27.0107L26.5625 106.623H24.7725L24.3242 108H23.8877L25.3291 103.559ZM25.6748 103.852L24.9102 106.192H26.4248L25.6748 103.852ZM30.7314 107.435C30.5635 107.649 30.377 107.812 30.1719 107.924C29.9668 108.033 29.7275 108.088 29.4541 108.088C28.9463 108.088 28.5352 107.906 28.2207 107.543C27.8535 107.123 27.6699 106.539 27.6699 105.791C27.6699 105.039 27.8457 104.465 28.1973 104.068C28.5508 103.672 28.9805 103.474 29.4863 103.474C29.7695 103.474 30.0332 103.535 30.2773 103.658C30.5215 103.779 30.7217 103.95 30.8779 104.171C30.9893 104.329 31.082 104.546 31.1562 104.821L30.6875 104.915C30.6309 104.718 30.5674 104.562 30.4971 104.449C30.3818 104.264 30.2402 104.12 30.0723 104.019C29.9062 103.917 29.7227 103.866 29.5215 103.866C29.1543 103.866 28.834 104.028 28.5605 104.353C28.2871 104.675 28.1504 105.143 28.1504 105.756C28.1504 106.127 28.208 106.467 28.3232 106.775C28.4404 107.084 28.6055 107.313 28.8184 107.464C29.0312 107.614 29.2598 107.689 29.5039 107.689C29.6992 107.689 29.8838 107.646 30.0576 107.558C30.2314 107.47 30.3682 107.36 30.4678 107.229C30.5693 107.097 30.6387 106.958 30.6758 106.813C30.7129 106.669 30.7314 106.493 30.7314 106.286H29.624V105.858H31.1562V108H30.7314V107.435ZM32.293 103.559H34.9092V103.98H32.7236V105.431H34.3496V105.858H32.7236V107.572H35.1201V108H32.293V103.559ZM36.0283 103.559H36.7021L38.8994 107.188V103.559H39.3271V108H38.8994L36.459 103.945V108H36.0283V103.559ZM40.1914 103.559H43.4463V103.983H42.04V108H41.6094V103.983H40.1914V103.559ZM46.1504 103.559H48.7373V103.986H46.5781V105.437H48.1748V105.867H46.5781V108H46.1504V103.559ZM49.6162 103.559H50.0439V107.563H52.1826V108H49.6162V103.559ZM54.1807 108.088C53.667 108.088 53.2432 107.9 52.9092 107.525C52.5186 107.084 52.3232 106.515 52.3232 105.817C52.3232 105.376 52.4014 104.967 52.5576 104.59C52.7158 104.213 52.9395 103.933 53.2285 103.749C53.5195 103.565 53.8379 103.474 54.1836 103.474C54.4844 103.474 54.751 103.541 54.9834 103.676C55.2158 103.809 55.4062 103.982 55.5547 104.197C55.7051 104.41 55.8184 104.652 55.8945 104.924C55.9707 105.195 56.0088 105.484 56.0088 105.791C56.0088 106.127 55.9678 106.421 55.8857 106.673C55.8037 106.923 55.7041 107.133 55.5869 107.303C55.4717 107.471 55.3545 107.604 55.2354 107.701C55.0791 107.832 54.9023 107.93 54.7051 107.994C54.5098 108.057 54.335 108.088 54.1807 108.088ZM54.1367 107.687C54.5195 107.687 54.8467 107.527 55.1182 107.209C55.3916 106.889 55.5283 106.422 55.5283 105.809C55.5283 105.16 55.3789 104.652 55.0801 104.285C54.8457 104 54.54 103.857 54.1631 103.857C53.7959 103.857 53.4785 104.02 53.2109 104.344C52.9434 104.666 52.8096 105.148 52.8096 105.791C52.8096 106.424 52.9414 106.898 53.2051 107.215C53.4688 107.529 53.7793 107.687 54.1367 107.687ZM56.9932 103.559H58.3525C58.7412 103.559 59.0537 103.604 59.29 103.696C59.5264 103.788 59.7119 103.932 59.8467 104.127C59.9834 104.32 60.0518 104.534 60.0518 104.769C60.0518 105.024 59.9707 105.252 59.8086 105.451C59.6484 105.648 59.4043 105.797 59.0762 105.896L60.1543 108H59.6914L58.6455 105.984H57.4238V108H56.9932V103.559ZM57.4238 103.942V105.604H58.3701C58.6006 105.604 58.8291 105.565 59.0557 105.489C59.2197 105.435 59.3457 105.343 59.4336 105.214C59.5234 105.083 59.5684 104.932 59.5684 104.76C59.5684 104.521 59.4814 104.326 59.3076 104.174C59.1357 104.02 58.876 103.942 58.5283 103.942H57.4238ZM61.168 103.559H61.5986V108H61.168V103.559ZM62.9961 103.559H64.2705C64.917 103.559 65.4277 103.751 65.8027 104.136C66.1797 104.521 66.3682 105.055 66.3682 105.738C66.3682 106.088 66.3223 106.409 66.2305 106.702C66.1621 106.923 66.0654 107.113 65.9404 107.273C65.8154 107.434 65.6738 107.567 65.5156 107.675C65.4004 107.751 65.2637 107.816 65.1055 107.871C64.8477 107.957 64.5186 108 64.1182 108H62.9961V103.559ZM63.4209 103.945V107.607H64.3613C64.7324 107.607 65.0596 107.488 65.3428 107.25C65.7021 106.951 65.8818 106.462 65.8818 105.782C65.8818 105.089 65.6973 104.59 65.3281 104.285C65.0547 104.059 64.71 103.945 64.2939 103.945H63.4209ZM68.0029 103.559H68.6943L70.1182 108H69.6846L69.2363 106.623H67.4463L66.998 108H66.5615L68.0029 103.559ZM68.3486 103.852L67.584 106.192H69.0986L68.3486 103.852Z" fill="#1C1C1C"/>
<path d="M18.9854 128.851V128.358C18.9854 128.116 19.0635 127.923 19.2197 127.778C19.376 127.632 19.5947 127.559 19.876 127.559C19.9385 127.559 20.0137 127.562 20.1016 127.567V127.969C20.0156 127.959 19.9453 127.954 19.8906 127.954C19.7344 127.954 19.6152 127.994 19.5332 128.074C19.4512 128.154 19.4102 128.262 19.4102 128.396V128.851H20.0605V129.24H19.4102V132H18.9854V129.24H18.3965V128.851H18.9854ZM20.9512 127.559H21.3789V132H20.9512V127.559ZM23.7695 132.064C23.3652 132.064 23.0254 131.917 22.75 131.622C22.4746 131.327 22.3369 130.931 22.3369 130.433C22.3369 130.101 22.3975 129.807 22.5186 129.551C22.6416 129.293 22.8125 129.102 23.0312 128.977C23.25 128.85 23.4824 128.786 23.7285 128.786C23.9668 128.786 24.1943 128.852 24.4111 128.982C24.6299 129.111 24.8027 129.308 24.9297 129.571C25.0566 129.833 25.1201 130.126 25.1201 130.45C25.1201 130.944 24.9863 131.337 24.7188 131.628C24.4512 131.919 24.1348 132.064 23.7695 132.064ZM23.7314 131.701C23.9893 131.701 24.2129 131.59 24.4023 131.367C24.5938 131.145 24.6895 130.825 24.6895 130.409C24.6895 129.999 24.5967 129.687 24.4111 129.472C24.2256 129.257 24.002 129.149 23.7402 129.149C23.4629 129.149 23.2295 129.259 23.04 129.478C22.8525 129.696 22.7588 130.009 22.7588 130.415C22.7588 130.831 22.8535 131.149 23.043 131.37C23.2324 131.591 23.4619 131.701 23.7314 131.701ZM26.4531 129.562C26.6289 129.293 26.8125 129.096 27.0039 128.971C27.1973 128.846 27.417 128.783 27.6631 128.783C27.6904 128.783 27.7295 128.784 27.7803 128.786L27.7188 129.258L27.5635 129.249C27.4502 129.243 27.3232 129.271 27.1826 129.331C27.042 129.39 26.916 129.483 26.8047 129.612C26.6953 129.741 26.6094 129.901 26.5469 130.093C26.4844 130.284 26.4531 130.453 26.4531 130.6V132H26.0254V128.851H26.4531V129.562ZM28.5156 127.6H28.9434V128.112H28.5156V127.6ZM28.5156 128.851H28.9434V132H28.5156V128.851ZM32.2686 127.559H32.6934V131.019C32.6934 131.198 32.7051 131.385 32.7285 131.578C32.752 131.77 32.7783 131.91 32.8076 132H32.3682C32.3213 131.838 32.2969 131.692 32.2949 131.563C32.1055 131.729 31.918 131.854 31.7324 131.938C31.5488 132.022 31.3672 132.064 31.1875 132.064C30.832 132.064 30.5264 131.921 30.2705 131.634C30.0166 131.345 29.8896 130.945 29.8896 130.436C29.8896 129.914 30.0176 129.509 30.2734 129.22C30.5312 128.931 30.8379 128.786 31.1934 128.786C31.375 128.786 31.5518 128.825 31.7236 128.903C31.8955 128.979 32.0771 129.102 32.2686 129.27V127.559ZM32.2686 129.639C32.0928 129.482 31.9199 129.366 31.75 129.29C31.5801 129.212 31.4131 129.173 31.249 129.173C30.9814 129.173 30.7588 129.277 30.5811 129.486C30.4033 129.693 30.3145 130.001 30.3145 130.409C30.3145 130.837 30.4053 131.157 30.5869 131.37C30.7686 131.581 30.9902 131.687 31.252 131.687C31.4121 131.687 31.5771 131.647 31.7471 131.569C31.917 131.489 32.0908 131.37 32.2686 131.212V129.639ZM33.666 129.396C33.8672 129.187 34.085 129.033 34.3193 128.936C34.5537 128.836 34.7832 128.786 35.0078 128.786C35.2676 128.786 35.4883 128.844 35.6699 128.959C35.8535 129.074 35.9805 129.217 36.0508 129.387C36.1035 129.518 36.1299 129.692 36.1299 129.911V131.247C36.1299 131.513 36.1602 131.764 36.2207 132H35.7842C35.7314 131.814 35.7031 131.639 35.6992 131.473C35.5039 131.67 35.3047 131.818 35.1016 131.918C34.9004 132.016 34.6943 132.064 34.4834 132.064C34.2158 132.064 34 131.984 33.8359 131.824C33.6719 131.662 33.5898 131.459 33.5898 131.215C33.5898 131.016 33.6533 130.829 33.7803 130.655C33.9072 130.481 34.1045 130.345 34.3721 130.245C34.5674 130.173 35.0098 130.062 35.6992 129.911V129.715C35.6992 129.549 35.6406 129.41 35.5234 129.299C35.4082 129.188 35.2617 129.132 35.084 129.132C34.9238 129.132 34.7568 129.172 34.583 129.252C34.4111 129.33 34.21 129.467 33.9795 129.662L33.666 129.396ZM35.6992 131.227V130.225C35.2246 130.338 34.9121 130.421 34.7617 130.474C34.5215 130.556 34.3447 130.662 34.2314 130.793C34.1201 130.922 34.0645 131.06 34.0645 131.206C34.0645 131.345 34.1123 131.46 34.208 131.552C34.3057 131.642 34.4355 131.687 34.5977 131.687C34.752 131.687 34.9209 131.648 35.1045 131.572C35.2881 131.494 35.4863 131.379 35.6992 131.227ZM37.2754 127.559H37.7031V132H37.2754V127.559ZM38.8281 128.851H39.2559V130.916C39.2559 131.145 39.3115 131.323 39.4229 131.452C39.5361 131.581 39.6699 131.646 39.8242 131.646C39.9629 131.646 40.1143 131.608 40.2783 131.534C40.4424 131.458 40.6504 131.315 40.9023 131.106V128.851H41.333V132H40.9023V131.493C40.6641 131.683 40.4463 131.825 40.249 131.921C40.0518 132.017 39.874 132.064 39.7158 132.064C39.5635 132.064 39.4199 132.03 39.2852 131.962C39.1523 131.892 39.043 131.777 38.957 131.619C38.8711 131.459 38.8281 131.251 38.8281 130.995V128.851ZM42.1123 128.851H42.6074L43.4014 130.002L44.1865 128.851H44.6816L43.6475 130.368L44.7549 132H44.2656L43.4014 130.731L42.543 132H42.0479L43.1553 130.368L42.1123 128.851ZM45.3965 128.851H45.8242V130.916C45.8242 131.145 45.8799 131.323 45.9912 131.452C46.1045 131.581 46.2383 131.646 46.3926 131.646C46.5312 131.646 46.6826 131.608 46.8467 131.534C47.0107 131.458 47.2188 131.315 47.4707 131.106V128.851H47.9014V132H47.4707V131.493C47.2324 131.683 47.0146 131.825 46.8174 131.921C46.6201 132.017 46.4424 132.064 46.2842 132.064C46.1318 132.064 45.9883 132.03 45.8535 131.962C45.7207 131.892 45.6113 131.777 45.5254 131.619C45.4395 131.459 45.3965 131.251 45.3965 130.995V128.851ZM49.4746 129.562C49.6504 129.293 49.834 129.096 50.0254 128.971C50.2188 128.846 50.4385 128.783 50.6846 128.783C50.7119 128.783 50.751 128.784 50.8018 128.786L50.7402 129.258L50.585 129.249C50.4717 129.243 50.3447 129.271 50.2041 129.331C50.0635 129.39 49.9375 129.483 49.8262 129.612C49.7168 129.741 49.6309 129.901 49.5684 130.093C49.5059 130.284 49.4746 130.453 49.4746 130.6V132H49.0469V128.851H49.4746V129.562ZM51.5371 127.6H51.9648V128.112H51.5371V127.6ZM51.5371 128.851H51.9648V132H51.5371V128.851ZM54.3555 132.064C53.9512 132.064 53.6113 131.917 53.3359 131.622C53.0605 131.327 52.9229 130.931 52.9229 130.433C52.9229 130.101 52.9834 129.807 53.1045 129.551C53.2275 129.293 53.3984 129.102 53.6172 128.977C53.8359 128.85 54.0684 128.786 54.3145 128.786C54.5527 128.786 54.7803 128.852 54.9971 128.982C55.2158 129.111 55.3887 129.308 55.5156 129.571C55.6426 129.833 55.7061 130.126 55.7061 130.45C55.7061 130.944 55.5723 131.337 55.3047 131.628C55.0371 131.919 54.7207 132.064 54.3555 132.064ZM54.3174 131.701C54.5752 131.701 54.7988 131.59 54.9883 131.367C55.1797 131.145 55.2754 130.825 55.2754 130.409C55.2754 129.999 55.1826 129.687 54.9971 129.472C54.8115 129.257 54.5879 129.149 54.3262 129.149C54.0488 129.149 53.8154 129.259 53.626 129.478C53.4385 129.696 53.3447 130.009 53.3447 130.415C53.3447 130.831 53.4395 131.149 53.6289 131.37C53.8184 131.591 54.0479 131.701 54.3174 131.701ZM56.5293 128.851H56.957V130.916C56.957 131.145 57.0127 131.323 57.124 131.452C57.2373 131.581 57.3711 131.646 57.5254 131.646C57.6641 131.646 57.8154 131.608 57.9795 131.534C58.1436 131.458 58.3516 131.315 58.6035 131.106V128.851H59.0342V132H58.6035V131.493C58.3652 131.683 58.1475 131.825 57.9502 131.921C57.7529 132.017 57.5752 132.064 57.417 132.064C57.2646 132.064 57.1211 132.03 56.9863 131.962C56.8535 131.892 56.7441 131.777 56.6582 131.619C56.5723 131.459 56.5293 131.251 56.5293 130.995V128.851ZM60.2061 130.175C60.0518 130.013 59.9746 129.832 59.9746 129.633C59.9746 129.402 60.0693 129.204 60.2588 129.038C60.4482 128.87 60.7119 128.786 61.0498 128.786C61.2744 128.786 61.4863 128.827 61.6855 128.909C61.8867 128.991 62.0576 129.112 62.1982 129.272L61.873 129.545C61.752 129.406 61.627 129.305 61.498 129.24C61.3691 129.174 61.2217 129.141 61.0557 129.141C60.8428 129.141 60.6807 129.187 60.5693 129.278C60.46 129.37 60.4053 129.477 60.4053 129.598C60.4053 129.701 60.4482 129.794 60.5342 129.876C60.6182 129.958 60.8154 130.039 61.126 130.119C61.6045 130.242 61.9268 130.392 62.0928 130.567C62.2588 130.743 62.3418 130.937 62.3418 131.147C62.3418 131.399 62.2422 131.615 62.043 131.795C61.8457 131.975 61.5762 132.064 61.2344 132.064C60.9844 132.064 60.7539 132.018 60.543 131.924C60.332 131.83 60.1094 131.674 59.875 131.455L60.2412 131.197C60.417 131.373 60.582 131.499 60.7363 131.575C60.8906 131.649 61.0537 131.687 61.2256 131.687C61.4443 131.687 61.6133 131.635 61.7324 131.531C61.8535 131.426 61.9141 131.303 61.9141 131.162C61.9141 131.045 61.8691 130.944 61.7793 130.86C61.6523 130.741 61.3975 130.632 61.0146 130.532C60.7783 130.47 60.582 130.4 60.4258 130.324C60.3477 130.287 60.2744 130.237 60.2061 130.175ZM63.2383 131.332H63.8184V132H63.2383V131.332ZM67.4072 131.235C67.2646 131.491 67.1084 131.683 66.9385 131.81C66.7119 131.979 66.457 132.064 66.1738 132.064C65.9277 132.064 65.6963 131.998 65.4795 131.865C65.2646 131.732 65.0977 131.54 64.9785 131.288C64.8613 131.036 64.8027 130.747 64.8027 130.421C64.8027 129.919 64.9365 129.521 65.2041 129.229C65.4736 128.934 65.7979 128.786 66.1768 128.786C66.4326 128.786 66.665 128.854 66.874 128.988C67.083 129.123 67.2607 129.325 67.4072 129.595L67.0352 129.797C66.916 129.576 66.7871 129.412 66.6484 129.305C66.5098 129.195 66.3506 129.141 66.1709 129.141C65.915 129.141 65.6934 129.25 65.5059 129.469C65.3203 129.688 65.2275 130.014 65.2275 130.447C65.2275 130.83 65.3213 131.133 65.5088 131.355C65.6982 131.578 65.915 131.689 66.1592 131.689C66.5283 131.689 66.8203 131.47 67.0352 131.03L67.4072 131.235ZM69.4316 132.064C69.0273 132.064 68.6875 131.917 68.4121 131.622C68.1367 131.327 67.999 130.931 67.999 130.433C67.999 130.101 68.0596 129.807 68.1807 129.551C68.3037 129.293 68.4746 129.102 68.6934 128.977C68.9121 128.85 69.1445 128.786 69.3906 128.786C69.6289 128.786 69.8564 128.852 70.0732 128.982C70.292 129.111 70.4648 129.308 70.5918 129.571C70.7188 129.833 70.7822 130.126 70.7822 130.45C70.7822 130.944 70.6484 131.337 70.3809 131.628C70.1133 131.919 69.7969 132.064 69.4316 132.064ZM69.3936 131.701C69.6514 131.701 69.875 131.59 70.0645 131.367C70.2559 131.145 70.3516 130.825 70.3516 130.409C70.3516 129.999 70.2588 129.687 70.0732 129.472C69.8877 129.257 69.6641 129.149 69.4023 129.149C69.125 129.149 68.8916 129.259 68.7021 129.478C68.5146 129.696 68.4209 130.009 68.4209 130.415C68.4209 130.831 68.5156 131.149 68.7051 131.37C68.8945 131.591 69.124 131.701 69.3936 131.701ZM72.1182 129.349C72.4834 129.104 72.75 128.95 72.918 128.886C73.0859 128.819 73.248 128.786 73.4043 128.786C73.5781 128.786 73.7275 128.832 73.8525 128.924C73.9775 129.014 74.0752 129.155 74.1455 129.349C74.5107 129.103 74.7764 128.947 74.9424 128.883C75.1104 128.818 75.2754 128.786 75.4375 128.786C75.6562 128.786 75.832 128.849 75.9648 128.974C76.1484 129.149 76.2402 129.377 76.2402 129.656V132H75.8096V129.782C75.8096 129.599 75.7607 129.452 75.6631 129.343C75.5674 129.231 75.4531 129.176 75.3203 129.176C75.1992 129.176 75.0547 129.212 74.8867 129.284C74.7207 129.354 74.4844 129.5 74.1777 129.721V132H73.75V129.782C73.75 129.595 73.7031 129.447 73.6094 129.34C73.5156 129.23 73.4072 129.176 73.2842 129.176C73.1494 129.176 72.999 129.211 72.833 129.281C72.6689 129.35 72.4307 129.496 72.1182 129.721V132H71.6846V128.851H72.1182V129.349Z" fill="#1C1C1C"/>
<path d="M18.418 146.84C18.6133 145.926 18.9258 145.145 19.3555 144.496C19.9727 143.582 20.7461 142.891 21.6758 142.422C22.6133 141.953 23.6133 141.719 24.6758 141.719C26.4102 141.719 27.8242 142.211 28.918 143.195C30.0117 144.172 30.5586 145.312 30.5586 146.617C30.5586 147.328 30.4023 148.031 30.0898 148.727C29.7773 149.422 29.3242 150.094 28.7305 150.742C28.293 151.219 27.4453 151.984 26.1875 153.039C24.9375 154.094 24.0547 154.883 23.5391 155.406C23.0234 155.922 22.543 156.477 22.0977 157.07H30.5V160H18.043V159.438C18.043 158.586 18.2227 157.766 18.582 156.977C18.9414 156.188 19.5391 155.332 20.375 154.41C20.8359 153.902 21.9102 152.91 23.5977 151.434C24.8633 150.316 25.6406 149.598 25.9297 149.277C26.3516 148.824 26.6562 148.391 26.8438 147.977C27.0312 147.555 27.125 147.16 27.125 146.793C27.125 146.152 26.875 145.598 26.375 145.129C25.8828 144.66 25.25 144.426 24.4766 144.426C23.7344 144.426 23.0664 144.676 22.4727 145.176C21.8867 145.676 21.4336 146.469 21.1133 147.555L18.418 146.84ZM39.3008 141.719C41.4258 141.719 43.0898 142.426 44.293 143.84C45.4961 145.246 46.0977 147.637 46.0977 151.012C46.0977 154.395 45.5078 156.797 44.3281 158.219C43.1484 159.641 41.5703 160.352 39.5938 160.352C38.2891 160.352 37.2539 160.148 36.4883 159.742C35.3242 159.125 34.4648 158.242 33.9102 157.094C33.1992 155.625 32.8438 153.648 32.8438 151.164C32.8438 147.742 33.4336 145.312 34.6133 143.875C35.8008 142.438 37.3633 141.719 39.3008 141.719ZM39.5 144.625C38.9141 144.625 38.3594 144.836 37.8359 145.258C37.3203 145.68 36.9375 146.316 36.6875 147.168C36.4453 148.012 36.3242 149.602 36.3242 151.938C36.3242 154 36.6367 155.438 37.2617 156.25C37.8867 157.062 38.6289 157.469 39.4883 157.469C40.0352 157.469 40.5781 157.266 41.1172 156.859C41.6562 156.445 42.0469 155.84 42.2891 155.043C42.5312 154.238 42.6523 152.777 42.6523 150.66C42.6523 148.285 42.3398 146.688 41.7148 145.867C41.0898 145.039 40.3516 144.625 39.5 144.625ZM48.418 146.84C48.6133 145.926 48.9258 145.145 49.3555 144.496C49.9727 143.582 50.7461 142.891 51.6758 142.422C52.6133 141.953 53.6133 141.719 54.6758 141.719C56.4102 141.719 57.8242 142.211 58.918 143.195C60.0117 144.172 60.5586 145.312 60.5586 146.617C60.5586 147.328 60.4023 148.031 60.0898 148.727C59.7773 149.422 59.3242 150.094 58.7305 150.742C58.293 151.219 57.4453 151.984 56.1875 153.039C54.9375 154.094 54.0547 154.883 53.5391 155.406C53.0234 155.922 52.543 156.477 52.0977 157.07H60.5V160H48.043V159.438C48.043 158.586 48.2227 157.766 48.582 156.977C48.9414 156.188 49.5391 155.332 50.375 154.41C50.8359 153.902 51.9102 152.91 53.5977 151.434C54.8633 150.316 55.6406 149.598 55.9297 149.277C56.3516 148.824 56.6562 148.391 56.8438 147.977C57.0312 147.555 57.125 147.16 57.125 146.793C57.125 146.152 56.875 145.598 56.375 145.129C55.8828 144.66 55.25 144.426 54.4766 144.426C53.7344 144.426 53.0664 144.676 52.4727 145.176C51.8867 145.676 51.4336 146.469 51.1133 147.555L48.418 146.84ZM69.3008 141.719C71.4258 141.719 73.0898 142.426 74.293 143.84C75.4961 145.246 76.0977 147.637 76.0977 151.012C76.0977 154.395 75.5078 156.797 74.3281 158.219C73.1484 159.641 71.5703 160.352 69.5938 160.352C68.2891 160.352 67.2539 160.148 66.4883 159.742C65.3242 159.125 64.4648 158.242 63.9102 157.094C63.1992 155.625 62.8438 153.648 62.8438 151.164C62.8438 147.742 63.4336 145.312 64.6133 143.875C65.8008 142.438 67.3633 141.719 69.3008 141.719ZM69.5 144.625C68.9141 144.625 68.3594 144.836 67.8359 145.258C67.3203 145.68 66.9375 146.316 66.6875 147.168C66.4453 148.012 66.3242 149.602 66.3242 151.938C66.3242 154 66.6367 155.438 67.2617 156.25C67.8867 157.062 68.6289 157.469 69.4883 157.469C70.0352 157.469 70.5781 157.266 71.1172 156.859C71.6562 156.445 72.0469 155.84 72.2891 155.043C72.5312 154.238 72.6523 152.777 72.6523 150.66C72.6523 148.285 72.3398 146.688 71.7148 145.867C71.0898 145.039 70.3516 144.625 69.5 144.625Z" fill="#1C1C1C"/>
</svg>
