<svg width="94" height="232" viewBox="0 0 94 232" fill="none" xmlns="http://www.w3.org/2000/svg">
<g clip-path="url(#clip0_322_31)">
<path d="M94 0H0V232L48.5 191.5L94 232V0Z" fill="white"/>
<path d="M8.61914 9.89648H9.36376V17.1621C9.36376 18.0752 9.54396 18.7954 9.90429 19.3228C10.2681 19.8501 10.7611 20.1138 11.3833 20.1138C11.8729 20.1138 12.2707 19.9941 12.5766 19.7549C12.886 19.5107 13.1172 19.1567 13.2702 18.6929C13.4232 18.2241 13.4997 17.7139 13.4997 17.1621V9.89648H14.2545V17.1621C14.2545 18.4023 14.0012 19.3887 13.4946 20.1211C12.9914 20.8535 12.3182 21.2197 11.4751 21.2197C10.7951 21.2197 10.2324 21.0146 9.78704 20.6045C9.34503 20.1943 9.03908 19.6768 8.86904 19.0518C8.70249 18.4219 8.61914 17.8433 8.61914 17.3159V9.89648ZM16.7075 17.8872C16.7925 18.3267 16.8877 18.666 16.9931 18.9053C17.1699 19.3008 17.4028 19.6182 17.6917 19.8574C17.9808 20.0918 18.3309 20.209 18.7423 20.209C19.3169 20.209 19.7674 19.999 20.0938 19.5791C20.4236 19.1543 20.5885 18.6514 20.5885 18.0703C20.5885 17.543 20.4406 17.0938 20.1448 16.7227C19.917 16.4443 19.458 16.1636 18.7678 15.8804C17.8362 15.4946 17.1715 15.0479 16.7738 14.54C16.376 14.0371 16.1771 13.4146 16.1771 12.6724C16.1771 11.8569 16.3981 11.1562 16.8401 10.5703C17.2855 9.97949 17.8685 9.68408 18.5893 9.68408C19.0279 9.68408 19.441 9.80127 19.8286 10.0356C20.2162 10.27 20.5408 10.6191 20.8027 11.083C20.9829 11.4053 21.1257 11.8252 21.231 12.3428L20.4507 12.687C20.3182 12.0278 20.0887 11.5225 19.7622 11.1709C19.4393 10.8193 19.0517 10.6436 18.5995 10.6436C18.1201 10.6436 17.7343 10.8315 17.4418 11.2075C17.1495 11.5835 17.0032 12.0278 17.0032 12.5405C17.0032 12.9604 17.1222 13.3413 17.3602 13.6831C17.5949 14.0249 18.1116 14.3618 18.9106 14.6938C19.8592 15.0845 20.5136 15.5361 20.874 16.0488C21.231 16.5664 21.4095 17.2183 21.4095 18.0044C21.4095 18.8931 21.1664 19.6523 20.6802 20.2822C20.1941 20.9072 19.5481 21.2197 18.7423 21.2197C18.2391 21.2197 17.7784 21.0781 17.3602 20.7949C16.9421 20.5068 16.6021 20.1089 16.3403 19.6011C16.1601 19.2593 16.0139 18.7905 15.9017 18.1948L16.7075 17.8872ZM24.7907 9.89648H25.9942L28.4728 21H27.718L26.9377 17.5576H23.8217L23.0415 21H22.2816L24.7907 9.89648ZM25.3925 10.6289L24.0615 16.481H26.6981L25.3925 10.6289ZM33.0779 9.89648H35.638C36.5356 9.89648 37.219 10.1919 37.6882 10.7827C38.1608 11.3735 38.397 12.0718 38.397 12.8774C38.397 13.3462 38.3341 13.7612 38.2083 14.1226C38.0826 14.479 37.8955 14.7964 37.6474 15.0747C37.4026 15.353 37.1102 15.5752 36.7702 15.7412C36.4302 15.9023 36.0087 15.9829 35.5054 15.9829H33.8225V21H33.0779V9.89648ZM33.8123 10.856V15.0161H35.4493C36.2075 15.0161 36.7464 14.8232 37.066 14.4375C37.3856 14.0518 37.5454 13.5464 37.5454 12.9214C37.5454 12.2085 37.3329 11.6641 36.9079 11.2881C36.5815 11 36.0596 10.856 35.3422 10.856H33.8123ZM40.131 9.89648H42.4973C43.1739 9.89648 43.7178 10.0112 44.1293 10.2407C44.5407 10.4702 44.8637 10.8291 45.0982 11.3174C45.3362 11.8008 45.4552 12.3354 45.4552 12.9214C45.4552 13.561 45.3141 14.1299 45.032 14.6279C44.7532 15.1211 44.3281 15.4922 43.757 15.7412L45.6337 21H44.8279L43.0073 15.9609H40.8806V21H40.131V9.89648ZM40.8806 10.856V15.0088H42.5279C42.9291 15.0088 43.3269 14.9136 43.7213 14.7231C44.0069 14.5864 44.2261 14.3569 44.3792 14.0347C44.5356 13.7075 44.6138 13.3291 44.6138 12.8994C44.6138 12.3037 44.4625 11.8154 44.1598 11.4346C43.8606 11.0488 43.4085 10.856 42.8033 10.856H40.8806ZM49.6065 21.2197C48.7123 21.2197 47.9745 20.751 47.3932 19.8135C46.7132 18.71 46.3732 17.2866 46.3732 15.5435C46.3732 14.4399 46.5091 13.417 46.7812 12.4746C47.0566 11.5322 47.4458 10.8315 47.949 10.3726C48.4556 9.91357 49.0098 9.68408 49.6116 9.68408C50.1352 9.68408 50.5993 9.85254 51.0038 10.1895C51.4084 10.5215 51.7399 10.9561 51.9983 11.4932C52.2601 12.0254 52.4573 12.6309 52.5898 13.3096C52.7225 13.9883 52.7888 14.7109 52.7888 15.4775C52.7888 16.3174 52.7173 17.0522 52.5746 17.6821C52.4318 18.3071 52.2584 18.832 52.0544 19.2568C51.8538 19.6768 51.6498 20.0088 51.4424 20.2529C51.1704 20.5801 50.8627 20.8242 50.5193 20.9854C50.1793 21.1416 49.875 21.2197 49.6065 21.2197ZM49.53 20.2163C50.1963 20.2163 50.7658 19.8184 51.2384 19.0225C51.7144 18.2217 51.9524 17.0547 51.9524 15.5215C51.9524 13.9004 51.6923 12.6309 51.1721 11.7129C50.7642 11 50.232 10.6436 49.5758 10.6436C48.9367 10.6436 48.3842 11.0488 47.9185 11.8594C47.4526 12.665 47.2197 13.8711 47.2197 15.4775C47.2197 17.0596 47.4492 18.2461 47.9082 19.0371C48.3672 19.8232 48.9078 20.2163 49.53 20.2163ZM54.5176 9.89648H57.0777C57.9753 9.89648 58.6587 10.1919 59.1279 10.7827C59.6004 11.3735 59.8367 12.0718 59.8367 12.8774C59.8367 13.3462 59.7738 13.7612 59.6481 14.1226C59.5222 14.479 59.3352 14.7964 59.087 15.0747C58.8422 15.353 58.5499 15.5752 58.2099 15.7412C57.8699 15.9023 57.4483 15.9829 56.9451 15.9829H55.2622V21H54.5176V9.89648ZM55.252 10.856V15.0161H56.889C57.6472 15.0161 58.1861 14.8232 58.5056 14.4375C58.8252 14.0518 58.985 13.5464 58.985 12.9214C58.985 12.2085 58.7725 11.6641 58.3476 11.2881C58.0212 11 57.4993 10.856 56.782 10.856H55.252ZM61.586 9.89648H66.1401V10.9512H62.3356V14.5767H65.1661V15.646H62.3356V19.9307H66.5073V21H61.586V9.89648ZM68.0984 9.89648H70.4649C71.141 9.89648 71.6856 10.0112 72.0964 10.2407C72.5079 10.4702 72.831 10.8291 73.0656 11.3174C73.3037 11.8008 73.4228 12.3354 73.4228 12.9214C73.4228 13.561 73.2815 14.1299 72.9995 14.6279C72.7202 15.1211 72.2955 15.4922 71.7245 15.7412L73.6011 21H72.7954L70.9746 15.9609H68.8481V21H68.0984V9.89648ZM68.8481 10.856V15.0088H70.4956C70.8966 15.0088 71.2942 14.9136 71.689 14.7231C71.9745 14.5864 72.1939 14.3569 72.3463 14.0347C72.503 13.7075 72.581 13.3291 72.581 12.8994C72.581 12.3037 72.4299 11.8154 72.127 11.4346C71.8283 11.0488 71.3757 10.856 70.7706 10.856H68.8481ZM74.101 9.89648H79.7668V10.9585H77.3186V21H76.5694V10.9585H74.101V9.89648ZM80.3739 9.89648H81.1997L83.2657 15.0381L85.3357 9.89648H86.1622L83.6431 16.1733V21H82.8931V16.1733L80.3739 9.89648ZM27.8812 24.8965H29.0848L31.5633 36H30.8085L30.0282 32.5576H26.9122L26.132 36H25.3721L27.8812 24.8965ZM28.483 25.6289L27.1519 31.481H29.7886L28.483 25.6289ZM31.8234 24.8965H32.5628L34.1744 33.7441L35.8012 24.8965H36.5662L38.1778 33.7441L39.7995 24.8965H40.5288L38.4939 36H37.8462L36.1786 26.874L34.5059 36H33.8327L31.8234 24.8965ZM43.5173 24.8965H44.7209L47.1993 36H46.4446L45.6643 32.5576H42.5483L41.7681 36H41.0081L43.5173 24.8965ZM44.119 25.6289L42.788 31.481H45.4246L44.119 25.6289ZM48.5253 24.8965H50.8916C51.5682 24.8965 52.1122 25.0112 52.5235 25.2407C52.9349 25.4702 53.2579 25.8291 53.4925 26.3174C53.7305 26.8008 53.8495 27.3354 53.8495 27.9214C53.8495 28.561 53.7084 29.1299 53.4262 29.6279C53.1474 30.1211 52.7225 30.4922 52.1513 30.7412L54.028 36H53.2222L51.4016 30.9609H49.275V36H48.5253V24.8965ZM49.275 25.856V30.0088H50.9222C51.3234 30.0088 51.7212 29.9136 52.1156 29.7231C52.4011 29.5864 52.6205 29.3569 52.7735 29.0347C52.9298 28.7075 53.008 28.3291 53.008 27.8994C53.008 27.3037 52.8567 26.8154 52.5542 26.4346C52.255 26.0488 51.8028 25.856 51.1976 25.856H49.275ZM55.5987 24.8965H57.8172C58.9426 24.8965 59.8316 25.3774 60.4844 26.3394C61.1406 27.3013 61.4687 28.6367 61.4687 30.3457C61.4687 31.2197 61.3888 32.0229 61.229 32.7554C61.11 33.3071 60.9417 33.7832 60.7241 34.1836C60.5065 34.584 60.26 34.9185 59.9846 35.187C59.784 35.3774 59.546 35.541 59.2707 35.6777C58.8218 35.8926 58.249 36 57.552 36H55.5987V24.8965ZM56.3382 25.8633V35.0186H57.9753C58.6213 35.0186 59.1907 34.7207 59.6837 34.125C60.3093 33.3779 60.6221 32.1548 60.6221 30.4556C60.6221 28.7222 60.3008 27.4746 59.6582 26.7129C59.1822 26.1465 58.5822 25.8633 57.858 25.8633H56.3382ZM63.5035 32.8872C63.5885 33.3267 63.6837 33.666 63.7891 33.9053C63.9659 34.3008 64.1988 34.6182 64.4877 34.8574C64.7768 35.0918 65.1269 35.209 65.5383 35.209C66.1129 35.209 66.5634 34.999 66.8898 34.5791C67.2196 34.1543 67.3845 33.6514 67.3845 33.0703C67.3845 32.543 67.2366 32.0938 66.9408 31.7227C66.713 31.4443 66.254 31.1636 65.5639 30.8804C64.6323 30.4946 63.9676 30.0479 63.5698 29.54C63.172 29.0371 62.9731 28.4146 62.9731 27.6724C62.9731 26.8569 63.1941 26.1562 63.6361 25.5703C64.0814 24.9795 64.6646 24.6841 65.3853 24.6841C65.8239 24.6841 66.237 24.8013 66.6246 25.0356C67.0122 25.27 67.3368 25.6191 67.5986 26.083C67.7788 26.4053 67.9217 26.8252 68.0271 27.3428L67.2467 27.687C67.1142 27.0278 66.8847 26.5225 66.5583 26.1709C66.2353 25.8193 65.8477 25.6436 65.3956 25.6436C64.9162 25.6436 64.5303 25.8315 64.2379 26.2075C63.9455 26.5835 63.7993 27.0278 63.7993 27.5405C63.7993 27.9604 63.9183 28.3413 64.1563 28.6831C64.3909 29.0249 64.9077 29.3618 65.7066 29.6938C66.6552 30.0845 67.3097 30.5361 67.6701 31.0488C68.0271 31.5664 68.2055 32.2183 68.2055 33.0044C68.2055 33.8931 67.9625 34.6523 67.4762 35.2822C66.9901 35.9072 66.3441 36.2197 65.5383 36.2197C65.0352 36.2197 64.5745 36.0781 64.1563 35.7949C63.7381 35.5068 63.3981 35.1089 63.1363 34.6011C62.9561 34.2593 62.8099 33.7905 62.6977 33.1948L63.5035 32.8872Z" fill="#1C1C1C"/>
<path d="M18.5859 48.377H20.6367C21.2231 48.377 21.6946 48.4764 22.0511 48.6753C22.4076 48.8742 22.6875 49.1852 22.8909 49.6084C23.0971 50.0273 23.2002 50.4907 23.2002 50.9985C23.2002 51.5529 23.078 52.0459 22.8334 52.4775C22.5918 52.9049 22.2235 53.2266 21.7285 53.4424L23.3549 58H22.6566L21.0787 53.6328H19.2357V58H18.5859V48.377ZM19.2357 49.2085V52.8076H20.6633C21.0109 52.8076 21.3557 52.7251 21.6975 52.5601C21.945 52.4416 22.1351 52.2427 22.2677 51.9634C22.4032 51.6799 22.471 51.3519 22.471 50.9795C22.471 50.4632 22.3399 50.04 22.0776 49.71C21.8183 49.3757 21.4264 49.2085 20.902 49.2085H19.2357ZM24.7251 48.377H28.672V49.291H25.3748V52.4331H27.8278V53.3599H25.3748V57.0732H28.9903V58H24.7251V48.377ZM31.7748 48.377H32.8178L34.9659 58H34.3117L33.6355 55.0166H30.935L30.2587 58H29.6002L31.7748 48.377ZM32.2963 49.0117L31.1427 54.0835H33.4278L32.2963 49.0117ZM36.1416 48.377H36.7868V57.0542H40.0133V58H36.1416V48.377ZM44.1459 48.377H48.0928V49.291H44.7956V52.4331H47.2486V53.3599H44.7956V57.0732H48.4111V58H44.1459V48.377ZM50.042 55.3022C50.1156 55.6831 50.1981 55.9772 50.2895 56.1846C50.4427 56.5273 50.6445 56.8024 50.8951 57.0098C51.1455 57.2129 51.449 57.3145 51.8055 57.3145C52.3035 57.3145 52.6939 57.1325 52.9768 56.7686C53.2626 56.4004 53.4055 55.9645 53.4055 55.4609C53.4055 55.0039 53.2773 54.6146 53.021 54.293C52.8235 54.0518 52.4258 53.8084 51.8276 53.563C51.0203 53.2287 50.4442 52.8415 50.0995 52.4014C49.7547 51.9655 49.5823 51.4259 49.5823 50.7827C49.5823 50.076 49.7739 49.4688 50.1569 48.9609C50.5429 48.4489 51.0482 48.1929 51.6729 48.1929C52.053 48.1929 52.411 48.2944 52.7469 48.4976C53.0828 48.7007 53.3643 49.0033 53.5911 49.4053C53.7473 49.6846 53.871 50.0485 53.9624 50.4971L53.2861 50.7954C53.1713 50.2241 52.9723 49.7861 52.6895 49.4814C52.4096 49.1768 52.0737 49.0244 51.6817 49.0244C51.2663 49.0244 50.9318 49.1873 50.6784 49.5132C50.4251 49.839 50.2983 50.2241 50.2983 50.6685C50.2983 51.0324 50.4015 51.3625 50.6078 51.6587C50.811 51.9549 51.2589 52.2469 51.9513 52.5347C52.7735 52.8732 53.3407 53.2646 53.653 53.709C53.9624 54.1576 54.1171 54.7225 54.1171 55.4038C54.1171 56.174 53.9064 56.832 53.4851 57.3779C53.0637 57.9196 52.5039 58.1904 51.8055 58.1904C51.3694 58.1904 50.9702 58.0677 50.6078 57.8223C50.2453 57.5726 49.9507 57.2277 49.7237 56.7876C49.5676 56.4914 49.4409 56.0851 49.3436 55.5688L50.042 55.3022ZM55.0364 48.377H59.9469V49.2974H57.8254V58H57.1757V49.2974H55.0364V48.377ZM61.8916 48.377H62.9347L65.0827 58H64.4286L63.7524 55.0166H61.0519L60.3756 58H59.7171L61.8916 48.377ZM62.4131 49.0117L61.2596 54.0835H63.5446L62.4131 49.0117ZM64.8131 48.377H69.7237V49.2974H67.6021V58H66.9523V49.2974H64.8131V48.377ZM71.0008 48.377H74.9481V49.291H71.6504V52.4331H74.1035V53.3599H71.6504V57.0732H75.2663V58H71.0008V48.377Z" fill="#1C1C1C"/>
<path d="M24.3304 73.2539H25.4387L25.7311 71.2764H26.1459L25.8501 73.2539H27.2848L27.5738 71.2764H27.9886L27.6962 73.2539H28.3694V73.8496H27.6146L27.3528 75.6611H28.3694V76.2617H27.2712L26.9856 78.2246H26.5641L26.8564 76.2617H25.4149L25.1361 78.2246H24.7145L25.0035 76.2617H24.3304V75.6611H25.0919L25.3537 73.8496H24.3304V73.2539ZM25.7685 73.8496L25.5033 75.6514H26.9415L27.2032 73.8496H25.7685ZM31.3402 70.5977H31.8366V77.3555H32.6661V78H30.4053V77.3555H31.3402V71.4277C30.8733 71.5775 30.5616 71.654 30.4053 71.6572V71.1152C30.8042 71.0306 31.1158 70.8581 31.3402 70.5977ZM38.0332 70.5977H39.6108C40.0618 70.5977 40.4245 70.6742 40.6988 70.8271C40.973 70.9801 41.1883 71.2194 41.3447 71.5449C41.5034 71.8672 41.5827 72.2236 41.5827 72.6143C41.5827 73.0407 41.4886 73.4199 41.3005 73.752C41.1146 74.0807 40.8313 74.3281 40.4505 74.4941L41.7017 78H41.1645L39.9508 74.6406H38.533V78H38.0332V70.5977ZM38.533 71.2373V74.0059H39.6312C39.8986 74.0059 40.1638 73.9424 40.4267 73.8154C40.6171 73.7243 40.7633 73.5713 40.8653 73.3564C40.9696 73.1383 41.0217 72.8861 41.0217 72.5996C41.0217 72.2025 40.9209 71.877 40.7191 71.623C40.5197 71.3659 40.2182 71.2373 39.8147 71.2373H38.533ZM44.523 70.5977H45.3253L46.9777 78H46.4745L45.9543 75.7051H43.8769L43.3568 78H42.8502L44.523 70.5977ZM44.9241 71.0859L44.0367 74.9873H45.7945L44.9241 71.0859ZM48.5511 70.5977H49.3331L51.883 76.6475V70.5977H52.3794V78H51.883L49.0509 71.2422V78H48.5511V70.5977ZM54.5444 70.5977H55.0442V74.4111L57.4513 70.5977H58.1007L56.3259 73.4053L58.3421 78H57.7743L55.9928 73.9375L55.0442 75.4316V78H54.5444V70.5977ZM59.8952 70.5977H62.9313V71.3008H60.3949V73.7178H62.2818V74.4307H60.3949V77.2871H63.176V78H59.8952V70.5977ZM64.9365 70.5977H66.4155C67.1657 70.5977 67.7584 70.9183 68.1936 71.5596C68.631 72.2008 68.8498 73.0911 68.8498 74.2305C68.8498 74.8132 68.7965 75.3486 68.69 75.8369C68.6106 76.2048 68.4984 76.5221 68.3534 76.7891C68.2083 77.056 68.044 77.279 67.8604 77.458C67.7267 77.585 67.568 77.694 67.3844 77.7852C67.0852 77.9284 66.7033 78 66.2387 78H64.9365V70.5977ZM65.4295 71.2422V77.3457H66.5208C66.9515 77.3457 67.3312 77.1471 67.6598 76.75C68.0768 76.252 68.2854 75.4365 68.2854 74.3037C68.2854 73.1481 68.0712 72.3164 67.6428 71.8086C67.3255 71.431 66.9254 71.2422 66.4426 71.2422H65.4295ZM5.79688 80.5977H7.50359C8.10198 80.5977 8.55757 80.7946 8.87035 81.1885C9.18542 81.5824 9.34292 82.0479 9.34292 82.585C9.34292 82.8975 9.30101 83.1742 9.21717 83.415C9.13327 83.6527 9.00863 83.8643 8.84319 84.0498C8.67998 84.2354 8.48502 84.3835 8.25837 84.4941C8.03173 84.6016 7.7507 84.6553 7.41523 84.6553H6.29326V88H5.79688V80.5977ZM6.28646 81.2373V84.0107H7.37784C7.88328 84.0107 8.2425 83.8822 8.45556 83.625C8.66863 83.3678 8.77516 83.0309 8.77516 82.6143C8.77516 82.139 8.63354 81.776 8.35021 81.5254C8.13262 81.3333 7.78468 81.2373 7.3064 81.2373H6.28646ZM11.1952 80.5977H12.7727C13.2238 80.5977 13.5864 80.6742 13.8607 80.8271C14.135 80.9801 14.3503 81.2194 14.5067 81.5449C14.6653 81.8672 14.7447 82.2236 14.7447 82.6143C14.7447 83.0407 14.6507 83.4199 14.4625 83.752C14.2767 84.0807 13.9933 84.3281 13.6125 84.4941L14.8637 88H14.3265L13.1127 84.6406H11.695V88H11.1952V80.5977ZM11.695 81.2373V84.0059H12.7931C13.0606 84.0059 13.3258 83.9424 13.5887 83.8154C13.7791 83.7243 13.9253 83.5713 14.0273 83.3564C14.1316 83.1383 14.1837 82.8861 14.1837 82.5996C14.1837 82.2025 14.0828 81.877 13.8811 81.623C13.6817 81.3659 13.3802 81.2373 12.9768 81.2373H11.695ZM16.7363 80.5977H17.2361V88H16.7363V80.5977ZM18.9898 80.5977H19.4964L20.9889 86.8281L22.4747 80.5977H22.9779L21.2133 88H20.7543L18.9898 80.5977ZM25.3945 80.5977H26.1968L27.8492 88H27.346L26.8258 85.7051H24.7485L24.2283 88H23.7217L25.3945 80.5977ZM25.7957 81.0859L24.9083 84.9873H26.6661L25.7957 81.0859ZM28.3381 80.5977H32.1154V81.3057H30.4835V88H29.9837V81.3057H28.3381V80.5977ZM33.7943 80.5977H36.8303V81.3008H34.294V83.7178H36.181V84.4307H34.294V87.2871H37.0752V88H33.7943V80.5977ZM41.7146 80.5977H43.486C44.0934 80.5977 44.5535 80.7865 44.8663 81.1641C45.1791 81.5417 45.3355 81.9762 45.3355 82.4678C45.3355 82.8063 45.2584 83.1286 45.1043 83.4346C44.9502 83.7373 44.7144 83.9847 44.3971 84.1768C44.7598 84.3753 45.0295 84.6406 45.2063 84.9727C45.3831 85.3014 45.4715 85.6465 45.4715 86.0078C45.4715 86.5156 45.306 86.9746 44.9751 87.3848C44.6442 87.7949 44.1795 88 43.5811 88H41.7146V80.5977ZM42.211 81.252V83.8838H43.146C43.7625 83.8838 44.1886 83.7552 44.4244 83.498C44.6623 83.2376 44.7813 82.9202 44.7813 82.5459C44.7813 82.1911 44.6759 81.8867 44.4652 81.6328C44.2543 81.3789 43.937 81.252 43.5132 81.252H42.211ZM42.211 84.5186V87.3457H43.5641C43.9903 87.3457 44.3427 87.1829 44.6215 86.8574C44.8164 86.6296 44.9139 86.3219 44.9139 85.9346C44.9139 85.6644 44.8561 85.4202 44.7405 85.2021C44.6272 84.984 44.4526 84.8164 44.2169 84.6992C43.9835 84.5788 43.7171 84.5186 43.4179 84.5186H42.211ZM47.3306 80.5977H48.9081C49.3591 80.5977 49.7218 80.6742 49.996 80.8271C50.2703 80.9801 50.4856 81.2194 50.642 81.5449C50.8007 81.8672 50.88 82.2236 50.88 82.6143C50.88 83.0407 50.786 83.4199 50.5979 83.752C50.4119 84.0807 50.1286 84.3281 49.7479 84.4941L50.999 88H50.4619L49.2481 84.6406H47.8304V88H47.3306V80.5977ZM47.8304 81.2373V84.0059H48.9285C49.1959 84.0059 49.4612 83.9424 49.7241 83.8154C49.9144 83.7243 50.0607 83.5713 50.1627 83.3564C50.2669 83.1383 50.3191 82.8861 50.3191 82.5996C50.3191 82.2025 50.2182 81.877 50.0164 81.623C49.817 81.3659 49.5155 81.2373 49.1121 81.2373H47.8304ZM54.3439 88.1465C53.7477 88.1465 53.2559 87.834 52.8683 87.209C52.415 86.4733 52.1883 85.5244 52.1883 84.3623C52.1883 83.6266 52.279 82.9447 52.4603 82.3164C52.6438 81.6882 52.9034 81.221 53.2388 80.915C53.5766 80.609 53.9461 80.4561 54.3472 80.4561C54.6963 80.4561 55.0057 80.5684 55.2754 80.793C55.5451 81.0143 55.7661 81.304 55.9384 81.6621C56.1129 82.0169 56.2443 82.4206 56.3328 82.873C56.4211 83.3255 56.4653 83.8073 56.4653 84.3184C56.4653 84.8783 56.4178 85.3682 56.3225 85.7881C56.2273 86.2048 56.1118 86.5547 55.9758 86.8379C55.842 87.1178 55.706 87.3392 55.5678 87.502C55.3864 87.7201 55.1814 87.8828 54.9524 87.9902C54.7258 88.0944 54.5229 88.1465 54.3439 88.1465ZM54.2928 87.4775C54.7371 87.4775 55.1167 87.2122 55.4318 86.6816C55.7491 86.1478 55.9077 85.3698 55.9077 84.3477C55.9077 83.2669 55.7344 82.4206 55.3876 81.8086C55.1156 81.3333 54.7609 81.0957 54.3235 81.0957C53.8973 81.0957 53.529 81.3659 53.2184 81.9062C52.908 82.4434 52.7527 83.2474 52.7527 84.3184C52.7527 85.373 52.9057 86.1641 53.2117 86.6914C53.5176 87.2155 53.878 87.4775 54.2928 87.4775ZM58.304 80.5977H58.8038V84.4111L61.2109 80.5977H61.8603L60.0855 83.4053L62.1017 88H61.5339L59.7523 83.9375L58.8038 85.4316V88H58.304V80.5977ZM63.6547 80.5977H66.6909V81.3008H64.1545V83.7178H66.0415V84.4307H64.1545V87.2871H66.9356V88H63.6547V80.5977ZM68.6927 80.5977H70.2703C70.7215 80.5977 71.0843 80.6742 71.3579 80.8271C71.6323 80.9801 71.8481 81.2194 72.0041 81.5449C72.1628 81.8672 72.2422 82.2236 72.2422 82.6143C72.2422 83.0407 72.1482 83.4199 71.9602 83.752C71.7743 84.0807 71.4909 84.3281 71.11 84.4941L72.3613 88H71.8238L70.6101 84.6406H69.1924V88H68.6927V80.5977ZM69.1924 81.2373V84.0059H70.2905C70.5579 84.0059 70.8232 83.9424 71.0864 83.8154C71.2765 83.7243 71.4227 83.5713 71.525 83.3564C71.6288 83.1383 71.681 82.8861 71.681 82.5996C71.681 82.2025 71.58 81.877 71.3788 81.623C71.179 81.3659 70.8775 81.2373 70.4743 81.2373H69.1924ZM75.1827 80.5977H75.9848L77.6371 88H77.1337L76.6136 85.7051H74.5365L74.0164 88H73.5095L75.1827 80.5977ZM75.5838 81.0859L74.696 84.9873H76.4541L75.5838 81.0859ZM82.1477 87.0576C81.9535 87.4157 81.7369 87.6875 81.4988 87.873C81.2607 88.0553 80.9828 88.1465 80.666 88.1465C80.0763 88.1465 79.5993 87.8438 79.2344 87.2383C78.8083 86.5384 78.5952 85.5651 78.5952 84.3184C78.5952 83.0651 78.7992 82.1081 79.2073 81.4473C79.6174 80.7865 80.1159 80.4561 80.7029 80.4561C81.0316 80.4561 81.3379 80.5586 81.6213 80.7637C81.9047 80.9655 82.1366 81.2503 82.3183 81.6182C82.4471 81.8818 82.5551 82.2432 82.6414 82.7021L82.0969 82.8584C82.0315 82.5296 81.9576 82.2708 81.8762 82.082C81.7425 81.7728 81.5782 81.5335 81.3832 81.3643C81.1903 81.195 80.9773 81.1104 80.744 81.1104C80.3179 81.1104 79.946 81.3805 79.6285 81.9209C79.3117 82.458 79.153 83.2376 79.153 84.2598C79.153 84.8783 79.2198 85.4447 79.3535 85.959C79.4893 86.4733 79.6808 86.8558 79.9279 87.1064C80.1751 87.3571 80.4404 87.4824 80.7238 87.4824C80.9501 87.4824 81.1646 87.4092 81.3658 87.2627C81.5677 87.1162 81.7265 86.9339 81.8421 86.7158C81.9597 86.4945 82.0405 86.2633 82.0837 86.0225C82.1268 85.7816 82.1477 85.4886 82.1477 85.1436H80.8631V84.4307H82.6414V88H82.1477V87.0576ZM84.6565 80.5977H87.6923V81.3008H85.1564V83.7178H87.0434V84.4307H85.1564V87.2871H87.9374V88H84.6565V80.5977Z" fill="#1C1C1C"/>
<path d="M21.5847 97L22.679 101.837H26.2203L23.3554 104.826L24.4497 109.663L21.5847 106.674L18.7198 109.663L19.8141 104.826L16.9492 101.837H20.4904L21.5847 97Z" fill="#AAA6A1"/>
<path d="M34.1179 97L35.2122 101.837H38.7535L35.8886 104.826L36.9829 109.663L34.1179 106.674L31.253 109.663L32.3473 104.826L29.4824 101.837H33.0236L34.1179 97Z" fill="#AAA6A1"/>
<path d="M46.6511 97L47.7454 101.837H51.2867L48.4218 104.826L49.5161 109.663L46.6511 106.674L43.7862 109.663L44.8805 104.826L42.0156 101.837H45.5568L46.6511 97Z" fill="#AAA6A1"/>
<path d="M59.1844 97L60.2787 101.837H63.8199L60.955 104.826L62.0493 109.663L59.1844 106.674L56.3194 109.663L57.4137 104.826L54.5488 101.837H58.0901L59.1844 97Z" fill="#AAA6A1"/>
<path d="M71.7176 97L72.8121 101.837H76.3528L73.4882 104.826L74.5821 109.663L71.7176 106.674L68.8526 109.663L69.9469 104.826L67.082 101.837H70.623L71.7176 97Z" fill="#AAA6A1"/>
<path d="M13.5604 137.751V136.931C13.5604 136.527 13.651 136.205 13.8323 135.964C14.0137 135.72 14.2675 135.598 14.5939 135.598C14.6664 135.598 14.7537 135.603 14.8557 135.612V136.281C14.756 136.265 14.6744 136.257 14.6109 136.257C14.4296 136.257 14.2913 136.324 14.1962 136.457C14.101 136.59 14.0533 136.77 14.0533 136.994V137.751H14.8081V138.4H14.0533V143H13.5604V138.4H12.877V137.751H13.5604ZM15.8417 135.598H16.338V143H15.8417V135.598ZM19.1124 143.107C18.6432 143.107 18.2488 142.862 17.9292 142.37C17.6096 141.879 17.4498 141.218 17.4498 140.388C17.4498 139.834 17.5201 139.344 17.6606 138.918C17.8034 138.488 18.0018 138.169 18.2556 137.961C18.5094 137.749 18.7792 137.644 19.0648 137.644C19.3413 137.644 19.6053 137.753 19.857 137.971C20.1108 138.186 20.3114 138.513 20.4587 138.952C20.606 139.388 20.6797 139.877 20.6797 140.417C20.6797 141.241 20.5244 141.895 20.2139 142.38C19.9034 142.865 19.5362 143.107 19.1124 143.107ZM19.0681 142.502C19.3673 142.502 19.6269 142.316 19.8467 141.945C20.0689 141.574 20.1799 141.042 20.1799 140.349C20.1799 139.665 20.0723 139.144 19.857 138.786C19.6416 138.428 19.3821 138.249 19.0784 138.249C18.7565 138.249 18.4857 138.431 18.2658 138.796C18.0482 139.16 17.9394 139.681 17.9394 140.358C17.9394 141.052 18.0493 141.582 18.2692 141.95C18.489 142.318 18.7554 142.502 19.0681 142.502ZM22.2267 138.938C22.4306 138.488 22.6437 138.16 22.8658 137.951C23.0902 137.743 23.3452 137.639 23.6308 137.639C23.6625 137.639 23.7079 137.64 23.7668 137.644L23.6954 138.43L23.5152 138.415C23.3838 138.405 23.2364 138.451 23.0732 138.552C22.91 138.649 22.7639 138.806 22.6346 139.021C22.5077 139.235 22.408 139.502 22.3354 139.821C22.263 140.14 22.2267 140.422 22.2267 140.666V143H21.7303V137.751H22.2267V138.938ZM24.6202 135.666H25.1166V136.521H24.6202V135.666ZM24.6202 137.751H25.1166V143H24.6202V137.751ZM28.9755 135.598H29.4684V141.364C29.4684 141.664 29.482 141.975 29.5092 142.297C29.5364 142.616 29.567 142.85 29.601 143H29.091C29.0366 142.73 29.0083 142.487 29.006 142.272C28.7861 142.549 28.5685 142.757 28.3533 142.897C28.1402 143.037 27.9294 143.107 27.7209 143.107C27.3084 143.107 26.9536 142.868 26.6567 142.39C26.3621 141.908 26.2147 141.242 26.2147 140.393C26.2147 139.523 26.3632 138.848 26.6601 138.366C26.9593 137.884 27.3151 137.644 27.7277 137.644C27.9385 137.644 28.1436 137.709 28.3431 137.839C28.5425 137.966 28.7533 138.169 28.9755 138.449V135.598ZM28.9755 139.064C28.7714 138.804 28.5708 138.61 28.3737 138.483C28.1765 138.353 27.9827 138.288 27.7922 138.288C27.4818 138.288 27.2234 138.462 27.0171 138.811C26.8108 139.156 26.7077 139.668 26.7077 140.349C26.7077 141.062 26.8131 141.595 27.0239 141.95C27.2347 142.302 27.4919 142.478 27.7957 142.478C27.9815 142.478 28.173 142.412 28.3702 142.282C28.5674 142.149 28.7691 141.95 28.9755 141.687V139.064ZM30.5972 138.659C30.8306 138.311 31.0834 138.055 31.3553 137.893C31.6274 137.727 31.8936 137.644 32.1543 137.644C32.4558 137.644 32.7119 137.74 32.9227 137.932C33.1358 138.124 33.2831 138.361 33.3647 138.645C33.4259 138.863 33.4565 139.154 33.4565 139.519V141.745C33.4565 142.188 33.4916 142.606 33.5619 143H33.0553C32.9941 142.691 32.9612 142.398 32.9567 142.121C32.73 142.45 32.4989 142.697 32.2631 142.863C32.0297 143.026 31.7905 143.107 31.5458 143.107C31.2352 143.107 30.9848 142.974 30.7944 142.707C30.604 142.437 30.5088 142.098 30.5088 141.691C30.5088 141.359 30.5824 141.049 30.7298 140.759C30.8771 140.469 31.1061 140.241 31.4165 140.075C31.6432 139.955 32.1566 139.769 32.9567 139.519V139.191C32.9567 138.915 32.8887 138.684 32.7527 138.498C32.619 138.312 32.449 138.22 32.2427 138.22C32.0569 138.22 31.8631 138.286 31.6614 138.42C31.4619 138.55 31.2284 138.778 30.961 139.104L30.5972 138.659ZM32.9567 141.711V140.041C32.4059 140.23 32.0433 140.368 31.8687 140.456C31.5899 140.593 31.3848 140.77 31.2533 140.988C31.1242 141.203 31.0595 141.433 31.0595 141.677C31.0595 141.908 31.1151 142.1 31.2262 142.253C31.3395 142.403 31.4902 142.478 31.6783 142.478C31.8574 142.478 32.0534 142.414 32.2665 142.287C32.4796 142.157 32.7096 141.965 32.9567 141.711ZM34.7858 135.598H35.2822V143H34.7858V135.598ZM36.5878 137.751H37.0842V141.193C37.0842 141.574 37.1487 141.872 37.278 142.087C37.4094 142.302 37.5647 142.409 37.7437 142.409C37.9047 142.409 38.0803 142.347 38.2707 142.224C38.4611 142.097 38.7025 141.859 38.9949 141.511V137.751H39.4947V143H38.9949V142.155C38.7184 142.471 38.4656 142.709 38.2367 142.868C38.0078 143.028 37.8015 143.107 37.618 143.107C37.4412 143.107 37.2745 143.05 37.1182 142.937C36.964 142.819 36.8371 142.629 36.7374 142.365C36.6376 142.098 36.5878 141.752 36.5878 141.325V137.751ZM40.399 137.751H40.9736L41.895 139.67L42.8061 137.751H43.3807L42.1806 140.28L43.4657 143H42.898L41.895 140.886L40.8988 143H40.3243L41.6094 140.28L40.399 137.751ZM44.2103 137.751H44.7067V141.193C44.7067 141.574 44.7713 141.872 44.9005 142.087C45.032 142.302 45.1872 142.409 45.3663 142.409C45.5272 142.409 45.7029 142.347 45.8932 142.224C46.0837 142.097 46.325 141.859 46.6175 141.511V137.751H47.1172V143H46.6175V142.155C46.3409 142.471 46.0882 142.709 45.8593 142.868C45.6303 143.028 45.4241 143.107 45.2405 143.107C45.0637 143.107 44.8971 143.05 44.7407 142.937C44.5866 142.819 44.4596 142.629 44.3599 142.365C44.2602 142.098 44.2103 141.752 44.2103 141.325V137.751ZM48.9429 138.938C49.147 138.488 49.36 138.16 49.5821 137.951C49.8065 137.743 50.0615 137.639 50.3471 137.639C50.3788 137.639 50.4242 137.64 50.4831 137.644L50.4117 138.43L50.2315 138.415C50.1 138.405 49.9527 138.451 49.7895 138.552C49.6264 138.649 49.4801 138.806 49.351 139.021C49.224 139.235 49.1243 139.502 49.0518 139.821C48.9792 140.14 48.9429 140.422 48.9429 140.666V143H48.4466V137.751H48.9429V138.938ZM51.3365 135.666H51.8328V136.521H51.3365V135.666ZM51.3365 137.751H51.8328V143H51.3365V137.751ZM54.6072 143.107C54.138 143.107 53.7436 142.862 53.424 142.37C53.1044 141.879 52.9446 141.218 52.9446 140.388C52.9446 139.834 53.0149 139.344 53.1554 138.918C53.2982 138.488 53.4965 138.169 53.7504 137.961C54.0042 137.749 54.274 137.644 54.5595 137.644C54.8361 137.644 55.1001 137.753 55.3517 137.971C55.6056 138.186 55.8062 138.513 55.9535 138.952C56.1009 139.388 56.1745 139.877 56.1745 140.417C56.1745 141.241 56.0193 141.895 55.7087 142.38C55.3982 142.865 55.031 143.107 54.6072 143.107ZM54.563 142.502C54.8622 142.502 55.1217 142.316 55.3416 141.945C55.5637 141.574 55.6747 141.042 55.6747 140.349C55.6747 139.665 55.5671 139.144 55.3517 138.786C55.1364 138.428 54.8769 138.249 54.5732 138.249C54.2513 138.249 53.9804 138.431 53.7606 138.796C53.543 139.16 53.4342 139.681 53.4342 140.358C53.4342 141.052 53.5441 141.582 53.764 141.95C53.9838 142.318 54.2502 142.502 54.563 142.502ZM57.1299 137.751H57.6262V141.193C57.6262 141.574 57.6909 141.872 57.82 142.087C57.9515 142.302 58.1068 142.409 58.2858 142.409C58.4468 142.409 58.6224 142.347 58.8128 142.224C59.0032 142.097 59.2446 141.859 59.537 141.511V137.751H60.0368V143H59.537V142.155C59.2604 142.471 59.0078 142.709 58.7788 142.868C58.5499 143.028 58.3436 143.107 58.16 143.107C57.9832 143.107 57.8167 143.05 57.6602 142.937C57.5061 142.819 57.3792 142.629 57.2795 142.365C57.1797 142.098 57.1299 141.752 57.1299 141.325V137.751ZM61.3968 139.958C61.2177 139.688 61.1281 139.387 61.1281 139.055C61.1281 138.671 61.2381 138.34 61.4579 138.063C61.6778 137.784 61.9838 137.644 62.3759 137.644C62.6366 137.644 62.8824 137.712 63.1137 137.849C63.3472 137.985 63.5455 138.187 63.7087 138.454L63.3313 138.908C63.1908 138.677 63.0457 138.508 62.8961 138.4C62.7465 138.29 62.5754 138.234 62.3827 138.234C62.1357 138.234 61.9475 138.311 61.8183 138.464C61.6914 138.617 61.6279 138.794 61.6279 138.996C61.6279 139.169 61.6778 139.323 61.7775 139.46C61.875 139.597 62.1039 139.732 62.4643 139.865C63.0196 140.07 63.3936 140.319 63.5863 140.612C63.7789 140.905 63.8752 141.228 63.8752 141.579C63.8752 141.999 63.7596 142.359 63.5285 142.658C63.2995 142.958 62.9867 143.107 62.5901 143.107C62.3 143.107 62.0325 143.029 61.7877 142.873C61.5429 142.717 61.2845 142.456 61.0125 142.092L61.4376 141.662C61.6415 141.955 61.8331 142.165 62.0121 142.292C62.1912 142.416 62.3804 142.478 62.5799 142.478C62.8338 142.478 63.0298 142.391 63.1681 142.219C63.3086 142.043 63.3788 141.838 63.3788 141.604C63.3788 141.408 63.3267 141.241 63.2224 141.101C63.0751 140.902 62.7793 140.72 62.3351 140.554C62.0608 140.45 61.8331 140.334 61.6517 140.207C61.5611 140.145 61.4761 140.062 61.3968 139.958ZM64.9156 141.887H65.5888V143H64.9156V141.887ZM69.7538 141.726C69.5882 142.152 69.4069 142.471 69.2097 142.683C68.9468 142.966 68.651 143.107 68.3223 143.107C68.0367 143.107 67.7681 142.997 67.5165 142.775C67.2672 142.554 67.0734 142.233 66.9352 141.813C66.7991 141.394 66.7311 140.912 66.7311 140.368C66.7311 139.532 66.8864 138.869 67.1969 138.381C67.5097 137.889 67.886 137.644 68.3257 137.644C68.6226 137.644 68.8923 137.756 69.1348 137.98C69.3774 138.205 69.5837 138.542 69.7538 138.991L69.3219 139.328C69.1836 138.96 69.034 138.687 68.8731 138.508C68.7121 138.326 68.5274 138.234 68.3189 138.234C68.0219 138.234 67.7647 138.417 67.5471 138.781C67.3318 139.146 67.2241 139.689 67.2241 140.412C67.2241 141.05 67.3329 141.555 67.5505 141.926C67.7704 142.297 68.0219 142.482 68.3053 142.482C68.7337 142.482 69.0725 142.116 69.3219 141.384L69.7538 141.726ZM72.1031 143.107C71.6338 143.107 71.239 142.862 70.9201 142.37C70.6005 141.879 70.4404 141.218 70.4404 140.388C70.4404 139.834 70.5107 139.344 70.6514 138.918C70.7941 138.488 70.9926 138.169 71.246 137.961C71.5002 137.749 71.7696 137.644 72.0551 137.644C72.3322 137.644 72.5961 137.753 72.8475 137.971C73.1016 138.186 73.3022 138.513 73.4491 138.952C73.5967 139.388 73.6705 139.877 73.6705 140.417C73.6705 141.241 73.5152 141.895 73.2047 142.38C72.8941 142.865 72.5265 143.107 72.1031 143.107ZM72.0586 142.502C72.358 142.502 72.6177 142.316 72.837 141.945C73.0592 141.574 73.1706 141.042 73.1706 140.349C73.1706 139.665 73.0626 139.144 72.8475 138.786C72.6323 138.428 72.3726 138.249 72.069 138.249C71.7473 138.249 71.4765 138.431 71.2564 138.796C71.0385 139.16 70.9299 139.681 70.9299 140.358C70.9299 141.052 71.0399 141.582 71.2599 141.95C71.48 142.318 71.7459 142.502 72.0586 142.502ZM75.2205 138.581C75.6445 138.174 75.9537 137.917 76.1486 137.81C76.3436 137.699 76.5316 137.644 76.7133 137.644C76.9153 137.644 77.0886 137.72 77.2335 137.873C77.3783 138.023 77.4918 138.259 77.5732 138.581C77.9973 138.171 78.3058 137.912 78.4979 137.805C78.6929 137.697 78.8844 137.644 79.0724 137.644C79.3265 137.644 79.5305 137.748 79.6844 137.956C79.8975 138.249 80.004 138.628 80.004 139.094V143H79.5048V139.304C79.5048 138.998 79.4477 138.754 79.3342 138.571C79.2235 138.386 79.0912 138.293 78.9366 138.293C78.7959 138.293 78.6281 138.353 78.4339 138.474C78.241 138.591 77.9667 138.833 77.6108 139.201V143H77.1144V139.304C77.1144 138.991 77.0601 138.745 76.9515 138.566C76.8421 138.384 76.7168 138.293 76.5741 138.293C76.4174 138.293 76.2426 138.352 76.0505 138.469C75.8597 138.583 75.5832 138.827 75.2205 139.201V143H74.7177V137.751H75.2205V138.581Z" fill="#1C1C1C"/>
<path d="M26.7494 161.84C26.8854 160.926 27.103 160.145 27.4022 159.496C27.8319 158.582 28.3704 157.891 29.0178 157.422C29.6706 156.953 30.3669 156.719 31.1067 156.719C32.3143 156.719 33.2989 157.211 34.0605 158.195C34.822 159.172 35.2028 160.312 35.2028 161.617C35.2028 162.328 35.094 163.031 34.8764 163.727C34.6588 164.422 34.3433 165.094 33.9299 165.742C33.6253 166.219 33.0351 166.984 32.1593 168.039C31.2889 169.094 30.6742 169.883 30.3152 170.406C29.9561 170.922 29.6216 171.477 29.3116 172.07H35.162V175H26.4883V174.438C26.4883 173.586 26.6134 172.766 26.8636 171.977C27.1138 171.188 27.53 170.332 28.112 169.41C28.433 168.902 29.181 167.91 30.356 166.434C31.2372 165.316 31.7785 164.598 31.9798 164.277C32.2735 163.824 32.4856 163.391 32.6162 162.977C32.7467 162.555 32.812 162.16 32.812 161.793C32.812 161.152 32.638 160.598 32.2898 160.129C31.9471 159.66 31.5065 159.426 30.968 159.426C30.4512 159.426 29.9861 159.676 29.5727 160.176C29.1646 160.676 28.8491 161.469 28.6261 162.555L26.7494 161.84ZM41.29 156.719C42.7696 156.719 43.9283 157.426 44.7661 158.84C45.6038 160.246 46.0227 162.637 46.0227 166.012C46.0227 169.395 45.6119 171.797 44.7905 173.219C43.9691 174.641 42.8703 175.352 41.494 175.352C40.5856 175.352 39.8648 175.148 39.3317 174.742C38.5211 174.125 37.9227 173.242 37.5366 172.094C37.0415 170.625 36.794 168.648 36.794 166.164C36.794 162.742 37.2047 160.312 38.0261 158.875C38.853 157.438 39.9409 156.719 41.29 156.719ZM41.4287 159.625C41.0208 159.625 40.6345 159.836 40.27 160.258C39.911 160.68 39.6445 161.316 39.4704 162.168C39.3017 163.012 39.2174 164.602 39.2174 166.938C39.2174 169 39.435 170.438 39.8702 171.25C40.3054 172.062 40.8222 172.469 41.4206 172.469C41.8014 172.469 42.1794 172.266 42.5548 171.859C42.9301 171.445 43.2021 170.84 43.3708 170.043C43.5393 169.238 43.6236 167.777 43.6236 165.66C43.6236 163.285 43.4061 161.688 42.9709 160.867C42.5357 160.039 42.0217 159.625 41.4287 159.625ZM47.6383 161.84C47.7743 160.926 47.9919 160.145 48.2911 159.496C48.7208 158.582 49.2593 157.891 49.9067 157.422C50.5595 156.953 51.2557 156.719 51.9956 156.719C53.2032 156.719 54.1878 157.211 54.9494 158.195C55.7109 159.172 56.0917 160.312 56.0917 161.617C56.0917 162.328 55.9829 163.031 55.7653 163.727C55.5477 164.422 55.2322 165.094 54.8188 165.742C54.5142 166.219 53.924 166.984 53.0482 168.039C52.1778 169.094 51.5631 169.883 51.2041 170.406C50.845 170.922 50.5105 171.477 50.2004 172.07H56.0509V175H47.3772V174.438C47.3772 173.586 47.5023 172.766 47.7525 171.977C48.0027 171.188 48.4189 170.332 49.0009 169.41C49.3219 168.902 50.0699 167.91 51.2449 166.434C52.1261 165.316 52.6674 164.598 52.8687 164.277C53.1624 163.824 53.3745 163.391 53.5051 162.977C53.6356 162.555 53.7009 162.16 53.7009 161.793C53.7009 161.152 53.5269 160.598 53.1787 160.129C52.836 159.66 52.3954 159.426 51.8569 159.426C51.3401 159.426 50.8749 159.676 50.4616 160.176C50.0535 160.676 49.738 161.469 49.515 162.555L47.6383 161.84ZM62.1789 156.719C63.6585 156.719 64.8172 157.426 65.655 158.84C66.4927 160.246 66.9116 162.637 66.9116 166.012C66.9116 169.395 66.5008 171.797 65.6794 173.219C64.858 174.641 63.7591 175.352 62.3829 175.352C61.4745 175.352 60.7536 175.148 60.2206 174.742C59.41 174.125 58.8116 173.242 58.4254 172.094C57.9304 170.625 57.6829 168.648 57.6829 166.164C57.6829 162.742 58.0936 160.312 58.915 158.875C59.7419 157.438 60.8298 156.719 62.1789 156.719ZM62.3176 159.625C61.9096 159.625 61.5234 159.836 61.1589 160.258C60.7999 160.68 60.5333 161.316 60.3593 162.168C60.1906 163.012 60.1063 164.602 60.1063 166.938C60.1063 169 60.3239 170.438 60.7591 171.25C61.1943 172.062 61.7111 172.469 62.3095 172.469C62.6903 172.469 63.0683 172.266 63.4437 171.859C63.819 171.445 64.091 170.84 64.2596 170.043C64.4282 169.238 64.5125 167.777 64.5125 165.66C64.5125 163.285 64.2949 161.688 63.8598 160.867C63.4246 160.039 62.9106 159.625 62.3176 159.625Z" fill="#1C1C1C"/>
<path d="M5.16797 118.078H5.74219V124H5.16797V118.078ZM7.59375 118.078H8.49219L11.4219 122.918V118.078H11.9922V124H11.4219L8.16797 118.594V124H7.59375V118.078ZM16.1914 118.078H18.2266C18.9245 118.078 19.4531 118.229 19.8125 118.531C20.1719 118.833 20.3516 119.181 20.3516 119.574C20.3516 119.845 20.263 120.103 20.0859 120.348C19.9089 120.59 19.638 120.788 19.2734 120.941C19.6901 121.1 20 121.312 20.2031 121.578C20.4062 121.841 20.5078 122.117 20.5078 122.406C20.5078 122.812 20.3177 123.18 19.9375 123.508C19.5573 123.836 19.0234 124 18.3359 124H16.1914V118.078ZM16.7617 118.602V120.707H17.8359C18.5443 120.707 19.0339 120.604 19.3047 120.398C19.5781 120.19 19.7148 119.936 19.7148 119.637C19.7148 119.353 19.5938 119.109 19.3516 118.906C19.1094 118.703 18.7448 118.602 18.2578 118.602H16.7617ZM16.7617 121.215V123.477H18.3164C18.806 123.477 19.2109 123.346 19.5312 123.086C19.7552 122.904 19.8672 122.658 19.8672 122.348C19.8672 122.132 19.8008 121.936 19.668 121.762C19.5378 121.587 19.3372 121.453 19.0664 121.359C18.7982 121.263 18.4922 121.215 18.1484 121.215H16.7617ZM21.8438 118.078H23.6562C24.1745 118.078 24.5911 118.139 24.9062 118.262C25.2214 118.384 25.4688 118.576 25.6484 118.836C25.8307 119.094 25.9219 119.379 25.9219 119.691C25.9219 120.033 25.8138 120.336 25.5977 120.602C25.3841 120.865 25.0586 121.062 24.6211 121.195L26.0586 124H25.4414L24.0469 121.312H22.418V124H21.8438V118.078ZM22.418 118.59V120.805H23.6797C23.987 120.805 24.2917 120.754 24.5938 120.652C24.8125 120.579 24.9805 120.457 25.0977 120.285C25.2174 120.111 25.2773 119.909 25.2773 119.68C25.2773 119.362 25.1615 119.102 24.9297 118.898C24.7005 118.693 24.3542 118.59 23.8906 118.59H22.418ZM29.1016 124.117C28.4167 124.117 27.8516 123.867 27.4062 123.367C26.8854 122.779 26.625 122.02 26.625 121.09C26.625 120.501 26.7292 119.956 26.9375 119.453C27.1484 118.951 27.4466 118.577 27.832 118.332C28.2201 118.087 28.6445 117.965 29.1055 117.965C29.5065 117.965 29.862 118.055 30.1719 118.234C30.4818 118.411 30.7357 118.643 30.9336 118.93C31.1341 119.214 31.2852 119.536 31.3867 119.898C31.4883 120.26 31.5391 120.646 31.5391 121.055C31.5391 121.503 31.4844 121.895 31.375 122.23C31.2656 122.564 31.1328 122.844 30.9766 123.07C30.8229 123.294 30.6667 123.471 30.5078 123.602C30.2995 123.776 30.0638 123.906 29.8008 123.992C29.5404 124.076 29.3073 124.117 29.1016 124.117ZM29.043 123.582C29.5534 123.582 29.9896 123.37 30.3516 122.945C30.7161 122.518 30.8984 121.896 30.8984 121.078C30.8984 120.214 30.6992 119.536 30.3008 119.047C29.9883 118.667 29.5807 118.477 29.0781 118.477C28.5885 118.477 28.1654 118.693 27.8086 119.125C27.4518 119.555 27.2734 120.198 27.2734 121.055C27.2734 121.898 27.4492 122.531 27.8008 122.953C28.1523 123.372 28.5664 123.582 29.043 123.582ZM32.1367 118.078H32.7031L33.9375 122.797L35.1836 118.078H35.7695L37.0039 122.797L38.2461 118.078H38.8047L37.2461 124H36.75L35.4727 119.133L34.1914 124H33.6758L32.1367 118.078ZM41.0938 118.078H42.0156L43.9141 124H43.3359L42.7383 122.164H40.3516L39.7539 124H39.1719L41.0938 118.078ZM41.5547 118.469L40.5352 121.59H42.5547L41.5547 118.469ZM44.9297 118.078H46.7422C47.2604 118.078 47.6771 118.139 47.9922 118.262C48.3073 118.384 48.5547 118.576 48.7344 118.836C48.9167 119.094 49.0078 119.379 49.0078 119.691C49.0078 120.033 48.8997 120.336 48.6836 120.602C48.4701 120.865 48.1445 121.062 47.707 121.195L49.1445 124H48.5273L47.1328 121.312H45.5039V124H44.9297V118.078ZM45.5039 118.59V120.805H46.7656C47.0729 120.805 47.3776 120.754 47.6797 120.652C47.8984 120.579 48.0664 120.457 48.1836 120.285C48.3034 120.111 48.3633 119.909 48.3633 119.68C48.3633 119.362 48.2474 119.102 48.0156 118.898C47.7865 118.693 47.4401 118.59 46.9766 118.59H45.5039ZM50.3477 118.078H52.0469C52.9089 118.078 53.5898 118.335 54.0898 118.848C54.5924 119.361 54.8438 120.073 54.8438 120.984C54.8438 121.451 54.7826 121.879 54.6602 122.27C54.569 122.564 54.4401 122.818 54.2734 123.031C54.1068 123.245 53.918 123.423 53.707 123.566C53.5534 123.668 53.3711 123.755 53.1602 123.828C52.8164 123.943 52.3776 124 51.8438 124H50.3477V118.078ZM50.9141 118.594V123.477H52.168C52.6628 123.477 53.099 123.318 53.4766 123C53.9557 122.602 54.1953 121.949 54.1953 121.043C54.1953 120.118 53.9492 119.453 53.457 119.047C53.0924 118.745 52.6328 118.594 52.0781 118.594H50.9141ZM62.9492 122.238C62.8503 122.613 62.7174 122.918 62.5508 123.152C62.332 123.462 62.0599 123.701 61.7344 123.867C61.4089 124.034 61.0638 124.117 60.6992 124.117C60.2591 124.117 59.8568 123.997 59.4922 123.758C59.1302 123.516 58.8411 123.158 58.625 122.684C58.4089 122.21 58.3008 121.656 58.3008 121.023C58.3008 120.458 58.3984 119.93 58.5938 119.438C58.7917 118.945 59.0729 118.577 59.4375 118.332C59.8021 118.087 60.2096 117.965 60.6602 117.965C61.056 117.965 61.401 118.04 61.6953 118.191C61.9896 118.34 62.25 118.572 62.4766 118.887C62.6432 119.118 62.7721 119.413 62.8633 119.77L62.2461 119.867C62.1211 119.406 61.9232 119.062 61.6523 118.836C61.3815 118.609 61.0664 118.496 60.707 118.496C60.2201 118.496 59.8203 118.685 59.5078 119.062C59.1302 119.518 58.9414 120.164 58.9414 121C58.9414 121.862 59.1328 122.529 59.5156 123C59.8333 123.388 60.2292 123.582 60.7031 123.582C60.9922 123.582 61.2526 123.514 61.4844 123.379C61.7188 123.243 61.9128 123.052 62.0664 122.805C62.1654 122.646 62.2526 122.418 62.3281 122.121L62.9492 122.238ZM66.1797 124.117C65.4948 124.117 64.9297 123.867 64.4844 123.367C63.9635 122.779 63.7031 122.02 63.7031 121.09C63.7031 120.501 63.8073 119.956 64.0156 119.453C64.2266 118.951 64.5247 118.577 64.9102 118.332C65.2982 118.087 65.7227 117.965 66.1836 117.965C66.5846 117.965 66.9401 118.055 67.25 118.234C67.5599 118.411 67.8138 118.643 68.0117 118.93C68.2122 119.214 68.3633 119.536 68.4648 119.898C68.5664 120.26 68.6172 120.646 68.6172 121.055C68.6172 121.503 68.5625 121.895 68.4531 122.23C68.3438 122.564 68.2109 122.844 68.0547 123.07C67.901 123.294 67.7448 123.471 67.5859 123.602C67.3776 123.776 67.1419 123.906 66.8789 123.992C66.6185 124.076 66.3854 124.117 66.1797 124.117ZM66.1211 123.582C66.6315 123.582 67.0677 123.37 67.4297 122.945C67.7943 122.518 67.9766 121.896 67.9766 121.078C67.9766 120.214 67.7773 119.536 67.3789 119.047C67.0664 118.667 66.6589 118.477 66.1562 118.477C65.6667 118.477 65.2435 118.693 64.8867 119.125C64.5299 119.555 64.3516 120.198 64.3516 121.055C64.3516 121.898 64.5273 122.531 64.8789 122.953C65.2305 123.372 65.6445 123.582 66.1211 123.582ZM69.8789 118.078H70.4492V121.953C70.4492 122.44 70.5872 122.824 70.8633 123.105C71.1419 123.387 71.5195 123.527 71.9961 123.527C72.3711 123.527 72.6758 123.464 72.9102 123.336C73.1471 123.206 73.3242 123.017 73.4414 122.77C73.5586 122.52 73.6172 122.247 73.6172 121.953V118.078H74.1953V121.953C74.1953 122.615 74.0013 123.141 73.6133 123.531C73.2279 123.922 72.7122 124.117 72.0664 124.117C71.5456 124.117 71.1146 124.008 70.7734 123.789C70.4349 123.57 70.2005 123.294 70.0703 122.961C69.9427 122.625 69.8789 122.316 69.8789 122.035V118.078ZM75.8438 118.078H76.7422L79.6719 122.918V118.078H80.2422V124H79.6719L76.418 118.594V124H75.8438V118.078ZM81.3945 118.078H85.7344V118.645H83.8594V124H83.2852V118.645H81.3945V118.078ZM86.1992 118.078H86.832L88.4141 120.82L90 118.078H90.6328L88.7031 121.426V124H88.1289V121.426L86.1992 118.078Z" fill="black"/>
</g>
<defs>
<clipPath id="clip0_322_31">
<rect width="94" height="232" fill="white"/>
</clipPath>
</defs>
</svg>
