<svg width="81" height="154" viewBox="0 0 81 154" fill="none" xmlns="http://www.w3.org/2000/svg">
<path d="M78.4096 12.9356C79.1013 12.2036 79.642 11.3426 80.0009 10.4017C80.3599 9.46078 80.5299 8.45838 80.5015 7.45173C80.473 6.44508 80.2465 5.4539 79.835 4.53477C79.4234 3.61565 78.8349 2.78658 78.103 2.09491C77.371 1.40324 76.51 0.862505 75.5691 0.503587C74.6282 0.144668 73.6258 -0.02541 72.6191 0.00306668C71.6125 0.0315433 70.6213 0.258015 69.7021 0.669552C68.783 1.08109 67.954 1.66963 67.2623 2.40158L2.09563 71.4016C0.749848 72.825 0 74.7097 0 76.6686C0 78.6275 0.749848 80.5121 2.09563 81.9356L67.2623 150.943C67.9494 151.691 68.7783 152.295 69.7008 152.72C70.6233 153.145 71.621 153.382 72.6361 153.418C73.6511 153.455 74.6632 153.289 75.6135 152.93C76.5638 152.572 77.4335 152.028 78.1719 151.331C78.9104 150.634 79.5029 149.796 79.9151 148.868C80.3274 147.94 80.551 146.939 80.5731 145.924C80.5952 144.908 80.4154 143.898 80.044 142.953C79.6726 142.008 79.117 141.146 78.4096 140.417L18.211 76.6686L78.4096 12.9356Z" fill="#D4CFC9"/>
</svg>
