<svg width="932" height="930" viewBox="0 0 932 930" fill="none" xmlns="http://www.w3.org/2000/svg">
<g style="mix-blend-mode:soft-light" opacity="0.15">
<path d="M632.461 332.232L761.485 461.257L696.973 525.769" stroke="#E8E8E8" stroke-width="44.1865"/>
<path d="M332.23 629.959L461.254 758.984L523.285 696.953" stroke="#E8E8E8" stroke-width="44.1865"/>
<path d="M228.02 399.244L165.989 461.275L234.223 529.509M302.457 597.743L234.223 529.509M234.223 529.509L302.457 461.275" stroke="#E8E8E8" stroke-width="44.1865"/>
<path d="M595.243 530.725L347.119 282.601L463.737 165.982L580.356 282.601L481.106 381.85" stroke="#E8E8E8" stroke-width="44.1865"/>
<path d="M267.72 228.018L463.739 32L659.757 228.018" stroke="#E8E8E8" stroke-width="44.1865"/>
<path d="M699.452 265.225L888.026 453.799L900.432 466.205L699.452 667.186" stroke="#E8E8E8" stroke-width="44.1865"/>
<path d="M225.537 267.734L32 461.271L215.612 644.883L225.537 654.808L237.943 667.214" stroke="#E8E8E8" stroke-width="44.1865"/>
<path d="M265.235 701.951L461.253 897.969L657.272 701.951M265.235 329.765L577.872 642.401L657.272 563.001" stroke="#E8E8E8" stroke-width="44.1865"/>
</g>
</svg>
