<svg width="96" height="82" viewBox="0 0 96 82" fill="none" xmlns="http://www.w3.org/2000/svg">
<path d="M94.8705 66.979L93.4352 72.0051L95.1357 81.3803H94.2714L92.9111 73.6032H92.8799L91.9189 76.9641V81.3803H91.1263V66.979H91.9189V74.3108H91.9501L94.0093 66.979H94.8705ZM86.131 66.979H87.9157C89.092 66.979 89.9313 68.3271 89.9313 70.6998C89.9313 72.3223 89.5663 73.6825 88.7519 74.2376L89.9937 81.3803H89.1513L87.9719 74.5487L86.9267 74.6341V81.3803H86.131V66.979ZM86.9267 73.28H87.6256C88.7644 73.28 89.1326 72.4016 89.1326 70.7852C89.1326 69.1749 88.7644 68.2844 87.6256 68.2844H86.9267V73.28ZM83.1107 81.5816C81.8721 81.5816 81.0296 79.5504 81.0296 74.1827C81.0296 68.8089 81.8721 66.7778 83.1107 66.7778C84.3619 66.7778 85.1888 68.8089 85.1888 74.1827C85.1888 79.5504 84.3619 81.5816 83.1107 81.5816ZM83.1107 68.0831C82.3994 68.0831 81.8284 69.303 81.8284 74.1827C81.8284 79.0624 82.3994 80.2762 83.1107 80.2762C83.8284 80.2762 84.3931 79.0624 84.3931 74.1827C84.3931 69.303 83.8284 68.0831 83.1107 68.0831ZM77.7785 66.979L78.9173 78.2207H78.9485L79.766 66.979H80.5054L79.3198 81.3803H78.6396L77.4789 70.0655H77.4477L76.2901 81.3803H75.6162L74.3931 66.979H75.1232L76.0093 78.2207L77.1076 66.979H77.7785ZM71.9345 81.3803V68.2844H70.4274V66.979H74.2465V68.2844H72.7301V81.3803H71.9345ZM69.1919 73.2007V74.5243H67.2917V80.0689H69.9875V81.3803H66.5054V66.979H69.8689V68.2844H67.2917V73.2007H69.1919ZM65.4602 66.979V81.3803H64.6053L62.312 68.8577H62.2808V81.3803H61.4914V66.979H62.727L64.6302 77.5863H64.6614V66.979H65.4602ZM57.8502 70.6815C57.7847 69.2115 57.4852 68.0831 56.7176 68.0831C56.0998 68.0831 55.7036 68.8882 55.7036 69.9862C55.7036 73.2495 58.6552 73.2861 58.6552 77.9157C58.6552 80.203 57.9875 81.5755 56.7769 81.5755C55.6256 81.5755 54.9298 79.9225 54.9079 77.5131H55.6443C55.6755 79.2149 56.0749 80.2701 56.8643 80.2701C57.5226 80.2701 57.9501 79.4162 57.9501 77.8974C57.9501 74.628 54.9859 74.2315 54.9859 70.1326C54.9859 68.0831 55.7036 66.7717 56.7582 66.7717C57.8253 66.7717 58.521 68.1624 58.5803 70.6815H57.8502ZM51.7566 66.979L52.9017 78.2207H52.9329L53.7504 66.979H54.4805L53.2948 81.3803H52.6178L51.4602 70.0655H51.429L50.2683 81.3803H49.5944L48.3619 66.979H49.1045L49.9813 78.2207H50.0125L51.1232 66.979H51.7566ZM47.1388 73.2007V74.5243H45.2449V80.0689H47.9376V81.3803H44.4493V66.979H47.8159V68.2844H45.2449V73.2007H47.1388ZM43.4072 66.979V81.3803H42.5491L40.2652 68.8577H40.234V81.3803H39.4352V66.979H40.6802L42.5772 77.5863H42.6084V66.979H43.4072ZM32.3962 70.1814C32.3962 72.5175 33.1887 73.8228 33.8908 74.9635C34.4711 75.9089 34.9703 76.7202 34.9703 77.9279C34.9703 78.6476 34.7363 79.0563 34.3214 79.0563C33.9501 79.0563 33.7098 78.3305 33.6661 77.0617V76.8665L32.2746 77.2386V77.4277C32.3214 79.4955 32.9547 81.5755 34.259 81.5755C35.5507 81.5755 36.3526 80.0993 36.3526 77.7144C36.3526 75.4453 35.5382 74.079 34.8143 72.8713C34.2589 71.9685 33.7816 71.1573 33.7816 70.1692C33.7816 69.6019 33.8752 68.937 34.3182 68.937C34.4805 68.937 34.8518 69.0773 34.9017 70.346V70.5534L36.2964 70.2485V70.0594C36.1716 67.8086 35.4633 66.4179 34.4462 66.4179C33.1451 66.4179 32.3962 67.7964 32.3962 70.1814ZM27.8658 70.1814C27.8658 72.5175 28.6614 73.8228 29.3572 74.9635C29.9407 75.9089 30.4399 76.7202 30.4399 77.9279C30.4399 78.6476 30.2028 79.0563 29.7941 79.0563C29.4165 79.0563 29.1763 78.3305 29.1295 77.0617V76.8665L27.741 77.2386V77.4277C27.7972 79.4955 28.4274 81.5755 29.7348 81.5755C31.0265 81.5755 31.8284 80.0993 31.8284 77.7144C31.8284 75.4453 31.0109 74.079 30.287 72.8713C29.7348 71.9685 29.2512 71.1573 29.2512 70.1692C29.2512 69.6019 29.3448 68.937 29.7941 68.937C29.9501 68.937 30.3214 69.0773 30.3806 70.346V70.5534L31.7722 70.2485V70.0594C31.6505 67.8086 30.9454 66.4179 29.9251 66.4179C28.6209 66.4179 27.8752 67.7964 27.8752 70.1814M24.9922 78.8611V74.994H26.6178V72.487H24.9922V69.1383H27.1139V66.607H23.536V81.3742H27.2574V78.8611H24.9922ZM21.17 66.607V74.1156C20.9164 72.7493 19.7647 66.607 19.7647 66.607H18.4337V81.3742H19.7647V73.1519C20.0246 74.5914 21.2405 81.3742 21.2405 81.3742H22.5042V66.607H21.17ZM15.7778 66.607H17.2256V81.3742H15.7785L15.7778 66.607ZM10.8668 70.1814C10.8668 72.5175 11.658 73.8228 12.3588 74.9635C12.9348 75.9089 13.4384 76.7202 13.4384 77.9279C13.4384 78.6476 13.2012 79.0563 12.7894 79.0563C12.4193 79.0563 12.1778 78.3305 12.1298 77.0617L12.1267 76.8665L10.7413 77.2386L10.7444 77.4277C10.7956 79.4955 11.429 81.5755 12.737 81.5755C14.0237 81.5755 14.8281 80.0993 14.8281 77.7144C14.8281 75.4453 14.0075 74.079 13.2848 72.8713C12.737 71.9685 12.2515 71.1573 12.2515 70.1692C12.2515 69.6019 12.3482 68.937 12.7894 68.937C12.9522 68.937 13.3223 69.0773 13.3735 70.346L13.3828 70.5534L14.7744 70.2485L14.7619 70.0594C14.6387 67.8086 13.9282 66.4179 12.9129 66.4179C11.6134 66.4179 10.8646 67.7964 10.8646 70.1814M8.5797 66.607V77.6717C8.5797 78.6354 8.40029 79.0563 7.99717 79.0563C7.59905 79.0563 7.41621 78.6354 7.41621 77.6717V66.607H5.97159V77.568C5.97159 80.075 6.72666 81.5755 7.99717 81.5755C9.27393 81.5755 10.0324 80.075 10.0324 77.568V66.607H8.5797ZM0.86457 66.607V81.3742H2.96067C4.29827 81.3742 5.02931 79.8432 5.02931 77.0251C5.02931 75.3355 4.71948 74.2681 4.08953 73.6154C4.66551 72.9872 4.88766 71.6941 4.88766 70.6022C4.88766 67.9611 4.19967 66.607 2.83586 66.607H0.86457ZM2.7042 69.0102C3.20279 69.0102 3.4343 69.5958 3.4343 70.8767C3.4343 71.8831 3.14507 72.5236 2.68454 72.5236H2.3173V69.0102H2.7042ZM2.63337 74.9147C3.3042 74.9147 3.57565 75.5063 3.57565 76.958C3.57565 78.3914 3.33696 78.9831 2.75505 78.9831H2.31699V74.9147H2.63337ZM87.794 35.5263V1.6063H94.1997V60.3244L71.8502 25.2039V59.1288H65.4508V0.419922L87.794 35.5263ZM55.1607 35.5263V1.6063H61.5632V60.3244L39.2137 25.2039V59.1288H32.8112V0.419922L55.1607 35.5263ZM0.943197 1.6063H18.6312C23.9242 1.6063 28.6146 6.73426 28.6146 16.9957C28.6146 22.306 26.9579 26.5099 24.3682 28.4325C27.9563 30.363 30.546 35.1329 30.546 42.4573C30.546 52.7242 25.9625 59.1288 19.9011 59.1288H0.943197V1.6063ZM7.34164 24.6001H17.9086C20.7239 24.6001 22.2162 21.5704 22.2162 18.0905C22.2162 14.7065 20.7239 11.6896 17.9086 11.6896H7.34164V24.5988V24.6001ZM7.34164 49.0413H19.1803C22.0434 49.0413 24.1429 45.9366 24.1429 41.8986C24.1429 37.7753 22.043 34.6584 19.1803 34.6584H7.34164V49.0413Z" fill="#1C1C1C"/>
</svg>
