<svg width="54" height="65" viewBox="0 0 54 65" fill="none" xmlns="http://www.w3.org/2000/svg">
<path d="M15.6 41.25L12.75 38.4L24.15 27L12.75 15.6L15.6 12.75L27 24.15L38.4 12.75L41.25 15.6L29.85 27L41.25 38.4L38.4 41.25L27 29.85L15.6 41.25Z" fill="#D4CFC9"/>
<path d="M16.7214 55.6877C16.5916 56.1799 16.4172 56.5798 16.1985 56.8875C15.9114 57.2942 15.5542 57.6069 15.127 57.8257C14.6997 58.0444 14.2468 58.1538 13.7683 58.1538C13.1907 58.1538 12.6626 57.9966 12.1841 57.6821C11.709 57.3643 11.3296 56.8943 11.0459 56.2722C10.7622 55.6501 10.6204 54.9238 10.6204 54.0933C10.6204 53.3516 10.7485 52.6577 11.0049 52.0117C11.2646 51.3657 11.6338 50.8821 12.1123 50.5608C12.5908 50.2395 13.1257 50.0789 13.717 50.0789C14.2366 50.0789 14.6895 50.178 15.0757 50.3762C15.4619 50.571 15.8037 50.8752 16.1011 51.2888C16.3198 51.593 16.489 51.9792 16.6086 52.4475L15.7986 52.5757C15.6345 51.9707 15.3748 51.5195 15.0193 51.2222C14.6638 50.9248 14.2502 50.7761 13.7786 50.7761C13.1394 50.7761 12.6147 51.0239 12.2046 51.5195C11.709 52.1177 11.4612 52.9653 11.4612 54.0625C11.4612 55.1938 11.7124 56.0688 12.2148 56.6875C12.6318 57.1968 13.1514 57.4514 13.7734 57.4514C14.1528 57.4514 14.4946 57.3625 14.7988 57.1848C15.1064 57.0071 15.3611 56.7559 15.5627 56.4312C15.6926 56.2227 15.8071 55.9236 15.9062 55.5339L16.7214 55.6877ZM18.2544 50.2275H19.0029V57.2361H22.7456V58H18.2544V50.2275ZM26.2422 58.1538C25.3433 58.1538 24.6016 57.8257 24.0171 57.1694C23.3335 56.397 22.9917 55.4006 22.9917 54.1804C22.9917 53.408 23.1284 52.6919 23.4019 52.0322C23.6787 51.3726 24.0701 50.8821 24.5759 50.5608C25.0852 50.2395 25.6423 50.0789 26.2473 50.0789C26.7737 50.0789 27.2402 50.1968 27.647 50.4326C28.0537 50.665 28.387 50.9692 28.6467 51.3452C28.9099 51.7178 29.1082 52.1416 29.2415 52.6167C29.3748 53.0918 29.4414 53.5977 29.4414 54.1343C29.4414 54.7222 29.3696 55.2366 29.2261 55.6775C29.0825 56.115 28.9082 56.4824 28.7031 56.7798C28.5015 57.0737 28.2964 57.3062 28.0879 57.4771C27.8145 57.7061 27.5051 57.877 27.1599 57.9897C26.8181 58.0991 26.5122 58.1538 26.2422 58.1538ZM26.1653 57.4514C26.8352 57.4514 27.4077 57.1729 27.8828 56.6157C28.3613 56.0552 28.6006 55.2383 28.6006 54.165C28.6006 53.0303 28.3391 52.1416 27.8162 51.499C27.406 51 26.8711 50.7505 26.2114 50.7505C25.5688 50.7505 25.0134 51.0342 24.5452 51.6016C24.0769 52.1655 23.8428 53.0098 23.8428 54.1343C23.8428 55.2417 24.0735 56.0723 24.5349 56.626C24.9963 57.1763 25.5398 57.4514 26.1653 57.4514ZM31.4563 55.821C31.5417 56.1287 31.6375 56.3662 31.7434 56.5337C31.9211 56.8105 32.1553 57.0327 32.4458 57.2002C32.7363 57.3643 33.0884 57.4463 33.502 57.4463C34.0796 57.4463 34.5325 57.2993 34.8606 57.0054C35.1921 56.708 35.3579 56.356 35.3579 55.9492C35.3579 55.5801 35.2092 55.2656 34.9119 55.0059C34.6829 54.811 34.2214 54.6145 33.5276 54.4163C32.5911 54.1462 31.9229 53.8335 31.5229 53.478C31.123 53.126 30.9231 52.6902 30.9231 52.1707C30.9231 51.5999 31.1453 51.1094 31.5896 50.6992C32.0374 50.2856 32.6235 50.0789 33.3481 50.0789C33.7891 50.0789 34.2043 50.1609 34.594 50.325C34.9836 50.489 35.3101 50.7334 35.5732 51.0581C35.7544 51.2837 35.8979 51.5776 36.0039 51.9399L35.2195 52.1809C35.0862 51.7195 34.8555 51.3657 34.5273 51.1196C34.2026 50.8735 33.813 50.7505 33.3584 50.7505C32.8765 50.7505 32.4885 50.8821 32.1946 51.1453C31.9006 51.4084 31.7537 51.7195 31.7537 52.0784C31.7537 52.3723 31.8733 52.6389 32.1125 52.8782C32.3484 53.1174 32.8679 53.3533 33.6711 53.5857C34.6248 53.8591 35.2827 54.1753 35.645 54.5342C36.0039 54.8965 36.1833 55.3528 36.1833 55.9031C36.1833 56.5251 35.939 57.0566 35.4502 57.4976C34.9614 57.9351 34.312 58.1538 33.502 58.1538C32.9961 58.1538 32.533 58.0547 32.1125 57.8564C31.6921 57.6548 31.3503 57.3762 31.0872 57.0208C30.906 56.7815 30.759 56.4534 30.6462 56.0364L31.4563 55.821ZM37.9675 50.2275H42.5459V50.9658H38.7212V53.5037H41.5667V54.2522H38.7212V57.2515H42.915V58H37.9675V50.2275Z" fill="white"/>
</svg>
