<svg width="387" height="158" viewBox="0 0 387 158" fill="none" xmlns="http://www.w3.org/2000/svg">
<path d="M111.374 56.8186L133.587 78.2283L122.481 88.9331" stroke="#1C1C1C" stroke-width="10"/>
<path d="M59.6865 106.224L81.8991 127.634L92.5782 117.34" stroke="#1C1C1C" stroke-width="10"/>
<path d="M41.746 67.9363L31.0669 78.2294L42.8139 89.5518M54.5609 100.874L42.8139 89.5518M42.8139 89.5518L54.5609 78.2294" stroke="#1C1C1C" stroke-width="10"/>
<path d="M104.966 89.7582L62.25 48.5858L82.3267 29.2347L102.403 48.5858L85.3169 65.0548" stroke="#1C1C1C" stroke-width="10"/>
<path d="M48.5806 39.5262L82.3265 7L116.073 39.5262" stroke="#1C1C1C" stroke-width="10"/>
<path d="M122.906 45.7015L155.371 76.9926L157.507 79.0512L122.906 112.401" stroke="#1C1C1C" stroke-width="10"/>
<path d="M41.3188 46.1147L8 78.2293L39.6102 108.697L41.3188 110.344L43.4546 112.402" stroke="#1C1C1C" stroke-width="10"/>
<path d="M48.1536 118.169L81.8995 150.695L115.646 118.169M48.1536 56.4103L101.976 108.288L115.646 95.1124" stroke="#1C1C1C" stroke-width="10"/>
<path d="M179.873 40.476H190.22V42.1869H181.583V47.9877H187.97V49.7103H181.583V58.2416H179.873V40.476ZM195.736 40.476H197.447V56.4955H206.001V58.2416H195.736V40.476ZM215.994 58.5931C213.939 58.5931 212.244 57.8431 210.908 56.3431C209.345 54.5775 208.564 52.3002 208.564 49.5111C208.564 47.7455 208.876 46.1088 209.501 44.601C210.134 43.0931 211.029 41.972 212.185 41.2377C213.349 40.5033 214.623 40.1361 216.005 40.1361C217.208 40.1361 218.275 40.4056 219.205 40.9447C220.134 41.476 220.896 42.1713 221.49 43.0306C222.091 43.8822 222.544 44.851 222.849 45.9369C223.154 47.0228 223.306 48.1791 223.306 49.4056C223.306 50.7494 223.142 51.9252 222.814 52.933C222.486 53.933 222.087 54.7728 221.619 55.4525C221.158 56.1244 220.689 56.6556 220.212 57.0463C219.587 57.5697 218.88 57.9603 218.091 58.2181C217.31 58.4681 216.611 58.5931 215.994 58.5931ZM215.818 56.9877C217.349 56.9877 218.658 56.351 219.744 55.0775C220.837 53.7963 221.384 51.9291 221.384 49.476C221.384 46.8822 220.787 44.851 219.591 43.3822C218.654 42.2416 217.431 41.6713 215.923 41.6713C214.455 41.6713 213.185 42.3197 212.115 43.6166C211.044 44.9056 210.509 46.8353 210.509 49.4056C210.509 51.9369 211.037 53.8353 212.091 55.101C213.146 56.3588 214.388 56.9877 215.818 56.9877ZM229.244 40.476H234.681C236.236 40.476 237.486 40.6595 238.431 41.0267C239.376 41.3939 240.119 41.9681 240.658 42.7494C241.205 43.5228 241.478 44.3783 241.478 45.3158C241.478 46.3392 241.154 47.2494 240.505 48.0463C239.865 48.8353 238.888 49.4291 237.576 49.8275L241.888 58.2416H240.037L235.853 50.1791H230.966V58.2416H229.244V40.476ZM230.966 42.0111V48.6556H234.751C235.673 48.6556 236.587 48.5033 237.494 48.1986C238.15 47.9799 238.654 47.6127 239.005 47.097C239.365 46.5736 239.544 45.9681 239.544 45.2806C239.544 44.3275 239.197 43.5463 238.501 42.9369C237.814 42.3197 236.775 42.0111 235.384 42.0111H230.966ZM247.943 40.476H249.666V58.2416H247.943V40.476ZM257.255 40.476H262.353C264.939 40.476 266.982 41.2455 268.482 42.7845C269.99 44.3236 270.744 46.4603 270.744 49.1947C270.744 50.5931 270.56 51.8783 270.193 53.0502C269.919 53.933 269.533 54.6947 269.033 55.3353C268.533 55.976 267.966 56.5111 267.333 56.9408C266.873 57.2455 266.326 57.5072 265.693 57.726C264.662 58.0697 263.345 58.2416 261.744 58.2416H257.255V40.476ZM258.955 42.0228V56.6713H262.716C264.201 56.6713 265.509 56.1947 266.642 55.2416C268.08 54.0463 268.798 52.0892 268.798 49.3705C268.798 46.597 268.06 44.601 266.583 43.3822C265.49 42.476 264.111 42.0228 262.447 42.0228H258.955ZM279.283 40.476H282.048L287.744 58.2416H286.009L284.216 52.7338H277.056L275.263 58.2416H273.517L279.283 40.476ZM280.666 41.6478L277.607 51.0111H283.666L280.666 41.6478Z" fill="#1C1C1C"/>
<path d="M179.734 69.6542H184.406V89.4354H194.281V93.5604H179.734V69.6542ZM198.047 69.6542H202.766V84.2479C202.766 86.0708 203.188 87.4354 204.031 88.3417C204.875 89.2479 206.021 89.701 207.469 89.701C208.396 89.701 209.219 89.5188 209.938 89.1542C210.656 88.7896 211.229 88.1958 211.656 87.3729C212.094 86.55 212.312 85.5083 212.312 84.2479V69.6542H217.047V84.9354C217.047 87.8521 216.25 90.0969 214.656 91.6698C213.062 93.2427 210.729 94.0292 207.656 94.0292C205.885 94.0292 204.234 93.7479 202.703 93.1854C201.891 92.8833 201.214 92.4875 200.672 91.9979C199.922 91.3104 199.297 90.4354 198.797 89.3729C198.297 88.3 198.047 86.8625 198.047 85.0604V69.6542ZM223.391 69.6542H228.062L232.438 77.0604L236.797 69.6542H241.469L234.797 81.0604L242.109 93.5604H237.422L232.438 85.076L227.484 93.5604H222.75L230.094 81.0604L223.391 69.6542ZM248.016 69.6542H252.734V84.2479C252.734 86.0708 253.156 87.4354 254 88.3417C254.844 89.2479 255.99 89.701 257.438 89.701C258.365 89.701 259.188 89.5188 259.906 89.1542C260.625 88.7896 261.198 88.1958 261.625 87.3729C262.062 86.55 262.281 85.5083 262.281 84.2479V69.6542H267.016V84.9354C267.016 87.8521 266.219 90.0969 264.625 91.6698C263.031 93.2427 260.698 94.0292 257.625 94.0292C255.854 94.0292 254.203 93.7479 252.672 93.1854C251.859 92.8833 251.182 92.4875 250.641 91.9979C249.891 91.3104 249.266 90.4354 248.766 89.3729C248.266 88.3 248.016 86.8625 248.016 85.0604V69.6542ZM274.547 69.6542H281C284.469 69.6542 286.865 69.9146 288.188 70.4354C289.521 70.9563 290.557 71.8156 291.297 73.0135C292.036 74.2115 292.406 75.5865 292.406 77.1385C292.406 78.5656 292.073 79.7479 291.406 80.6854C290.74 81.6125 289.583 82.4094 287.938 83.076L292.234 93.5604H287.578L283.578 83.951H279.266V93.5604H274.547V69.6542ZM279.266 73.826V80.2635H283.031C284.406 80.2635 285.578 79.8729 286.547 79.0917C287.182 78.5708 287.5 77.8469 287.5 76.9198C287.5 76.0344 287.146 75.3 286.438 74.7167C285.729 74.1229 284.594 73.826 283.031 73.826H279.266ZM299.156 69.6542H303.844V93.5604H299.156V69.6542ZM320.562 69.1854C322.812 69.1854 324.625 69.5604 326 70.3104C327.802 71.2896 329.177 72.6958 330.125 74.5292C331.073 76.3625 331.547 78.7688 331.547 81.7479C331.547 85.7896 330.594 88.8469 328.688 90.9198C326.781 92.9927 324.26 94.0292 321.125 94.0292C317.958 94.0292 315.396 92.9771 313.438 90.8729C311.49 88.7583 310.516 85.675 310.516 81.6229C310.516 79.1854 310.911 76.9979 311.703 75.0604C312.13 73.9875 312.781 72.9875 313.656 72.0604C314.542 71.1333 315.568 70.425 316.734 69.9354C317.911 69.4354 319.188 69.1854 320.562 69.1854ZM321.031 73.2792C319.417 73.2792 318.083 73.925 317.031 75.2167C315.979 76.5083 315.453 78.6438 315.453 81.6229C315.453 84.55 315.984 86.6542 317.047 87.9354C318.12 89.2167 319.49 89.8573 321.156 89.8573C322.74 89.8573 324.057 89.2219 325.109 87.951C326.161 86.6698 326.688 84.576 326.688 81.6698C326.688 78.4198 326.047 76.1333 324.766 74.8104C323.776 73.7896 322.531 73.2792 321.031 73.2792ZM337.703 69.6542H342.422V84.2479C342.422 86.0708 342.844 87.4354 343.688 88.3417C344.531 89.2479 345.677 89.701 347.125 89.701C348.052 89.701 348.875 89.5188 349.594 89.1542C350.312 88.7896 350.885 88.1958 351.312 87.3729C351.75 86.55 351.969 85.5083 351.969 84.2479V69.6542H356.703V84.9354C356.703 87.8521 355.906 90.0969 354.312 91.6698C352.719 93.2427 350.385 94.0292 347.312 94.0292C345.542 94.0292 343.891 93.7479 342.359 93.1854C341.547 92.8833 340.87 92.4875 340.328 91.9979C339.578 91.3104 338.953 90.4354 338.453 89.3729C337.953 88.3 337.703 86.8625 337.703 85.0604V69.6542ZM367.078 86.8729C367.87 88.0917 368.646 88.9406 369.406 89.4198C370.177 89.899 371.083 90.1385 372.125 90.1385C373.375 90.1385 374.349 89.8313 375.047 89.2167C375.745 88.5917 376.094 87.8573 376.094 87.0135C376.094 86.274 375.818 85.6229 375.266 85.0604C374.703 84.4979 373.448 83.9563 371.5 83.4354C368.844 82.7375 366.943 81.8833 365.797 80.8729C364.37 79.6021 363.656 78.0292 363.656 76.1542C363.656 74.1438 364.37 72.4823 365.797 71.1698C367.224 69.8469 369.182 69.1854 371.672 69.1854C373.089 69.1854 374.349 69.425 375.453 69.9042C376.568 70.3729 377.51 70.9771 378.281 71.7167C378.781 72.2063 379.281 72.8781 379.781 73.7323L375.844 75.3417C375.177 74.3938 374.495 73.701 373.797 73.2635C373.099 72.826 372.323 72.6073 371.469 72.6073C370.417 72.6073 369.573 72.9042 368.938 73.4979C368.312 74.0813 368 74.7896 368 75.6229C368 76.2896 368.26 76.8625 368.781 77.3417C369.292 77.8208 370.573 78.3156 372.625 78.826C374.677 79.3365 376.229 79.9302 377.281 80.6073C378.344 81.2844 379.135 82.1646 379.656 83.2479C380.188 84.3313 380.453 85.4458 380.453 86.5917C380.453 87.8 380.115 89.0135 379.438 90.2323C378.76 91.451 377.755 92.3885 376.422 93.0448C375.089 93.701 373.557 94.0292 371.828 94.0292C370.193 94.0292 368.771 93.7583 367.562 93.2167C366.365 92.6646 365.349 91.925 364.516 90.9979C363.974 90.4042 363.427 89.576 362.875 88.5135L367.078 86.8729Z" fill="#1C1C1C"/>
<path d="M179.086 105.631H184.758C186.781 105.631 188.289 105.795 189.281 106.123C190.281 106.451 191.086 107.025 191.695 107.846C192.312 108.658 192.621 109.654 192.621 110.834C192.621 111.748 192.445 112.592 192.094 113.365C191.82 113.951 191.402 114.471 190.84 114.924C190.285 115.377 189.727 115.717 189.164 115.943C188.211 116.334 187.086 116.529 185.789 116.529H182.648V123.56H179.086V105.631ZM182.648 108.736V113.599H185.531C186.609 113.599 187.508 113.303 188.227 112.709C188.703 112.318 188.941 111.756 188.941 111.021C188.941 110.342 188.688 109.791 188.18 109.369C187.672 108.947 186.82 108.736 185.625 108.736H182.648ZM197.926 105.631H202.766C205.367 105.631 207.164 105.826 208.156 106.217C209.156 106.607 209.934 107.252 210.488 108.15C211.043 109.049 211.32 110.08 211.32 111.244C211.32 112.314 211.07 113.201 210.57 113.904C210.07 114.599 209.203 115.197 207.969 115.697L211.191 123.56H207.699L204.699 116.353H201.465V123.56H197.926V105.631ZM201.465 108.76V113.588H204.289C205.32 113.588 206.199 113.295 206.926 112.709C207.402 112.318 207.641 111.775 207.641 111.08C207.641 110.416 207.375 109.865 206.844 109.428C206.312 108.982 205.461 108.76 204.289 108.76H201.465ZM222.93 105.279C224.617 105.279 225.977 105.56 227.008 106.123C228.359 106.857 229.391 107.912 230.102 109.287C230.812 110.662 231.168 112.467 231.168 114.701C231.168 117.732 230.453 120.025 229.023 121.58C227.594 123.135 225.703 123.912 223.352 123.912C220.977 123.912 219.055 123.123 217.586 121.545C216.125 119.959 215.395 117.646 215.395 114.607C215.395 112.779 215.691 111.139 216.285 109.685C216.605 108.881 217.094 108.131 217.75 107.435C218.414 106.74 219.184 106.209 220.059 105.842C220.941 105.467 221.898 105.279 222.93 105.279ZM223.281 108.349C222.07 108.349 221.07 108.834 220.281 109.803C219.492 110.771 219.098 112.373 219.098 114.607C219.098 116.803 219.496 118.381 220.293 119.342C221.098 120.303 222.125 120.783 223.375 120.783C224.562 120.783 225.551 120.307 226.34 119.353C227.129 118.392 227.523 116.822 227.523 114.642C227.523 112.205 227.043 110.49 226.082 109.498C225.34 108.732 224.406 108.349 223.281 108.349ZM236.367 105.631H242.039C244.062 105.631 245.57 105.795 246.562 106.123C247.562 106.451 248.367 107.025 248.977 107.846C249.594 108.658 249.902 109.654 249.902 110.834C249.902 111.748 249.727 112.592 249.375 113.365C249.102 113.951 248.684 114.471 248.121 114.924C247.566 115.377 247.008 115.717 246.445 115.943C245.492 116.334 244.367 116.529 243.07 116.529H239.93V123.56H236.367V105.631ZM239.93 108.736V113.599H242.812C243.891 113.599 244.789 113.303 245.508 112.709C245.984 112.318 246.223 111.756 246.223 111.021C246.223 110.342 245.969 109.791 245.461 109.369C244.953 108.947 244.102 108.736 242.906 108.736H239.93ZM255.172 105.631H267.195V108.748H258.699V112.697H263.879V115.357H258.699V120.467H267.195V123.56H255.172V105.631ZM272.441 105.631H277.281C279.883 105.631 281.68 105.826 282.672 106.217C283.672 106.607 284.449 107.252 285.004 108.15C285.559 109.049 285.836 110.08 285.836 111.244C285.836 112.314 285.586 113.201 285.086 113.904C284.586 114.599 283.719 115.197 282.484 115.697L285.707 123.56H282.215L279.215 116.353H275.98V123.56H272.441V105.631ZM275.98 108.76V113.588H278.805C279.836 113.588 280.715 113.295 281.441 112.709C281.918 112.318 282.156 111.775 282.156 111.08C282.156 110.416 281.891 109.865 281.359 109.428C280.828 108.982 279.977 108.76 278.805 108.76H275.98ZM289.629 105.631H303.223V108.713H298.172V123.56H294.656V108.713H289.629V105.631ZM308.398 105.631H311.914V123.56H308.398V105.631ZM318.438 105.631H330.461V108.748H321.965V112.697H327.145V115.357H321.965V120.467H330.461V123.56H318.438V105.631ZM337.84 118.545C338.434 119.459 339.016 120.096 339.586 120.455C340.164 120.814 340.844 120.994 341.625 120.994C342.562 120.994 343.293 120.764 343.816 120.303C344.34 119.834 344.602 119.283 344.602 118.65C344.602 118.096 344.395 117.607 343.98 117.185C343.559 116.764 342.617 116.357 341.156 115.967C339.164 115.443 337.738 114.803 336.879 114.045C335.809 113.092 335.273 111.912 335.273 110.506C335.273 108.998 335.809 107.752 336.879 106.767C337.949 105.775 339.418 105.279 341.285 105.279C342.348 105.279 343.293 105.459 344.121 105.818C344.957 106.17 345.664 106.623 346.242 107.178C346.617 107.545 346.992 108.049 347.367 108.689L344.414 109.896C343.914 109.185 343.402 108.666 342.879 108.338C342.355 108.01 341.773 107.846 341.133 107.846C340.344 107.846 339.711 108.068 339.234 108.514C338.766 108.951 338.531 109.482 338.531 110.107C338.531 110.607 338.727 111.037 339.117 111.396C339.5 111.756 340.461 112.127 342 112.51C343.539 112.892 344.703 113.338 345.492 113.846C346.289 114.353 346.883 115.014 347.273 115.826C347.672 116.639 347.871 117.474 347.871 118.334C347.871 119.24 347.617 120.15 347.109 121.064C346.602 121.978 345.848 122.682 344.848 123.174C343.848 123.666 342.699 123.912 341.402 123.912C340.176 123.912 339.109 123.709 338.203 123.303C337.305 122.889 336.543 122.334 335.918 121.639C335.512 121.193 335.102 120.572 334.688 119.775L337.84 118.545Z" fill="#1C1C1C"/>
</svg>
