<svg width="202" height="84" viewBox="0 0 202 84" fill="none" xmlns="http://www.w3.org/2000/svg">
<path d="M56.8066 30.3491L68.0981 41.6726L62.4524 47.3343" stroke="#D4CFC9" stroke-width="5"/>
<path d="M30.5322 56.479L41.8237 67.8025L47.2523 62.3585" stroke="#D4CFC9" stroke-width="5"/>
<path d="M21.4122 36.2285L15.9836 41.6725L21.9551 47.6609M27.9265 53.6492L21.9551 47.6609M21.9551 47.6609L27.9265 41.6725" stroke="#D4CFC9" stroke-width="5"/>
<path d="M53.5496 47.7708L31.8352 25.9949L42.041 15.7603L52.2467 25.9949L43.561 34.7053" stroke="#D4CFC9" stroke-width="5"/>
<path d="M24.8867 21.2029L42.0411 4L59.1954 21.2029" stroke="#D4CFC9" stroke-width="5"/>
<path d="M62.6692 24.4688L79.1721 41.0184L80.2578 42.1072L62.6692 59.7457" stroke="#D4CFC9" stroke-width="5"/>
<path d="M21.195 24.6875L4.25781 41.6727L20.3264 57.7868L21.195 58.6579L22.2807 59.7467" stroke="#D4CFC9" stroke-width="5"/>
<path d="M24.6692 62.7971L41.8235 80.0001L58.9779 62.7971M24.6692 30.1333L52.0293 57.5709L58.9779 50.6026" stroke="#D4CFC9" stroke-width="5"/>
<path d="M121.05 20.5977H125.361V21.3105H121.763V23.7275H124.424V24.4453H121.763V28H121.05V20.5977ZM128.826 20.5977H129.539V27.2725H133.104V28H128.826V20.5977ZM138.434 28.1465C137.577 28.1465 136.871 27.834 136.314 27.209C135.663 26.4733 135.338 25.5244 135.338 24.3623C135.338 23.6266 135.468 22.9447 135.729 22.3164C135.992 21.6882 136.365 21.221 136.847 20.915C137.332 20.609 137.862 20.4561 138.438 20.4561C138.94 20.4561 139.384 20.5684 139.771 20.793C140.159 21.0143 140.476 21.304 140.724 21.6621C140.974 22.0169 141.163 22.4206 141.29 22.873C141.417 23.3255 141.48 23.8073 141.48 24.3184C141.48 24.8783 141.412 25.3682 141.275 25.7881C141.139 26.2048 140.973 26.5547 140.777 26.8379C140.585 27.1178 140.39 27.3392 140.191 27.502C139.931 27.7201 139.636 27.8828 139.308 27.9902C138.982 28.0944 138.691 28.1465 138.434 28.1465ZM138.36 27.4775C138.998 27.4775 139.544 27.2122 139.996 26.6816C140.452 26.1478 140.68 25.3698 140.68 24.3477C140.68 23.2669 140.431 22.4206 139.933 21.8086C139.542 21.3333 139.033 21.0957 138.404 21.0957C137.792 21.0957 137.263 21.3659 136.817 21.9062C136.371 22.4434 136.148 23.2474 136.148 24.3184C136.148 25.373 136.368 26.1641 136.808 26.6914C137.247 27.2155 137.765 27.4775 138.36 27.4775ZM145.121 20.5977H147.387C148.035 20.5977 148.555 20.6742 148.949 20.8271C149.343 20.9801 149.652 21.2194 149.877 21.5449C150.105 21.8672 150.219 22.2236 150.219 22.6143C150.219 23.0407 150.084 23.4199 149.813 23.752C149.547 24.0807 149.14 24.3281 148.593 24.4941L150.39 28H149.618L147.875 24.6406H145.839V28H145.121V20.5977ZM145.839 21.2373V24.0059H147.416C147.8 24.0059 148.181 23.9424 148.559 23.8154C148.832 23.7243 149.042 23.5713 149.188 23.3564C149.338 23.1383 149.413 22.8861 149.413 22.5996C149.413 22.2025 149.268 21.877 148.979 21.623C148.692 21.3659 148.259 21.2373 147.68 21.2373H145.839ZM154.079 20.5977H154.797V28H154.079V20.5977ZM159.126 20.5977H161.25C162.327 20.5977 163.179 20.9183 163.804 21.5596C164.432 22.2008 164.746 23.0911 164.746 24.2305C164.746 24.8132 164.67 25.3486 164.517 25.8369C164.403 26.2048 164.242 26.5221 164.033 26.7891C163.825 27.056 163.589 27.279 163.325 27.458C163.133 27.585 162.905 27.694 162.642 27.7852C162.212 27.9284 161.663 28 160.996 28H159.126V20.5977ZM159.834 21.2422V27.3457H161.401C162.02 27.3457 162.565 27.1471 163.037 26.75C163.636 26.252 163.936 25.4365 163.936 24.3037C163.936 23.1481 163.628 22.3164 163.013 21.8086C162.557 21.431 161.982 21.2422 161.289 21.2422H159.834ZM169.471 20.5977H170.623L172.996 28H172.273L171.526 25.7051H168.543L167.796 28H167.068L169.471 20.5977ZM170.047 21.0859L168.772 24.9873H171.297L170.047 21.0859Z" fill="white"/>
<path d="M97.1963 33.541H99.2402V42.1953H103.561V44H97.1963V33.541ZM106.333 33.541H108.397V39.9258C108.397 40.7233 108.582 41.3203 108.951 41.7168C109.32 42.1133 109.822 42.3115 110.455 42.3115C110.861 42.3115 111.221 42.2318 111.535 42.0723C111.85 41.9128 112.1 41.653 112.287 41.293C112.479 40.9329 112.574 40.4772 112.574 39.9258V33.541H114.646V40.2266C114.646 41.5026 114.297 42.4847 113.6 43.1729C112.902 43.861 111.882 44.2051 110.537 44.2051C109.762 44.2051 109.04 44.082 108.37 43.8359C108.015 43.7038 107.718 43.5306 107.481 43.3164C107.153 43.0156 106.88 42.6328 106.661 42.168C106.442 41.6986 106.333 41.0697 106.333 40.2812V33.541ZM118.546 33.541H120.59L122.504 36.7812L124.411 33.541H126.455L123.536 38.5312L126.735 44H124.685L122.504 40.2881L120.337 44H118.266L121.479 38.5312L118.546 33.541ZM130.444 33.541H132.509V39.9258C132.509 40.7233 132.693 41.3203 133.062 41.7168C133.432 42.1133 133.933 42.3115 134.566 42.3115C134.972 42.3115 135.332 42.2318 135.646 42.0723C135.961 41.9128 136.212 41.653 136.398 41.293C136.59 40.9329 136.686 40.4772 136.686 39.9258V33.541H138.757V40.2266C138.757 41.5026 138.408 42.4847 137.711 43.1729C137.014 43.861 135.993 44.2051 134.648 44.2051C133.874 44.2051 133.151 44.082 132.481 43.8359C132.126 43.7038 131.83 43.5306 131.593 43.3164C131.265 43.0156 130.991 42.6328 130.772 42.168C130.554 41.6986 130.444 41.0697 130.444 40.2812V33.541ZM143.177 33.541H146C147.518 33.541 148.566 33.6549 149.145 33.8828C149.728 34.1107 150.181 34.4867 150.505 35.0107C150.828 35.5348 150.99 36.1364 150.99 36.8154C150.99 37.4398 150.844 37.957 150.553 38.3672C150.261 38.7728 149.755 39.1214 149.035 39.4131L150.915 44H148.878L147.128 39.7959H145.241V44H143.177V33.541ZM145.241 35.3662V38.1826H146.889C147.49 38.1826 148.003 38.0117 148.427 37.6699C148.705 37.4421 148.844 37.1253 148.844 36.7197C148.844 36.3324 148.689 36.0111 148.379 35.7559C148.069 35.4961 147.572 35.3662 146.889 35.3662H145.241ZM155.068 33.541H157.119V44H155.068V33.541ZM165.559 33.3359C166.543 33.3359 167.336 33.5 167.938 33.8281C168.726 34.2565 169.327 34.8717 169.742 35.6738C170.157 36.4759 170.364 37.5286 170.364 38.832C170.364 40.6003 169.947 41.9378 169.113 42.8447C168.279 43.7516 167.176 44.2051 165.805 44.2051C164.419 44.2051 163.298 43.7448 162.441 42.8242C161.589 41.8991 161.163 40.5501 161.163 38.7773C161.163 37.7109 161.336 36.7539 161.683 35.9062C161.869 35.4368 162.154 34.9993 162.537 34.5938C162.924 34.1882 163.373 33.8783 163.884 33.6641C164.399 33.4453 164.957 33.3359 165.559 33.3359ZM165.764 35.127C165.057 35.127 164.474 35.4095 164.014 35.9746C163.553 36.5397 163.323 37.474 163.323 38.7773C163.323 40.0579 163.556 40.9785 164.021 41.5391C164.49 42.0996 165.089 42.3799 165.818 42.3799C166.511 42.3799 167.088 42.1019 167.548 41.5459C168.008 40.9854 168.238 40.0693 168.238 38.7979C168.238 37.376 167.958 36.3757 167.397 35.7969C166.965 35.3503 166.42 35.127 165.764 35.127ZM174.183 33.541H176.247V39.9258C176.247 40.7233 176.432 41.3203 176.801 41.7168C177.17 42.1133 177.671 42.3115 178.305 42.3115C178.71 42.3115 179.07 42.2318 179.385 42.0723C179.699 41.9128 179.95 41.653 180.137 41.293C180.328 40.9329 180.424 40.4772 180.424 39.9258V33.541H182.495V40.2266C182.495 41.5026 182.146 42.4847 181.449 43.1729C180.752 43.861 179.731 44.2051 178.387 44.2051C177.612 44.2051 176.89 44.082 176.22 43.8359C175.864 43.7038 175.568 43.5306 175.331 43.3164C175.003 43.0156 174.729 42.6328 174.511 42.168C174.292 41.6986 174.183 41.0697 174.183 40.2812V33.541ZM188.159 41.0742C188.506 41.6074 188.845 41.9788 189.178 42.1885C189.515 42.3981 189.911 42.5029 190.367 42.5029C190.914 42.5029 191.34 42.3685 191.646 42.0996C191.951 41.8262 192.104 41.5049 192.104 41.1357C192.104 40.8122 191.983 40.5273 191.741 40.2812C191.495 40.0352 190.946 39.7982 190.094 39.5703C188.932 39.265 188.1 38.8913 187.599 38.4492C186.974 37.8932 186.662 37.2051 186.662 36.3848C186.662 35.5052 186.974 34.7783 187.599 34.2041C188.223 33.6253 189.08 33.3359 190.169 33.3359C190.789 33.3359 191.34 33.4408 191.823 33.6504C192.311 33.8555 192.723 34.1198 193.061 34.4434C193.279 34.6576 193.498 34.9515 193.717 35.3252L191.994 36.0293C191.702 35.6146 191.404 35.3115 191.099 35.1201C190.793 34.9287 190.454 34.833 190.08 34.833C189.62 34.833 189.251 34.9629 188.973 35.2227C188.699 35.4779 188.562 35.7878 188.562 36.1523C188.562 36.444 188.676 36.6947 188.904 36.9043C189.128 37.1139 189.688 37.3304 190.586 37.5537C191.484 37.777 192.163 38.0368 192.623 38.333C193.088 38.6292 193.434 39.0143 193.662 39.4883C193.895 39.9622 194.011 40.4499 194.011 40.9512C194.011 41.4798 193.863 42.0107 193.566 42.5439C193.27 43.0771 192.83 43.4873 192.247 43.7744C191.664 44.0615 190.994 44.2051 190.237 44.2051C189.522 44.2051 188.9 44.0866 188.371 43.8496C187.847 43.6081 187.403 43.2845 187.038 42.8789C186.801 42.6191 186.562 42.2568 186.32 41.792L188.159 41.0742Z" fill="white"/>
<path d="M106.869 52.5293H109.232C110.076 52.5293 110.704 52.5977 111.117 52.7344C111.534 52.8711 111.869 53.1104 112.123 53.4521C112.38 53.7907 112.509 54.2057 112.509 54.6973C112.509 55.0781 112.436 55.4297 112.289 55.752C112.175 55.9961 112.001 56.2126 111.767 56.4014C111.535 56.5902 111.303 56.7318 111.068 56.8262C110.671 56.9889 110.202 57.0703 109.662 57.0703H108.354V60H106.869V52.5293ZM108.354 53.8232V55.8496H109.555C110.004 55.8496 110.378 55.7259 110.678 55.4785C110.876 55.3158 110.976 55.0814 110.976 54.7754C110.976 54.4922 110.87 54.2627 110.658 54.0869C110.447 53.9111 110.092 53.8232 109.594 53.8232H108.354ZM115.886 52.5293H117.902C118.986 52.5293 119.735 52.6107 120.148 52.7734C120.565 52.9362 120.889 53.2048 121.12 53.5791C121.351 53.9535 121.467 54.3831 121.467 54.8682C121.467 55.3141 121.363 55.6836 121.154 55.9766C120.946 56.2663 120.585 56.5153 120.07 56.7236L121.413 60H119.958L118.708 56.9971H117.36V60H115.886V52.5293ZM117.36 53.833V55.8447H118.537C118.967 55.8447 119.333 55.7227 119.636 55.4785C119.834 55.3158 119.934 55.0895 119.934 54.7998C119.934 54.5231 119.823 54.2936 119.602 54.1113C119.38 53.9258 119.025 53.833 118.537 53.833H117.36ZM127.471 52.3828C128.174 52.3828 128.74 52.5 129.17 52.7344C129.733 53.0404 130.163 53.4798 130.459 54.0527C130.755 54.6257 130.903 55.3776 130.903 56.3086C130.903 57.5716 130.605 58.527 130.01 59.1748C129.414 59.8226 128.626 60.1465 127.646 60.1465C126.657 60.1465 125.856 59.8177 125.244 59.1602C124.635 58.4993 124.331 57.5358 124.331 56.2695C124.331 55.5078 124.455 54.8242 124.702 54.2188C124.836 53.8835 125.039 53.571 125.312 53.2812C125.589 52.9915 125.91 52.7702 126.274 52.6172C126.642 52.4609 127.041 52.3828 127.471 52.3828ZM127.617 53.6621C127.113 53.6621 126.696 53.8639 126.367 54.2676C126.038 54.6712 125.874 55.3385 125.874 56.2695C125.874 57.1842 126.04 57.8418 126.372 58.2422C126.707 58.6426 127.135 58.8428 127.656 58.8428C128.151 58.8428 128.563 58.6442 128.892 58.2471C129.22 57.8467 129.385 57.1924 129.385 56.2842C129.385 55.2686 129.185 54.554 128.784 54.1406C128.475 53.8216 128.086 53.6621 127.617 53.6621ZM134.236 52.5293H136.6C137.443 52.5293 138.071 52.5977 138.484 52.7344C138.901 52.8711 139.236 53.1104 139.49 53.4521C139.747 53.7907 139.876 54.2057 139.876 54.6973C139.876 55.0781 139.803 55.4297 139.656 55.752C139.542 55.9961 139.368 56.2126 139.134 56.4014C138.903 56.5902 138.67 56.7318 138.436 56.8262C138.038 56.9889 137.57 57.0703 137.029 57.0703H135.721V60H134.236V52.5293ZM135.721 53.8232V55.8496H136.922C137.371 55.8496 137.745 55.7259 138.045 55.4785C138.243 55.3158 138.343 55.0814 138.343 54.7754C138.343 54.4922 138.237 54.2627 138.025 54.0869C137.814 53.9111 137.459 53.8232 136.961 53.8232H135.721ZM143.238 52.5293H148.248V53.8281H144.708V55.4736H146.866V56.582H144.708V58.7109H148.248V60H143.238V52.5293ZM151.601 52.5293H153.617C154.701 52.5293 155.45 52.6107 155.863 52.7734C156.28 52.9362 156.604 53.2048 156.835 53.5791C157.066 53.9535 157.182 54.3831 157.182 54.8682C157.182 55.3141 157.077 55.6836 156.869 55.9766C156.661 56.2663 156.299 56.5153 155.785 56.7236L157.128 60H155.673L154.423 56.9971H153.075V60H151.601V52.5293ZM153.075 53.833V55.8447H154.252C154.682 55.8447 155.048 55.7227 155.351 55.4785C155.549 55.3158 155.648 55.0895 155.648 54.7998C155.648 54.5231 155.538 54.2936 155.316 54.1113C155.095 53.9258 154.74 53.833 154.252 53.833H153.075ZM159.929 52.5293H165.593V53.8135H163.488V60H162.023V53.8135H159.929V52.5293ZM168.916 52.5293H170.381V60H168.916V52.5293ZM174.266 52.5293H179.275V53.8281H175.735V55.4736H177.894V56.582H175.735V58.7109H179.275V60H174.266V52.5293ZM183.517 57.9102C183.764 58.291 184.007 58.5563 184.244 58.7061C184.485 58.8558 184.768 58.9307 185.094 58.9307C185.484 58.9307 185.789 58.8346 186.007 58.6426C186.225 58.4473 186.334 58.2178 186.334 57.9541C186.334 57.723 186.248 57.5195 186.075 57.3438C185.899 57.168 185.507 56.9987 184.898 56.8359C184.068 56.6178 183.474 56.3509 183.116 56.0352C182.67 55.638 182.447 55.1465 182.447 54.5605C182.447 53.9323 182.67 53.4131 183.116 53.0029C183.562 52.5895 184.174 52.3828 184.952 52.3828C185.395 52.3828 185.789 52.4577 186.134 52.6074C186.482 52.7539 186.777 52.9427 187.018 53.1738C187.174 53.3268 187.33 53.5368 187.486 53.8037L186.256 54.3066C186.048 54.0104 185.834 53.7939 185.616 53.6572C185.398 53.5205 185.156 53.4521 184.889 53.4521C184.56 53.4521 184.296 53.5449 184.098 53.7305C183.902 53.9128 183.805 54.1341 183.805 54.3945C183.805 54.6029 183.886 54.7819 184.049 54.9316C184.208 55.0814 184.609 55.236 185.25 55.3955C185.891 55.555 186.376 55.7406 186.705 55.9521C187.037 56.1637 187.285 56.4388 187.447 56.7773C187.613 57.1159 187.696 57.4642 187.696 57.8223C187.696 58.1999 187.59 58.5791 187.379 58.96C187.167 59.3408 186.853 59.6338 186.437 59.8389C186.02 60.0439 185.541 60.1465 185.001 60.1465C184.49 60.1465 184.046 60.0618 183.668 59.8926C183.294 59.7201 182.976 59.4889 182.716 59.1992C182.547 59.0137 182.376 58.7549 182.203 58.4229L183.517 57.9102Z" fill="white"/>
</svg>
