<svg width="280" height="104" viewBox="0 0 280 104" fill="none" xmlns="http://www.w3.org/2000/svg">
<path d="M69.9946 37.5896L83.9604 51.5949L76.9775 58.5976" stroke="url(#paint0_linear_3077_5320)" stroke-width="6"/>
<path d="M37.4973 69.9082L51.4631 83.9135L58.1774 77.1802" stroke="url(#paint1_linear_3077_5320)" stroke-width="6"/>
<path d="M26.2173 44.8616L19.503 51.5949L26.8887 59.0016M34.2745 66.4082L26.8887 59.0016M26.8887 59.0016L34.2745 51.5949" stroke="url(#paint2_linear_3077_5320)" stroke-width="6"/>
<path d="M65.9661 59.1372L39.1089 32.2038L51.7318 19.5452L64.3547 32.2038L53.6118 42.9772" stroke="url(#paint3_linear_3077_5320)" stroke-width="6"/>
<path d="M30.5147 26.2773L51.7319 5L72.9491 26.2773" stroke="url(#paint4_linear_3077_5320)" stroke-width="6"/>
<path d="M77.2457 30.3167L97.6572 50.786L99 52.1326L77.2457 73.9486" stroke="url(#paint5_linear_3077_5320)" stroke-width="6"/>
<path d="M25.9486 30.5872L5 51.5952L24.8744 71.5258L25.9486 72.6032L27.2915 73.9498" stroke="url(#paint6_linear_3077_5320)" stroke-width="6"/>
<path d="M30.2457 77.7227L51.4629 99.0001L72.6801 77.7227M30.2457 37.3228L64.0858 71.2588L72.6801 62.6401" stroke="url(#paint7_linear_3077_5320)" stroke-width="6"/>
<path d="M122.68 22.1562H129.578V23.2969H123.82V27.1641H128.078V28.3125H123.82V34H122.68V22.1562ZM133.922 22.1562H135.062V32.8359H140.766V34H133.922V22.1562ZM148.094 34.2344C146.724 34.2344 145.594 33.7344 144.703 32.7344C143.661 31.5573 143.141 30.0391 143.141 28.1797C143.141 27.0026 143.349 25.9115 143.766 24.9062C144.188 23.901 144.784 23.1536 145.555 22.6641C146.331 22.1745 147.18 21.9297 148.102 21.9297C148.904 21.9297 149.615 22.1094 150.234 22.4688C150.854 22.8229 151.362 23.2865 151.758 23.8594C152.159 24.4271 152.461 25.0729 152.664 25.7969C152.867 26.5208 152.969 27.2917 152.969 28.1094C152.969 29.0052 152.859 29.7891 152.641 30.4609C152.422 31.1276 152.156 31.6875 151.844 32.1406C151.536 32.5885 151.224 32.9427 150.906 33.2031C150.49 33.5521 150.018 33.8125 149.492 33.9844C148.971 34.151 148.505 34.2344 148.094 34.2344ZM147.977 33.1641C148.997 33.1641 149.87 32.7396 150.594 31.8906C151.323 31.0365 151.688 29.7917 151.688 28.1562C151.688 26.4271 151.289 25.0729 150.492 24.0938C149.867 23.3333 149.052 22.9531 148.047 22.9531C147.068 22.9531 146.221 23.3854 145.508 24.25C144.794 25.1094 144.438 26.3958 144.438 28.1094C144.438 29.7969 144.789 31.0625 145.492 31.9062C146.195 32.7448 147.023 33.1641 147.977 33.1641ZM157.594 22.1562H161.219C162.255 22.1562 163.089 22.2786 163.719 22.5234C164.349 22.7682 164.844 23.151 165.203 23.6719C165.568 24.1875 165.75 24.7578 165.75 25.3828C165.75 26.0651 165.534 26.6719 165.102 27.2031C164.674 27.7292 164.023 28.125 163.148 28.3906L166.023 34H164.789L162 28.625H158.742V34H157.594V22.1562ZM158.742 23.1797V27.6094H161.266C161.88 27.6094 162.49 27.5078 163.094 27.3047C163.531 27.1589 163.867 26.9141 164.102 26.5703C164.341 26.2214 164.461 25.8177 164.461 25.3594C164.461 24.724 164.229 24.2031 163.766 23.7969C163.307 23.3854 162.615 23.1797 161.688 23.1797H158.742ZM170.727 22.1562H171.875V34H170.727V22.1562ZM177.602 22.1562H181C182.724 22.1562 184.086 22.6693 185.086 23.6953C186.091 24.7214 186.594 26.1458 186.594 27.9688C186.594 28.901 186.471 29.7578 186.227 30.5391C186.044 31.1276 185.786 31.6354 185.453 32.0625C185.12 32.4896 184.742 32.8464 184.32 33.1328C184.013 33.3359 183.648 33.5104 183.227 33.6562C182.539 33.8854 181.661 34 180.594 34H177.602V22.1562ZM178.734 23.1875V32.9531H181.242C182.232 32.9531 183.104 32.6354 183.859 32C184.818 31.2031 185.297 29.8984 185.297 28.0859C185.297 26.237 184.805 24.9062 183.82 24.0938C183.091 23.4896 182.172 23.1875 181.062 23.1875H178.734ZM192.953 22.1562H194.797L198.594 34H197.438L196.242 30.3281H191.469L190.273 34H189.109L192.953 22.1562ZM193.875 22.9375L191.836 29.1797H195.875L193.875 22.9375Z" fill="white"/>
<path d="M123.051 42.0703H126.555V56.9062H133.961V60H123.051V42.0703ZM137.285 42.0703H140.824V53.0156C140.824 54.3828 141.141 55.4062 141.773 56.0859C142.406 56.7656 143.266 57.1055 144.352 57.1055C145.047 57.1055 145.664 56.9688 146.203 56.6953C146.742 56.4219 147.172 55.9766 147.492 55.3594C147.82 54.7422 147.984 53.9609 147.984 53.0156V42.0703H151.535V53.5312C151.535 55.7188 150.938 57.4023 149.742 58.582C148.547 59.7617 146.797 60.3516 144.492 60.3516C143.164 60.3516 141.926 60.1406 140.777 59.7188C140.168 59.4922 139.66 59.1953 139.254 58.8281C138.691 58.3125 138.223 57.6562 137.848 56.8594C137.473 56.0547 137.285 54.9766 137.285 53.625V42.0703ZM156.793 42.0703H160.297L163.578 47.625L166.848 42.0703H170.352L165.348 50.625L170.832 60H167.316L163.578 53.6367L159.863 60H156.312L161.82 50.625L156.793 42.0703ZM175.762 42.0703H179.301V53.0156C179.301 54.3828 179.617 55.4062 180.25 56.0859C180.883 56.7656 181.742 57.1055 182.828 57.1055C183.523 57.1055 184.141 56.9688 184.68 56.6953C185.219 56.4219 185.648 55.9766 185.969 55.3594C186.297 54.7422 186.461 53.9609 186.461 53.0156V42.0703H190.012V53.5312C190.012 55.7188 189.414 57.4023 188.219 58.582C187.023 59.7617 185.273 60.3516 182.969 60.3516C181.641 60.3516 180.402 60.1406 179.254 59.7188C178.645 59.4922 178.137 59.1953 177.73 58.8281C177.168 58.3125 176.699 57.6562 176.324 56.8594C175.949 56.0547 175.762 54.9766 175.762 53.625V42.0703ZM196.16 42.0703H201C203.602 42.0703 205.398 42.2656 206.391 42.6562C207.391 43.0469 208.168 43.6914 208.723 44.5898C209.277 45.4883 209.555 46.5195 209.555 47.6836C209.555 48.7539 209.305 49.6406 208.805 50.3438C208.305 51.0391 207.438 51.6367 206.203 52.1367L209.426 60H205.934L202.934 52.793H199.699V60H196.16V42.0703ZM199.699 45.1992V50.0273H202.523C203.555 50.0273 204.434 49.7344 205.16 49.1484C205.637 48.7578 205.875 48.2148 205.875 47.5195C205.875 46.8555 205.609 46.3047 205.078 45.8672C204.547 45.4219 203.695 45.1992 202.523 45.1992H199.699ZM215.117 42.0703H218.633V60H215.117V42.0703ZM231.672 41.7188C233.359 41.7188 234.719 42 235.75 42.5625C237.102 43.2969 238.133 44.3516 238.844 45.7266C239.555 47.1016 239.91 48.9062 239.91 51.1406C239.91 54.1719 239.195 56.4648 237.766 58.0195C236.336 59.5742 234.445 60.3516 232.094 60.3516C229.719 60.3516 227.797 59.5625 226.328 57.9844C224.867 56.3984 224.137 54.0859 224.137 51.0469C224.137 49.2188 224.434 47.5781 225.027 46.125C225.348 45.3203 225.836 44.5703 226.492 43.875C227.156 43.1797 227.926 42.6484 228.801 42.2812C229.684 41.9062 230.641 41.7188 231.672 41.7188ZM232.023 44.7891C230.812 44.7891 229.812 45.2734 229.023 46.2422C228.234 47.2109 227.84 48.8125 227.84 51.0469C227.84 53.2422 228.238 54.8203 229.035 55.7812C229.84 56.7422 230.867 57.2227 232.117 57.2227C233.305 57.2227 234.293 56.7461 235.082 55.793C235.871 54.832 236.266 53.2617 236.266 51.082C236.266 48.6445 235.785 46.9297 234.824 45.9375C234.082 45.1719 233.148 44.7891 232.023 44.7891ZM245.027 42.0703H248.566V53.0156C248.566 54.3828 248.883 55.4062 249.516 56.0859C250.148 56.7656 251.008 57.1055 252.094 57.1055C252.789 57.1055 253.406 56.9688 253.945 56.6953C254.484 56.4219 254.914 55.9766 255.234 55.3594C255.562 54.7422 255.727 53.9609 255.727 53.0156V42.0703H259.277V53.5312C259.277 55.7188 258.68 57.4023 257.484 58.582C256.289 59.7617 254.539 60.3516 252.234 60.3516C250.906 60.3516 249.668 60.1406 248.52 59.7188C247.91 59.4922 247.402 59.1953 246.996 58.8281C246.434 58.3125 245.965 57.6562 245.59 56.8594C245.215 56.0547 245.027 54.9766 245.027 53.625V42.0703ZM267.559 54.9844C268.152 55.8984 268.734 56.5352 269.305 56.8945C269.883 57.2539 270.562 57.4336 271.344 57.4336C272.281 57.4336 273.012 57.2031 273.535 56.7422C274.059 56.2734 274.32 55.7227 274.32 55.0898C274.32 54.5352 274.113 54.0469 273.699 53.625C273.277 53.2031 272.336 52.7969 270.875 52.4062C268.883 51.8828 267.457 51.2422 266.598 50.4844C265.527 49.5312 264.992 48.3516 264.992 46.9453C264.992 45.4375 265.527 44.1914 266.598 43.207C267.668 42.2148 269.137 41.7188 271.004 41.7188C272.066 41.7188 273.012 41.8984 273.84 42.2578C274.676 42.6094 275.383 43.0625 275.961 43.6172C276.336 43.9844 276.711 44.4883 277.086 45.1289L274.133 46.3359C273.633 45.625 273.121 45.1055 272.598 44.7773C272.074 44.4492 271.492 44.2852 270.852 44.2852C270.062 44.2852 269.43 44.5078 268.953 44.9531C268.484 45.3906 268.25 45.9219 268.25 46.5469C268.25 47.0469 268.445 47.4766 268.836 47.8359C269.219 48.1953 270.18 48.5664 271.719 48.9492C273.258 49.332 274.422 49.7773 275.211 50.2852C276.008 50.793 276.602 51.4531 276.992 52.2656C277.391 53.0781 277.59 53.9141 277.59 54.7734C277.59 55.6797 277.336 56.5898 276.828 57.5039C276.32 58.418 275.566 59.1211 274.566 59.6133C273.566 60.1055 272.418 60.3516 271.121 60.3516C269.895 60.3516 268.828 60.1484 267.922 59.7422C267.023 59.3281 266.262 58.7734 265.637 58.0781C265.23 57.6328 264.82 57.0117 264.406 56.2148L267.559 54.9844Z" fill="url(#paint8_linear_3077_5320)"/>
<path d="M122.391 68.0469H126.172C127.521 68.0469 128.526 68.1562 129.188 68.375C129.854 68.5938 130.391 68.9766 130.797 69.5234C131.208 70.0651 131.414 70.7292 131.414 71.5156C131.414 72.125 131.297 72.6875 131.062 73.2031C130.88 73.5938 130.602 73.9401 130.227 74.2422C129.857 74.5443 129.484 74.7708 129.109 74.9219C128.474 75.1823 127.724 75.3125 126.859 75.3125H124.766V80H122.391V68.0469ZM124.766 70.1172V73.3594H126.688C127.406 73.3594 128.005 73.1615 128.484 72.7656C128.802 72.5052 128.961 72.1302 128.961 71.6406C128.961 71.1875 128.792 70.8203 128.453 70.5391C128.115 70.2578 127.547 70.1172 126.75 70.1172H124.766ZM135.617 68.0469H138.844C140.578 68.0469 141.776 68.1771 142.438 68.4375C143.104 68.6979 143.622 69.1276 143.992 69.7266C144.362 70.3255 144.547 71.013 144.547 71.7891C144.547 72.5026 144.38 73.0938 144.047 73.5625C143.714 74.026 143.135 74.4245 142.312 74.7578L144.461 80H142.133L140.133 75.1953H137.977V80H135.617V68.0469ZM137.977 70.1328V73.3516H139.859C140.547 73.3516 141.133 73.1562 141.617 72.7656C141.935 72.5052 142.094 72.1432 142.094 71.6797C142.094 71.237 141.917 70.8698 141.562 70.5781C141.208 70.2812 140.641 70.1328 139.859 70.1328H137.977ZM152.953 67.8125C154.078 67.8125 154.984 68 155.672 68.375C156.573 68.8646 157.26 69.5677 157.734 70.4844C158.208 71.401 158.445 72.6042 158.445 74.0938C158.445 76.1146 157.969 77.6432 157.016 78.6797C156.062 79.7161 154.802 80.2344 153.234 80.2344C151.651 80.2344 150.37 79.7083 149.391 78.6562C148.417 77.599 147.93 76.0573 147.93 74.0312C147.93 72.8125 148.128 71.7188 148.523 70.75C148.737 70.2135 149.062 69.7135 149.5 69.25C149.943 68.7865 150.456 68.4323 151.039 68.1875C151.628 67.9375 152.266 67.8125 152.953 67.8125ZM153.188 69.8594C152.38 69.8594 151.714 70.1823 151.188 70.8281C150.661 71.474 150.398 72.5417 150.398 74.0312C150.398 75.4948 150.664 76.5469 151.195 77.1875C151.732 77.8281 152.417 78.1484 153.25 78.1484C154.042 78.1484 154.701 77.8307 155.227 77.1953C155.753 76.5547 156.016 75.5078 156.016 74.0547C156.016 72.4297 155.695 71.2865 155.055 70.625C154.56 70.1146 153.938 69.8594 153.188 69.8594ZM162.578 68.0469H166.359C167.708 68.0469 168.714 68.1562 169.375 68.375C170.042 68.5938 170.578 68.9766 170.984 69.5234C171.396 70.0651 171.602 70.7292 171.602 71.5156C171.602 72.125 171.484 72.6875 171.25 73.2031C171.068 73.5938 170.789 73.9401 170.414 74.2422C170.044 74.5443 169.672 74.7708 169.297 74.9219C168.661 75.1823 167.911 75.3125 167.047 75.3125H164.953V80H162.578V68.0469ZM164.953 70.1172V73.3594H166.875C167.594 73.3594 168.193 73.1615 168.672 72.7656C168.99 72.5052 169.148 72.1302 169.148 71.6406C169.148 71.1875 168.979 70.8203 168.641 70.5391C168.302 70.2578 167.734 70.1172 166.938 70.1172H164.953ZM175.781 68.0469H183.797V70.125H178.133V72.7578H181.586V74.5312H178.133V77.9375H183.797V80H175.781V68.0469ZM187.961 68.0469H191.188C192.922 68.0469 194.12 68.1771 194.781 68.4375C195.448 68.6979 195.966 69.1276 196.336 69.7266C196.706 70.3255 196.891 71.013 196.891 71.7891C196.891 72.5026 196.724 73.0938 196.391 73.5625C196.057 74.026 195.479 74.4245 194.656 74.7578L196.805 80H194.477L192.477 75.1953H190.32V80H187.961V68.0469ZM190.32 70.1328V73.3516H192.203C192.891 73.3516 193.477 73.1562 193.961 72.7656C194.279 72.5052 194.438 72.1432 194.438 71.6797C194.438 71.237 194.26 70.8698 193.906 70.5781C193.552 70.2812 192.984 70.1328 192.203 70.1328H190.32ZM200.086 68.0469H209.148V70.1016H205.781V80H203.438V70.1016H200.086V68.0469ZM213.266 68.0469H215.609V80H213.266V68.0469ZM220.625 68.0469H228.641V70.125H222.977V72.7578H226.43V74.5312H222.977V77.9375H228.641V80H220.625V68.0469ZM234.227 76.6562C234.622 77.2656 235.01 77.6901 235.391 77.9297C235.776 78.1693 236.229 78.2891 236.75 78.2891C237.375 78.2891 237.862 78.1354 238.211 77.8281C238.56 77.5156 238.734 77.1484 238.734 76.7266C238.734 76.3568 238.596 76.0312 238.32 75.75C238.039 75.4688 237.411 75.1979 236.438 74.9375C235.109 74.5885 234.159 74.1615 233.586 73.6562C232.872 73.0208 232.516 72.2344 232.516 71.2969C232.516 70.2917 232.872 69.4609 233.586 68.8047C234.299 68.1432 235.279 67.8125 236.523 67.8125C237.232 67.8125 237.862 67.9323 238.414 68.1719C238.971 68.4062 239.443 68.7083 239.828 69.0781C240.078 69.3229 240.328 69.6589 240.578 70.0859L238.609 70.8906C238.276 70.4167 237.935 70.0703 237.586 69.8516C237.237 69.6328 236.849 69.5234 236.422 69.5234C235.896 69.5234 235.474 69.6719 235.156 69.9688C234.844 70.2604 234.688 70.6146 234.688 71.0312C234.688 71.3646 234.818 71.651 235.078 71.8906C235.333 72.1302 235.974 72.3776 237 72.6328C238.026 72.888 238.802 73.1849 239.328 73.5234C239.859 73.862 240.255 74.3021 240.516 74.8438C240.781 75.3854 240.914 75.9427 240.914 76.5156C240.914 77.1198 240.745 77.7266 240.406 78.3359C240.068 78.9453 239.565 79.4141 238.898 79.7422C238.232 80.0703 237.466 80.2344 236.602 80.2344C235.784 80.2344 235.073 80.099 234.469 79.8281C233.87 79.5521 233.362 79.1823 232.945 78.7188C232.674 78.4219 232.401 78.0078 232.125 77.4766L234.227 76.6562Z" fill="white"/>
<line x1="110.5" y1="12" x2="110.5" y2="91" stroke="white"/>
<defs>
<linearGradient id="paint0_linear_3077_5320" x1="76.9775" y1="37.5896" x2="76.9775" y2="58.5976" gradientUnits="userSpaceOnUse">
<stop stop-color="#D4CFC9"/>
<stop offset="0.92" stop-color="#6E6B68"/>
</linearGradient>
<linearGradient id="paint1_linear_3077_5320" x1="47.8373" y1="69.9082" x2="47.8373" y2="83.9135" gradientUnits="userSpaceOnUse">
<stop stop-color="#D4CFC9"/>
<stop offset="0.92" stop-color="#6E6B68"/>
</linearGradient>
<linearGradient id="paint2_linear_3077_5320" x1="26.8887" y1="44.8616" x2="26.8887" y2="66.4082" gradientUnits="userSpaceOnUse">
<stop stop-color="#D4CFC9"/>
<stop offset="0.92" stop-color="#6E6B68"/>
</linearGradient>
<linearGradient id="paint3_linear_3077_5320" x1="52.5375" y1="19.5452" x2="52.5375" y2="59.1372" gradientUnits="userSpaceOnUse">
<stop stop-color="#D4CFC9"/>
<stop offset="0.92" stop-color="#6E6B68"/>
</linearGradient>
<linearGradient id="paint4_linear_3077_5320" x1="51.7319" y1="5" x2="51.7319" y2="26.2773" gradientUnits="userSpaceOnUse">
<stop stop-color="#D4CFC9"/>
<stop offset="0.92" stop-color="#6E6B68"/>
</linearGradient>
<linearGradient id="paint5_linear_3077_5320" x1="88.1228" y1="30.3167" x2="88.1228" y2="73.9486" gradientUnits="userSpaceOnUse">
<stop stop-color="#D4CFC9"/>
<stop offset="0.92" stop-color="#6E6B68"/>
</linearGradient>
<linearGradient id="paint6_linear_3077_5320" x1="16.1458" y1="30.5872" x2="16.1458" y2="73.9498" gradientUnits="userSpaceOnUse">
<stop stop-color="#D4CFC9"/>
<stop offset="0.92" stop-color="#6E6B68"/>
</linearGradient>
<linearGradient id="paint7_linear_3077_5320" x1="51.4629" y1="37.3228" x2="51.4629" y2="99.0001" gradientUnits="userSpaceOnUse">
<stop stop-color="#D4CFC9"/>
<stop offset="0.92" stop-color="#6E6B68"/>
</linearGradient>
<linearGradient id="paint8_linear_3077_5320" x1="200.5" y1="44" x2="200.5" y2="59" gradientUnits="userSpaceOnUse">
<stop stop-color="#D4CFC9"/>
<stop offset="0.92" stop-color="#6E6B68"/>
</linearGradient>
</defs>
</svg>
