<svg width="80" height="86" viewBox="0 0 80 86" fill="none" xmlns="http://www.w3.org/2000/svg">
<path d="M48.9102 17.9551L55.3371 24.382L52.1237 27.5954" stroke="#D4CFC9" stroke-width="3"/>
<path d="M33.9551 32.7856L40.382 39.2125L43.4719 36.1227" stroke="#D4CFC9" stroke-width="3"/>
<path d="M28.7637 21.292L25.6739 24.3818L29.0727 27.7807M32.4716 31.1795L29.0727 27.7807M29.0727 27.7807L32.4716 24.3818" stroke="#D4CFC9" stroke-width="3"/>
<path d="M47.0558 27.8431L34.6964 15.4837L40.5053 9.6748L46.3142 15.4837L41.3704 20.4275" stroke="#D4CFC9" stroke-width="3"/>
<path d="M30.7413 12.7639L40.5052 3L50.2691 12.7639" stroke="#D4CFC9" stroke-width="3"/>
<path d="M52.2471 14.6177L61.6403 24.0108L62.2583 24.6288L52.2471 34.6399" stroke="#D4CFC9" stroke-width="3"/>
<path d="M28.6404 14.7417L19.0001 24.382L28.146 33.528L28.6404 34.0224L29.2584 34.6403" stroke="#D4CFC9" stroke-width="3"/>
<path d="M30.6182 36.3716L40.3822 46.1356L50.1461 36.3716M30.6182 17.8325L46.1911 33.4054L50.1461 29.4504" stroke="#D4CFC9" stroke-width="3"/>
<path d="M22.2695 52.5586H24.8564V52.9863H22.6973V54.4365H24.2939V54.8672H22.6973V57H22.2695V52.5586ZM27.7354 52.5586H28.1631V56.5635H30.3018V57H27.7354V52.5586ZM34.2998 57.0879C33.7861 57.0879 33.3623 56.9004 33.0283 56.5254C32.6377 56.084 32.4424 55.5146 32.4424 54.8174C32.4424 54.376 32.5205 53.9668 32.6768 53.5898C32.835 53.2129 33.0586 52.9326 33.3477 52.749C33.6387 52.5654 33.957 52.4736 34.3027 52.4736C34.6035 52.4736 34.8701 52.541 35.1025 52.6758C35.335 52.8086 35.5254 52.9824 35.6738 53.1973C35.8242 53.4102 35.9375 53.6523 36.0137 53.9238C36.0898 54.1953 36.1279 54.4844 36.1279 54.791C36.1279 55.127 36.0869 55.4209 36.0049 55.6729C35.9229 55.9229 35.8232 56.1328 35.7061 56.3027C35.5908 56.4707 35.4736 56.6035 35.3545 56.7012C35.1982 56.832 35.0215 56.9297 34.8242 56.9941C34.6289 57.0566 34.4541 57.0879 34.2998 57.0879ZM34.2559 56.6865C34.6387 56.6865 34.9658 56.5273 35.2373 56.209C35.5107 55.8887 35.6475 55.4219 35.6475 54.8086C35.6475 54.1602 35.498 53.6523 35.1992 53.2852C34.9648 53 34.6592 52.8574 34.2822 52.8574C33.915 52.8574 33.5977 53.0195 33.3301 53.3438C33.0625 53.666 32.9287 54.1484 32.9287 54.791C32.9287 55.4238 33.0605 55.8984 33.3242 56.2148C33.5879 56.5293 33.8984 56.6865 34.2559 56.6865ZM39.1123 52.5586H40.4717C40.8604 52.5586 41.1729 52.6045 41.4092 52.6963C41.6455 52.7881 41.8311 52.9316 41.9658 53.127C42.1025 53.3203 42.1709 53.5342 42.1709 53.7686C42.1709 54.0244 42.0898 54.252 41.9277 54.4512C41.7676 54.6484 41.5234 54.7969 41.1953 54.8965L42.2734 57H41.8105L40.7646 54.9844H39.543V57H39.1123V52.5586ZM39.543 52.9424V54.6035H40.4893C40.7197 54.6035 40.9482 54.5654 41.1748 54.4893C41.3389 54.4346 41.4648 54.3428 41.5527 54.2139C41.6426 54.083 41.6875 53.9316 41.6875 53.7598C41.6875 53.5215 41.6006 53.3262 41.4268 53.1738C41.2549 53.0195 40.9951 52.9424 40.6475 52.9424H39.543ZM45.2871 52.5586H45.7178V57H45.2871V52.5586ZM49.1152 52.5586H50.3896C51.0361 52.5586 51.5469 52.751 51.9219 53.1357C52.2988 53.5205 52.4873 54.0547 52.4873 54.7383C52.4873 55.0879 52.4414 55.4092 52.3496 55.7021C52.2812 55.9229 52.1846 56.1133 52.0596 56.2734C51.9346 56.4336 51.793 56.5674 51.6348 56.6748C51.5195 56.751 51.3828 56.8164 51.2246 56.8711C50.9668 56.957 50.6377 57 50.2373 57H49.1152V52.5586ZM49.54 52.9453V56.6074H50.4805C50.8516 56.6074 51.1787 56.4883 51.4619 56.25C51.8213 55.9512 52.001 55.4619 52.001 54.7822C52.001 54.0889 51.8164 53.5898 51.4473 53.2852C51.1738 53.0586 50.8291 52.9453 50.4131 52.9453H49.54ZM56.1221 52.5586H56.8135L58.2373 57H57.8037L57.3555 55.623H55.5654L55.1172 57H54.6807L56.1221 52.5586ZM56.4678 52.8516L55.7031 55.1924H57.2178L56.4678 52.8516Z" fill="white"/>
<path d="M9.01562 64.0234H10.1836V68.9688H12.6523V70H9.01562V64.0234ZM15.0938 64.0234H16.2734V67.6719C16.2734 68.1276 16.3789 68.4688 16.5898 68.6953C16.8008 68.9219 17.0872 69.0352 17.4492 69.0352C17.681 69.0352 17.8867 68.9896 18.0664 68.8984C18.2461 68.8073 18.3893 68.6589 18.4961 68.4531C18.6055 68.2474 18.6602 67.987 18.6602 67.6719V64.0234H19.8438V67.8438C19.8438 68.5729 19.6445 69.1341 19.2461 69.5273C18.8477 69.9206 18.2643 70.1172 17.4961 70.1172C17.0534 70.1172 16.6406 70.0469 16.2578 69.9062C16.0547 69.8307 15.8854 69.7318 15.75 69.6094C15.5625 69.4375 15.4062 69.2188 15.2812 68.9531C15.1562 68.6849 15.0938 68.3255 15.0938 67.875V64.0234ZM22.9297 64.0234H24.0977L25.1914 65.875L26.2812 64.0234H27.4492L25.7812 66.875L27.6094 70H26.4375L25.1914 67.8789L23.9531 70H22.7695L24.6055 66.875L22.9297 64.0234ZM30.5859 64.0234H31.7656V67.6719C31.7656 68.1276 31.8711 68.4688 32.082 68.6953C32.293 68.9219 32.5794 69.0352 32.9414 69.0352C33.1732 69.0352 33.3789 68.9896 33.5586 68.8984C33.7383 68.8073 33.8815 68.6589 33.9883 68.4531C34.0977 68.2474 34.1523 67.987 34.1523 67.6719V64.0234H35.3359V67.8438C35.3359 68.5729 35.1367 69.1341 34.7383 69.5273C34.3398 69.9206 33.7565 70.1172 32.9883 70.1172C32.5456 70.1172 32.1328 70.0469 31.75 69.9062C31.5469 69.8307 31.3776 69.7318 31.2422 69.6094C31.0547 69.4375 30.8984 69.2188 30.7734 68.9531C30.6484 68.6849 30.5859 68.3255 30.5859 67.875V64.0234ZM38.7188 64.0234H40.332C41.1992 64.0234 41.7982 64.0885 42.1289 64.2188C42.4622 64.349 42.7214 64.5638 42.9062 64.8633C43.0911 65.1628 43.1836 65.5065 43.1836 65.8945C43.1836 66.2513 43.1003 66.5469 42.9336 66.7812C42.7669 67.013 42.4779 67.2122 42.0664 67.3789L43.1406 70H41.9766L40.9766 67.5977H39.8984V70H38.7188V64.0234ZM39.8984 65.0664V66.6758H40.8398C41.1836 66.6758 41.4766 66.5781 41.7188 66.3828C41.8776 66.2526 41.957 66.0716 41.957 65.8398C41.957 65.6185 41.8685 65.4349 41.6914 65.2891C41.5143 65.1406 41.2305 65.0664 40.8398 65.0664H39.8984ZM46.3711 64.0234H47.543V70H46.3711V64.0234ZM53.2227 63.9062C53.7852 63.9062 54.2383 64 54.582 64.1875C55.0326 64.4323 55.3763 64.7839 55.6133 65.2422C55.8503 65.7005 55.9688 66.3021 55.9688 67.0469C55.9688 68.0573 55.7305 68.8216 55.2539 69.3398C54.7773 69.8581 54.1471 70.1172 53.3633 70.1172C52.5716 70.1172 51.931 69.8542 51.4414 69.3281C50.9544 68.7995 50.7109 68.0286 50.7109 67.0156C50.7109 66.4062 50.8099 65.8594 51.0078 65.375C51.1146 65.1068 51.2773 64.8568 51.4961 64.625C51.7174 64.3932 51.974 64.2161 52.2656 64.0938C52.5599 63.9688 52.8789 63.9062 53.2227 63.9062ZM53.3398 64.9297C52.9362 64.9297 52.6029 65.0911 52.3398 65.4141C52.0768 65.737 51.9453 66.2708 51.9453 67.0156C51.9453 67.7474 52.0781 68.2734 52.3438 68.5938C52.612 68.9141 52.9544 69.0742 53.3711 69.0742C53.7669 69.0742 54.0964 68.9154 54.3594 68.5977C54.6224 68.2773 54.7539 67.7539 54.7539 67.0273C54.7539 66.2148 54.5938 65.6432 54.2734 65.3125C54.026 65.0573 53.7148 64.9297 53.3398 64.9297ZM59.0078 64.0234H60.1875V67.6719C60.1875 68.1276 60.293 68.4688 60.5039 68.6953C60.7148 68.9219 61.0013 69.0352 61.3633 69.0352C61.5951 69.0352 61.8008 68.9896 61.9805 68.8984C62.1602 68.8073 62.3034 68.6589 62.4102 68.4531C62.5195 68.2474 62.5742 67.987 62.5742 67.6719V64.0234H63.7578V67.8438C63.7578 68.5729 63.5586 69.1341 63.1602 69.5273C62.7617 69.9206 62.1784 70.1172 61.4102 70.1172C60.9674 70.1172 60.5547 70.0469 60.1719 69.9062C59.9688 69.8307 59.7995 69.7318 59.6641 69.6094C59.4766 69.4375 59.3203 69.2188 59.1953 68.9531C59.0703 68.6849 59.0078 68.3255 59.0078 67.875V64.0234ZM67.8516 68.3281C68.0495 68.6328 68.2435 68.8451 68.4336 68.9648C68.6263 69.0846 68.8529 69.1445 69.1133 69.1445C69.4258 69.1445 69.6693 69.0677 69.8438 68.9141C70.0182 68.7578 70.1055 68.5742 70.1055 68.3633C70.1055 68.1784 70.0365 68.0156 69.8984 67.875C69.7578 67.7344 69.444 67.599 68.957 67.4688C68.293 67.2943 67.8177 67.0807 67.5312 66.8281C67.1745 66.5104 66.9961 66.1172 66.9961 65.6484C66.9961 65.1458 67.1745 64.7305 67.5312 64.4023C67.888 64.0716 68.3776 63.9062 69 63.9062C69.3542 63.9062 69.6693 63.9661 69.9453 64.0859C70.224 64.2031 70.4596 64.3542 70.6523 64.5391C70.7773 64.6615 70.9023 64.8294 71.0273 65.043L70.043 65.4453C69.8763 65.2083 69.7057 65.0352 69.5312 64.9258C69.3568 64.8164 69.1628 64.7617 68.9492 64.7617C68.6862 64.7617 68.4753 64.8359 68.3164 64.9844C68.1602 65.1302 68.082 65.3073 68.082 65.5156C68.082 65.6823 68.1471 65.8255 68.2773 65.9453C68.4049 66.0651 68.7253 66.1888 69.2383 66.3164C69.7513 66.444 70.1393 66.5924 70.4023 66.7617C70.668 66.931 70.8659 67.151 70.9961 67.4219C71.1289 67.6927 71.1953 67.9714 71.1953 68.2578C71.1953 68.5599 71.1107 68.8633 70.9414 69.168C70.7721 69.4727 70.5208 69.707 70.1875 69.8711C69.8542 70.0352 69.4714 70.1172 69.0391 70.1172C68.6302 70.1172 68.2747 70.0495 67.9727 69.9141C67.6732 69.776 67.4193 69.5911 67.2109 69.3594C67.0755 69.2109 66.9388 69.0039 66.8008 68.7383L67.8516 68.3281Z" fill="white"/>
<path d="M12.7354 77.5176H14.1533C14.6592 77.5176 15.0361 77.5586 15.2842 77.6406C15.5342 77.7227 15.7354 77.8662 15.8877 78.0713C16.042 78.2744 16.1191 78.5234 16.1191 78.8184C16.1191 79.0469 16.0752 79.2578 15.9873 79.4512C15.9189 79.5977 15.8145 79.7275 15.6738 79.8408C15.5352 79.9541 15.3955 80.0391 15.2549 80.0957C15.0166 80.1934 14.7354 80.2422 14.4111 80.2422H13.626V82H12.7354V77.5176ZM13.626 78.2939V79.5098H14.3467C14.6162 79.5098 14.8408 79.4355 15.0205 79.2871C15.1396 79.1895 15.1992 79.0488 15.1992 78.8652C15.1992 78.6953 15.1357 78.5576 15.0088 78.4521C14.8818 78.3467 14.6689 78.2939 14.3701 78.2939H13.626ZM18.9453 77.5176H20.1553C20.8057 77.5176 21.2549 77.5664 21.5029 77.6641C21.7529 77.7617 21.9473 77.9229 22.0859 78.1475C22.2246 78.3721 22.2939 78.6299 22.2939 78.9209C22.2939 79.1885 22.2314 79.4102 22.1064 79.5859C21.9814 79.7598 21.7646 79.9092 21.4561 80.0342L22.2617 82H21.3887L20.6387 80.1982H19.8301V82H18.9453V77.5176ZM19.8301 78.2998V79.5068H20.5361C20.7939 79.5068 21.0137 79.4336 21.1953 79.2871C21.3145 79.1895 21.374 79.0537 21.374 78.8799C21.374 78.7139 21.3076 78.5762 21.1748 78.4668C21.042 78.3555 20.8291 78.2998 20.5361 78.2998H19.8301ZM26.6963 77.4297C27.1182 77.4297 27.458 77.5 27.7158 77.6406C28.0537 77.8242 28.3115 78.0879 28.4893 78.4316C28.667 78.7754 28.7559 79.2266 28.7559 79.7852C28.7559 80.543 28.5771 81.1162 28.2197 81.5049C27.8623 81.8936 27.3896 82.0879 26.8018 82.0879C26.208 82.0879 25.7275 81.8906 25.3604 81.4961C24.9951 81.0996 24.8125 80.5215 24.8125 79.7617C24.8125 79.3047 24.8867 78.8945 25.0352 78.5312C25.1152 78.3301 25.2373 78.1426 25.4014 77.9688C25.5674 77.7949 25.7598 77.6621 25.9785 77.5703C26.1992 77.4766 26.4385 77.4297 26.6963 77.4297ZM26.7842 78.1973C26.4814 78.1973 26.2314 78.3184 26.0342 78.5605C25.8369 78.8027 25.7383 79.2031 25.7383 79.7617C25.7383 80.3105 25.8379 80.7051 26.0371 80.9453C26.2383 81.1855 26.4951 81.3057 26.8076 81.3057C27.1045 81.3057 27.3516 81.1865 27.5488 80.9482C27.7461 80.708 27.8447 80.3154 27.8447 79.7705C27.8447 79.1611 27.7246 78.7324 27.4844 78.4844C27.2988 78.293 27.0654 78.1973 26.7842 78.1973ZM31.5557 77.5176H32.9736C33.4795 77.5176 33.8564 77.5586 34.1045 77.6406C34.3545 77.7227 34.5557 77.8662 34.708 78.0713C34.8623 78.2744 34.9395 78.5234 34.9395 78.8184C34.9395 79.0469 34.8955 79.2578 34.8076 79.4512C34.7393 79.5977 34.6348 79.7275 34.4941 79.8408C34.3555 79.9541 34.2158 80.0391 34.0752 80.0957C33.8369 80.1934 33.5557 80.2422 33.2314 80.2422H32.4463V82H31.5557V77.5176ZM32.4463 78.2939V79.5098H33.167C33.4365 79.5098 33.6611 79.4355 33.8408 79.2871C33.96 79.1895 34.0195 79.0488 34.0195 78.8652C34.0195 78.6953 33.9561 78.5576 33.8291 78.4521C33.7021 78.3467 33.4893 78.2939 33.1904 78.2939H32.4463ZM37.7568 77.5176H40.7627V78.2969H38.6387V79.2842H39.9336V79.9492H38.6387V81.2266H40.7627V82H37.7568V77.5176ZM43.5742 77.5176H44.7842C45.4346 77.5176 45.8838 77.5664 46.1318 77.6641C46.3818 77.7617 46.5762 77.9229 46.7148 78.1475C46.8535 78.3721 46.9229 78.6299 46.9229 78.9209C46.9229 79.1885 46.8604 79.4102 46.7354 79.5859C46.6104 79.7598 46.3936 79.9092 46.085 80.0342L46.8906 82H46.0176L45.2676 80.1982H44.459V82H43.5742V77.5176ZM44.459 78.2998V79.5068H45.165C45.4229 79.5068 45.6426 79.4336 45.8242 79.2871C45.9434 79.1895 46.0029 79.0537 46.0029 78.8799C46.0029 78.7139 45.9365 78.5762 45.8037 78.4668C45.6709 78.3555 45.458 78.2998 45.165 78.2998H44.459ZM49.3711 77.5176H52.7695V78.2881H51.5068V82H50.6279V78.2881H49.3711V77.5176ZM55.5635 77.5176H56.4424V82H55.5635V77.5176ZM59.5732 77.5176H62.5791V78.2969H60.4551V79.2842H61.75V79.9492H60.4551V81.2266H62.5791V82H59.5732V77.5176ZM65.9238 80.7461C66.0723 80.9746 66.2178 81.1338 66.3604 81.2236C66.5049 81.3135 66.6748 81.3584 66.8701 81.3584C67.1045 81.3584 67.2871 81.3008 67.418 81.1855C67.5488 81.0684 67.6143 80.9307 67.6143 80.7725C67.6143 80.6338 67.5625 80.5117 67.459 80.4062C67.3535 80.3008 67.1182 80.1992 66.7529 80.1016C66.2549 79.9707 65.8984 79.8105 65.6836 79.6211C65.416 79.3828 65.2822 79.0879 65.2822 78.7363C65.2822 78.3594 65.416 78.0479 65.6836 77.8018C65.9512 77.5537 66.3184 77.4297 66.7852 77.4297C67.0508 77.4297 67.2871 77.4746 67.4941 77.5645C67.7031 77.6523 67.8799 77.7656 68.0244 77.9043C68.1182 77.9961 68.2119 78.1221 68.3057 78.2822L67.5674 78.584C67.4424 78.4062 67.3145 78.2764 67.1836 78.1943C67.0527 78.1123 66.9072 78.0713 66.7471 78.0713C66.5498 78.0713 66.3916 78.127 66.2725 78.2383C66.1553 78.3477 66.0967 78.4805 66.0967 78.6367C66.0967 78.7617 66.1455 78.8691 66.2432 78.959C66.3389 79.0488 66.5791 79.1416 66.9639 79.2373C67.3486 79.333 67.6396 79.4443 67.8369 79.5713C68.0361 79.6982 68.1846 79.8633 68.2822 80.0664C68.3818 80.2695 68.4316 80.4785 68.4316 80.6934C68.4316 80.9199 68.3682 81.1475 68.2412 81.376C68.1143 81.6045 67.9258 81.7803 67.6758 81.9033C67.4258 82.0264 67.1387 82.0879 66.8145 82.0879C66.5078 82.0879 66.2412 82.0371 66.0146 81.9355C65.79 81.832 65.5996 81.6934 65.4434 81.5195C65.3418 81.4082 65.2393 81.2529 65.1357 81.0537L65.9238 80.7461Z" fill="white"/>
</svg>
