<svg width="81" height="154" viewBox="0 0 81 154" fill="none" xmlns="http://www.w3.org/2000/svg">
<path d="M2.16508 12.9356C1.47341 12.2036 0.932678 11.3426 0.573761 10.4017C0.214844 9.46078 0.0447617 8.45838 0.0732422 7.45173C0.101715 6.44508 0.328186 5.4539 0.739723 4.53477C1.15126 3.61565 1.73981 2.78658 2.47175 2.09491C3.20369 1.40324 4.06471 0.862505 5.00563 0.503587C5.94655 0.144668 6.94894 -0.02541 7.9556 0.00306668C8.96224 0.0315433 9.95343 0.258015 10.8726 0.669552C11.7917 1.08109 12.6207 1.66963 13.3124 2.40158L78.4791 71.4016C79.8249 72.825 80.5747 74.7097 80.5747 76.6686C80.5747 78.6275 79.8249 80.5121 78.4791 81.9356L13.3124 150.943C12.6253 151.691 11.7964 152.295 10.8739 152.72C9.95142 153.145 8.95368 153.382 7.93865 153.418C6.92363 153.455 5.91155 153.289 4.96122 152.93C4.01089 152.572 3.14123 152.028 2.40277 151.331C1.66431 150.634 1.07177 149.796 0.659561 148.868C0.247353 147.94 0.0236969 146.939 0.00158691 145.924C-0.0205307 144.908 0.15934 143.898 0.530739 142.953C0.902145 142.008 1.45768 141.146 2.16508 140.417L62.3637 76.6686L2.16508 12.9356Z" fill="#D4CFC9"/>
</svg>
